# MagicaVoxel @ Ephtracy

# group
o 

# material
mtllib backpack.vox.mtl
usemtl palette

# normals
vn -1 0 0
vn 1 0 0
vn 0 0 1
vn 0 0 -1
vn 0 -1 0
vn 0 1 0

# texcoords
vt 0.751953 0.5
vt 0.982422 0.5

# verts
v -0.6 0.1 -0.1
v -0.6 0.1 -0.7
v -0.6 0.3 -0.1
v -0.6 0.3 -0.7
v -0.6 0.7 -0.2
v -0.6 0.7 -0.3
v -0.6 1.3 -0.1
v -0.6 1.3 -0.2
v -0.6 1.3 -0.3
v -0.6 1.3 -0.7
v -0.5 0 0.1
v -0.5 0 -0.7
v -0.5 0.1 -0.1
v -0.5 0.1 -0.7
v -0.5 0.3 0.1
v -0.5 0.3 -0.1
v -0.5 0.8 0.1
v -0.5 0.8 -0.1
v -0.5 1.3 -0.1
v -0.5 1.3 -0.2
v -0.5 1.3 -0.3
v -0.5 1.3 -0.7
v -0.5 1.4 -0.1
v -0.5 1.4 -0.2
v -0.5 1.4 -0.3
v -0.5 1.4 -0.7
v -0.4 0.8 0.1
v -0.4 0.8 -0.1
v -0.4 0.9 0.1
v -0.4 0.9 -0.1
v -0.3 1.4 -0.4
v -0.3 1.4 -0.6
v -0.3 1.6 -0.4
v -0.3 1.6 -0.6
v 0.2 1.4 -0.4
v 0.2 1.4 -0.6
v 0.2 1.5 -0.4
v 0.2 1.5 -0.6
v -0.2 1.4 -0.4
v -0.2 1.4 -0.6
v -0.2 1.5 -0.4
v -0.2 1.5 -0.6
v 0.3 1.4 -0.4
v 0.3 1.4 -0.6
v 0.3 1.6 -0.4
v 0.3 1.6 -0.6
v 0.4 0.8 0.1
v 0.4 0.8 -0.1
v 0.4 0.9 0.1
v 0.4 0.9 -0.1
v 0.5 0 0.1
v 0.5 0 -0.7
v 0.5 0.1 -0.1
v 0.5 0.1 -0.7
v 0.5 0.3 0.1
v 0.5 0.3 -0.1
v 0.5 0.8 0.1
v 0.5 0.8 -0.1
v 0.5 1.3 -0.1
v 0.5 1.3 -0.2
v 0.5 1.3 -0.3
v 0.5 1.3 -0.7
v 0.5 1.4 -0.1
v 0.5 1.4 -0.2
v 0.5 1.4 -0.3
v 0.5 1.4 -0.7
v 0.6 0.1 -0.1
v 0.6 0.1 -0.7
v 0.6 0.3 -0.1
v 0.6 0.3 -0.7
v 0.6 0.7 -0.2
v 0.6 0.7 -0.3
v 0.6 1.3 -0.1
v 0.6 1.3 -0.2
v 0.6 1.3 -0.3
v 0.6 1.3 -0.7
v -0.5 0 0.1
v -0.5 0.3 0.1
v -0.5 0.8 0.1
v -0.4 0.7 0.1
v -0.4 0.8 0.1
v -0.4 0.9 0.1
v 0.4 0.7 0.1
v 0.4 0.8 0.1
v 0.4 0.9 0.1
v 0.5 0 0.1
v 0.5 0.3 0.1
v 0.5 0.8 0.1
v -0.6 0.1 -0.1
v -0.6 0.3 -0.1
v -0.6 1.3 -0.1
v -0.5 0.1 -0.1
v -0.5 0.3 -0.1
v -0.5 0.8 -0.1
v -0.5 1.3 -0.1
v -0.5 1.4 -0.1
v -0.4 0.8 -0.1
v -0.4 0.9 -0.1
v -0.2 1.1 -0.1
v -0.2 1.3 -0.1
v 0.2 1.1 -0.1
v 0.2 1.3 -0.1
v 0.4 0.8 -0.1
v 0.4 0.9 -0.1
v 0.5 0.1 -0.1
v 0.5 0.3 -0.1
v 0.5 0.8 -0.1
v 0.5 1.3 -0.1
v 0.5 1.4 -0.1
v 0.6 0.1 -0.1
v 0.6 0.3 -0.1
v 0.6 1.3 -0.1
v -0.3 1.4 -0.4
v -0.3 1.6 -0.4
v -0.2 1.4 -0.4
v -0.2 1.5 -0.4
v 0.2 1.4 -0.4
v 0.2 1.5 -0.4
v 0.3 1.4 -0.4
v 0.3 1.6 -0.4
v -0.3 1.4 -0.6
v -0.3 1.6 -0.6
v -0.2 1.4 -0.6
v -0.2 1.5 -0.6
v 0.2 1.4 -0.6
v 0.2 1.5 -0.6
v 0.3 1.4 -0.6
v 0.3 1.6 -0.6
v -0.6 0.1 -0.7
v -0.6 0.3 -0.7
v -0.6 1.3 -0.7
v -0.5 0 -0.7
v -0.5 0.1 -0.7
v -0.5 1.3 -0.7
v -0.5 1.4 -0.7
v 0.5 0 -0.7
v 0.5 0.1 -0.7
v 0.5 1.3 -0.7
v 0.5 1.4 -0.7
v 0.6 0.1 -0.7
v 0.6 0.3 -0.7
v 0.6 1.3 -0.7
v -0.5 0 0.1
v 0.5 0 0.1
v -0.5 0 -0.7
v 0.5 0 -0.7
v -0.6 0.1 -0.1
v -0.5 0.1 -0.1
v 0.5 0.1 -0.1
v 0.6 0.1 -0.1
v -0.6 0.1 -0.7
v -0.5 0.1 -0.7
v 0.5 0.1 -0.7
v 0.6 0.1 -0.7
v -0.2 1.5 -0.4
v 0.2 1.5 -0.4
v -0.2 1.5 -0.6
v 0.2 1.5 -0.6
v -0.5 0.8 0.1
v -0.4 0.8 0.1
v 0.4 0.8 0.1
v 0.5 0.8 0.1
v -0.5 0.8 -0.1
v -0.4 0.8 -0.1
v 0.4 0.8 -0.1
v 0.5 0.8 -0.1
v -0.4 0.9 0.1
v 0.4 0.9 0.1
v -0.4 0.9 -0.1
v 0.4 0.9 -0.1
v -0.6 1.3 -0.1
v -0.5 1.3 -0.1
v 0.5 1.3 -0.1
v 0.6 1.3 -0.1
v -0.6 1.3 -0.2
v -0.5 1.3 -0.2
v 0.5 1.3 -0.2
v 0.6 1.3 -0.2
v -0.6 1.3 -0.3
v -0.5 1.3 -0.3
v 0.5 1.3 -0.3
v 0.6 1.3 -0.3
v -0.6 1.3 -0.7
v -0.5 1.3 -0.7
v 0.5 1.3 -0.7
v 0.6 1.3 -0.7
v -0.5 1.4 -0.1
v 0.5 1.4 -0.1
v -0.5 1.4 -0.2
v 0.5 1.4 -0.2
v -0.5 1.4 -0.3
v 0.5 1.4 -0.3
v -0.3 1.4 -0.4
v -0.2 1.4 -0.4
v 0.2 1.4 -0.4
v 0.3 1.4 -0.4
v -0.3 1.4 -0.6
v -0.2 1.4 -0.6
v 0.2 1.4 -0.6
v 0.3 1.4 -0.6
v -0.5 1.4 -0.7
v 0.5 1.4 -0.7
v -0.3 1.6 -0.4
v 0.3 1.6 -0.4
v -0.3 1.6 -0.6
v 0.3 1.6 -0.6

# faces
f 3/2/1 2/2/1 1/2/1
f 4/2/1 2/2/1 3/2/1
f 5/1/1 4/1/1 3/1/1
f 6/1/1 4/1/1 5/1/1
f 7/1/1 5/1/1 3/1/1
f 8/2/1 6/2/1 5/2/1
f 8/1/1 5/1/1 7/1/1
f 9/1/1 4/1/1 6/1/1
f 9/2/1 6/2/1 8/2/1
f 10/1/1 4/1/1 9/1/1
f 13/2/1 12/2/1 11/2/1
f 14/2/1 12/2/1 13/2/1
f 15/2/1 13/2/1 11/2/1
f 16/2/1 13/2/1 15/2/1
f 17/1/1 16/1/1 15/1/1
f 18/1/1 16/1/1 17/1/1
f 23/1/1 20/1/1 19/1/1
f 24/2/1 21/2/1 20/2/1
f 24/1/1 20/1/1 23/1/1
f 25/1/1 22/1/1 21/1/1
f 25/2/1 21/2/1 24/2/1
f 26/1/1 22/1/1 25/1/1
f 29/1/1 28/1/1 27/1/1
f 30/1/1 28/1/1 29/1/1
f 33/2/1 32/2/1 31/2/1
f 34/2/1 32/2/1 33/2/1
f 37/2/1 36/2/1 35/2/1
f 38/2/1 36/2/1 37/2/1
f 39/2/2 40/2/2 41/2/2
f 41/2/2 40/2/2 42/2/2
f 43/2/2 44/2/2 45/2/2
f 45/2/2 44/2/2 46/2/2
f 47/1/2 48/1/2 49/1/2
f 49/1/2 48/1/2 50/1/2
f 51/2/2 52/2/2 53/2/2
f 53/2/2 52/2/2 54/2/2
f 51/2/2 53/2/2 55/2/2
f 55/2/2 53/2/2 56/2/2
f 55/1/2 56/1/2 57/1/2
f 57/1/2 56/1/2 58/1/2
f 59/1/2 60/1/2 63/1/2
f 60/2/2 61/2/2 64/2/2
f 63/1/2 60/1/2 64/1/2
f 61/1/2 62/1/2 65/1/2
f 64/2/2 61/2/2 65/2/2
f 65/1/2 62/1/2 66/1/2
f 67/2/2 68/2/2 69/2/2
f 69/2/2 68/2/2 70/2/2
f 69/1/2 70/1/2 71/1/2
f 71/1/2 70/1/2 72/1/2
f 69/1/2 71/1/2 73/1/2
f 71/2/2 72/2/2 74/2/2
f 73/1/2 71/1/2 74/1/2
f 72/1/2 70/1/2 75/1/2
f 74/2/2 72/2/2 75/2/2
f 75/1/2 70/1/2 76/1/2
f 80/1/3 79/1/3 78/1/3
f 81/1/3 79/1/3 80/1/3
f 83/1/3 80/1/3 78/1/3
f 83/2/3 81/2/3 80/2/3
f 84/1/3 82/1/3 81/1/3
f 84/2/3 81/2/3 83/2/3
f 85/1/3 82/1/3 84/1/3
f 86/2/3 78/2/3 77/2/3
f 87/1/3 83/1/3 78/1/3
f 87/2/3 78/2/3 86/2/3
f 87/1/3 84/1/3 83/1/3
f 88/1/3 84/1/3 87/1/3
f 92/2/3 90/2/3 89/2/3
f 93/1/3 91/1/3 90/1/3
f 93/2/3 90/2/3 92/2/3
f 94/1/3 91/1/3 93/1/3
f 95/1/3 91/1/3 94/1/3
f 97/1/3 96/1/3 95/1/3
f 97/1/3 95/1/3 94/1/3
f 98/1/3 96/1/3 97/1/3
f 99/1/3 96/1/3 98/1/3
f 100/1/3 96/1/3 99/1/3
f 101/1/3 99/1/3 98/1/3
f 101/2/3 100/2/3 99/2/3
f 102/1/3 96/1/3 100/1/3
f 102/2/3 100/2/3 101/2/3
f 104/1/3 101/1/3 98/1/3
f 104/1/3 102/1/3 101/1/3
f 107/1/3 104/1/3 103/1/3
f 108/1/3 96/1/3 102/1/3
f 108/1/3 102/1/3 104/1/3
f 108/1/3 104/1/3 107/1/3
f 109/1/3 96/1/3 108/1/3
f 110/2/3 106/2/3 105/2/3
f 111/1/3 107/1/3 106/1/3
f 111/2/3 106/2/3 110/2/3
f 111/1/3 108/1/3 107/1/3
f 112/1/3 108/1/3 111/1/3
f 115/2/3 114/2/3 113/2/3
f 116/2/3 114/2/3 115/2/3
f 118/2/3 114/2/3 116/2/3
f 119/2/3 118/2/3 117/2/3
f 120/2/3 114/2/3 118/2/3
f 120/2/3 118/2/3 119/2/3
f 121/2/4 122/2/4 123/2/4
f 123/2/4 122/2/4 124/2/4
f 124/2/4 122/2/4 126/2/4
f 125/2/4 126/2/4 127/2/4
f 126/2/4 122/2/4 128/2/4
f 127/2/4 126/2/4 128/2/4
f 129/2/4 130/2/4 133/2/4
f 130/1/4 131/1/4 134/1/4
f 132/2/4 133/2/4 136/2/4
f 133/2/4 130/2/4 137/2/4
f 136/2/4 133/2/4 137/2/4
f 134/1/4 135/1/4 138/1/4
f 130/1/4 134/1/4 138/1/4
f 138/1/4 135/1/4 139/1/4
f 137/2/4 130/2/4 140/2/4
f 130/1/4 138/1/4 141/1/4
f 140/2/4 130/2/4 141/2/4
f 141/1/4 138/1/4 142/1/4
f 145/2/5 144/2/5 143/2/5
f 146/2/5 144/2/5 145/2/5
f 151/2/5 148/2/5 147/2/5
f 152/2/5 148/2/5 151/2/5
f 153/2/5 150/2/5 149/2/5
f 154/2/5 150/2/5 153/2/5
f 157/2/5 156/2/5 155/2/5
f 158/2/5 156/2/5 157/2/5
f 159/1/6 160/1/6 163/1/6
f 163/1/6 160/1/6 164/1/6
f 161/1/6 162/1/6 165/1/6
f 165/1/6 162/1/6 166/1/6
f 167/1/6 168/1/6 169/1/6
f 169/1/6 168/1/6 170/1/6
f 171/1/6 172/1/6 175/1/6
f 175/1/6 172/1/6 176/1/6
f 173/1/6 174/1/6 177/1/6
f 177/1/6 174/1/6 178/1/6
f 175/2/6 176/2/6 179/2/6
f 179/2/6 176/2/6 180/2/6
f 177/2/6 178/2/6 181/2/6
f 181/2/6 178/2/6 182/2/6
f 179/1/6 180/1/6 183/1/6
f 183/1/6 180/1/6 184/1/6
f 181/1/6 182/1/6 185/1/6
f 185/1/6 182/1/6 186/1/6
f 187/1/6 188/1/6 189/1/6
f 189/1/6 188/1/6 190/1/6
f 189/2/6 190/2/6 191/2/6
f 191/2/6 190/2/6 192/2/6
f 191/1/6 192/1/6 193/1/6
f 193/1/6 192/1/6 194/1/6
f 194/1/6 192/1/6 195/1/6
f 195/1/6 192/1/6 196/1/6
f 191/1/6 193/1/6 197/1/6
f 194/1/6 195/1/6 198/1/6
f 198/1/6 195/1/6 199/1/6
f 196/1/6 192/1/6 200/1/6
f 198/1/6 199/1/6 201/1/6
f 199/1/6 200/1/6 201/1/6
f 191/1/6 197/1/6 201/1/6
f 197/1/6 198/1/6 201/1/6
f 200/1/6 192/1/6 202/1/6
f 201/1/6 200/1/6 202/1/6
f 203/2/6 204/2/6 205/2/6
f 205/2/6 204/2/6 206/2/6
