# MagicaVoxel @ Ephtracy

# group
o 

# material
mtllib axe.vox.mtl
usemtl palette

# normals
vn -1 0 0
vn 1 0 0
vn 0 0 1
vn 0 0 -1
vn 0 -1 0
vn 0 1 0

# texcoords
vt 0.369141 0.5
vt 0.537109 0.5
vt 0.970703 0.5
vt 0.978516 0.5
vt 0.986328 0.5

# verts
v -0.2 0.4 0.2
v -0.2 0.4 -0.1
v -0.2 0.8 0.2
v -0.2 0.8 -0.1
v -0.1 -0.6 0
v -0.1 -0.6 -0.2
v -0.1 -0.5 0.1
v -0.1 -0.5 0
v -0.1 -0.4 -0.1
v -0.1 -0.4 -0.2
v -0.1 -0.2 0
v -0.1 -0.2 -0.1
v -0.1 0.3 0.1
v -0.1 0.3 0
v -0.1 0.3 -0.1
v -0.1 0.3 -0.3
v -0.1 0.3 -0.5
v -0.1 0.4 0.1
v -0.1 0.4 0
v -0.1 0.4 -0.1
v -0.1 0.4 -0.3
v -0.1 0.4 -0.4
v -0.1 0.5 0.4
v -0.1 0.5 0.2
v -0.1 0.5 -0.3
v -0.1 0.5 -0.4
v -0.1 0.6 0.5
v -0.1 0.6 0.4
v -0.1 0.6 0.3
v -0.1 0.6 0.2
v -0.1 0.6 -0.1
v -0.1 0.6 -0.2
v -0.1 0.6 -0.3
v -0.1 0.6 -0.4
v -0.1 0.7 0.3
v -0.1 0.7 0.2
v -0.1 0.7 -0.1
v -0.1 0.7 -0.2
v -0.1 0.7 -0.3
v -0.1 0.7 -0.4
v -0.1 0.8 0.5
v -0.1 0.8 0.2
v -0.1 0.8 0.1
v -0.1 0.8 0
v -0.1 0.8 -0.1
v -0.1 0.8 -0.3
v -0.1 0.8 -0.5
v -0.1 0.9 0.1
v -0.1 0.9 0
v 0 -0.6 0
v 0 -0.6 -0.2
v 0 -0.5 0.1
v 0 -0.5 0
v 0 -0.4 -0.1
v 0 -0.4 -0.2
v 0 -0.2 0
v 0 -0.2 -0.1
v 0 0.3 0.1
v 0 0.3 0
v 0 0.3 -0.1
v 0 0.3 -0.3
v 0 0.3 -0.5
v 0 0.4 0.1
v 0 0.4 0
v 0 0.4 -0.1
v 0 0.4 -0.3
v 0 0.4 -0.4
v 0 0.5 0.4
v 0 0.5 0.2
v 0 0.5 -0.3
v 0 0.5 -0.4
v 0 0.6 0.5
v 0 0.6 0.4
v 0 0.6 0.3
v 0 0.6 0.2
v 0 0.6 -0.1
v 0 0.6 -0.2
v 0 0.6 -0.3
v 0 0.6 -0.4
v 0 0.7 0.3
v 0 0.7 0.2
v 0 0.7 -0.1
v 0 0.7 -0.2
v 0 0.7 -0.3
v 0 0.7 -0.4
v 0 0.8 0.5
v 0 0.8 0.2
v 0 0.8 0.1
v 0 0.8 0
v 0 0.8 -0.1
v 0 0.8 -0.3
v 0 0.8 -0.5
v 0 0.9 0.1
v 0 0.9 0
v 0.1 0.4 0.2
v 0.1 0.4 -0.1
v 0.1 0.8 0.2
v 0.1 0.8 -0.1
v -0.1 0.6 0.5
v -0.1 0.8 0.5
v 0 0.6 0.5
v 0 0.8 0.5
v -0.1 0.5 0.4
v -0.1 0.6 0.4
v 0 0.5 0.4
v 0 0.6 0.4
v -0.2 0.4 0.2
v -0.2 0.8 0.2
v -0.1 0.5 0.2
v -0.1 0.6 0.2
v -0.1 0.7 0.2
v -0.1 0.8 0.2
v 0 0.5 0.2
v 0 0.6 0.2
v 0 0.7 0.2
v 0 0.8 0.2
v 0.1 0.4 0.2
v 0.1 0.8 0.2
v -0.1 -0.5 0.1
v -0.1 0.3 0.1
v -0.1 0.4 0.1
v -0.1 0.8 0.1
v -0.1 0.9 0.1
v 0 -0.5 0.1
v 0 0.3 0.1
v 0 0.4 0.1
v 0 0.8 0.1
v 0 0.9 0.1
v -0.1 -0.6 0
v -0.1 -0.5 0
v 0 -0.6 0
v 0 -0.5 0
v -0.1 0.3 -0.1
v -0.1 0.4 -0.1
v 0 0.3 -0.1
v 0 0.4 -0.1
v -0.1 -0.2 0
v -0.1 0.3 0
v -0.1 0.4 0
v -0.1 0.8 0
v -0.1 0.9 0
v 0 -0.2 0
v 0 0.3 0
v 0 0.4 0
v 0 0.8 0
v 0 0.9 0
v -0.2 0.4 -0.1
v -0.2 0.8 -0.1
v -0.1 -0.4 -0.1
v -0.1 -0.2 -0.1
v -0.1 0.4 -0.1
v -0.1 0.6 -0.1
v -0.1 0.7 -0.1
v -0.1 0.8 -0.1
v 0 -0.4 -0.1
v 0 -0.2 -0.1
v 0 0.4 -0.1
v 0 0.6 -0.1
v 0 0.7 -0.1
v 0 0.8 -0.1
v 0.1 0.4 -0.1
v 0.1 0.8 -0.1
v -0.1 -0.6 -0.2
v -0.1 -0.4 -0.2
v 0 -0.6 -0.2
v 0 -0.4 -0.2
v -0.1 0.3 -0.5
v -0.1 0.8 -0.5
v 0 0.3 -0.5
v 0 0.8 -0.5
v -0.1 -0.6 0
v 0 -0.6 0
v -0.1 -0.6 -0.2
v 0 -0.6 -0.2
v -0.1 -0.5 0.1
v 0 -0.5 0.1
v -0.1 -0.5 0
v 0 -0.5 0
v -0.1 0.3 -0.1
v 0 0.3 -0.1
v -0.1 0.3 -0.3
v 0 0.3 -0.3
v -0.1 0.3 -0.5
v 0 0.3 -0.5
v -0.2 0.4 0.2
v 0.1 0.4 0.2
v -0.1 0.4 0.1
v 0 0.4 0.1
v -0.1 0.4 0
v 0 0.4 0
v -0.2 0.4 -0.1
v -0.1 0.4 -0.1
v 0 0.4 -0.1
v 0.1 0.4 -0.1
v -0.1 0.5 0.4
v 0 0.5 0.4
v -0.1 0.5 0.2
v 0 0.5 0.2
v -0.1 0.6 0.5
v 0 0.6 0.5
v -0.1 0.6 0.4
v 0 0.6 0.4
v -0.1 -0.4 -0.1
v 0 -0.4 -0.1
v -0.1 -0.4 -0.2
v 0 -0.4 -0.2
v -0.1 -0.2 0
v 0 -0.2 0
v -0.1 -0.2 -0.1
v 0 -0.2 -0.1
v -0.1 0.8 0.5
v 0 0.8 0.5
v -0.2 0.8 0.2
v -0.1 0.8 0.2
v 0 0.8 0.2
v 0.1 0.8 0.2
v -0.1 0.8 0.1
v 0 0.8 0.1
v -0.1 0.8 0
v 0 0.8 0
v -0.2 0.8 -0.1
v -0.1 0.8 -0.1
v 0 0.8 -0.1
v 0.1 0.8 -0.1
v -0.1 0.8 -0.3
v 0 0.8 -0.3
v -0.1 0.8 -0.5
v 0 0.8 -0.5
v -0.1 0.9 0.1
v 0 0.9 0.1
v -0.1 0.9 0
v 0 0.9 0

# faces
f 3/5/1 2/5/1 1/5/1
f 4/5/1 2/5/1 3/5/1
f 8/1/1 6/1/1 5/1/1
f 9/1/1 6/1/1 8/1/1
f 9/1/1 8/1/1 7/1/1
f 10/1/1 6/1/1 9/1/1
f 11/1/1 9/1/1 7/1/1
f 12/1/1 9/1/1 11/1/1
f 13/1/1 11/1/1 7/1/1
f 14/1/1 11/1/1 13/1/1
f 18/2/1 14/2/1 13/2/1
f 19/2/1 14/2/1 18/2/1
f 20/4/1 16/4/1 15/4/1
f 21/3/1 17/3/1 16/3/1
f 21/4/1 16/4/1 20/4/1
f 22/3/1 17/3/1 21/3/1
f 25/4/1 21/4/1 20/4/1
f 25/4/1 22/4/1 21/4/1
f 26/3/1 17/3/1 22/3/1
f 26/4/1 22/4/1 25/4/1
f 28/4/1 24/4/1 23/4/1
f 29/4/1 24/4/1 28/4/1
f 30/4/1 24/4/1 29/4/1
f 31/4/1 25/4/1 20/4/1
f 32/4/1 25/4/1 31/4/1
f 33/3/1 26/3/1 25/3/1
f 33/4/1 25/4/1 32/4/1
f 34/3/1 17/3/1 26/3/1
f 34/3/1 26/3/1 33/3/1
f 35/5/1 30/5/1 29/5/1
f 35/4/1 28/4/1 27/4/1
f 35/4/1 29/4/1 28/4/1
f 36/5/1 30/5/1 35/5/1
f 37/5/1 32/5/1 31/5/1
f 38/4/1 33/4/1 32/4/1
f 38/5/1 32/5/1 37/5/1
f 38/4/1 34/4/1 33/4/1
f 39/4/1 34/4/1 38/4/1
f 40/3/1 17/3/1 34/3/1
f 40/4/1 34/4/1 39/4/1
f 41/4/1 36/4/1 35/4/1
f 41/4/1 35/4/1 27/4/1
f 42/4/1 36/4/1 41/4/1
f 45/4/1 39/4/1 38/4/1
f 45/4/1 38/4/1 37/4/1
f 46/3/1 40/3/1 39/3/1
f 46/4/1 39/4/1 45/4/1
f 47/3/1 17/3/1 40/3/1
f 47/3/1 40/3/1 46/3/1
f 48/1/1 44/1/1 43/1/1
f 49/1/1 44/1/1 48/1/1
f 50/1/2 51/1/2 53/1/2
f 53/1/2 51/1/2 54/1/2
f 52/1/2 53/1/2 54/1/2
f 54/1/2 51/1/2 55/1/2
f 52/1/2 54/1/2 56/1/2
f 56/1/2 54/1/2 57/1/2
f 52/1/2 56/1/2 58/1/2
f 58/1/2 56/1/2 59/1/2
f 58/2/2 59/2/2 63/2/2
f 63/2/2 59/2/2 64/2/2
f 60/4/2 61/4/2 65/4/2
f 61/3/2 62/3/2 66/3/2
f 65/4/2 61/4/2 66/4/2
f 66/3/2 62/3/2 67/3/2
f 65/4/2 66/4/2 70/4/2
f 66/4/2 67/4/2 70/4/2
f 67/3/2 62/3/2 71/3/2
f 70/4/2 67/4/2 71/4/2
f 68/4/2 69/4/2 73/4/2
f 73/4/2 69/4/2 74/4/2
f 74/4/2 69/4/2 75/4/2
f 65/4/2 70/4/2 76/4/2
f 76/4/2 70/4/2 77/4/2
f 70/3/2 71/3/2 78/3/2
f 77/4/2 70/4/2 78/4/2
f 71/3/2 62/3/2 79/3/2
f 78/3/2 71/3/2 79/3/2
f 74/5/2 75/5/2 80/5/2
f 72/4/2 73/4/2 80/4/2
f 73/4/2 74/4/2 80/4/2
f 80/5/2 75/5/2 81/5/2
f 76/5/2 77/5/2 82/5/2
f 77/4/2 78/4/2 83/4/2
f 82/5/2 77/5/2 83/5/2
f 78/4/2 79/4/2 83/4/2
f 83/4/2 79/4/2 84/4/2
f 79/3/2 62/3/2 85/3/2
f 84/4/2 79/4/2 85/4/2
f 80/4/2 81/4/2 86/4/2
f 72/4/2 80/4/2 86/4/2
f 86/4/2 81/4/2 87/4/2
f 83/4/2 84/4/2 90/4/2
f 82/4/2 83/4/2 90/4/2
f 84/3/2 85/3/2 91/3/2
f 90/4/2 84/4/2 91/4/2
f 85/3/2 62/3/2 92/3/2
f 91/3/2 85/3/2 92/3/2
f 88/1/2 89/1/2 93/1/2
f 93/1/2 89/1/2 94/1/2
f 95/5/2 96/5/2 97/5/2
f 97/5/2 96/5/2 98/5/2
f 101/4/3 100/4/3 99/4/3
f 102/4/3 100/4/3 101/4/3
f 105/4/3 104/4/3 103/4/3
f 106/4/3 104/4/3 105/4/3
f 109/5/3 108/5/3 107/5/3
f 110/5/3 108/5/3 109/5/3
f 111/5/3 108/5/3 110/5/3
f 112/5/3 108/5/3 111/5/3
f 113/5/3 109/5/3 107/5/3
f 117/5/3 113/5/3 107/5/3
f 117/5/3 116/5/3 115/5/3
f 117/5/3 115/5/3 114/5/3
f 117/5/3 114/5/3 113/5/3
f 118/5/3 116/5/3 117/5/3
f 124/1/3 120/1/3 119/1/3
f 125/2/3 121/2/3 120/2/3
f 125/1/3 120/1/3 124/1/3
f 126/2/3 121/2/3 125/2/3
f 127/1/3 123/1/3 122/1/3
f 128/1/3 123/1/3 127/1/3
f 131/1/3 130/1/3 129/1/3
f 132/1/3 130/1/3 131/1/3
f 135/4/3 134/4/3 133/4/3
f 136/4/3 134/4/3 135/4/3
f 137/1/4 138/1/4 142/1/4
f 138/2/4 139/2/4 143/2/4
f 142/1/4 138/1/4 143/1/4
f 143/2/4 139/2/4 144/2/4
f 140/1/4 141/1/4 145/1/4
f 145/1/4 141/1/4 146/1/4
f 147/5/4 148/5/4 151/5/4
f 151/5/4 148/5/4 152/5/4
f 152/5/4 148/5/4 153/5/4
f 153/5/4 148/5/4 154/5/4
f 149/1/4 150/1/4 155/1/4
f 155/1/4 150/1/4 156/1/4
f 159/5/4 160/5/4 161/5/4
f 158/5/4 159/5/4 161/5/4
f 157/5/4 158/5/4 161/5/4
f 161/5/4 160/5/4 162/5/4
f 163/1/4 164/1/4 165/1/4
f 165/1/4 164/1/4 166/1/4
f 167/3/4 168/3/4 169/3/4
f 169/3/4 168/3/4 170/3/4
f 173/1/5 172/1/5 171/1/5
f 174/1/5 172/1/5 173/1/5
f 177/1/5 176/1/5 175/1/5
f 178/1/5 176/1/5 177/1/5
f 181/4/5 180/4/5 179/4/5
f 182/4/5 180/4/5 181/4/5
f 183/3/5 182/3/5 181/3/5
f 184/3/5 182/3/5 183/3/5
f 187/5/5 186/5/5 185/5/5
f 188/5/5 186/5/5 187/5/5
f 189/5/5 187/5/5 185/5/5
f 190/5/5 186/5/5 188/5/5
f 191/5/5 189/5/5 185/5/5
f 191/5/5 190/5/5 189/5/5
f 192/5/5 190/5/5 191/5/5
f 193/5/5 186/5/5 190/5/5
f 193/5/5 190/5/5 192/5/5
f 194/5/5 186/5/5 193/5/5
f 197/4/5 196/4/5 195/4/5
f 198/4/5 196/4/5 197/4/5
f 201/4/5 200/4/5 199/4/5
f 202/4/5 200/4/5 201/4/5
f 203/1/6 204/1/6 205/1/6
f 205/1/6 204/1/6 206/1/6
f 207/1/6 208/1/6 209/1/6
f 209/1/6 208/1/6 210/1/6
f 211/4/6 212/4/6 214/4/6
f 214/4/6 212/4/6 215/4/6
f 213/5/6 214/5/6 217/5/6
f 215/5/6 216/5/6 217/5/6
f 214/5/6 215/5/6 217/5/6
f 217/5/6 216/5/6 218/5/6
f 213/5/6 217/5/6 219/5/6
f 218/5/6 216/5/6 220/5/6
f 213/5/6 219/5/6 221/5/6
f 219/5/6 220/5/6 221/5/6
f 221/5/6 220/5/6 222/5/6
f 220/5/6 216/5/6 223/5/6
f 222/5/6 220/5/6 223/5/6
f 223/5/6 216/5/6 224/5/6
f 222/4/6 223/4/6 225/4/6
f 225/4/6 223/4/6 226/4/6
f 225/3/6 226/3/6 227/3/6
f 227/3/6 226/3/6 228/3/6
f 229/1/6 230/1/6 231/1/6
f 231/1/6 230/1/6 232/1/6
