# MagicaVoxel @ Ephtracy

# group
o 

# material
mtllib axeBattle.vox.mtl
usemtl palette

# normals
vn -1 0 0
vn 1 0 0
vn 0 0 1
vn 0 0 -1
vn 0 -1 0
vn 0 1 0

# texcoords
vt 0.369141 0.5
vt 0.537109 0.5
vt 0.806641 0.5
vt 0.833984 0.5
vt 0.970703 0.5
vt 0.978516 0.5
vt 0.986328 0.5

# verts
v -0.2 0.4 0.2
v -0.2 0.4 -0.1
v -0.2 0.6 0.3
v -0.2 0.6 0.2
v -0.2 0.6 -0.1
v -0.2 0.6 -0.2
v -0.2 0.7 0.3
v -0.2 0.7 0.2
v -0.2 0.7 -0.1
v -0.2 0.7 -0.2
v -0.2 0.9 0.2
v -0.2 0.9 -0.1
v -0.2 1 0.1
v -0.2 1 0
v -0.2 1.1 0.1
v -0.2 1.1 0
v -0.1 -0.8 0.1
v -0.1 -0.8 0
v -0.1 -0.7 0.1
v -0.1 -0.7 0
v -0.1 -0.3 0.1
v -0.1 -0.3 0
v -0.1 -0.2 0.1
v -0.1 -0.2 0
v -0.1 -0.1 0.1
v -0.1 -0.1 0
v -0.1 0 0.1
v -0.1 0 0
v -0.1 0.1 0.5
v -0.1 0.1 0.4
v -0.1 0.1 -0.3
v -0.1 0.1 -0.4
v -0.1 0.2 0.4
v -0.1 0.2 0.3
v -0.1 0.2 -0.2
v -0.1 0.2 -0.3
v -0.1 0.3 0.7
v -0.1 0.3 0.5
v -0.1 0.3 0.1
v -0.1 0.3 0
v -0.1 0.3 -0.4
v -0.1 0.3 -0.6
v -0.1 0.4 0.8
v -0.1 0.4 0.7
v -0.1 0.4 0.4
v -0.1 0.4 0.3
v -0.1 0.4 0.2
v -0.1 0.4 0.1
v -0.1 0.4 0
v -0.1 0.4 -0.1
v -0.1 0.4 -0.2
v -0.1 0.4 -0.3
v -0.1 0.4 -0.6
v -0.1 0.4 -0.7
v -0.1 0.5 0.5
v -0.1 0.5 0.4
v -0.1 0.5 -0.3
v -0.1 0.5 -0.4
v -0.1 0.6 0.3
v -0.1 0.6 0.2
v -0.1 0.6 -0.1
v -0.1 0.6 -0.2
v -0.1 0.7 0.3
v -0.1 0.7 0.2
v -0.1 0.7 -0.1
v -0.1 0.7 -0.2
v -0.1 0.9 0.8
v -0.1 0.9 0.7
v -0.1 0.9 0.5
v -0.1 0.9 0.4
v -0.1 0.9 0.3
v -0.1 0.9 0.2
v -0.1 0.9 0.1
v -0.1 0.9 0
v -0.1 0.9 -0.1
v -0.1 0.9 -0.2
v -0.1 0.9 -0.3
v -0.1 0.9 -0.4
v -0.1 0.9 -0.6
v -0.1 0.9 -0.7
v -0.1 1 0.5
v -0.1 1 0.4
v -0.1 1 0.3
v -0.1 1 0.2
v -0.1 1 0.1
v -0.1 1 0
v -0.1 1 -0.1
v -0.1 1 -0.2
v -0.1 1 -0.3
v -0.1 1 -0.4
v -0.1 1.1 0.7
v -0.1 1.1 0.6
v -0.1 1.1 0.2
v -0.1 1.1 0.1
v -0.1 1.1 0
v -0.1 1.1 -0.1
v -0.1 1.1 -0.5
v -0.1 1.1 -0.6
v -0.1 1.2 0.6
v -0.1 1.2 0.5
v -0.1 1.2 0.1
v -0.1 1.2 0
v -0.1 1.2 -0.4
v -0.1 1.2 -0.5
v -0.1 1.4 0.1
v -0.1 1.4 0
v 0 -0.8 0.1
v 0 -0.8 0
v 0 -0.7 0.1
v 0 -0.7 0
v 0 -0.3 0.1
v 0 -0.3 0
v 0 -0.2 0.1
v 0 -0.2 0
v 0 -0.1 0.1
v 0 -0.1 0
v 0 0 0.1
v 0 0 0
v 0 0.1 0.5
v 0 0.1 0.4
v 0 0.1 -0.3
v 0 0.1 -0.4
v 0 0.2 0.4
v 0 0.2 0.3
v 0 0.2 -0.2
v 0 0.2 -0.3
v 0 0.3 0.7
v 0 0.3 0.5
v 0 0.3 0.1
v 0 0.3 0
v 0 0.3 -0.4
v 0 0.3 -0.6
v 0 0.4 0.8
v 0 0.4 0.7
v 0 0.4 0.4
v 0 0.4 0.3
v 0 0.4 0.2
v 0 0.4 0.1
v 0 0.4 0
v 0 0.4 -0.1
v 0 0.4 -0.2
v 0 0.4 -0.3
v 0 0.4 -0.6
v 0 0.4 -0.7
v 0 0.5 0.5
v 0 0.5 0.4
v 0 0.5 -0.3
v 0 0.5 -0.4
v 0 0.6 0.3
v 0 0.6 0.2
v 0 0.6 -0.1
v 0 0.6 -0.2
v 0 0.7 0.3
v 0 0.7 0.2
v 0 0.7 -0.1
v 0 0.7 -0.2
v 0 0.9 0.8
v 0 0.9 0.7
v 0 0.9 0.5
v 0 0.9 0.4
v 0 0.9 0.3
v 0 0.9 0.2
v 0 0.9 0.1
v 0 0.9 0
v 0 0.9 -0.1
v 0 0.9 -0.2
v 0 0.9 -0.3
v 0 0.9 -0.4
v 0 0.9 -0.6
v 0 0.9 -0.7
v 0 1 0.5
v 0 1 0.4
v 0 1 0.3
v 0 1 0.2
v 0 1 0.1
v 0 1 0
v 0 1 -0.1
v 0 1 -0.2
v 0 1 -0.3
v 0 1 -0.4
v 0 1.1 0.7
v 0 1.1 0.6
v 0 1.1 0.2
v 0 1.1 0.1
v 0 1.1 0
v 0 1.1 -0.1
v 0 1.1 -0.5
v 0 1.1 -0.6
v 0 1.2 0.6
v 0 1.2 0.5
v 0 1.2 0.1
v 0 1.2 0
v 0 1.2 -0.4
v 0 1.2 -0.5
v 0 1.4 0.1
v 0 1.4 0
v 0.1 0.4 0.2
v 0.1 0.4 -0.1
v 0.1 0.6 0.3
v 0.1 0.6 0.2
v 0.1 0.6 -0.1
v 0.1 0.6 -0.2
v 0.1 0.7 0.3
v 0.1 0.7 0.2
v 0.1 0.7 -0.1
v 0.1 0.7 -0.2
v 0.1 0.9 0.2
v 0.1 0.9 -0.1
v 0.1 1 0.1
v 0.1 1 0
v 0.1 1.1 0.1
v 0.1 1.1 0
v -0.1 0.4 0.8
v -0.1 0.9 0.8
v 0 0.4 0.8
v 0 0.9 0.8
v -0.1 0.3 0.7
v -0.1 0.4 0.7
v -0.1 0.9 0.7
v -0.1 1.1 0.7
v 0 0.3 0.7
v 0 0.4 0.7
v 0 0.9 0.7
v 0 1.1 0.7
v -0.1 1.1 0.6
v -0.1 1.2 0.6
v 0 1.1 0.6
v 0 1.2 0.6
v -0.1 0.1 0.5
v -0.1 0.3 0.5
v 0 0.1 0.5
v 0 0.3 0.5
v -0.2 0.6 0.3
v -0.2 0.7 0.3
v -0.1 0.6 0.3
v -0.1 0.7 0.3
v 0 0.6 0.3
v 0 0.7 0.3
v 0.1 0.6 0.3
v 0.1 0.7 0.3
v -0.2 0.4 0.2
v -0.2 0.6 0.2
v -0.2 0.7 0.2
v -0.2 0.9 0.2
v -0.1 0.4 0.2
v -0.1 0.6 0.2
v -0.1 0.7 0.2
v -0.1 0.9 0.2
v -0.1 1 0.2
v -0.1 1.1 0.2
v 0 0.4 0.2
v 0 0.6 0.2
v 0 0.7 0.2
v 0 0.9 0.2
v 0 1 0.2
v 0 1.1 0.2
v 0.1 0.4 0.2
v 0.1 0.6 0.2
v 0.1 0.7 0.2
v 0.1 0.9 0.2
v -0.2 1 0.1
v -0.2 1.1 0.1
v -0.1 -0.8 0.1
v -0.1 -0.7 0.1
v -0.1 -0.3 0.1
v -0.1 -0.2 0.1
v -0.1 -0.1 0.1
v -0.1 0 0.1
v -0.1 0.3 0.1
v -0.1 0.4 0.1
v -0.1 0.9 0.1
v -0.1 1 0.1
v -0.1 1.1 0.1
v -0.1 1.2 0.1
v -0.1 1.4 0.1
v 0 -0.8 0.1
v 0 -0.7 0.1
v 0 -0.3 0.1
v 0 -0.2 0.1
v 0 -0.1 0.1
v 0 0 0.1
v 0 0.3 0.1
v 0 0.4 0.1
v 0 0.9 0.1
v 0 1 0.1
v 0 1.1 0.1
v 0 1.2 0.1
v 0 1.4 0.1
v 0.1 1 0.1
v 0.1 1.1 0.1
v -0.1 0.2 -0.2
v -0.1 0.4 -0.2
v -0.1 0.9 -0.2
v -0.1 1 -0.2
v 0 0.2 -0.2
v 0 0.4 -0.2
v 0 0.9 -0.2
v 0 1 -0.2
v -0.1 0.1 -0.3
v -0.1 0.2 -0.3
v 0 0.1 -0.3
v 0 0.2 -0.3
v -0.1 1 -0.4
v -0.1 1.2 -0.4
v 0 1 -0.4
v 0 1.2 -0.4
v -0.1 1 0.5
v -0.1 1.2 0.5
v 0 1 0.5
v 0 1.2 0.5
v -0.1 0.1 0.4
v -0.1 0.2 0.4
v 0 0.1 0.4
v 0 0.2 0.4
v -0.1 0.2 0.3
v -0.1 0.4 0.3
v -0.1 0.9 0.3
v -0.1 1 0.3
v 0 0.2 0.3
v 0 0.4 0.3
v 0 0.9 0.3
v 0 1 0.3
v -0.2 1 0
v -0.2 1.1 0
v -0.1 -0.8 0
v -0.1 -0.7 0
v -0.1 -0.3 0
v -0.1 -0.2 0
v -0.1 -0.1 0
v -0.1 0 0
v -0.1 0.3 0
v -0.1 0.4 0
v -0.1 0.9 0
v -0.1 1 0
v -0.1 1.1 0
v -0.1 1.2 0
v -0.1 1.4 0
v 0 -0.8 0
v 0 -0.7 0
v 0 -0.3 0
v 0 -0.2 0
v 0 -0.1 0
v 0 0 0
v 0 0.3 0
v 0 0.4 0
v 0 0.9 0
v 0 1 0
v 0 1.1 0
v 0 1.2 0
v 0 1.4 0
v 0.1 1 0
v 0.1 1.1 0
v -0.2 0.4 -0.1
v -0.2 0.6 -0.1
v -0.2 0.7 -0.1
v -0.2 0.9 -0.1
v -0.1 0.4 -0.1
v -0.1 0.6 -0.1
v -0.1 0.7 -0.1
v -0.1 0.9 -0.1
v -0.1 1 -0.1
v -0.1 1.1 -0.1
v 0 0.4 -0.1
v 0 0.6 -0.1
v 0 0.7 -0.1
v 0 0.9 -0.1
v 0 1 -0.1
v 0 1.1 -0.1
v 0.1 0.4 -0.1
v 0.1 0.6 -0.1
v 0.1 0.7 -0.1
v 0.1 0.9 -0.1
v -0.2 0.6 -0.2
v -0.2 0.7 -0.2
v -0.1 0.6 -0.2
v -0.1 0.7 -0.2
v 0 0.6 -0.2
v 0 0.7 -0.2
v 0.1 0.6 -0.2
v 0.1 0.7 -0.2
v -0.1 0.1 -0.4
v -0.1 0.3 -0.4
v 0 0.1 -0.4
v 0 0.3 -0.4
v -0.1 1.1 -0.5
v -0.1 1.2 -0.5
v 0 1.1 -0.5
v 0 1.2 -0.5
v -0.1 0.3 -0.6
v -0.1 0.4 -0.6
v -0.1 0.9 -0.6
v -0.1 1.1 -0.6
v 0 0.3 -0.6
v 0 0.4 -0.6
v 0 0.9 -0.6
v 0 1.1 -0.6
v -0.1 0.4 -0.7
v -0.1 0.9 -0.7
v 0 0.4 -0.7
v 0 0.9 -0.7
v -0.1 -0.8 0.1
v 0 -0.8 0.1
v -0.1 -0.8 0
v 0 -0.8 0
v -0.1 0.1 0.5
v 0 0.1 0.5
v -0.1 0.1 0.4
v 0 0.1 0.4
v -0.1 0.1 -0.3
v 0 0.1 -0.3
v -0.1 0.1 -0.4
v 0 0.1 -0.4
v -0.1 0.2 0.4
v 0 0.2 0.4
v -0.1 0.2 0.3
v 0 0.2 0.3
v -0.1 0.2 -0.2
v 0 0.2 -0.2
v -0.1 0.2 -0.3
v 0 0.2 -0.3
v -0.1 0.3 0.7
v 0 0.3 0.7
v -0.1 0.3 0.5
v 0 0.3 0.5
v -0.1 0.3 -0.4
v 0 0.3 -0.4
v -0.1 0.3 -0.6
v 0 0.3 -0.6
v -0.1 0.4 0.8
v 0 0.4 0.8
v -0.1 0.4 0.7
v 0 0.4 0.7
v -0.1 0.4 0.3
v 0 0.4 0.3
v -0.2 0.4 0.2
v -0.1 0.4 0.2
v 0 0.4 0.2
v 0.1 0.4 0.2
v -0.1 0.4 0.1
v 0 0.4 0.1
v -0.1 0.4 0
v 0 0.4 0
v -0.2 0.4 -0.1
v -0.1 0.4 -0.1
v 0 0.4 -0.1
v 0.1 0.4 -0.1
v -0.1 0.4 -0.2
v 0 0.4 -0.2
v -0.1 0.4 -0.6
v 0 0.4 -0.6
v -0.1 0.4 -0.7
v 0 0.4 -0.7
v -0.2 0.6 0.3
v -0.1 0.6 0.3
v 0 0.6 0.3
v 0.1 0.6 0.3
v -0.2 0.6 0.2
v -0.1 0.6 0.2
v 0 0.6 0.2
v 0.1 0.6 0.2
v -0.2 0.6 -0.1
v -0.1 0.6 -0.1
v 0 0.6 -0.1
v 0.1 0.6 -0.1
v -0.2 0.6 -0.2
v -0.1 0.6 -0.2
v 0 0.6 -0.2
v 0.1 0.6 -0.2
v -0.1 1 0.2
v 0 1 0.2
v -0.2 1 0.1
v -0.1 1 0.1
v 0 1 0.1
v 0.1 1 0.1
v -0.2 1 0
v -0.1 1 0
v 0 1 0
v 0.1 1 0
v -0.1 1 -0.1
v 0 1 -0.1
v -0.2 0.7 0.3
v -0.1 0.7 0.3
v 0 0.7 0.3
v 0.1 0.7 0.3
v -0.2 0.7 0.2
v -0.1 0.7 0.2
v 0 0.7 0.2
v 0.1 0.7 0.2
v -0.2 0.7 -0.1
v -0.1 0.7 -0.1
v 0 0.7 -0.1
v 0.1 0.7 -0.1
v -0.2 0.7 -0.2
v -0.1 0.7 -0.2
v 0 0.7 -0.2
v 0.1 0.7 -0.2
v -0.1 0.9 0.8
v 0 0.9 0.8
v -0.1 0.9 0.7
v 0 0.9 0.7
v -0.1 0.9 0.3
v 0 0.9 0.3
v -0.2 0.9 0.2
v -0.1 0.9 0.2
v 0 0.9 0.2
v 0.1 0.9 0.2
v -0.1 0.9 0.1
v 0 0.9 0.1
v -0.1 0.9 0
v 0 0.9 0
v -0.2 0.9 -0.1
v -0.1 0.9 -0.1
v 0 0.9 -0.1
v 0.1 0.9 -0.1
v -0.1 0.9 -0.2
v 0 0.9 -0.2
v -0.1 0.9 -0.6
v 0 0.9 -0.6
v -0.1 0.9 -0.7
v 0 0.9 -0.7
v -0.1 1 0.5
v 0 1 0.5
v -0.1 1 0.4
v 0 1 0.4
v -0.1 1 0.3
v 0 1 0.3
v -0.1 1 -0.2
v 0 1 -0.2
v -0.1 1 -0.3
v 0 1 -0.3
v -0.1 1 -0.4
v 0 1 -0.4
v -0.1 1.1 0.7
v 0 1.1 0.7
v -0.1 1.1 0.6
v 0 1.1 0.6
v -0.1 1.1 0.2
v 0 1.1 0.2
v -0.2 1.1 0.1
v -0.1 1.1 0.1
v 0 1.1 0.1
v 0.1 1.1 0.1
v -0.2 1.1 0
v -0.1 1.1 0
v 0 1.1 0
v 0.1 1.1 0
v -0.1 1.1 -0.1
v 0 1.1 -0.1
v -0.1 1.1 -0.5
v 0 1.1 -0.5
v -0.1 1.1 -0.6
v 0 1.1 -0.6
v -0.1 1.2 0.6
v 0 1.2 0.6
v -0.1 1.2 0.5
v 0 1.2 0.5
v -0.1 1.2 -0.4
v 0 1.2 -0.4
v -0.1 1.2 -0.5
v 0 1.2 -0.5
v -0.1 1.4 0.1
v 0 1.4 0.1
v -0.1 1.4 0
v 0 1.4 0

# faces
f 4/7/1 2/7/1 1/7/1
f 5/7/1 2/7/1 4/7/1
f 7/7/1 4/7/1 3/7/1
f 7/7/1 6/7/1 5/7/1
f 7/7/1 5/7/1 4/7/1
f 8/7/1 6/7/1 7/7/1
f 9/7/1 6/7/1 8/7/1
f 10/7/1 6/7/1 9/7/1
f 11/7/1 9/7/1 8/7/1
f 12/7/1 9/7/1 11/7/1
f 15/7/1 14/7/1 13/7/1
f 16/7/1 14/7/1 15/7/1
f 19/1/1 18/1/1 17/1/1
f 20/1/1 18/1/1 19/1/1
f 21/3/1 20/3/1 19/3/1
f 22/3/1 20/3/1 21/3/1
f 23/4/1 22/4/1 21/4/1
f 24/4/1 22/4/1 23/4/1
f 25/3/1 24/3/1 23/3/1
f 26/3/1 24/3/1 25/3/1
f 27/4/1 26/4/1 25/4/1
f 28/4/1 26/4/1 27/4/1
f 33/5/1 30/5/1 29/5/1
f 36/5/1 32/5/1 31/5/1
f 38/5/1 34/5/1 33/5/1
f 38/5/1 33/5/1 29/5/1
f 39/1/1 28/1/1 27/1/1
f 40/1/1 28/1/1 39/1/1
f 41/5/1 36/5/1 35/5/1
f 41/5/1 32/5/1 36/5/1
f 44/5/1 38/5/1 37/5/1
f 45/5/1 34/5/1 38/5/1
f 45/5/1 38/5/1 44/5/1
f 46/5/1 34/5/1 45/5/1
f 48/2/1 40/2/1 39/2/1
f 49/2/1 40/2/1 48/2/1
f 51/5/1 42/5/1 41/5/1
f 51/5/1 41/5/1 35/5/1
f 52/5/1 42/5/1 51/5/1
f 53/5/1 42/5/1 52/5/1
f 55/5/1 44/5/1 43/5/1
f 55/5/1 45/5/1 44/5/1
f 56/6/1 47/6/1 46/6/1
f 56/5/1 45/5/1 55/5/1
f 56/6/1 46/6/1 45/6/1
f 57/5/1 54/5/1 53/5/1
f 57/5/1 53/5/1 52/5/1
f 57/6/1 52/6/1 51/6/1
f 57/6/1 51/6/1 50/6/1
f 58/5/1 54/5/1 57/5/1
f 59/6/1 47/6/1 56/6/1
f 59/6/1 56/6/1 55/6/1
f 60/6/1 47/6/1 59/6/1
f 61/6/1 58/6/1 57/6/1
f 61/6/1 57/6/1 50/6/1
f 62/6/1 58/6/1 61/6/1
f 63/6/1 59/6/1 55/6/1
f 66/6/1 58/6/1 62/6/1
f 67/5/1 55/5/1 43/5/1
f 68/5/1 55/5/1 67/5/1
f 69/6/1 64/6/1 63/6/1
f 69/5/1 55/5/1 68/5/1
f 69/6/1 63/6/1 55/6/1
f 70/6/1 64/6/1 69/6/1
f 71/6/1 64/6/1 70/6/1
f 72/6/1 64/6/1 71/6/1
f 75/6/1 66/6/1 65/6/1
f 76/6/1 58/6/1 66/6/1
f 76/6/1 66/6/1 75/6/1
f 77/6/1 58/6/1 76/6/1
f 78/5/1 54/5/1 58/5/1
f 78/6/1 58/6/1 77/6/1
f 79/5/1 54/5/1 78/5/1
f 80/5/1 54/5/1 79/5/1
f 81/5/1 69/5/1 68/5/1
f 81/5/1 70/5/1 69/5/1
f 82/6/1 71/6/1 70/6/1
f 82/5/1 70/5/1 81/5/1
f 83/6/1 71/6/1 82/6/1
f 85/2/1 74/2/1 73/2/1
f 86/2/1 74/2/1 85/2/1
f 88/6/1 77/6/1 76/6/1
f 89/5/1 79/5/1 78/5/1
f 89/6/1 77/6/1 88/6/1
f 89/5/1 78/5/1 77/5/1
f 90/5/1 79/5/1 89/5/1
f 91/5/1 81/5/1 68/5/1
f 92/5/1 81/5/1 91/5/1
f 93/7/1 85/7/1 84/7/1
f 94/7/1 85/7/1 93/7/1
f 95/7/1 87/7/1 86/7/1
f 96/7/1 87/7/1 95/7/1
f 97/5/1 79/5/1 90/5/1
f 98/5/1 79/5/1 97/5/1
f 99/5/1 81/5/1 92/5/1
f 100/5/1 81/5/1 99/5/1
f 101/6/1 95/6/1 94/6/1
f 102/6/1 95/6/1 101/6/1
f 103/5/1 97/5/1 90/5/1
f 104/5/1 97/5/1 103/5/1
f 105/5/1 102/5/1 101/5/1
f 106/5/1 102/5/1 105/5/1
f 107/1/2 108/1/2 109/1/2
f 109/1/2 108/1/2 110/1/2
f 109/3/2 110/3/2 111/3/2
f 111/3/2 110/3/2 112/3/2
f 111/4/2 112/4/2 113/4/2
f 113/4/2 112/4/2 114/4/2
f 113/3/2 114/3/2 115/3/2
f 115/3/2 114/3/2 116/3/2
f 115/4/2 116/4/2 117/4/2
f 117/4/2 116/4/2 118/4/2
f 119/5/2 120/5/2 123/5/2
f 121/5/2 122/5/2 126/5/2
f 123/5/2 124/5/2 128/5/2
f 119/5/2 123/5/2 128/5/2
f 117/1/2 118/1/2 129/1/2
f 129/1/2 118/1/2 130/1/2
f 125/5/2 126/5/2 131/5/2
f 126/5/2 122/5/2 131/5/2
f 127/5/2 128/5/2 134/5/2
f 128/5/2 124/5/2 135/5/2
f 134/5/2 128/5/2 135/5/2
f 135/5/2 124/5/2 136/5/2
f 129/2/2 130/2/2 138/2/2
f 138/2/2 130/2/2 139/2/2
f 131/5/2 132/5/2 141/5/2
f 125/5/2 131/5/2 141/5/2
f 141/5/2 132/5/2 142/5/2
f 142/5/2 132/5/2 143/5/2
f 133/5/2 134/5/2 145/5/2
f 134/5/2 135/5/2 145/5/2
f 136/6/2 137/6/2 146/6/2
f 145/5/2 135/5/2 146/5/2
f 135/6/2 136/6/2 146/6/2
f 143/5/2 144/5/2 147/5/2
f 142/5/2 143/5/2 147/5/2
f 141/6/2 142/6/2 147/6/2
f 140/6/2 141/6/2 147/6/2
f 147/5/2 144/5/2 148/5/2
f 146/6/2 137/6/2 149/6/2
f 145/6/2 146/6/2 149/6/2
f 149/6/2 137/6/2 150/6/2
f 147/6/2 148/6/2 151/6/2
f 140/6/2 147/6/2 151/6/2
f 151/6/2 148/6/2 152/6/2
f 145/6/2 149/6/2 153/6/2
f 152/6/2 148/6/2 156/6/2
f 133/5/2 145/5/2 157/5/2
f 157/5/2 145/5/2 158/5/2
f 153/6/2 154/6/2 159/6/2
f 158/5/2 145/5/2 159/5/2
f 145/6/2 153/6/2 159/6/2
f 159/6/2 154/6/2 160/6/2
f 160/6/2 154/6/2 161/6/2
f 161/6/2 154/6/2 162/6/2
f 155/6/2 156/6/2 165/6/2
f 156/6/2 148/6/2 166/6/2
f 165/6/2 156/6/2 166/6/2
f 166/6/2 148/6/2 167/6/2
f 148/5/2 144/5/2 168/5/2
f 167/6/2 148/6/2 168/6/2
f 168/5/2 144/5/2 169/5/2
f 169/5/2 144/5/2 170/5/2
f 158/5/2 159/5/2 171/5/2
f 159/5/2 160/5/2 171/5/2
f 160/6/2 161/6/2 172/6/2
f 171/5/2 160/5/2 172/5/2
f 172/6/2 161/6/2 173/6/2
f 163/2/2 164/2/2 175/2/2
f 175/2/2 164/2/2 176/2/2
f 166/6/2 167/6/2 178/6/2
f 168/5/2 169/5/2 179/5/2
f 178/6/2 167/6/2 179/6/2
f 167/5/2 168/5/2 179/5/2
f 179/5/2 169/5/2 180/5/2
f 158/5/2 171/5/2 181/5/2
f 181/5/2 171/5/2 182/5/2
f 174/7/2 175/7/2 183/7/2
f 183/7/2 175/7/2 184/7/2
f 176/7/2 177/7/2 185/7/2
f 185/7/2 177/7/2 186/7/2
f 180/5/2 169/5/2 187/5/2
f 187/5/2 169/5/2 188/5/2
f 182/5/2 171/5/2 189/5/2
f 189/5/2 171/5/2 190/5/2
f 184/6/2 185/6/2 191/6/2
f 191/6/2 185/6/2 192/6/2
f 180/5/2 187/5/2 193/5/2
f 193/5/2 187/5/2 194/5/2
f 191/5/2 192/5/2 195/5/2
f 195/5/2 192/5/2 196/5/2
f 197/7/2 198/7/2 200/7/2
f 200/7/2 198/7/2 201/7/2
f 199/7/2 200/7/2 203/7/2
f 201/7/2 202/7/2 203/7/2
f 200/7/2 201/7/2 203/7/2
f 203/7/2 202/7/2 204/7/2
f 204/7/2 202/7/2 205/7/2
f 205/7/2 202/7/2 206/7/2
f 204/7/2 205/7/2 207/7/2
f 207/7/2 205/7/2 208/7/2
f 209/7/2 210/7/2 211/7/2
f 211/7/2 210/7/2 212/7/2
f 215/5/3 214/5/3 213/5/3
f 216/5/3 214/5/3 215/5/3
f 221/5/3 218/5/3 217/5/3
f 222/5/3 218/5/3 221/5/3
f 223/5/3 220/5/3 219/5/3
f 224/5/3 220/5/3 223/5/3
f 227/5/3 226/5/3 225/5/3
f 228/5/3 226/5/3 227/5/3
f 231/5/3 230/5/3 229/5/3
f 232/5/3 230/5/3 231/5/3
f 235/7/3 234/7/3 233/7/3
f 236/7/3 234/7/3 235/7/3
f 239/7/3 238/7/3 237/7/3
f 240/7/3 238/7/3 239/7/3
f 245/7/3 242/7/3 241/7/3
f 246/7/3 242/7/3 245/7/3
f 247/7/3 244/7/3 243/7/3
f 248/7/3 244/7/3 247/7/3
f 255/7/3 250/7/3 249/7/3
f 256/7/3 250/7/3 255/7/3
f 257/7/3 252/7/3 251/7/3
f 258/7/3 252/7/3 257/7/3
f 259/7/3 254/7/3 253/7/3
f 260/7/3 254/7/3 259/7/3
f 272/7/3 262/7/3 261/7/3
f 273/7/3 262/7/3 272/7/3
f 276/1/3 264/1/3 263/1/3
f 277/3/3 265/3/3 264/3/3
f 277/1/3 264/1/3 276/1/3
f 278/4/3 266/4/3 265/4/3
f 278/3/3 265/3/3 277/3/3
f 279/3/3 267/3/3 266/3/3
f 279/4/3 266/4/3 278/4/3
f 280/4/3 268/4/3 267/4/3
f 280/3/3 267/3/3 279/3/3
f 281/1/3 269/1/3 268/1/3
f 281/4/3 268/4/3 280/4/3
f 282/2/3 270/2/3 269/2/3
f 282/1/3 269/1/3 281/1/3
f 283/2/3 270/2/3 282/2/3
f 284/2/3 272/2/3 271/2/3
f 285/2/3 272/2/3 284/2/3
f 286/6/3 274/6/3 273/6/3
f 287/5/3 275/5/3 274/5/3
f 287/6/3 274/6/3 286/6/3
f 288/5/3 275/5/3 287/5/3
f 289/7/3 286/7/3 285/7/3
f 290/7/3 286/7/3 289/7/3
f 295/5/3 292/5/3 291/5/3
f 296/5/3 292/5/3 295/5/3
f 297/6/3 294/6/3 293/6/3
f 298/6/3 294/6/3 297/6/3
f 301/5/3 300/5/3 299/5/3
f 302/5/3 300/5/3 301/5/3
f 305/5/3 304/5/3 303/5/3
f 306/5/3 304/5/3 305/5/3
f 307/5/4 308/5/4 309/5/4
f 309/5/4 308/5/4 310/5/4
f 311/5/4 312/5/4 313/5/4
f 313/5/4 312/5/4 314/5/4
f 315/5/4 316/5/4 319/5/4
f 319/5/4 316/5/4 320/5/4
f 317/6/4 318/6/4 321/6/4
f 321/6/4 318/6/4 322/6/4
f 323/7/4 324/7/4 334/7/4
f 334/7/4 324/7/4 335/7/4
f 325/1/4 326/1/4 338/1/4
f 326/3/4 327/3/4 339/3/4
f 338/1/4 326/1/4 339/1/4
f 327/4/4 328/4/4 340/4/4
f 339/3/4 327/3/4 340/3/4
f 328/3/4 329/3/4 341/3/4
f 340/4/4 328/4/4 341/4/4
f 329/4/4 330/4/4 342/4/4
f 341/3/4 329/3/4 342/3/4
f 330/1/4 331/1/4 343/1/4
f 342/4/4 330/4/4 343/4/4
f 331/2/4 332/2/4 344/2/4
f 343/1/4 331/1/4 344/1/4
f 344/2/4 332/2/4 345/2/4
f 333/2/4 334/2/4 346/2/4
f 346/2/4 334/2/4 347/2/4
f 335/6/4 336/6/4 348/6/4
f 336/5/4 337/5/4 349/5/4
f 348/6/4 336/6/4 349/6/4
f 349/5/4 337/5/4 350/5/4
f 347/7/4 348/7/4 351/7/4
f 351/7/4 348/7/4 352/7/4
f 353/7/4 354/7/4 357/7/4
f 357/7/4 354/7/4 358/7/4
f 355/7/4 356/7/4 359/7/4
f 359/7/4 356/7/4 360/7/4
f 361/7/4 362/7/4 367/7/4
f 367/7/4 362/7/4 368/7/4
f 363/7/4 364/7/4 369/7/4
f 369/7/4 364/7/4 370/7/4
f 365/7/4 366/7/4 371/7/4
f 371/7/4 366/7/4 372/7/4
f 373/7/4 374/7/4 375/7/4
f 375/7/4 374/7/4 376/7/4
f 377/7/4 378/7/4 379/7/4
f 379/7/4 378/7/4 380/7/4
f 381/5/4 382/5/4 383/5/4
f 383/5/4 382/5/4 384/5/4
f 385/5/4 386/5/4 387/5/4
f 387/5/4 386/5/4 388/5/4
f 389/5/4 390/5/4 393/5/4
f 393/5/4 390/5/4 394/5/4
f 391/5/4 392/5/4 395/5/4
f 395/5/4 392/5/4 396/5/4
f 397/5/4 398/5/4 399/5/4
f 399/5/4 398/5/4 400/5/4
f 403/1/5 402/1/5 401/1/5
f 404/1/5 402/1/5 403/1/5
f 407/5/5 406/5/5 405/5/5
f 408/5/5 406/5/5 407/5/5
f 411/5/5 410/5/5 409/5/5
f 412/5/5 410/5/5 411/5/5
f 415/5/5 414/5/5 413/5/5
f 416/5/5 414/5/5 415/5/5
f 419/5/5 418/5/5 417/5/5
f 420/5/5 418/5/5 419/5/5
f 423/5/5 422/5/5 421/5/5
f 424/5/5 422/5/5 423/5/5
f 427/5/5 426/5/5 425/5/5
f 428/5/5 426/5/5 427/5/5
f 431/5/5 430/5/5 429/5/5
f 432/5/5 430/5/5 431/5/5
f 436/6/5 434/6/5 433/6/5
f 437/6/5 434/6/5 436/6/5
f 439/7/5 437/7/5 436/7/5
f 439/7/5 438/7/5 437/7/5
f 439/7/5 436/7/5 435/7/5
f 440/7/5 438/7/5 439/7/5
f 441/7/5 439/7/5 435/7/5
f 442/7/5 438/7/5 440/7/5
f 443/7/5 441/7/5 435/7/5
f 443/7/5 442/7/5 441/7/5
f 444/7/5 442/7/5 443/7/5
f 445/7/5 438/7/5 442/7/5
f 445/7/5 442/7/5 444/7/5
f 446/7/5 438/7/5 445/7/5
f 447/6/5 445/6/5 444/6/5
f 448/6/5 445/6/5 447/6/5
f 451/5/5 450/5/5 449/5/5
f 452/5/5 450/5/5 451/5/5
f 457/7/5 454/7/5 453/7/5
f 458/7/5 454/7/5 457/7/5
f 459/7/5 456/7/5 455/7/5
f 460/7/5 456/7/5 459/7/5
f 465/7/5 462/7/5 461/7/5
f 466/7/5 462/7/5 465/7/5
f 467/7/5 464/7/5 463/7/5
f 468/7/5 464/7/5 467/7/5
f 472/7/5 470/7/5 469/7/5
f 473/7/5 470/7/5 472/7/5
f 475/7/5 472/7/5 471/7/5
f 476/7/5 472/7/5 475/7/5
f 477/7/5 474/7/5 473/7/5
f 478/7/5 474/7/5 477/7/5
f 479/7/5 477/7/5 476/7/5
f 480/7/5 477/7/5 479/7/5
f 481/7/6 482/7/6 485/7/6
f 485/7/6 482/7/6 486/7/6
f 483/7/6 484/7/6 487/7/6
f 487/7/6 484/7/6 488/7/6
f 489/7/6 490/7/6 493/7/6
f 493/7/6 490/7/6 494/7/6
f 491/7/6 492/7/6 495/7/6
f 495/7/6 492/7/6 496/7/6
f 497/5/6 498/5/6 499/5/6
f 499/5/6 498/5/6 500/5/6
f 501/6/6 502/6/6 504/6/6
f 504/6/6 502/6/6 505/6/6
f 504/7/6 505/7/6 507/7/6
f 505/7/6 506/7/6 507/7/6
f 503/7/6 504/7/6 507/7/6
f 507/7/6 506/7/6 508/7/6
f 503/7/6 507/7/6 509/7/6
f 508/7/6 506/7/6 510/7/6
f 503/7/6 509/7/6 511/7/6
f 509/7/6 510/7/6 511/7/6
f 511/7/6 510/7/6 512/7/6
f 510/7/6 506/7/6 513/7/6
f 512/7/6 510/7/6 513/7/6
f 513/7/6 506/7/6 514/7/6
f 512/6/6 513/6/6 515/6/6
f 515/6/6 513/6/6 516/6/6
f 517/5/6 518/5/6 519/5/6
f 519/5/6 518/5/6 520/5/6
f 521/5/6 522/5/6 523/5/6
f 523/5/6 522/5/6 524/5/6
f 523/6/6 524/6/6 525/6/6
f 525/6/6 524/6/6 526/6/6
f 527/6/6 528/6/6 529/6/6
f 529/6/6 528/6/6 530/6/6
f 529/5/6 530/5/6 531/5/6
f 531/5/6 530/5/6 532/5/6
f 533/5/6 534/5/6 535/5/6
f 535/5/6 534/5/6 536/5/6
f 537/7/6 538/7/6 540/7/6
f 540/7/6 538/7/6 541/7/6
f 539/7/6 540/7/6 543/7/6
f 543/7/6 540/7/6 544/7/6
f 541/7/6 542/7/6 545/7/6
f 545/7/6 542/7/6 546/7/6
f 544/7/6 545/7/6 547/7/6
f 547/7/6 545/7/6 548/7/6
f 549/5/6 550/5/6 551/5/6
f 551/5/6 550/5/6 552/5/6
f 553/5/6 554/5/6 555/5/6
f 555/5/6 554/5/6 556/5/6
f 557/5/6 558/5/6 559/5/6
f 559/5/6 558/5/6 560/5/6
f 561/5/6 562/5/6 563/5/6
f 563/5/6 562/5/6 564/5/6
