# MagicaVoxel @ Ephtracy

# group
o 

# material
mtllib axeLong.vox.mtl
usemtl palette

# normals
vn -1 0 0
vn 1 0 0
vn 0 0 1
vn 0 0 -1
vn 0 -1 0
vn 0 1 0

# texcoords
vt 0.369141 0.5
vt 0.537109 0.5
vt 0.806641 0.5
vt 0.833984 0.5
vt 0.970703 0.5
vt 0.978516 0.5
vt 0.986328 0.5

# verts
v -0.2 0.7 0.2
v -0.2 0.7 -0.1
v -0.2 1 0.2
v -0.2 1 -0.1
v -0.2 1.1 0.1
v -0.2 1.1 5.96046e-08
v -0.2 1.2 0.1
v -0.2 1.2 5.96046e-08
v -0.1 -1.4 0.1
v -0.1 -1.4 5.96046e-08
v -0.1 -1.1 0.1
v -0.1 -1.1 5.96046e-08
v -0.1 -0.6 0.1
v -0.1 -0.6 5.96046e-08
v -0.1 -0.5 0.1
v -0.1 -0.5 5.96046e-08
v -0.1 -0.2 0.1
v -0.1 -0.2 5.96046e-08
v -0.1 0.2 0.1
v -0.1 0.2 5.96046e-08
v -0.1 0.3 0.1
v -0.1 0.3 5.96046e-08
v -0.1 0.4 0.1
v -0.1 0.4 5.96046e-08
v -0.1 0.4 -0.3
v -0.1 0.4 -0.4
v -0.1 0.5 0.1
v -0.1 0.5 5.96046e-08
v -0.1 0.5 -0.2
v -0.1 0.5 -0.3
v -0.1 0.6 0.6
v -0.1 0.6 0.5
v -0.1 0.6 -0.2
v -0.1 0.6 -0.3
v -0.1 0.6 -0.4
v -0.1 0.6 -0.5
v -0.1 0.7 0.5
v -0.1 0.7 0.4
v -0.1 0.7 0.2
v -0.1 0.7 0.1
v -0.1 0.7 5.96046e-08
v -0.1 0.7 -0.1
v -0.1 0.7 -0.2
v -0.1 0.7 -0.3
v -0.1 0.7 -0.4
v -0.1 0.8 -0.3
v -0.1 0.8 -0.4
v -0.1 0.9 0.6
v -0.1 0.9 0.5
v -0.1 0.9 0.4
v -0.1 0.9 0.3
v -0.1 0.9 -0.3
v -0.1 0.9 -0.4
v -0.1 1 0.5
v -0.1 1 0.3
v -0.1 1 0.2
v -0.1 1 0.1
v -0.1 1 5.96046e-08
v -0.1 1 -0.1
v -0.1 1 -0.2
v -0.1 1 -0.3
v -0.1 1 -0.4
v -0.1 1.1 0.2
v -0.1 1.1 0.1
v -0.1 1.1 5.96046e-08
v -0.1 1.1 -0.1
v -0.1 1.1 -0.2
v -0.1 1.1 -0.3
v -0.1 1.2 0.2
v -0.1 1.2 0.1
v -0.1 1.2 5.96046e-08
v -0.1 1.2 -0.1
v -0.1 1.2 -0.4
v -0.1 1.2 -0.5
v -0.1 1.3 0.2
v -0.1 1.3 0.1
v -0.1 1.3 5.96046e-08
v -0.1 1.3 -0.1
v -0.1 1.3 -0.3
v -0.1 1.3 -0.4
v -0.1 1.4 0.1
v -0.1 1.4 5.96046e-08
v -0.1 1.6 0.1
v -0.1 1.6 5.96046e-08
v 0 -1.4 0.1
v 0 -1.4 5.96046e-08
v 0 -1.1 0.1
v 0 -1.1 5.96046e-08
v 0 -0.6 0.1
v 0 -0.6 5.96046e-08
v 0 -0.5 0.1
v 0 -0.5 5.96046e-08
v 0 -0.2 0.1
v 0 -0.2 5.96046e-08
v 0 0.2 0.1
v 0 0.2 5.96046e-08
v 0 0.3 0.1
v 0 0.3 5.96046e-08
v 0 0.4 0.1
v 0 0.4 5.96046e-08
v 0 0.4 -0.3
v 0 0.4 -0.4
v 0 0.5 0.1
v 0 0.5 5.96046e-08
v 0 0.5 -0.2
v 0 0.5 -0.3
v 0 0.6 0.6
v 0 0.6 0.5
v 0 0.6 -0.2
v 0 0.6 -0.3
v 0 0.6 -0.4
v 0 0.6 -0.5
v 0 0.7 0.5
v 0 0.7 0.4
v 0 0.7 0.2
v 0 0.7 0.1
v 0 0.7 5.96046e-08
v 0 0.7 -0.1
v 0 0.7 -0.2
v 0 0.7 -0.3
v 0 0.7 -0.4
v 0 0.8 -0.3
v 0 0.8 -0.4
v 0 0.9 0.6
v 0 0.9 0.5
v 0 0.9 0.4
v 0 0.9 0.3
v 0 0.9 -0.3
v 0 0.9 -0.4
v 0 1 0.5
v 0 1 0.3
v 0 1 0.2
v 0 1 0.1
v 0 1 5.96046e-08
v 0 1 -0.1
v 0 1 -0.2
v 0 1 -0.3
v 0 1 -0.4
v 0 1.1 0.2
v 0 1.1 0.1
v 0 1.1 5.96046e-08
v 0 1.1 -0.1
v 0 1.1 -0.2
v 0 1.1 -0.3
v 0 1.2 0.2
v 0 1.2 0.1
v 0 1.2 5.96046e-08
v 0 1.2 -0.1
v 0 1.2 -0.4
v 0 1.2 -0.5
v 0 1.3 0.2
v 0 1.3 0.1
v 0 1.3 5.96046e-08
v 0 1.3 -0.1
v 0 1.3 -0.3
v 0 1.3 -0.4
v 0 1.4 0.1
v 0 1.4 5.96046e-08
v 0 1.6 0.1
v 0 1.6 5.96046e-08
v 0.1 0.7 0.2
v 0.1 0.7 -0.1
v 0.1 1 0.2
v 0.1 1 -0.1
v 0.1 1.1 0.1
v 0.1 1.1 5.96046e-08
v 0.1 1.2 0.1
v 0.1 1.2 5.96046e-08
v 0.1 1.3 0.1
v 0.1 1.3 5.96046e-08
v -0.1 0.6 0.6
v -0.1 0.9 0.6
v 0 0.6 0.6
v 0 0.9 0.6
v -0.1 0.9 0.5
v -0.1 1 0.5
v 0 0.9 0.5
v 0 1 0.5
v -0.2 0.7 0.2
v -0.2 1 0.2
v -0.1 0.7 0.2
v -0.1 1 0.2
v -0.1 1.1 0.2
v -0.1 1.2 0.2
v -0.1 1.3 0.2
v 0 0.7 0.2
v 0 1 0.2
v 0 1.1 0.2
v 0 1.2 0.2
v 0 1.3 0.2
v 0.1 0.7 0.2
v 0.1 1 0.2
v -0.2 1.1 0.1
v -0.2 1.2 0.1
v -0.1 -1.4 0.1
v -0.1 -1.1 0.1
v -0.1 -0.6 0.1
v -0.1 -0.5 0.1
v -0.1 -0.2 0.1
v -0.1 0.2 0.1
v -0.1 0.3 0.1
v -0.1 0.4 0.1
v -0.1 0.5 0.1
v -0.1 0.7 0.1
v -0.1 1 0.1
v -0.1 1.1 0.1
v -0.1 1.2 0.1
v -0.1 1.3 0.1
v -0.1 1.4 0.1
v -0.1 1.6 0.1
v 0 -1.4 0.1
v 0 -1.1 0.1
v 0 -0.6 0.1
v 0 -0.5 0.1
v 0 -0.2 0.1
v 0 0.2 0.1
v 0 0.3 0.1
v 0 0.4 0.1
v 0 0.5 0.1
v 0 0.7 0.1
v 0 1 0.1
v 0 1.1 0.1
v 0 1.2 0.1
v 0 1.3 0.1
v 0 1.4 0.1
v 0 1.6 0.1
v 0.1 1.1 0.1
v 0.1 1.2 0.1
v 0.1 1.3 0.1
v -0.1 0.5 -0.2
v -0.1 0.6 -0.2
v -0.1 0.7 -0.2
v -0.1 1 -0.2
v -0.1 1.1 -0.2
v 0 0.5 -0.2
v 0 0.6 -0.2
v 0 0.7 -0.2
v 0 1 -0.2
v 0 1.1 -0.2
v -0.1 0.4 -0.3
v -0.1 0.5 -0.3
v -0.1 1.1 -0.3
v -0.1 1.3 -0.3
v 0 0.4 -0.3
v 0 0.5 -0.3
v 0 1.1 -0.3
v 0 1.3 -0.3
v -0.1 0.6 0.5
v -0.1 0.7 0.5
v 0 0.6 0.5
v 0 0.7 0.5
v -0.2 1.1 5.96046e-08
v -0.2 1.2 5.96046e-08
v -0.1 -1.4 5.96046e-08
v -0.1 -1.1 5.96046e-08
v -0.1 -0.6 5.96046e-08
v -0.1 -0.5 5.96046e-08
v -0.1 -0.2 5.96046e-08
v -0.1 0.2 5.96046e-08
v -0.1 0.3 5.96046e-08
v -0.1 0.4 5.96046e-08
v -0.1 0.5 5.96046e-08
v -0.1 0.7 5.96046e-08
v -0.1 1 5.96046e-08
v -0.1 1.1 5.96046e-08
v -0.1 1.2 5.96046e-08
v -0.1 1.3 5.96046e-08
v -0.1 1.4 5.96046e-08
v -0.1 1.6 5.96046e-08
v 0 -1.4 5.96046e-08
v 0 -1.1 5.96046e-08
v 0 -0.6 5.96046e-08
v 0 -0.5 5.96046e-08
v 0 -0.2 5.96046e-08
v 0 0.2 5.96046e-08
v 0 0.3 5.96046e-08
v 0 0.4 5.96046e-08
v 0 0.5 5.96046e-08
v 0 0.7 5.96046e-08
v 0 1 5.96046e-08
v 0 1.1 5.96046e-08
v 0 1.2 5.96046e-08
v 0 1.3 5.96046e-08
v 0 1.4 5.96046e-08
v 0 1.6 5.96046e-08
v 0.1 1.1 5.96046e-08
v 0.1 1.2 5.96046e-08
v 0.1 1.3 5.96046e-08
v -0.2 0.7 -0.1
v -0.2 1 -0.1
v -0.1 0.7 -0.1
v -0.1 1 -0.1
v -0.1 1.1 -0.1
v -0.1 1.2 -0.1
v -0.1 1.3 -0.1
v 0 0.7 -0.1
v 0 1 -0.1
v 0 1.1 -0.1
v 0 1.2 -0.1
v 0 1.3 -0.1
v 0.1 0.7 -0.1
v 0.1 1 -0.1
v -0.1 0.4 -0.4
v -0.1 0.6 -0.4
v -0.1 1.2 -0.4
v -0.1 1.3 -0.4
v 0 0.4 -0.4
v 0 0.6 -0.4
v 0 1.2 -0.4
v 0 1.3 -0.4
v -0.1 0.6 -0.5
v -0.1 1.2 -0.5
v 0 0.6 -0.5
v 0 1.2 -0.5
v -0.1 -1.4 0.1
v 0 -1.4 0.1
v -0.1 -1.4 5.96046e-08
v 0 -1.4 5.96046e-08
v -0.1 0.4 -0.3
v 0 0.4 -0.3
v -0.1 0.4 -0.4
v 0 0.4 -0.4
v -0.1 0.5 -0.2
v 0 0.5 -0.2
v -0.1 0.5 -0.3
v 0 0.5 -0.3
v -0.1 0.6 0.6
v 0 0.6 0.6
v -0.1 0.6 0.5
v 0 0.6 0.5
v -0.1 0.6 -0.4
v 0 0.6 -0.4
v -0.1 0.6 -0.5
v 0 0.6 -0.5
v -0.1 0.7 0.5
v 0 0.7 0.5
v -0.1 0.7 0.4
v 0 0.7 0.4
v -0.2 0.7 0.2
v -0.1 0.7 0.2
v 0 0.7 0.2
v 0.1 0.7 0.2
v -0.1 0.7 0.1
v 0 0.7 0.1
v -0.1 0.7 5.96046e-08
v 0 0.7 5.96046e-08
v -0.2 0.7 -0.1
v -0.1 0.7 -0.1
v 0 0.7 -0.1
v 0.1 0.7 -0.1
v -0.1 0.7 -0.2
v 0 0.7 -0.2
v -0.1 1.1 0.2
v 0 1.1 0.2
v -0.2 1.1 0.1
v -0.1 1.1 0.1
v 0 1.1 0.1
v 0.1 1.1 0.1
v -0.2 1.1 5.96046e-08
v -0.1 1.1 5.96046e-08
v 0 1.1 5.96046e-08
v 0.1 1.1 5.96046e-08
v -0.1 1.1 -0.1
v 0 1.1 -0.1
v -0.1 0.9 0.6
v 0 0.9 0.6
v -0.1 0.9 0.5
v 0 0.9 0.5
v -0.1 1 0.5
v 0 1 0.5
v -0.1 1 0.3
v 0 1 0.3
v -0.2 1 0.2
v -0.1 1 0.2
v 0 1 0.2
v 0.1 1 0.2
v -0.1 1 0.1
v 0 1 0.1
v -0.1 1 5.96046e-08
v 0 1 5.96046e-08
v -0.2 1 -0.1
v -0.1 1 -0.1
v 0 1 -0.1
v 0.1 1 -0.1
v -0.1 1 -0.2
v 0 1 -0.2
v -0.1 1.1 -0.2
v 0 1.1 -0.2
v -0.1 1.1 -0.3
v 0 1.1 -0.3
v -0.2 1.2 0.1
v -0.1 1.2 0.1
v -0.2 1.2 5.96046e-08
v -0.1 1.2 5.96046e-08
v -0.1 1.2 -0.4
v 0 1.2 -0.4
v -0.1 1.2 -0.5
v 0 1.2 -0.5
v -0.1 1.3 0.2
v 0 1.3 0.2
v -0.1 1.3 0.1
v 0 1.3 0.1
v 0.1 1.3 0.1
v -0.1 1.3 5.96046e-08
v 0 1.3 5.96046e-08
v 0.1 1.3 5.96046e-08
v -0.1 1.3 -0.1
v 0 1.3 -0.1
v -0.1 1.3 -0.3
v 0 1.3 -0.3
v -0.1 1.3 -0.4
v 0 1.3 -0.4
v -0.1 1.6 0.1
v 0 1.6 0.1
v -0.1 1.6 5.96046e-08
v 0 1.6 5.96046e-08

# faces
f 3/7/1 2/7/1 1/7/1
f 4/7/1 2/7/1 3/7/1
f 7/7/1 6/7/1 5/7/1
f 8/7/1 6/7/1 7/7/1
f 11/1/1 10/1/1 9/1/1
f 12/1/1 10/1/1 11/1/1
f 13/3/1 12/3/1 11/3/1
f 14/3/1 12/3/1 13/3/1
f 15/4/1 14/4/1 13/4/1
f 16/4/1 14/4/1 15/4/1
f 17/1/1 16/1/1 15/1/1
f 18/1/1 16/1/1 17/1/1
f 19/3/1 18/3/1 17/3/1
f 20/3/1 18/3/1 19/3/1
f 21/4/1 20/4/1 19/4/1
f 22/4/1 20/4/1 21/4/1
f 23/1/1 22/1/1 21/1/1
f 24/1/1 22/1/1 23/1/1
f 27/2/1 24/2/1 23/2/1
f 28/2/1 24/2/1 27/2/1
f 30/5/1 26/5/1 25/5/1
f 33/5/1 30/5/1 29/5/1
f 34/5/1 26/5/1 30/5/1
f 34/5/1 30/5/1 33/5/1
f 35/5/1 26/5/1 34/5/1
f 37/5/1 32/5/1 31/5/1
f 40/7/1 28/7/1 27/7/1
f 41/7/1 28/7/1 40/7/1
f 43/6/1 34/6/1 33/6/1
f 44/5/1 36/5/1 35/5/1
f 44/5/1 35/5/1 34/5/1
f 44/6/1 34/6/1 43/6/1
f 45/5/1 36/5/1 44/5/1
f 46/6/1 43/6/1 42/6/1
f 46/6/1 45/6/1 44/6/1
f 46/6/1 44/6/1 43/6/1
f 47/5/1 36/5/1 45/5/1
f 47/6/1 45/6/1 46/6/1
f 48/5/1 37/5/1 31/5/1
f 48/5/1 38/5/1 37/5/1
f 49/5/1 38/5/1 48/5/1
f 50/6/1 39/6/1 38/6/1
f 50/5/1 38/5/1 49/5/1
f 51/6/1 39/6/1 50/6/1
f 52/6/1 46/6/1 42/6/1
f 52/5/1 47/5/1 46/5/1
f 53/5/1 36/5/1 47/5/1
f 53/5/1 47/5/1 52/5/1
f 54/5/1 51/5/1 50/5/1
f 54/5/1 50/5/1 49/5/1
f 55/6/1 39/6/1 51/6/1
f 55/5/1 51/5/1 54/5/1
f 56/6/1 39/6/1 55/6/1
f 59/6/1 52/6/1 42/6/1
f 59/6/1 53/6/1 52/6/1
f 60/6/1 53/6/1 59/6/1
f 61/6/1 53/6/1 60/6/1
f 62/5/1 36/5/1 53/5/1
f 62/6/1 53/6/1 61/6/1
f 64/7/1 58/7/1 57/7/1
f 65/7/1 58/7/1 64/7/1
f 67/6/1 61/6/1 60/6/1
f 68/5/1 62/5/1 61/5/1
f 68/6/1 61/6/1 67/6/1
f 69/7/1 64/7/1 63/7/1
f 70/7/1 64/7/1 69/7/1
f 71/7/1 66/7/1 65/7/1
f 72/7/1 66/7/1 71/7/1
f 73/5/1 36/5/1 62/5/1
f 73/5/1 62/5/1 68/5/1
f 74/5/1 36/5/1 73/5/1
f 75/6/1 70/6/1 69/6/1
f 75/6/1 72/6/1 71/6/1
f 75/6/1 71/6/1 70/6/1
f 76/6/1 72/6/1 75/6/1
f 77/6/1 72/6/1 76/6/1
f 78/6/1 72/6/1 77/6/1
f 79/5/1 73/5/1 68/5/1
f 80/5/1 73/5/1 79/5/1
f 81/6/1 77/6/1 76/6/1
f 82/6/1 77/6/1 81/6/1
f 83/5/1 82/5/1 81/5/1
f 84/5/1 82/5/1 83/5/1
f 85/1/2 86/1/2 87/1/2
f 87/1/2 86/1/2 88/1/2
f 87/3/2 88/3/2 89/3/2
f 89/3/2 88/3/2 90/3/2
f 89/4/2 90/4/2 91/4/2
f 91/4/2 90/4/2 92/4/2
f 91/1/2 92/1/2 93/1/2
f 93/1/2 92/1/2 94/1/2
f 93/3/2 94/3/2 95/3/2
f 95/3/2 94/3/2 96/3/2
f 95/4/2 96/4/2 97/4/2
f 97/4/2 96/4/2 98/4/2
f 97/1/2 98/1/2 99/1/2
f 99/1/2 98/1/2 100/1/2
f 99/2/2 100/2/2 103/2/2
f 103/2/2 100/2/2 104/2/2
f 101/5/2 102/5/2 106/5/2
f 105/5/2 106/5/2 109/5/2
f 106/5/2 102/5/2 110/5/2
f 109/5/2 106/5/2 110/5/2
f 110/5/2 102/5/2 111/5/2
f 107/5/2 108/5/2 113/5/2
f 103/7/2 104/7/2 116/7/2
f 116/7/2 104/7/2 117/7/2
f 109/6/2 110/6/2 119/6/2
f 111/5/2 112/5/2 120/5/2
f 110/5/2 111/5/2 120/5/2
f 119/6/2 110/6/2 120/6/2
f 120/5/2 112/5/2 121/5/2
f 118/6/2 119/6/2 122/6/2
f 120/6/2 121/6/2 122/6/2
f 119/6/2 120/6/2 122/6/2
f 121/5/2 112/5/2 123/5/2
f 122/6/2 121/6/2 123/6/2
f 107/5/2 113/5/2 124/5/2
f 113/5/2 114/5/2 124/5/2
f 124/5/2 114/5/2 125/5/2
f 114/6/2 115/6/2 126/6/2
f 125/5/2 114/5/2 126/5/2
f 126/6/2 115/6/2 127/6/2
f 118/6/2 122/6/2 128/6/2
f 122/5/2 123/5/2 128/5/2
f 123/5/2 112/5/2 129/5/2
f 128/5/2 123/5/2 129/5/2
f 126/5/2 127/5/2 130/5/2
f 125/5/2 126/5/2 130/5/2
f 127/6/2 115/6/2 131/6/2
f 130/5/2 127/5/2 131/5/2
f 131/6/2 115/6/2 132/6/2
f 118/6/2 128/6/2 135/6/2
f 128/6/2 129/6/2 135/6/2
f 135/6/2 129/6/2 136/6/2
f 136/6/2 129/6/2 137/6/2
f 129/5/2 112/5/2 138/5/2
f 137/6/2 129/6/2 138/6/2
f 133/7/2 134/7/2 140/7/2
f 140/7/2 134/7/2 141/7/2
f 136/6/2 137/6/2 143/6/2
f 137/5/2 138/5/2 144/5/2
f 143/6/2 137/6/2 144/6/2
f 139/7/2 140/7/2 145/7/2
f 145/7/2 140/7/2 146/7/2
f 141/7/2 142/7/2 147/7/2
f 147/7/2 142/7/2 148/7/2
f 138/5/2 112/5/2 149/5/2
f 144/5/2 138/5/2 149/5/2
f 149/5/2 112/5/2 150/5/2
f 145/6/2 146/6/2 151/6/2
f 151/6/2 146/6/2 152/6/2
f 147/6/2 148/6/2 153/6/2
f 153/6/2 148/6/2 154/6/2
f 144/5/2 149/5/2 155/5/2
f 155/5/2 149/5/2 156/5/2
f 152/6/2 153/6/2 157/6/2
f 157/6/2 153/6/2 158/6/2
f 157/5/2 158/5/2 159/5/2
f 159/5/2 158/5/2 160/5/2
f 161/7/2 162/7/2 163/7/2
f 163/7/2 162/7/2 164/7/2
f 165/7/2 166/7/2 167/7/2
f 167/7/2 166/7/2 168/7/2
f 167/6/2 168/6/2 169/6/2
f 169/6/2 168/6/2 170/6/2
f 173/5/3 172/5/3 171/5/3
f 174/5/3 172/5/3 173/5/3
f 177/5/3 176/5/3 175/5/3
f 178/5/3 176/5/3 177/5/3
f 181/7/3 180/7/3 179/7/3
f 182/7/3 180/7/3 181/7/3
f 188/7/3 184/7/3 183/7/3
f 189/6/3 185/6/3 184/6/3
f 189/7/3 184/7/3 188/7/3
f 190/6/3 185/6/3 189/6/3
f 191/7/3 187/7/3 186/7/3
f 192/7/3 187/7/3 191/7/3
f 206/7/3 194/7/3 193/7/3
f 207/7/3 194/7/3 206/7/3
f 211/1/3 196/1/3 195/1/3
f 212/3/3 197/3/3 196/3/3
f 212/1/3 196/1/3 211/1/3
f 213/4/3 198/4/3 197/4/3
f 213/3/3 197/3/3 212/3/3
f 214/1/3 199/1/3 198/1/3
f 214/4/3 198/4/3 213/4/3
f 215/3/3 200/3/3 199/3/3
f 215/1/3 199/1/3 214/1/3
f 216/4/3 201/4/3 200/4/3
f 216/3/3 200/3/3 215/3/3
f 217/1/3 202/1/3 201/1/3
f 217/4/3 201/4/3 216/4/3
f 218/2/3 203/2/3 202/2/3
f 218/1/3 202/1/3 217/1/3
f 219/7/3 204/7/3 203/7/3
f 219/2/3 203/2/3 218/2/3
f 220/7/3 204/7/3 219/7/3
f 221/7/3 206/7/3 205/7/3
f 222/7/3 206/7/3 221/7/3
f 224/6/3 209/6/3 208/6/3
f 225/5/3 210/5/3 209/5/3
f 225/6/3 209/6/3 224/6/3
f 226/5/3 210/5/3 225/5/3
f 227/7/3 223/7/3 222/7/3
f 228/6/3 224/6/3 223/6/3
f 228/7/3 223/7/3 227/7/3
f 229/6/3 224/6/3 228/6/3
f 235/5/3 231/5/3 230/5/3
f 236/6/3 232/6/3 231/6/3
f 236/5/3 231/5/3 235/5/3
f 237/6/3 232/6/3 236/6/3
f 238/6/3 234/6/3 233/6/3
f 239/6/3 234/6/3 238/6/3
f 244/5/3 241/5/3 240/5/3
f 245/5/3 241/5/3 244/5/3
f 246/5/3 243/5/3 242/5/3
f 247/5/3 243/5/3 246/5/3
f 248/5/4 249/5/4 250/5/4
f 250/5/4 249/5/4 251/5/4
f 252/7/4 253/7/4 265/7/4
f 265/7/4 253/7/4 266/7/4
f 254/1/4 255/1/4 270/1/4
f 255/3/4 256/3/4 271/3/4
f 270/1/4 255/1/4 271/1/4
f 256/4/4 257/4/4 272/4/4
f 271/3/4 256/3/4 272/3/4
f 257/1/4 258/1/4 273/1/4
f 272/4/4 257/4/4 273/4/4
f 258/3/4 259/3/4 274/3/4
f 273/1/4 258/1/4 274/1/4
f 259/4/4 260/4/4 275/4/4
f 274/3/4 259/3/4 275/3/4
f 260/1/4 261/1/4 276/1/4
f 275/4/4 260/4/4 276/4/4
f 261/2/4 262/2/4 277/2/4
f 276/1/4 261/1/4 277/1/4
f 262/7/4 263/7/4 278/7/4
f 277/2/4 262/2/4 278/2/4
f 278/7/4 263/7/4 279/7/4
f 264/7/4 265/7/4 280/7/4
f 280/7/4 265/7/4 281/7/4
f 267/6/4 268/6/4 283/6/4
f 268/5/4 269/5/4 284/5/4
f 283/6/4 268/6/4 284/6/4
f 284/5/4 269/5/4 285/5/4
f 281/7/4 282/7/4 286/7/4
f 282/6/4 283/6/4 287/6/4
f 286/7/4 282/7/4 287/7/4
f 287/6/4 283/6/4 288/6/4
f 289/7/4 290/7/4 291/7/4
f 291/7/4 290/7/4 292/7/4
f 293/7/4 294/7/4 298/7/4
f 294/6/4 295/6/4 299/6/4
f 298/7/4 294/7/4 299/7/4
f 299/6/4 295/6/4 300/6/4
f 296/7/4 297/7/4 301/7/4
f 301/7/4 297/7/4 302/7/4
f 303/5/4 304/5/4 307/5/4
f 307/5/4 304/5/4 308/5/4
f 305/5/4 306/5/4 309/5/4
f 309/5/4 306/5/4 310/5/4
f 311/5/4 312/5/4 313/5/4
f 313/5/4 312/5/4 314/5/4
f 317/1/5 316/1/5 315/1/5
f 318/1/5 316/1/5 317/1/5
f 321/5/5 320/5/5 319/5/5
f 322/5/5 320/5/5 321/5/5
f 325/5/5 324/5/5 323/5/5
f 326/5/5 324/5/5 325/5/5
f 329/5/5 328/5/5 327/5/5
f 330/5/5 328/5/5 329/5/5
f 333/5/5 332/5/5 331/5/5
f 334/5/5 332/5/5 333/5/5
f 337/5/5 336/5/5 335/5/5
f 338/5/5 336/5/5 337/5/5
f 340/6/5 338/6/5 337/6/5
f 341/6/5 338/6/5 340/6/5
f 343/7/5 341/7/5 340/7/5
f 343/7/5 342/7/5 341/7/5
f 343/7/5 340/7/5 339/7/5
f 344/7/5 342/7/5 343/7/5
f 345/7/5 343/7/5 339/7/5
f 346/7/5 342/7/5 344/7/5
f 347/7/5 345/7/5 339/7/5
f 347/7/5 346/7/5 345/7/5
f 348/7/5 346/7/5 347/7/5
f 349/7/5 342/7/5 346/7/5
f 349/7/5 346/7/5 348/7/5
f 350/7/5 342/7/5 349/7/5
f 351/6/5 349/6/5 348/6/5
f 352/6/5 349/6/5 351/6/5
f 356/7/5 354/7/5 353/7/5
f 357/7/5 354/7/5 356/7/5
f 359/7/5 356/7/5 355/7/5
f 360/7/5 356/7/5 359/7/5
f 361/7/5 358/7/5 357/7/5
f 362/7/5 358/7/5 361/7/5
f 363/7/5 361/7/5 360/7/5
f 364/7/5 361/7/5 363/7/5
f 365/5/6 366/5/6 367/5/6
f 367/5/6 366/5/6 368/5/6
f 369/5/6 370/5/6 371/5/6
f 371/5/6 370/5/6 372/5/6
f 371/6/6 372/6/6 374/6/6
f 374/6/6 372/6/6 375/6/6
f 374/7/6 375/7/6 377/7/6
f 375/7/6 376/7/6 377/7/6
f 373/7/6 374/7/6 377/7/6
f 377/7/6 376/7/6 378/7/6
f 373/7/6 377/7/6 379/7/6
f 378/7/6 376/7/6 380/7/6
f 373/7/6 379/7/6 381/7/6
f 379/7/6 380/7/6 381/7/6
f 381/7/6 380/7/6 382/7/6
f 380/7/6 376/7/6 383/7/6
f 382/7/6 380/7/6 383/7/6
f 383/7/6 376/7/6 384/7/6
f 382/6/6 383/6/6 385/6/6
f 385/6/6 383/6/6 386/6/6
f 387/6/6 388/6/6 389/6/6
f 389/6/6 388/6/6 390/6/6
f 391/7/6 392/7/6 393/7/6
f 393/7/6 392/7/6 394/7/6
f 395/5/6 396/5/6 397/5/6
f 397/5/6 396/5/6 398/5/6
f 399/6/6 400/6/6 401/6/6
f 401/6/6 400/6/6 402/6/6
f 402/6/6 403/6/6 405/6/6
f 405/6/6 403/6/6 406/6/6
f 404/6/6 405/6/6 407/6/6
f 407/6/6 405/6/6 408/6/6
f 409/5/6 410/5/6 411/5/6
f 411/5/6 410/5/6 412/5/6
f 413/5/6 414/5/6 415/5/6
f 415/5/6 414/5/6 416/5/6
