# MagicaVoxel @ Ephtracy

# group
o 

# material
mtllib claw.vox.mtl
usemtl palette

# normals
vn -1 0 0
vn 1 0 0
vn 0 0 1
vn 0 0 -1
vn 0 -1 0
vn 0 1 0

# texcoords
vt 0.419922 0.5
vt 0.556641 0.5
vt 0.701172 0.5
vt 0.966797 0.5

# verts
v -0.4 0.1 0
v -0.4 0.1 -0.2
v -0.4 0.4 0
v -0.4 0.4 -0.2
v -0.3 -0.2 -0.1
v -0.3 -0.2 -0.3
v -0.3 -0.2 -0.5
v -0.3 -0.2 -0.6
v -0.3 -0.1 -0.1
v -0.3 -0.1 -0.3
v -0.3 -0.1 -0.5
v -0.3 -0.1 -0.6
v -0.3 0 -0.1
v -0.3 0 -0.3
v -0.3 0 -0.5
v -0.3 0 -0.6
v -0.3 0.1 -0.1
v -0.3 0.1 -0.2
v -0.3 0.1 -0.3
v -0.3 0.1 -0.5
v -0.3 0.1 -0.6
v -0.3 0.2 0.1
v -0.3 0.2 0
v -0.3 0.2 -0.2
v -0.3 0.2 -0.3
v -0.3 0.2 -0.5
v -0.3 0.2 -0.6
v -0.3 0.3 -0.2
v -0.3 0.3 -0.3
v -0.3 0.3 -0.5
v -0.3 0.3 -0.6
v -0.3 0.4 0.1
v -0.3 0.4 0
v -0.1 -0.2 0
v -0.1 -0.2 -0.1
v -0.1 -0.1 0.1
v -0.1 -0.1 0
v -0.1 -0.1 -0.1
v -0.1 0 0
v -0.1 0 -0.1
v -0.1 0.1 0
v -0.1 0.1 -0.1
v -0.1 0.2 0.1
v -0.1 0.2 0
v -0.1 0.2 -0.1
v 0 -0.1 -0.6
v 0 -0.1 -1.1
v 0 0 -0.6
v 0 0 -1.1
v 0 0.1 -0.6
v 0 0.1 -1.1
v 0 0.2 -0.6
v 0 0.2 -1.1
v -0.2 0.1 0
v -0.2 0.1 -0.1
v -0.2 0.2 0
v -0.2 0.2 -0.1
v -0.1 0.3 -0.1
v -0.1 0.3 -0.2
v -0.1 0.4 -0.1
v -0.1 0.4 -0.2
v 0 0.3 0.1
v 0 0.3 0
v 0 0.3 -0.1
v 0 0.4 0.1
v 0 0.4 0
v 0 0.4 -0.1
v 0.1 -0.2 -0.5
v 0.1 -0.2 -0.6
v 0.1 -0.1 -0.5
v 0.1 -0.1 -0.6
v 0.1 -0.1 -1
v 0.1 -0.1 -1.1
v 0.1 0 -0.5
v 0.1 0 -0.6
v 0.1 0 -1
v 0.1 0 -1.1
v 0.1 0.1 -0.5
v 0.1 0.1 -0.6
v 0.1 0.1 -1
v 0.1 0.1 -1.1
v 0.1 0.2 -0.5
v 0.1 0.2 -0.6
v 0.1 0.2 -1
v 0.1 0.2 -1.1
v 0.1 0.3 -0.5
v 0.1 0.3 -0.6
v 0.2 -0.2 0
v 0.2 -0.2 -0.2
v 0.2 -0.2 -0.3
v 0.2 -0.2 -0.5
v 0.2 -0.1 0.1
v 0.2 -0.1 0
v 0.2 -0.1 -0.2
v 0.2 -0.1 -0.3
v 0.2 -0.1 -0.5
v 0.2 -0.1 -1
v 0.2 0 0
v 0.2 0 -0.2
v 0.2 0 -0.3
v 0.2 0 -0.5
v 0.2 0 -1
v 0.2 0.1 0
v 0.2 0.1 -0.2
v 0.2 0.1 -0.3
v 0.2 0.1 -0.5
v 0.2 0.1 -1
v 0.2 0.2 0
v 0.2 0.2 -0.2
v 0.2 0.2 -0.3
v 0.2 0.2 -0.5
v 0.2 0.2 -1
v 0.2 0.3 0.1
v 0.2 0.3 0
v 0.2 0.3 -0.2
v 0.2 0.3 -0.3
v 0.2 0.3 -0.5
v -0.3 0.2 0.1
v -0.3 0.4 0.1
v -0.1 -0.1 0.1
v -0.1 0.2 0.1
v -0.1 0.4 0.1
v 0 0.3 0.1
v 0 0.4 0.1
v 0.1 -0.1 0.1
v 0.1 0.2 0.1
v 0.2 -0.1 0.1
v 0.2 0.3 0.1
v -0.4 0.1 0
v -0.4 0.4 0
v -0.3 0.2 0
v -0.3 0.4 0
v -0.2 0.1 0
v -0.2 0.2 0
v -0.1 -0.2 0
v -0.1 -0.1 0
v 0.1 -0.2 0
v 0.1 -0.1 0
v 0.2 -0.2 0
v 0.2 -0.1 0
v -0.3 -0.2 -0.1
v -0.3 -0.1 -0.1
v -0.3 0 -0.1
v -0.3 0.1 -0.1
v -0.2 0.1 -0.1
v -0.2 0.2 -0.1
v -0.1 -0.2 -0.1
v -0.1 -0.1 -0.1
v -0.1 0 -0.1
v -0.1 0.1 -0.1
v -0.1 0.2 -0.1
v -0.1 0.3 -0.1
v -0.1 0.4 -0.1
v 0 0.3 -0.1
v 0 0.4 -0.1
v -0.4 0.1 -0.2
v -0.4 0.4 -0.2
v -0.3 0.1 -0.2
v -0.3 0.2 -0.2
v -0.3 0.3 -0.2
v -0.2 0.3 -0.2
v -0.2 0.4 -0.2
v -0.1 0.3 -0.2
v -0.1 0.4 -0.2
v 0.1 -0.2 -0.5
v 0.1 -0.1 -0.5
v 0.1 0 -0.5
v 0.1 0.1 -0.5
v 0.1 0.2 -0.5
v 0.1 0.3 -0.5
v 0.2 -0.2 -0.5
v 0.2 -0.1 -0.5
v 0.2 0 -0.5
v 0.2 0.1 -0.5
v 0.2 0.2 -0.5
v 0.2 0.3 -0.5
v -0.3 -0.2 -0.6
v -0.3 -0.1 -0.6
v -0.3 0 -0.6
v -0.3 0.1 -0.6
v -0.3 0.2 -0.6
v -0.3 0.3 -0.6
v -0.2 -0.2 -0.6
v -0.2 -0.1 -0.6
v -0.2 0 -0.6
v -0.2 0.1 -0.6
v -0.2 0.2 -0.6
v -0.2 0.3 -0.6
v 0 -0.2 -0.6
v 0 -0.1 -0.6
v 0 0 -0.6
v 0 0.1 -0.6
v 0 0.2 -0.6
v 0 0.3 -0.6
v 0.1 -0.2 -0.6
v 0.1 -0.1 -0.6
v 0.1 0 -0.6
v 0.1 0.1 -0.6
v 0.1 0.2 -0.6
v 0.1 0.3 -0.6
v 0.1 -0.1 -1
v 0.1 0 -1
v 0.1 0.1 -1
v 0.1 0.2 -1
v 0.2 -0.1 -1
v 0.2 0 -1
v 0.2 0.1 -1
v 0.2 0.2 -1
v 0 -0.1 -1.1
v 0 0 -1.1
v 0 0.1 -1.1
v 0 0.2 -1.1
v 0.1 -0.1 -1.1
v 0.1 0 -1.1
v 0.1 0.1 -1.1
v 0.1 0.2 -1.1
v -0.1 -0.2 0
v 0.1 -0.2 0
v 0.2 -0.2 0
v -0.3 -0.2 -0.1
v -0.1 -0.2 -0.1
v 0.1 -0.2 -0.2
v 0.2 -0.2 -0.2
v -0.3 -0.2 -0.3
v -0.2 -0.2 -0.3
v 0.1 -0.2 -0.3
v 0.2 -0.2 -0.3
v -0.3 -0.2 -0.5
v -0.2 -0.2 -0.5
v 0 -0.2 -0.5
v 0.1 -0.2 -0.5
v 0.2 -0.2 -0.5
v -0.3 -0.2 -0.6
v -0.2 -0.2 -0.6
v 0 -0.2 -0.6
v 0.1 -0.2 -0.6
v -0.1 -0.1 0.1
v 0.1 -0.1 0.1
v 0.2 -0.1 0.1
v -0.1 -0.1 0
v 0.1 -0.1 0
v 0.2 -0.1 0
v 0.1 -0.1 -0.5
v 0.2 -0.1 -0.5
v 0 -0.1 -0.6
v 0.1 -0.1 -0.6
v 0.1 -0.1 -1
v 0.2 -0.1 -1
v 0 -0.1 -1.1
v 0.1 -0.1 -1.1
v -0.4 0.1 0
v -0.2 0.1 0
v -0.3 0.1 -0.1
v -0.2 0.1 -0.1
v -0.4 0.1 -0.2
v -0.3 0.1 -0.2
v 0.1 0.1 -0.5
v 0.2 0.1 -0.5
v 0 0.1 -0.6
v 0.1 0.1 -0.6
v 0.1 0.1 -1
v 0.2 0.1 -1
v 0 0.1 -1.1
v 0.1 0.1 -1.1
v -0.3 0.2 0.1
v -0.1 0.2 0.1
v -0.3 0.2 0
v -0.2 0.2 0
v -0.1 0.2 0
v -0.2 0.2 -0.1
v -0.1 0.2 -0.1
v 0.1 0 -0.5
v 0.2 0 -0.5
v 0 0 -0.6
v 0.1 0 -0.6
v 0.1 0 -1
v 0.2 0 -1
v 0 0 -1.1
v 0.1 0 -1.1
v 0.1 0.2 -0.5
v 0.2 0.2 -0.5
v 0 0.2 -0.6
v 0.1 0.2 -0.6
v 0.1 0.2 -1
v 0.2 0.2 -1
v 0 0.2 -1.1
v 0.1 0.2 -1.1
v 0 0.3 0.1
v 0.2 0.3 0.1
v 0 0.3 0
v 0.2 0.3 0
v -0.1 0.3 -0.1
v 0 0.3 -0.1
v -0.3 0.3 -0.2
v -0.2 0.3 -0.2
v -0.1 0.3 -0.2
v 0 0.3 -0.2
v 0.2 0.3 -0.2
v -0.3 0.3 -0.3
v -0.2 0.3 -0.3
v -0.1 0.3 -0.3
v 0 0.3 -0.3
v 0.2 0.3 -0.3
v -0.2 0.3 -0.4
v 0 0.3 -0.4
v 0.1 0.3 -0.4
v -0.3 0.3 -0.5
v -0.2 0.3 -0.5
v 0.1 0.3 -0.5
v 0.2 0.3 -0.5
v -0.3 0.3 -0.6
v -0.2 0.3 -0.6
v 0 0.3 -0.6
v 0.1 0.3 -0.6
v -0.3 0.4 0.1
v -0.1 0.4 0.1
v 0 0.4 0.1
v -0.4 0.4 0
v -0.3 0.4 0
v -0.1 0.4 0
v 0 0.4 0
v -0.3 0.4 -0.1
v -0.2 0.4 -0.1
v -0.1 0.4 -0.1
v 0 0.4 -0.1
v -0.4 0.4 -0.2
v -0.2 0.4 -0.2
v -0.1 0.4 -0.2

# faces
f 3/2/1 2/2/1 1/2/1
f 4/2/1 2/2/1 3/2/1
f 9/2/1 6/2/1 5/2/1
f 10/1/1 7/1/1 6/1/1
f 10/2/1 6/2/1 9/2/1
f 11/2/1 8/2/1 7/2/1
f 11/1/1 7/1/1 10/1/1
f 12/2/1 8/2/1 11/2/1
f 13/3/1 10/3/1 9/3/1
f 13/3/1 11/3/1 10/3/1
f 13/3/1 12/3/1 11/3/1
f 14/3/1 12/3/1 13/3/1
f 15/3/1 12/3/1 14/3/1
f 16/3/1 12/3/1 15/3/1
f 17/2/1 14/2/1 13/2/1
f 18/2/1 14/2/1 17/2/1
f 19/1/1 15/1/1 14/1/1
f 19/2/1 14/2/1 18/2/1
f 20/2/1 16/2/1 15/2/1
f 20/1/1 15/1/1 19/1/1
f 21/2/1 16/2/1 20/2/1
f 24/3/1 19/3/1 18/3/1
f 24/3/1 20/3/1 19/3/1
f 24/3/1 21/3/1 20/3/1
f 25/3/1 21/3/1 24/3/1
f 26/3/1 21/3/1 25/3/1
f 27/3/1 21/3/1 26/3/1
f 28/2/1 25/2/1 24/2/1
f 29/1/1 26/1/1 25/1/1
f 29/2/1 25/2/1 28/2/1
f 30/2/1 27/2/1 26/2/1
f 30/1/1 26/1/1 29/1/1
f 31/2/1 27/2/1 30/2/1
f 32/1/1 23/1/1 22/1/1
f 33/1/1 23/1/1 32/1/1
f 37/2/1 35/2/1 34/2/1
f 38/2/1 35/2/1 37/2/1
f 39/3/1 37/3/1 36/3/1
f 39/2/1 38/2/1 37/2/1
f 40/2/1 38/2/1 39/2/1
f 41/3/1 39/3/1 36/3/1
f 41/3/1 40/3/1 39/3/1
f 42/3/1 40/3/1 41/3/1
f 43/3/1 41/3/1 36/3/1
f 44/2/1 42/2/1 41/2/1
f 44/3/1 41/3/1 43/3/1
f 45/2/1 42/2/1 44/2/1
f 48/4/1 47/4/1 46/4/1
f 49/4/1 47/4/1 48/4/1
f 52/4/1 51/4/1 50/4/1
f 53/4/1 51/4/1 52/4/1
f 54/2/2 55/2/2 56/2/2
f 56/2/2 55/2/2 57/2/2
f 58/1/2 59/1/2 60/1/2
f 60/1/2 59/1/2 61/1/2
f 62/2/2 63/2/2 65/2/2
f 63/1/2 64/1/2 66/1/2
f 65/2/2 63/2/2 66/2/2
f 66/1/2 64/1/2 67/1/2
f 68/2/2 69/2/2 70/2/2
f 70/2/2 69/2/2 71/2/2
f 72/4/2 73/4/2 76/4/2
f 76/4/2 73/4/2 77/4/2
f 74/2/2 75/2/2 78/2/2
f 78/2/2 75/2/2 79/2/2
f 80/4/2 81/4/2 84/4/2
f 84/4/2 81/4/2 85/4/2
f 82/2/2 83/2/2 86/2/2
f 86/2/2 83/2/2 87/2/2
f 88/1/2 89/1/2 93/1/2
f 89/2/2 90/2/2 94/2/2
f 93/1/2 89/1/2 94/1/2
f 90/1/2 91/1/2 95/1/2
f 94/2/2 90/2/2 95/2/2
f 95/1/2 91/1/2 96/1/2
f 93/4/2 94/4/2 98/4/2
f 96/4/2 97/4/2 98/4/2
f 95/4/2 96/4/2 98/4/2
f 94/4/2 95/4/2 98/4/2
f 92/2/2 93/2/2 98/2/2
f 98/4/2 97/4/2 99/4/2
f 99/4/2 97/4/2 100/4/2
f 100/4/2 97/4/2 101/4/2
f 101/4/2 97/4/2 102/4/2
f 92/2/2 98/2/2 103/2/2
f 98/1/2 99/1/2 103/1/2
f 99/2/2 100/2/2 104/2/2
f 103/1/2 99/1/2 104/1/2
f 100/1/2 101/1/2 105/1/2
f 104/2/2 100/2/2 105/2/2
f 105/1/2 101/1/2 106/1/2
f 103/4/2 104/4/2 108/4/2
f 106/4/2 107/4/2 108/4/2
f 105/4/2 106/4/2 108/4/2
f 104/4/2 105/4/2 108/4/2
f 92/2/2 103/2/2 108/2/2
f 108/4/2 107/4/2 109/4/2
f 109/4/2 107/4/2 110/4/2
f 110/4/2 107/4/2 111/4/2
f 111/4/2 107/4/2 112/4/2
f 92/2/2 108/2/2 113/2/2
f 108/1/2 109/1/2 114/1/2
f 113/2/2 108/2/2 114/2/2
f 109/2/2 110/2/2 115/2/2
f 114/1/2 109/1/2 115/1/2
f 110/1/2 111/1/2 116/1/2
f 115/2/2 110/2/2 116/2/2
f 116/1/2 111/1/2 117/1/2
f 121/1/3 119/1/3 118/1/3
f 122/1/3 119/1/3 121/1/3
f 123/2/3 122/2/3 121/2/3
f 124/2/3 122/2/3 123/2/3
f 125/3/3 121/3/3 120/3/3
f 126/2/3 123/2/3 121/2/3
f 126/3/3 121/3/3 125/3/3
f 127/2/3 126/2/3 125/2/3
f 128/2/3 123/2/3 126/2/3
f 128/2/3 126/2/3 127/2/3
f 131/2/3 130/2/3 129/2/3
f 132/2/3 130/2/3 131/2/3
f 133/2/3 131/2/3 129/2/3
f 134/2/3 131/2/3 133/2/3
f 137/2/3 136/2/3 135/2/3
f 138/2/3 136/2/3 137/2/3
f 139/1/3 138/1/3 137/1/3
f 140/1/3 138/1/3 139/1/3
f 145/2/3 144/2/3 143/2/3
f 147/2/3 142/2/3 141/2/3
f 148/3/3 143/3/3 142/3/3
f 148/2/3 142/2/3 147/2/3
f 149/2/3 145/2/3 143/2/3
f 149/3/3 143/3/3 148/3/3
f 150/3/3 146/3/3 145/3/3
f 150/2/3 145/2/3 149/2/3
f 151/3/3 146/3/3 150/3/3
f 152/1/4 153/1/4 154/1/4
f 154/1/4 153/1/4 155/1/4
f 156/2/4 157/2/4 158/2/4
f 158/2/4 157/2/4 159/2/4
f 159/2/4 157/2/4 160/2/4
f 160/2/4 157/2/4 161/2/4
f 161/2/4 157/2/4 162/2/4
f 161/1/4 162/1/4 163/1/4
f 163/1/4 162/1/4 164/1/4
f 165/1/4 166/1/4 171/1/4
f 171/1/4 166/1/4 172/1/4
f 167/1/4 168/1/4 173/1/4
f 173/1/4 168/1/4 174/1/4
f 169/1/4 170/1/4 175/1/4
f 175/1/4 170/1/4 176/1/4
f 177/2/4 178/2/4 183/2/4
f 178/3/4 179/3/4 184/3/4
f 183/2/4 178/2/4 184/2/4
f 179/2/4 180/2/4 185/2/4
f 184/3/4 179/3/4 185/3/4
f 180/3/4 181/3/4 186/3/4
f 185/2/4 180/2/4 186/2/4
f 181/2/4 182/2/4 187/2/4
f 186/3/4 181/3/4 187/3/4
f 187/2/4 182/2/4 188/2/4
f 183/1/4 184/1/4 189/1/4
f 184/3/4 185/3/4 190/3/4
f 189/1/4 184/1/4 190/1/4
f 185/1/4 186/1/4 191/1/4
f 190/3/4 185/3/4 191/3/4
f 186/3/4 187/3/4 192/3/4
f 191/1/4 186/1/4 192/1/4
f 187/1/4 188/1/4 193/1/4
f 192/3/4 187/3/4 193/3/4
f 193/1/4 188/1/4 194/1/4
f 189/2/4 190/2/4 195/2/4
f 195/2/4 190/2/4 196/2/4
f 191/2/4 192/2/4 197/2/4
f 197/2/4 192/2/4 198/2/4
f 193/2/4 194/2/4 199/2/4
f 199/2/4 194/2/4 200/2/4
f 201/4/4 202/4/4 205/4/4
f 205/4/4 202/4/4 206/4/4
f 203/4/4 204/4/4 207/4/4
f 207/4/4 204/4/4 208/4/4
f 209/4/4 210/4/4 213/4/4
f 213/4/4 210/4/4 214/4/4
f 211/4/4 212/4/4 215/4/4
f 215/4/4 212/4/4 216/4/4
f 221/2/5 218/2/5 217/2/5
f 222/1/5 219/1/5 218/1/5
f 222/2/5 221/2/5 220/2/5
f 222/2/5 218/2/5 221/2/5
f 223/1/5 219/1/5 222/1/5
f 224/2/5 222/2/5 220/2/5
f 224/2/5 223/2/5 222/2/5
f 225/2/5 223/2/5 224/2/5
f 226/2/5 223/2/5 225/2/5
f 227/2/5 223/2/5 226/2/5
f 228/1/5 225/1/5 224/1/5
f 229/2/5 226/2/5 225/2/5
f 229/1/5 225/1/5 228/1/5
f 230/2/5 226/2/5 229/2/5
f 231/1/5 227/1/5 226/1/5
f 231/2/5 226/2/5 230/2/5
f 232/1/5 227/1/5 231/1/5
f 233/2/5 229/2/5 228/2/5
f 234/1/5 230/1/5 229/1/5
f 234/2/5 229/2/5 233/2/5
f 235/2/5 231/2/5 230/2/5
f 235/1/5 230/1/5 234/1/5
f 236/2/5 231/2/5 235/2/5
f 240/3/5 238/3/5 237/3/5
f 241/2/5 239/2/5 238/2/5
f 241/3/5 238/3/5 240/3/5
f 242/2/5 239/2/5 241/2/5
f 246/4/5 244/4/5 243/4/5
f 247/4/5 244/4/5 246/4/5
f 247/4/5 246/4/5 245/4/5
f 248/4/5 244/4/5 247/4/5
f 249/4/5 247/4/5 245/4/5
f 250/4/5 247/4/5 249/4/5
f 253/2/5 252/2/5 251/2/5
f 254/2/5 252/2/5 253/2/5
f 255/2/5 253/2/5 251/2/5
f 256/2/5 253/2/5 255/2/5
f 260/4/5 258/4/5 257/4/5
f 261/4/5 258/4/5 260/4/5
f 261/4/5 260/4/5 259/4/5
f 262/4/5 258/4/5 261/4/5
f 263/4/5 261/4/5 259/4/5
f 264/4/5 261/4/5 263/4/5
f 267/1/5 266/1/5 265/1/5
f 268/1/5 266/1/5 267/1/5
f 269/1/5 266/1/5 268/1/5
f 270/1/5 269/1/5 268/1/5
f 271/1/5 269/1/5 270/1/5
f 272/4/6 273/4/6 275/4/6
f 275/4/6 273/4/6 276/4/6
f 274/4/6 275/4/6 276/4/6
f 276/4/6 273/4/6 277/4/6
f 274/4/6 276/4/6 278/4/6
f 278/4/6 276/4/6 279/4/6
f 280/4/6 281/4/6 283/4/6
f 283/4/6 281/4/6 284/4/6
f 282/4/6 283/4/6 284/4/6
f 284/4/6 281/4/6 285/4/6
f 282/4/6 284/4/6 286/4/6
f 286/4/6 284/4/6 287/4/6
f 288/2/6 289/2/6 290/2/6
f 290/2/6 289/2/6 291/2/6
f 290/1/6 291/1/6 293/1/6
f 292/3/6 293/3/6 296/3/6
f 293/1/6 291/1/6 297/1/6
f 296/3/6 293/3/6 297/3/6
f 297/1/6 291/1/6 298/1/6
f 295/2/6 296/2/6 299/2/6
f 294/2/6 295/2/6 299/2/6
f 299/2/6 296/2/6 300/2/6
f 296/3/6 297/3/6 301/3/6
f 300/2/6 296/2/6 301/2/6
f 297/2/6 298/2/6 302/2/6
f 301/3/6 297/3/6 302/3/6
f 302/2/6 298/2/6 303/2/6
f 300/3/6 301/3/6 304/3/6
f 299/1/6 300/1/6 304/1/6
f 301/3/6 302/3/6 304/3/6
f 302/1/6 303/1/6 305/1/6
f 304/3/6 302/3/6 305/3/6
f 305/1/6 303/1/6 306/1/6
f 299/1/6 304/1/6 307/1/6
f 304/1/6 305/1/6 307/1/6
f 307/1/6 305/1/6 308/1/6
f 306/1/6 303/1/6 309/1/6
f 305/2/6 306/2/6 309/2/6
f 309/1/6 303/1/6 310/1/6
f 307/2/6 308/2/6 311/2/6
f 308/1/6 305/1/6 312/1/6
f 311/2/6 308/2/6 312/2/6
f 305/2/6 309/2/6 313/2/6
f 312/1/6 305/1/6 313/1/6
f 313/2/6 309/2/6 314/2/6
f 315/1/6 316/1/6 319/1/6
f 316/2/6 317/2/6 320/2/6
f 319/1/6 316/1/6 320/1/6
f 320/2/6 317/2/6 321/2/6
f 318/2/6 319/2/6 322/2/6
f 319/1/6 320/1/6 322/1/6
f 320/1/6 321/1/6 322/1/6
f 322/1/6 321/1/6 323/1/6
f 323/1/6 321/1/6 324/1/6
f 324/1/6 321/1/6 325/1/6
f 318/2/6 322/2/6 326/2/6
f 322/2/6 323/2/6 326/2/6
f 323/1/6 324/1/6 327/1/6
f 326/2/6 323/2/6 327/2/6
f 327/1/6 324/1/6 328/1/6
