# MagicaVoxel @ Ephtracy

# group
o 

# material
mtllib club.vox.mtl
usemtl palette

# normals
vn -1 0 0
vn 1 0 0
vn 0 0 1
vn 0 0 -1
vn 0 -1 0
vn 0 1 0

# texcoords
vt 0.369141 0.5
vt 0.537109 0.5
vt 0.806641 0.5
vt 0.833984 0.5
vt 0.970703 0.5
vt 0.986328 0.5

# verts
v -0.3 0.7 0.1
v -0.3 0.7 0
v -0.3 0.8 0.1
v -0.3 0.8 0
v -0.3 0.9 0.1
v -0.3 0.9 0
v -0.3 1 0.1
v -0.3 1 0
v -0.3 1.1 0.1
v -0.3 1.1 0
v -0.3 1.2 0.1
v -0.3 1.2 0
v -0.2 0.4 0.2
v -0.2 0.4 -0.1
v -0.2 0.5 0.1
v -0.2 0.5 0
v -0.2 0.7 0.2
v -0.2 0.7 0.1
v -0.2 0.7 0
v -0.2 0.7 -0.1
v -0.2 0.8 0.2
v -0.2 0.8 0.1
v -0.2 0.8 0
v -0.2 0.8 -0.1
v -0.2 0.9 0.2
v -0.2 0.9 0.1
v -0.2 0.9 0
v -0.2 0.9 -0.1
v -0.2 1 0.2
v -0.2 1 0.1
v -0.2 1 0
v -0.2 1 -0.1
v -0.2 1.1 0.2
v -0.2 1.1 0.1
v -0.2 1.1 0
v -0.2 1.1 -0.1
v -0.2 1.2 0.2
v -0.2 1.2 0.1
v -0.2 1.2 0
v -0.2 1.2 -0.1
v -0.2 1.3 0.2
v -0.2 1.3 -0.1
v -0.1 -0.4 0.1
v -0.1 -0.4 0
v -0.1 -0.3 0.1
v -0.1 -0.3 0
v -0.1 0.2 0.1
v -0.1 0.2 0
v -0.1 0.3 0.1
v -0.1 0.3 0
v -0.1 0.4 0.1
v -0.1 0.4 0
v -0.1 0.7 0.3
v -0.1 0.7 0.2
v -0.1 0.7 -0.1
v -0.1 0.7 -0.2
v -0.1 0.8 0.3
v -0.1 0.8 0.2
v -0.1 0.8 -0.1
v -0.1 0.8 -0.2
v -0.1 0.9 0.3
v -0.1 0.9 0.2
v -0.1 0.9 -0.1
v -0.1 0.9 -0.2
v -0.1 1 0.3
v -0.1 1 0.2
v -0.1 1 -0.1
v -0.1 1 -0.2
v -0.1 1.1 0.3
v -0.1 1.1 0.2
v -0.1 1.1 -0.1
v -0.1 1.1 -0.2
v -0.1 1.2 0.3
v -0.1 1.2 0.2
v -0.1 1.2 -0.1
v -0.1 1.2 -0.2
v 0 -0.4 0.1
v 0 -0.4 0
v 0 -0.3 0.1
v 0 -0.3 0
v 0 0.2 0.1
v 0 0.2 0
v 0 0.3 0.1
v 0 0.3 0
v 0 0.4 0.1
v 0 0.4 0
v 0 0.7 0.3
v 0 0.7 0.2
v 0 0.7 -0.1
v 0 0.7 -0.2
v 0 0.8 0.3
v 0 0.8 0.2
v 0 0.8 -0.1
v 0 0.8 -0.2
v 0 0.9 0.3
v 0 0.9 0.2
v 0 0.9 -0.1
v 0 0.9 -0.2
v 0 1 0.3
v 0 1 0.2
v 0 1 -0.1
v 0 1 -0.2
v 0 1.1 0.3
v 0 1.1 0.2
v 0 1.1 -0.1
v 0 1.1 -0.2
v 0 1.2 0.3
v 0 1.2 0.2
v 0 1.2 -0.1
v 0 1.2 -0.2
v 0.1 0.4 0.2
v 0.1 0.4 -0.1
v 0.1 0.5 0.1
v 0.1 0.5 0
v 0.1 0.7 0.2
v 0.1 0.7 0.1
v 0.1 0.7 0
v 0.1 0.7 -0.1
v 0.1 0.8 0.2
v 0.1 0.8 0.1
v 0.1 0.8 0
v 0.1 0.8 -0.1
v 0.1 0.9 0.2
v 0.1 0.9 0.1
v 0.1 0.9 0
v 0.1 0.9 -0.1
v 0.1 1 0.2
v 0.1 1 0.1
v 0.1 1 0
v 0.1 1 -0.1
v 0.1 1.1 0.2
v 0.1 1.1 0.1
v 0.1 1.1 0
v 0.1 1.1 -0.1
v 0.1 1.2 0.2
v 0.1 1.2 0.1
v 0.1 1.2 0
v 0.1 1.2 -0.1
v 0.1 1.3 0.2
v 0.1 1.3 -0.1
v 0.2 0.7 0.1
v 0.2 0.7 0
v 0.2 0.8 0.1
v 0.2 0.8 0
v 0.2 0.9 0.1
v 0.2 0.9 0
v 0.2 1 0.1
v 0.2 1 0
v 0.2 1.1 0.1
v 0.2 1.1 0
v 0.2 1.2 0.1
v 0.2 1.2 0
v -0.1 0.7 0.3
v -0.1 0.8 0.3
v -0.1 0.9 0.3
v -0.1 1 0.3
v -0.1 1.1 0.3
v -0.1 1.2 0.3
v 0 0.7 0.3
v 0 0.8 0.3
v 0 0.9 0.3
v 0 1 0.3
v 0 1.1 0.3
v 0 1.2 0.3
v -0.2 0.4 0.2
v -0.2 0.7 0.2
v -0.2 0.8 0.2
v -0.2 0.9 0.2
v -0.2 1 0.2
v -0.2 1.1 0.2
v -0.2 1.2 0.2
v -0.2 1.3 0.2
v -0.1 0.5 0.2
v -0.1 0.7 0.2
v -0.1 0.8 0.2
v -0.1 0.9 0.2
v -0.1 1 0.2
v -0.1 1.1 0.2
v -0.1 1.2 0.2
v 0 0.5 0.2
v 0 0.7 0.2
v 0 0.8 0.2
v 0 0.9 0.2
v 0 1 0.2
v 0 1.1 0.2
v 0 1.2 0.2
v 0.1 0.4 0.2
v 0.1 0.7 0.2
v 0.1 0.8 0.2
v 0.1 0.9 0.2
v 0.1 1 0.2
v 0.1 1.1 0.2
v 0.1 1.2 0.2
v 0.1 1.3 0.2
v -0.3 0.7 0.1
v -0.3 0.8 0.1
v -0.3 0.9 0.1
v -0.3 1 0.1
v -0.3 1.1 0.1
v -0.3 1.2 0.1
v -0.2 0.7 0.1
v -0.2 0.8 0.1
v -0.2 0.9 0.1
v -0.2 1 0.1
v -0.2 1.1 0.1
v -0.2 1.2 0.1
v -0.1 -0.4 0.1
v -0.1 -0.3 0.1
v -0.1 0.2 0.1
v -0.1 0.3 0.1
v -0.1 0.4 0.1
v 0 -0.4 0.1
v 0 -0.3 0.1
v 0 0.2 0.1
v 0 0.3 0.1
v 0 0.4 0.1
v 0.1 0.7 0.1
v 0.1 0.8 0.1
v 0.1 0.9 0.1
v 0.1 1 0.1
v 0.1 1.1 0.1
v 0.1 1.2 0.1
v 0.2 0.7 0.1
v 0.2 0.8 0.1
v 0.2 0.9 0.1
v 0.2 1 0.1
v 0.2 1.1 0.1
v 0.2 1.2 0.1
v -0.3 0.7 0
v -0.3 0.8 0
v -0.3 0.9 0
v -0.3 1 0
v -0.3 1.1 0
v -0.3 1.2 0
v -0.2 0.7 0
v -0.2 0.8 0
v -0.2 0.9 0
v -0.2 1 0
v -0.2 1.1 0
v -0.2 1.2 0
v -0.1 -0.4 0
v -0.1 -0.3 0
v -0.1 0.2 0
v -0.1 0.3 0
v -0.1 0.4 0
v 0 -0.4 0
v 0 -0.3 0
v 0 0.2 0
v 0 0.3 0
v 0 0.4 0
v 0.1 0.7 0
v 0.1 0.8 0
v 0.1 0.9 0
v 0.1 1 0
v 0.1 1.1 0
v 0.1 1.2 0
v 0.2 0.7 0
v 0.2 0.8 0
v 0.2 0.9 0
v 0.2 1 0
v 0.2 1.1 0
v 0.2 1.2 0
v -0.2 0.4 -0.1
v -0.2 0.7 -0.1
v -0.2 0.8 -0.1
v -0.2 0.9 -0.1
v -0.2 1 -0.1
v -0.2 1.1 -0.1
v -0.2 1.2 -0.1
v -0.2 1.3 -0.1
v -0.1 0.5 -0.1
v -0.1 0.7 -0.1
v -0.1 0.8 -0.1
v -0.1 0.9 -0.1
v -0.1 1 -0.1
v -0.1 1.1 -0.1
v -0.1 1.2 -0.1
v 0 0.5 -0.1
v 0 0.7 -0.1
v 0 0.8 -0.1
v 0 0.9 -0.1
v 0 1 -0.1
v 0 1.1 -0.1
v 0 1.2 -0.1
v 0.1 0.4 -0.1
v 0.1 0.7 -0.1
v 0.1 0.8 -0.1
v 0.1 0.9 -0.1
v 0.1 1 -0.1
v 0.1 1.1 -0.1
v 0.1 1.2 -0.1
v 0.1 1.3 -0.1
v -0.1 0.7 -0.2
v -0.1 0.8 -0.2
v -0.1 0.9 -0.2
v -0.1 1 -0.2
v -0.1 1.1 -0.2
v -0.1 1.2 -0.2
v 0 0.7 -0.2
v 0 0.8 -0.2
v 0 0.9 -0.2
v 0 1 -0.2
v 0 1.1 -0.2
v 0 1.2 -0.2
v -0.1 -0.4 0.1
v 0 -0.4 0.1
v -0.1 -0.4 0
v 0 -0.4 0
v -0.2 0.4 0.2
v 0.1 0.4 0.2
v -0.1 0.4 0.1
v 0 0.4 0.1
v -0.1 0.4 0
v 0 0.4 0
v -0.2 0.4 -0.1
v 0.1 0.4 -0.1
v -0.1 0.7 0.3
v 0 0.7 0.3
v -0.1 0.7 0.2
v 0 0.7 0.2
v -0.3 0.7 0.1
v -0.2 0.7 0.1
v 0.1 0.7 0.1
v 0.2 0.7 0.1
v -0.3 0.7 0
v -0.2 0.7 0
v 0.1 0.7 0
v 0.2 0.7 0
v -0.1 0.7 -0.1
v 0 0.7 -0.1
v -0.1 0.7 -0.2
v 0 0.7 -0.2
v -0.1 0.9 0.3
v 0 0.9 0.3
v -0.1 0.9 0.2
v 0 0.9 0.2
v -0.3 0.9 0.1
v -0.2 0.9 0.1
v 0.1 0.9 0.1
v 0.2 0.9 0.1
v -0.3 0.9 0
v -0.2 0.9 0
v 0.1 0.9 0
v 0.2 0.9 0
v -0.1 0.9 -0.1
v 0 0.9 -0.1
v -0.1 0.9 -0.2
v 0 0.9 -0.2
v -0.1 1.1 0.3
v 0 1.1 0.3
v -0.1 1.1 0.2
v 0 1.1 0.2
v -0.3 1.1 0.1
v -0.2 1.1 0.1
v 0.1 1.1 0.1
v 0.2 1.1 0.1
v -0.3 1.1 0
v -0.2 1.1 0
v 0.1 1.1 0
v 0.2 1.1 0
v -0.1 1.1 -0.1
v 0 1.1 -0.1
v -0.1 1.1 -0.2
v 0 1.1 -0.2
v -0.1 0.8 0.3
v 0 0.8 0.3
v -0.1 0.8 0.2
v 0 0.8 0.2
v -0.3 0.8 0.1
v -0.2 0.8 0.1
v 0.1 0.8 0.1
v 0.2 0.8 0.1
v -0.3 0.8 0
v -0.2 0.8 0
v 0.1 0.8 0
v 0.2 0.8 0
v -0.1 0.8 -0.1
v 0 0.8 -0.1
v -0.1 0.8 -0.2
v 0 0.8 -0.2
v -0.1 1 0.3
v 0 1 0.3
v -0.1 1 0.2
v 0 1 0.2
v -0.3 1 0.1
v -0.2 1 0.1
v 0.1 1 0.1
v 0.2 1 0.1
v -0.3 1 0
v -0.2 1 0
v 0.1 1 0
v 0.2 1 0
v -0.1 1 -0.1
v 0 1 -0.1
v -0.1 1 -0.2
v 0 1 -0.2
v -0.1 1.2 0.3
v 0 1.2 0.3
v -0.1 1.2 0.2
v 0 1.2 0.2
v -0.3 1.2 0.1
v -0.2 1.2 0.1
v 0.1 1.2 0.1
v 0.2 1.2 0.1
v -0.3 1.2 0
v -0.2 1.2 0
v 0.1 1.2 0
v 0.2 1.2 0
v -0.1 1.2 -0.1
v 0 1.2 -0.1
v -0.1 1.2 -0.2
v 0 1.2 -0.2
v -0.2 1.3 0.2
v 0.1 1.3 0.2
v -0.1 1.3 0.1
v 0 1.3 0.1
v -0.1 1.3 0
v 0 1.3 0
v -0.2 1.3 -0.1
v 0.1 1.3 -0.1

# faces
f 3/5/1 2/5/1 1/5/1
f 4/5/1 2/5/1 3/5/1
f 7/5/1 6/5/1 5/5/1
f 8/5/1 6/5/1 7/5/1
f 11/5/1 10/5/1 9/5/1
f 12/5/1 10/5/1 11/5/1
f 15/1/1 14/1/1 13/1/1
f 16/1/1 14/1/1 15/1/1
f 17/1/1 15/1/1 13/1/1
f 18/2/1 16/2/1 15/2/1
f 18/1/1 15/1/1 17/1/1
f 19/1/1 14/1/1 16/1/1
f 19/2/1 16/2/1 18/2/1
f 20/1/1 14/1/1 19/1/1
f 21/6/1 18/6/1 17/6/1
f 22/6/1 18/6/1 21/6/1
f 23/6/1 20/6/1 19/6/1
f 24/6/1 20/6/1 23/6/1
f 25/1/1 22/1/1 21/1/1
f 26/2/1 23/2/1 22/2/1
f 26/1/1 22/1/1 25/1/1
f 27/1/1 24/1/1 23/1/1
f 27/2/1 23/2/1 26/2/1
f 28/1/1 24/1/1 27/1/1
f 29/6/1 26/6/1 25/6/1
f 30/6/1 26/6/1 29/6/1
f 31/6/1 28/6/1 27/6/1
f 32/6/1 28/6/1 31/6/1
f 33/1/1 30/1/1 29/1/1
f 34/2/1 31/2/1 30/2/1
f 34/1/1 30/1/1 33/1/1
f 35/1/1 32/1/1 31/1/1
f 35/2/1 31/2/1 34/2/1
f 36/1/1 32/1/1 35/1/1
f 37/6/1 34/6/1 33/6/1
f 38/6/1 34/6/1 37/6/1
f 39/6/1 36/6/1 35/6/1
f 40/6/1 36/6/1 39/6/1
f 41/1/1 38/1/1 37/1/1
f 41/1/1 39/1/1 38/1/1
f 41/1/1 40/1/1 39/1/1
f 42/1/1 40/1/1 41/1/1
f 45/1/1 44/1/1 43/1/1
f 46/1/1 44/1/1 45/1/1
f 47/3/1 46/3/1 45/3/1
f 48/3/1 46/3/1 47/3/1
f 49/4/1 48/4/1 47/4/1
f 50/4/1 48/4/1 49/4/1
f 51/2/1 50/2/1 49/2/1
f 52/2/1 50/2/1 51/2/1
f 57/5/1 54/5/1 53/5/1
f 58/5/1 54/5/1 57/5/1
f 59/5/1 56/5/1 55/5/1
f 60/5/1 56/5/1 59/5/1
f 65/5/1 62/5/1 61/5/1
f 66/5/1 62/5/1 65/5/1
f 67/5/1 64/5/1 63/5/1
f 68/5/1 64/5/1 67/5/1
f 73/5/1 70/5/1 69/5/1
f 74/5/1 70/5/1 73/5/1
f 75/5/1 72/5/1 71/5/1
f 76/5/1 72/5/1 75/5/1
f 77/1/2 78/1/2 79/1/2
f 79/1/2 78/1/2 80/1/2
f 79/3/2 80/3/2 81/3/2
f 81/3/2 80/3/2 82/3/2
f 81/4/2 82/4/2 83/4/2
f 83/4/2 82/4/2 84/4/2
f 83/2/2 84/2/2 85/2/2
f 85/2/2 84/2/2 86/2/2
f 87/5/2 88/5/2 91/5/2
f 91/5/2 88/5/2 92/5/2
f 89/5/2 90/5/2 93/5/2
f 93/5/2 90/5/2 94/5/2
f 95/5/2 96/5/2 99/5/2
f 99/5/2 96/5/2 100/5/2
f 97/5/2 98/5/2 101/5/2
f 101/5/2 98/5/2 102/5/2
f 103/5/2 104/5/2 107/5/2
f 107/5/2 104/5/2 108/5/2
f 105/5/2 106/5/2 109/5/2
f 109/5/2 106/5/2 110/5/2
f 111/1/2 112/1/2 113/1/2
f 113/1/2 112/1/2 114/1/2
f 111/1/2 113/1/2 115/1/2
f 113/2/2 114/2/2 116/2/2
f 115/1/2 113/1/2 116/1/2
f 114/1/2 112/1/2 117/1/2
f 116/2/2 114/2/2 117/2/2
f 117/1/2 112/1/2 118/1/2
f 115/6/2 116/6/2 119/6/2
f 119/6/2 116/6/2 120/6/2
f 117/6/2 118/6/2 121/6/2
f 121/6/2 118/6/2 122/6/2
f 119/1/2 120/1/2 123/1/2
f 120/2/2 121/2/2 124/2/2
f 123/1/2 120/1/2 124/1/2
f 121/1/2 122/1/2 125/1/2
f 124/2/2 121/2/2 125/2/2
f 125/1/2 122/1/2 126/1/2
f 123/6/2 124/6/2 127/6/2
f 127/6/2 124/6/2 128/6/2
f 125/6/2 126/6/2 129/6/2
f 129/6/2 126/6/2 130/6/2
f 127/1/2 128/1/2 131/1/2
f 128/2/2 129/2/2 132/2/2
f 131/1/2 128/1/2 132/1/2
f 129/1/2 130/1/2 133/1/2
f 132/2/2 129/2/2 133/2/2
f 133/1/2 130/1/2 134/1/2
f 131/6/2 132/6/2 135/6/2
f 135/6/2 132/6/2 136/6/2
f 133/6/2 134/6/2 137/6/2
f 137/6/2 134/6/2 138/6/2
f 135/1/2 136/1/2 139/1/2
f 136/1/2 137/1/2 139/1/2
f 137/1/2 138/1/2 139/1/2
f 139/1/2 138/1/2 140/1/2
f 141/5/2 142/5/2 143/5/2
f 143/5/2 142/5/2 144/5/2
f 145/5/2 146/5/2 147/5/2
f 147/5/2 146/5/2 148/5/2
f 149/5/2 150/5/2 151/5/2
f 151/5/2 150/5/2 152/5/2
f 159/5/3 154/5/3 153/5/3
f 160/5/3 154/5/3 159/5/3
f 161/5/3 156/5/3 155/5/3
f 162/5/3 156/5/3 161/5/3
f 163/5/3 158/5/3 157/5/3
f 164/5/3 158/5/3 163/5/3
f 173/1/3 166/1/3 165/1/3
f 174/6/3 167/6/3 166/6/3
f 174/1/3 166/1/3 173/1/3
f 175/1/3 168/1/3 167/1/3
f 175/6/3 167/6/3 174/6/3
f 176/6/3 169/6/3 168/6/3
f 176/1/3 168/1/3 175/1/3
f 177/1/3 170/1/3 169/1/3
f 177/6/3 169/6/3 176/6/3
f 178/6/3 171/6/3 170/6/3
f 178/1/3 170/1/3 177/1/3
f 179/1/3 172/1/3 171/1/3
f 179/6/3 171/6/3 178/6/3
f 180/1/3 173/1/3 165/1/3
f 180/2/3 174/2/3 173/2/3
f 181/2/3 174/2/3 180/2/3
f 182/2/3 176/2/3 175/2/3
f 183/2/3 176/2/3 182/2/3
f 184/2/3 178/2/3 177/2/3
f 185/2/3 178/2/3 184/2/3
f 186/1/3 172/1/3 179/1/3
f 187/1/3 181/1/3 180/1/3
f 187/1/3 180/1/3 165/1/3
f 188/6/3 182/6/3 181/6/3
f 188/1/3 181/1/3 187/1/3
f 189/1/3 183/1/3 182/1/3
f 189/6/3 182/6/3 188/6/3
f 190/6/3 184/6/3 183/6/3
f 190/1/3 183/1/3 189/1/3
f 191/1/3 185/1/3 184/1/3
f 191/6/3 184/6/3 190/6/3
f 192/6/3 186/6/3 185/6/3
f 192/1/3 185/1/3 191/1/3
f 193/1/3 172/1/3 186/1/3
f 193/6/3 186/6/3 192/6/3
f 194/1/3 172/1/3 193/1/3
f 201/5/3 196/5/3 195/5/3
f 202/5/3 196/5/3 201/5/3
f 203/5/3 198/5/3 197/5/3
f 204/5/3 198/5/3 203/5/3
f 205/5/3 200/5/3 199/5/3
f 206/5/3 200/5/3 205/5/3
f 212/1/3 208/1/3 207/1/3
f 213/3/3 209/3/3 208/3/3
f 213/1/3 208/1/3 212/1/3
f 214/4/3 210/4/3 209/4/3
f 214/3/3 209/3/3 213/3/3
f 215/2/3 211/2/3 210/2/3
f 215/4/3 210/4/3 214/4/3
f 216/2/3 211/2/3 215/2/3
f 223/5/3 218/5/3 217/5/3
f 224/5/3 218/5/3 223/5/3
f 225/5/3 220/5/3 219/5/3
f 226/5/3 220/5/3 225/5/3
f 227/5/3 222/5/3 221/5/3
f 228/5/3 222/5/3 227/5/3
f 229/5/4 230/5/4 235/5/4
f 235/5/4 230/5/4 236/5/4
f 231/5/4 232/5/4 237/5/4
f 237/5/4 232/5/4 238/5/4
f 233/5/4 234/5/4 239/5/4
f 239/5/4 234/5/4 240/5/4
f 241/1/4 242/1/4 246/1/4
f 242/3/4 243/3/4 247/3/4
f 246/1/4 242/1/4 247/1/4
f 243/4/4 244/4/4 248/4/4
f 247/3/4 243/3/4 248/3/4
f 244/2/4 245/2/4 249/2/4
f 248/4/4 244/4/4 249/4/4
f 249/2/4 245/2/4 250/2/4
f 251/5/4 252/5/4 257/5/4
f 257/5/4 252/5/4 258/5/4
f 253/5/4 254/5/4 259/5/4
f 259/5/4 254/5/4 260/5/4
f 255/5/4 256/5/4 261/5/4
f 261/5/4 256/5/4 262/5/4
f 263/1/4 264/1/4 271/1/4
f 264/6/4 265/6/4 272/6/4
f 271/1/4 264/1/4 272/1/4
f 265/1/4 266/1/4 273/1/4
f 272/6/4 265/6/4 273/6/4
f 266/6/4 267/6/4 274/6/4
f 273/1/4 266/1/4 274/1/4
f 267/1/4 268/1/4 275/1/4
f 274/6/4 267/6/4 275/6/4
f 268/6/4 269/6/4 276/6/4
f 275/1/4 268/1/4 276/1/4
f 269/1/4 270/1/4 277/1/4
f 276/6/4 269/6/4 277/6/4
f 263/1/4 271/1/4 278/1/4
f 271/2/4 272/2/4 278/2/4
f 278/2/4 272/2/4 279/2/4
f 273/2/4 274/2/4 280/2/4
f 280/2/4 274/2/4 281/2/4
f 275/2/4 276/2/4 282/2/4
f 282/2/4 276/2/4 283/2/4
f 277/1/4 270/1/4 284/1/4
f 278/1/4 279/1/4 285/1/4
f 263/1/4 278/1/4 285/1/4
f 279/6/4 280/6/4 286/6/4
f 285/1/4 279/1/4 286/1/4
f 280/1/4 281/1/4 287/1/4
f 286/6/4 280/6/4 287/6/4
f 281/6/4 282/6/4 288/6/4
f 287/1/4 281/1/4 288/1/4
f 282/1/4 283/1/4 289/1/4
f 288/6/4 282/6/4 289/6/4
f 283/6/4 284/6/4 290/6/4
f 289/1/4 283/1/4 290/1/4
f 284/1/4 270/1/4 291/1/4
f 290/6/4 284/6/4 291/6/4
f 291/1/4 270/1/4 292/1/4
f 293/5/4 294/5/4 299/5/4
f 299/5/4 294/5/4 300/5/4
f 295/5/4 296/5/4 301/5/4
f 301/5/4 296/5/4 302/5/4
f 297/5/4 298/5/4 303/5/4
f 303/5/4 298/5/4 304/5/4
f 307/1/5 306/1/5 305/1/5
f 308/1/5 306/1/5 307/1/5
f 311/1/5 310/1/5 309/1/5
f 312/1/5 310/1/5 311/1/5
f 313/1/5 311/1/5 309/1/5
f 314/1/5 310/1/5 312/1/5
f 315/1/5 313/1/5 309/1/5
f 315/1/5 314/1/5 313/1/5
f 316/1/5 310/1/5 314/1/5
f 316/1/5 314/1/5 315/1/5
f 319/5/5 318/5/5 317/5/5
f 320/5/5 318/5/5 319/5/5
f 325/5/5 322/5/5 321/5/5
f 326/5/5 322/5/5 325/5/5
f 327/5/5 324/5/5 323/5/5
f 328/5/5 324/5/5 327/5/5
f 331/5/5 330/5/5 329/5/5
f 332/5/5 330/5/5 331/5/5
f 335/5/5 334/5/5 333/5/5
f 336/5/5 334/5/5 335/5/5
f 341/5/5 338/5/5 337/5/5
f 342/5/5 338/5/5 341/5/5
f 343/5/5 340/5/5 339/5/5
f 344/5/5 340/5/5 343/5/5
f 347/5/5 346/5/5 345/5/5
f 348/5/5 346/5/5 347/5/5
f 351/5/5 350/5/5 349/5/5
f 352/5/5 350/5/5 351/5/5
f 357/5/5 354/5/5 353/5/5
f 358/5/5 354/5/5 357/5/5
f 359/5/5 356/5/5 355/5/5
f 360/5/5 356/5/5 359/5/5
f 363/5/5 362/5/5 361/5/5
f 364/5/5 362/5/5 363/5/5
f 365/5/6 366/5/6 367/5/6
f 367/5/6 366/5/6 368/5/6
f 369/5/6 370/5/6 373/5/6
f 373/5/6 370/5/6 374/5/6
f 371/5/6 372/5/6 375/5/6
f 375/5/6 372/5/6 376/5/6
f 377/5/6 378/5/6 379/5/6
f 379/5/6 378/5/6 380/5/6
f 381/5/6 382/5/6 383/5/6
f 383/5/6 382/5/6 384/5/6
f 385/5/6 386/5/6 389/5/6
f 389/5/6 386/5/6 390/5/6
f 387/5/6 388/5/6 391/5/6
f 391/5/6 388/5/6 392/5/6
f 393/5/6 394/5/6 395/5/6
f 395/5/6 394/5/6 396/5/6
f 397/5/6 398/5/6 399/5/6
f 399/5/6 398/5/6 400/5/6
f 401/5/6 402/5/6 405/5/6
f 405/5/6 402/5/6 406/5/6
f 403/5/6 404/5/6 407/5/6
f 407/5/6 404/5/6 408/5/6
f 409/5/6 410/5/6 411/5/6
f 411/5/6 410/5/6 412/5/6
f 413/1/6 414/1/6 415/1/6
f 415/1/6 414/1/6 416/1/6
f 413/1/6 415/1/6 417/1/6
f 415/2/6 416/2/6 417/2/6
f 416/1/6 414/1/6 418/1/6
f 417/2/6 416/2/6 418/2/6
f 413/1/6 417/1/6 419/1/6
f 417/1/6 418/1/6 419/1/6
f 418/1/6 414/1/6 420/1/6
f 419/1/6 418/1/6 420/1/6
