# MagicaVoxel @ Ephtracy

# group
o 

# material
mtllib crossbowPulled.vox.mtl
usemtl palette

# normals
vn -1 0 0
vn 1 0 0
vn 0 0 1
vn 0 0 -1
vn 0 -1 0
vn 0 1 0

# texcoords
vt 0.396484 0.5
vt 0.970703 0.5
vt 0.978516 0.5
vt 0.986328 0.5

# verts
v -0.6 0.1 -0.2
v -0.6 0.1 -0.5
v -0.6 0.2 -0.2
v -0.6 0.2 -0.5
v -0.5 0.1 -0.5
v -0.5 0.1 -0.6
v -0.5 0.2 -0.5
v -0.5 0.2 -0.6
v -0.4 0.1 -0.1
v -0.4 0.1 -0.2
v -0.4 0.2 -0.1
v -0.4 0.2 -0.2
v -0.3 0.1 0
v -0.3 0.1 -0.1
v -0.3 0.1 -0.6
v -0.3 0.1 -0.7
v -0.3 0.2 0
v -0.3 0.2 -0.1
v -0.3 0.2 -0.6
v -0.3 0.2 -0.7
v -0.2 -0.2 -0.4
v -0.2 -0.2 -0.6
v -0.2 0 -0.4
v -0.2 0 -0.6
v -0.2 0 -0.8
v -0.2 0 -1.1
v -0.2 0.1 0.1
v -0.2 0.1 0
v -0.2 0.1 -0.8
v -0.2 0.1 -1.1
v -0.2 0.2 0.1
v -0.2 0.2 0
v -0.1 -0.2 0.5
v -0.1 -0.2 0.1
v -0.1 -0.2 -0.1
v -0.1 -0.2 -0.4
v -0.1 -0.1 0.1
v -0.1 -0.1 0
v -0.1 -0.1 -0.1
v -0.1 -0.1 -0.4
v -0.1 0 0.5
v -0.1 0 0.2
v -0.1 0 0
v -0.1 0 -0.4
v -0.1 0 -0.6
v -0.1 0 -0.8
v -0.1 0.1 0.2
v -0.1 0.1 0.1
v -0.1 0.1 0
v -0.1 0.1 -0.6
v -0.1 0.1 -0.7
v -0.1 0.1 -0.8
v -0.1 0.2 0.2
v -0.1 0.2 0.1
v -0.1 0.2 -0.7
v -0.1 0.2 -0.8
v 0 0 -0.9
v 0 0 -1
v 0 0.1 0.1
v 0 0.1 0
v 0 0.1 -0.9
v 0 0.1 -1
v 0 0.2 0.1
v 0 0.2 0
v 0.1 0.1 0
v 0.1 0.1 -0.1
v 0.1 0.1 -0.5
v 0.1 0.1 -0.6
v 0.1 0.2 0
v 0.1 0.2 -0.1
v 0.1 0.2 -0.5
v 0.1 0.2 -0.6
v 0.2 0.1 -0.1
v 0.2 0.1 -0.2
v 0.2 0.2 -0.1
v 0.2 0.2 -0.2
v 0.3 0.1 -0.2
v 0.3 0.1 -0.3
v 0.3 0.1 -0.4
v 0.3 0.1 -0.5
v 0.3 0.2 -0.2
v 0.3 0.2 -0.3
v 0.3 0.2 -0.4
v 0.3 0.2 -0.5
v 0.4 0.1 -0.3
v 0.4 0.1 -0.4
v 0.4 0.2 -0.3
v 0.4 0.2 -0.4
v -0.5 0.1 -0.3
v -0.5 0.1 -0.4
v -0.5 0.2 -0.3
v -0.5 0.2 -0.4
v -0.4 0.1 -0.2
v -0.4 0.1 -0.3
v -0.4 0.1 -0.4
v -0.4 0.1 -0.5
v -0.4 0.2 -0.2
v -0.4 0.2 -0.3
v -0.4 0.2 -0.4
v -0.4 0.2 -0.5
v -0.3 0.1 -0.1
v -0.3 0.1 -0.2
v -0.3 0.2 -0.1
v -0.3 0.2 -0.2
v -0.2 0.1 0
v -0.2 0.1 -0.1
v -0.2 0.1 -0.5
v -0.2 0.1 -0.6
v -0.2 0.2 0
v -0.2 0.2 -0.1
v -0.2 0.2 -0.5
v -0.2 0.2 -0.6
v -0.1 0 -0.9
v -0.1 0 -1
v -0.1 0.1 0.1
v -0.1 0.1 0
v -0.1 0.1 -0.9
v -0.1 0.1 -1
v -0.1 0.2 0.1
v -0.1 0.2 0
v 0 -0.2 0.5
v 0 -0.2 0.1
v 0 -0.2 -0.1
v 0 -0.2 -0.4
v 0 -0.1 0.1
v 0 -0.1 0
v 0 -0.1 -0.1
v 0 -0.1 -0.4
v 0 0 0.5
v 0 0 0.2
v 0 0 0
v 0 0 -0.4
v 0 0 -0.6
v 0 0 -0.8
v 0 0.1 0.2
v 0 0.1 0.1
v 0 0.1 0
v 0 0.1 -0.6
v 0 0.1 -0.7
v 0 0.1 -0.8
v 0 0.2 0.2
v 0 0.2 0.1
v 0 0.2 -0.7
v 0 0.2 -0.8
v 0.1 -0.2 -0.4
v 0.1 -0.2 -0.6
v 0.1 0 -0.4
v 0.1 0 -0.6
v 0.1 0 -0.8
v 0.1 0 -1.1
v 0.1 0.1 0.1
v 0.1 0.1 0
v 0.1 0.1 -0.8
v 0.1 0.1 -1.1
v 0.1 0.2 0.1
v 0.1 0.2 0
v 0.2 0.1 0
v 0.2 0.1 -0.1
v 0.2 0.1 -0.6
v 0.2 0.1 -0.7
v 0.2 0.2 0
v 0.2 0.2 -0.1
v 0.2 0.2 -0.6
v 0.2 0.2 -0.7
v 0.3 0.1 -0.1
v 0.3 0.1 -0.2
v 0.3 0.2 -0.1
v 0.3 0.2 -0.2
v 0.4 0.1 -0.5
v 0.4 0.1 -0.6
v 0.4 0.2 -0.5
v 0.4 0.2 -0.6
v 0.5 0.1 -0.2
v 0.5 0.1 -0.5
v 0.5 0.2 -0.2
v 0.5 0.2 -0.5
v -0.1 -0.2 0.5
v -0.1 0 0.5
v 0 -0.2 0.5
v 0 0 0.5
v -0.1 0 0.2
v -0.1 0.1 0.2
v -0.1 0.2 0.2
v 0 0 0.2
v 0 0.1 0.2
v 0 0.2 0.2
v -0.2 0.1 0.1
v -0.2 0.2 0.1
v -0.1 0.1 0.1
v -0.1 0.2 0.1
v 0 0.1 0.1
v 0 0.2 0.1
v 0.1 0.1 0.1
v 0.1 0.2 0.1
v -0.3 0.1 0
v -0.3 0.2 0
v -0.2 0.1 0
v -0.2 0.2 0
v 0.1 0.1 0
v 0.1 0.2 0
v 0.2 0.1 0
v 0.2 0.2 0
v -0.4 0.1 -0.1
v -0.4 0.2 -0.1
v -0.3 0.1 -0.1
v -0.3 0.2 -0.1
v -0.1 -0.2 -0.1
v -0.1 -0.1 -0.1
v 0 -0.2 -0.1
v 0 -0.1 -0.1
v 0.2 0.1 -0.1
v 0.2 0.2 -0.1
v 0.3 0.1 -0.1
v 0.3 0.2 -0.1
v -0.6 0.1 -0.2
v -0.6 0.2 -0.2
v -0.5 0.1 -0.2
v -0.5 0.2 -0.2
v -0.4 0.1 -0.2
v -0.4 0.2 -0.2
v 0.3 0.1 -0.2
v 0.3 0.2 -0.2
v 0.4 0.1 -0.2
v 0.4 0.2 -0.2
v 0.5 0.1 -0.2
v 0.5 0.2 -0.2
v -0.5 0.1 -0.4
v -0.5 0.2 -0.4
v -0.4 0.1 -0.4
v -0.4 0.2 -0.4
v -0.2 -0.2 -0.4
v -0.2 0 -0.4
v -0.1 -0.2 -0.4
v -0.1 -0.1 -0.4
v -0.1 0 -0.4
v 0 -0.2 -0.4
v 0 -0.1 -0.4
v 0 0 -0.4
v 0.1 -0.2 -0.4
v 0.1 0 -0.4
v 0.3 0.1 -0.4
v 0.3 0.2 -0.4
v 0.4 0.1 -0.4
v 0.4 0.2 -0.4
v -0.4 0.1 -0.5
v -0.4 0.2 -0.5
v -0.2 0.1 -0.5
v -0.2 0.2 -0.5
v 0.1 0.1 -0.5
v 0.1 0.2 -0.5
v 0.3 0.1 -0.5
v 0.3 0.2 -0.5
v -0.2 0.1 -0.6
v -0.2 0.2 -0.6
v -0.1 0.1 -0.6
v 0 0.1 -0.6
v 0.1 0.1 -0.6
v 0.1 0.2 -0.6
v -0.2 0 -0.8
v -0.2 0.1 -0.8
v -0.1 0 -0.8
v -0.1 0.1 -0.8
v 0 0 -0.8
v 0 0.1 -0.8
v 0.1 0 -0.8
v 0.1 0.1 -0.8
v -0.1 0 -1
v -0.1 0.1 -1
v 0 0 -1
v 0 0.1 -1
v -0.1 -0.2 0.1
v -0.1 -0.1 0.1
v -0.1 0.1 0.1
v -0.1 0.2 0.1
v 0 -0.2 0.1
v 0 -0.1 0.1
v 0 0.1 0.1
v 0 0.2 0.1
v -0.2 0.1 0
v -0.2 0.2 0
v -0.1 -0.1 0
v -0.1 0 0
v -0.1 0.1 0
v -0.1 0.2 0
v 0 -0.1 0
v 0 0 0
v 0 0.1 0
v 0 0.2 0
v 0.1 0.1 0
v 0.1 0.2 0
v -0.3 0.1 -0.1
v -0.3 0.2 -0.1
v -0.2 0.1 -0.1
v -0.2 0.2 -0.1
v 0.1 0.1 -0.1
v 0.1 0.2 -0.1
v 0.2 0.1 -0.1
v 0.2 0.2 -0.1
v -0.4 0.1 -0.2
v -0.4 0.2 -0.2
v -0.3 0.1 -0.2
v -0.3 0.2 -0.2
v 0.2 0.1 -0.2
v 0.2 0.2 -0.2
v 0.3 0.1 -0.2
v 0.3 0.2 -0.2
v -0.5 0.1 -0.3
v -0.5 0.2 -0.3
v -0.4 0.1 -0.3
v -0.4 0.2 -0.3
v 0.3 0.1 -0.3
v 0.3 0.2 -0.3
v 0.4 0.1 -0.3
v 0.4 0.2 -0.3
v -0.6 0.1 -0.5
v -0.6 0.2 -0.5
v -0.5 0.1 -0.5
v -0.5 0.2 -0.5
v 0.4 0.1 -0.5
v 0.4 0.2 -0.5
v 0.5 0.1 -0.5
v 0.5 0.2 -0.5
v -0.5 0.1 -0.6
v -0.5 0.2 -0.6
v -0.3 0.1 -0.6
v -0.3 0.2 -0.6
v -0.2 -0.2 -0.6
v -0.2 0 -0.6
v -0.1 -0.2 -0.6
v -0.1 -0.1 -0.6
v -0.1 0 -0.6
v 0 -0.2 -0.6
v 0 -0.1 -0.6
v 0 0 -0.6
v 0.1 -0.2 -0.6
v 0.1 0 -0.6
v 0.2 0.1 -0.6
v 0.2 0.2 -0.6
v 0.4 0.1 -0.6
v 0.4 0.2 -0.6
v -0.3 0.1 -0.7
v -0.3 0.2 -0.7
v -0.1 0.1 -0.7
v -0.1 0.2 -0.7
v 0 0.1 -0.7
v 0 0.2 -0.7
v 0.2 0.1 -0.7
v 0.2 0.2 -0.7
v -0.1 0.1 -0.8
v -0.1 0.2 -0.8
v 0 0.1 -0.8
v 0 0.2 -0.8
v -0.1 0 -0.9
v -0.1 0.1 -0.9
v 0 0 -0.9
v 0 0.1 -0.9
v -0.2 0 -1.1
v -0.2 0.1 -1.1
v 0.1 0 -1.1
v 0.1 0.1 -1.1
v -0.1 -0.2 0.5
v 0 -0.2 0.5
v -0.1 -0.2 0.1
v 0 -0.2 0.1
v -0.1 -0.2 -0.1
v 0 -0.2 -0.1
v -0.2 -0.2 -0.4
v -0.1 -0.2 -0.4
v 0 -0.2 -0.4
v 0.1 -0.2 -0.4
v -0.2 -0.2 -0.6
v -0.1 -0.2 -0.6
v 0 -0.2 -0.6
v 0.1 -0.2 -0.6
v -0.1 -0.1 0.1
v 0 -0.1 0.1
v -0.1 -0.1 0
v 0 -0.1 0
v -0.1 0 0
v 0 0 0
v -0.1 0 -0.4
v 0 0 -0.4
v -0.1 0 -0.6
v 0 0 -0.6
v -0.2 0 -0.8
v -0.1 0 -0.8
v 0 0 -0.8
v 0.1 0 -0.8
v -0.1 0 -0.9
v 0 0 -0.9
v -0.1 0 -1
v 0 0 -1
v -0.2 0 -1.1
v 0.1 0 -1.1
v -0.2 0.1 0.1
v -0.1 0.1 0.1
v 0 0.1 0.1
v 0.1 0.1 0.1
v -0.3 0.1 0
v -0.2 0.1 0
v -0.1 0.1 0
v 0 0.1 0
v 0.1 0.1 0
v 0.2 0.1 0
v -0.4 0.1 -0.1
v -0.3 0.1 -0.1
v -0.2 0.1 -0.1
v 0.1 0.1 -0.1
v 0.2 0.1 -0.1
v 0.3 0.1 -0.1
v -0.6 0.1 -0.2
v -0.5 0.1 -0.2
v -0.4 0.1 -0.2
v -0.3 0.1 -0.2
v 0.2 0.1 -0.2
v 0.3 0.1 -0.2
v 0.4 0.1 -0.2
v 0.5 0.1 -0.2
v -0.5 0.1 -0.3
v -0.4 0.1 -0.3
v 0.3 0.1 -0.3
v 0.4 0.1 -0.3
v -0.5 0.1 -0.4
v -0.4 0.1 -0.4
v 0.3 0.1 -0.4
v 0.4 0.1 -0.4
v -0.6 0.1 -0.5
v -0.5 0.1 -0.5
v -0.4 0.1 -0.5
v -0.2 0.1 -0.5
v 0.1 0.1 -0.5
v 0.3 0.1 -0.5
v 0.4 0.1 -0.5
v 0.5 0.1 -0.5
v -0.5 0.1 -0.6
v -0.3 0.1 -0.6
v -0.2 0.1 -0.6
v -0.1 0.1 -0.6
v 0 0.1 -0.6
v 0.1 0.1 -0.6
v 0.2 0.1 -0.6
v 0.4 0.1 -0.6
v -0.3 0.1 -0.7
v -0.1 0.1 -0.7
v 0 0.1 -0.7
v 0.2 0.1 -0.7
v -0.1 -0.1 -0.1
v 0 -0.1 -0.1
v -0.1 -0.1 -0.4
v 0 -0.1 -0.4
v -0.1 0 0.5
v 0 0 0.5
v -0.1 0 0.2
v 0 0 0.2
v -0.2 0 -0.4
v -0.1 0 -0.4
v 0 0 -0.4
v 0.1 0 -0.4
v -0.2 0 -0.6
v -0.1 0 -0.6
v 0 0 -0.6
v 0.1 0 -0.6
v -0.1 0.1 0.1
v 0 0.1 0.1
v -0.1 0.1 0
v 0 0.1 0
v -0.1 0.1 -0.6
v 0 0.1 -0.6
v -0.2 0.1 -0.8
v -0.1 0.1 -0.8
v 0 0.1 -0.8
v 0.1 0.1 -0.8
v -0.1 0.1 -0.9
v 0 0.1 -0.9
v -0.1 0.1 -1
v 0 0.1 -1
v -0.2 0.1 -1.1
v 0.1 0.1 -1.1
v -0.1 0.2 0.2
v 0 0.2 0.2
v -0.2 0.2 0.1
v -0.1 0.2 0.1
v 0 0.2 0.1
v 0.1 0.2 0.1
v -0.3 0.2 0
v -0.2 0.2 0
v -0.1 0.2 0
v 0 0.2 0
v 0.1 0.2 0
v 0.2 0.2 0
v -0.4 0.2 -0.1
v -0.3 0.2 -0.1
v -0.2 0.2 -0.1
v 0.1 0.2 -0.1
v 0.2 0.2 -0.1
v 0.3 0.2 -0.1
v -0.6 0.2 -0.2
v -0.5 0.2 -0.2
v -0.4 0.2 -0.2
v -0.3 0.2 -0.2
v 0.2 0.2 -0.2
v 0.3 0.2 -0.2
v 0.4 0.2 -0.2
v 0.5 0.2 -0.2
v -0.5 0.2 -0.3
v -0.4 0.2 -0.3
v 0.3 0.2 -0.3
v 0.4 0.2 -0.3
v -0.5 0.2 -0.4
v -0.4 0.2 -0.4
v 0.3 0.2 -0.4
v 0.4 0.2 -0.4
v -0.6 0.2 -0.5
v -0.5 0.2 -0.5
v -0.4 0.2 -0.5
v -0.2 0.2 -0.5
v 0.1 0.2 -0.5
v 0.3 0.2 -0.5
v 0.4 0.2 -0.5
v 0.5 0.2 -0.5
v -0.5 0.2 -0.6
v -0.3 0.2 -0.6
v -0.2 0.2 -0.6
v 0.1 0.2 -0.6
v 0.2 0.2 -0.6
v 0.4 0.2 -0.6
v -0.3 0.2 -0.7
v -0.1 0.2 -0.7
v 0 0.2 -0.7
v 0.2 0.2 -0.7
v -0.1 0.2 -0.8
v 0 0.2 -0.8

# faces
f 3/4/1 2/4/1 1/4/1
f 4/4/1 2/4/1 3/4/1
f 7/4/1 6/4/1 5/4/1
f 8/4/1 6/4/1 7/4/1
f 11/2/1 10/2/1 9/2/1
f 12/2/1 10/2/1 11/2/1
f 17/2/1 14/2/1 13/2/1
f 18/2/1 14/2/1 17/2/1
f 19/4/1 16/4/1 15/4/1
f 20/4/1 16/4/1 19/4/1
f 23/4/1 22/4/1 21/4/1
f 24/4/1 22/4/1 23/4/1
f 29/3/1 26/3/1 25/3/1
f 30/3/1 26/3/1 29/3/1
f 31/2/1 28/2/1 27/2/1
f 32/2/1 28/2/1 31/2/1
f 37/1/1 34/1/1 33/1/1
f 39/3/1 36/3/1 35/3/1
f 40/3/1 36/3/1 39/3/1
f 41/1/1 38/1/1 37/1/1
f 41/1/1 37/1/1 33/1/1
f 42/1/1 38/1/1 41/1/1
f 43/1/1 38/1/1 42/1/1
f 47/1/1 44/1/1 43/1/1
f 47/1/1 46/1/1 45/1/1
f 47/1/1 45/1/1 44/1/1
f 47/1/1 43/1/1 42/1/1
f 48/1/1 46/1/1 47/1/1
f 49/1/1 46/1/1 48/1/1
f 50/1/1 46/1/1 49/1/1
f 51/1/1 46/1/1 50/1/1
f 52/1/1 46/1/1 51/1/1
f 53/2/1 48/2/1 47/2/1
f 54/2/1 48/2/1 53/2/1
f 55/4/1 52/4/1 51/4/1
f 56/4/1 52/4/1 55/4/1
f 61/3/1 58/3/1 57/3/1
f 62/3/1 58/3/1 61/3/1
f 63/2/1 60/2/1 59/2/1
f 64/2/1 60/2/1 63/2/1
f 69/2/1 66/2/1 65/2/1
f 70/2/1 66/2/1 69/2/1
f 71/4/1 68/4/1 67/4/1
f 72/4/1 68/4/1 71/4/1
f 75/2/1 74/2/1 73/2/1
f 76/2/1 74/2/1 75/2/1
f 81/2/1 78/2/1 77/2/1
f 82/2/1 78/2/1 81/2/1
f 83/4/1 80/4/1 79/4/1
f 84/4/1 80/4/1 83/4/1
f 87/4/1 86/4/1 85/4/1
f 88/4/1 86/4/1 87/4/1
f 89/4/2 90/4/2 91/4/2
f 91/4/2 90/4/2 92/4/2
f 93/2/2 94/2/2 97/2/2
f 97/2/2 94/2/2 98/2/2
f 95/4/2 96/4/2 99/4/2
f 99/4/2 96/4/2 100/4/2
f 101/2/2 102/2/2 103/2/2
f 103/2/2 102/2/2 104/2/2
f 105/2/2 106/2/2 109/2/2
f 109/2/2 106/2/2 110/2/2
f 107/4/2 108/4/2 111/4/2
f 111/4/2 108/4/2 112/4/2
f 113/3/2 114/3/2 117/3/2
f 117/3/2 114/3/2 118/3/2
f 115/2/2 116/2/2 119/2/2
f 119/2/2 116/2/2 120/2/2
f 121/1/2 122/1/2 125/1/2
f 123/3/2 124/3/2 127/3/2
f 127/3/2 124/3/2 128/3/2
f 125/1/2 126/1/2 129/1/2
f 121/1/2 125/1/2 129/1/2
f 129/1/2 126/1/2 130/1/2
f 130/1/2 126/1/2 131/1/2
f 131/1/2 132/1/2 135/1/2
f 133/1/2 134/1/2 135/1/2
f 132/1/2 133/1/2 135/1/2
f 130/1/2 131/1/2 135/1/2
f 135/1/2 134/1/2 136/1/2
f 136/1/2 134/1/2 137/1/2
f 137/1/2 134/1/2 138/1/2
f 138/1/2 134/1/2 139/1/2
f 139/1/2 134/1/2 140/1/2
f 135/2/2 136/2/2 141/2/2
f 141/2/2 136/2/2 142/2/2
f 139/4/2 140/4/2 143/4/2
f 143/4/2 140/4/2 144/4/2
f 145/4/2 146/4/2 147/4/2
f 147/4/2 146/4/2 148/4/2
f 149/3/2 150/3/2 153/3/2
f 153/3/2 150/3/2 154/3/2
f 151/2/2 152/2/2 155/2/2
f 155/2/2 152/2/2 156/2/2
f 157/2/2 158/2/2 161/2/2
f 161/2/2 158/2/2 162/2/2
f 159/4/2 160/4/2 163/4/2
f 163/4/2 160/4/2 164/4/2
f 165/2/2 166/2/2 167/2/2
f 167/2/2 166/2/2 168/2/2
f 169/4/2 170/4/2 171/4/2
f 171/4/2 170/4/2 172/4/2
f 173/4/2 174/4/2 175/4/2
f 175/4/2 174/4/2 176/4/2
f 179/1/3 178/1/3 177/1/3
f 180/1/3 178/1/3 179/1/3
f 184/1/3 182/1/3 181/1/3
f 185/2/3 183/2/3 182/2/3
f 185/1/3 182/1/3 184/1/3
f 186/2/3 183/2/3 185/2/3
f 189/2/3 188/2/3 187/2/3
f 190/2/3 188/2/3 189/2/3
f 193/2/3 192/2/3 191/2/3
f 194/2/3 192/2/3 193/2/3
f 197/2/3 196/2/3 195/2/3
f 198/2/3 196/2/3 197/2/3
f 201/2/3 200/2/3 199/2/3
f 202/2/3 200/2/3 201/2/3
f 205/2/3 204/2/3 203/2/3
f 206/2/3 204/2/3 205/2/3
f 209/3/3 208/3/3 207/3/3
f 210/3/3 208/3/3 209/3/3
f 213/2/3 212/2/3 211/2/3
f 214/2/3 212/2/3 213/2/3
f 217/4/3 216/4/3 215/4/3
f 218/4/3 216/4/3 217/4/3
f 219/2/3 218/2/3 217/2/3
f 220/2/3 218/2/3 219/2/3
f 223/2/3 222/2/3 221/2/3
f 224/2/3 222/2/3 223/2/3
f 225/4/3 224/4/3 223/4/3
f 226/4/3 224/4/3 225/4/3
f 229/4/3 228/4/3 227/4/3
f 230/4/3 228/4/3 229/4/3
f 233/4/3 232/4/3 231/4/3
f 234/4/3 232/4/3 233/4/3
f 235/4/3 232/4/3 234/4/3
f 237/1/3 235/1/3 234/1/3
f 238/1/3 235/1/3 237/1/3
f 239/4/3 237/4/3 236/4/3
f 239/4/3 238/4/3 237/4/3
f 240/4/3 238/4/3 239/4/3
f 243/4/3 242/4/3 241/4/3
f 244/4/3 242/4/3 243/4/3
f 247/4/3 246/4/3 245/4/3
f 248/4/3 246/4/3 247/4/3
f 251/4/3 250/4/3 249/4/3
f 252/4/3 250/4/3 251/4/3
f 255/4/3 254/4/3 253/4/3
f 256/4/3 254/4/3 255/4/3
f 257/4/3 254/4/3 256/4/3
f 258/4/3 254/4/3 257/4/3
f 261/3/3 260/3/3 259/3/3
f 262/3/3 260/3/3 261/3/3
f 265/3/3 264/3/3 263/3/3
f 266/3/3 264/3/3 265/3/3
f 269/3/3 268/3/3 267/3/3
f 270/3/3 268/3/3 269/3/3
f 271/1/4 272/1/4 275/1/4
f 275/1/4 272/1/4 276/1/4
f 273/2/4 274/2/4 277/2/4
f 277/2/4 274/2/4 278/2/4
f 279/2/4 280/2/4 283/2/4
f 283/2/4 280/2/4 284/2/4
f 281/1/4 282/1/4 285/1/4
f 285/1/4 282/1/4 286/1/4
f 287/2/4 288/2/4 289/2/4
f 289/2/4 288/2/4 290/2/4
f 291/2/4 292/2/4 293/2/4
f 293/2/4 292/2/4 294/2/4
f 295/2/4 296/2/4 297/2/4
f 297/2/4 296/2/4 298/2/4
f 299/2/4 300/2/4 301/2/4
f 301/2/4 300/2/4 302/2/4
f 303/2/4 304/2/4 305/2/4
f 305/2/4 304/2/4 306/2/4
f 307/2/4 308/2/4 309/2/4
f 309/2/4 308/2/4 310/2/4
f 311/2/4 312/2/4 313/2/4
f 313/2/4 312/2/4 314/2/4
f 315/4/4 316/4/4 317/4/4
f 317/4/4 316/4/4 318/4/4
f 319/4/4 320/4/4 321/4/4
f 321/4/4 320/4/4 322/4/4
f 323/4/4 324/4/4 325/4/4
f 325/4/4 324/4/4 326/4/4
f 327/4/4 328/4/4 329/4/4
f 329/4/4 328/4/4 330/4/4
f 330/4/4 328/4/4 331/4/4
f 329/3/4 330/3/4 332/3/4
f 330/1/4 331/1/4 333/1/4
f 332/3/4 330/3/4 333/3/4
f 333/1/4 331/1/4 334/1/4
f 332/4/4 333/4/4 335/4/4
f 333/4/4 334/4/4 335/4/4
f 335/4/4 334/4/4 336/4/4
f 337/4/4 338/4/4 339/4/4
f 339/4/4 338/4/4 340/4/4
f 341/4/4 342/4/4 343/4/4
f 343/4/4 342/4/4 344/4/4
f 345/4/4 346/4/4 347/4/4
f 347/4/4 346/4/4 348/4/4
f 349/4/4 350/4/4 351/4/4
f 351/4/4 350/4/4 352/4/4
f 353/3/4 354/3/4 355/3/4
f 355/3/4 354/3/4 356/3/4
f 357/3/4 358/3/4 359/3/4
f 359/3/4 358/3/4 360/3/4
f 363/1/5 362/1/5 361/1/5
f 364/1/5 362/1/5 363/1/5
f 368/3/5 366/3/5 365/3/5
f 369/3/5 366/3/5 368/3/5
f 371/4/5 368/4/5 367/4/5
f 372/3/5 369/3/5 368/3/5
f 372/4/5 368/4/5 371/4/5
f 373/4/5 370/4/5 369/4/5
f 373/3/5 369/3/5 372/3/5
f 374/4/5 370/4/5 373/4/5
f 377/1/5 376/1/5 375/1/5
f 378/1/5 376/1/5 377/1/5
f 381/1/5 380/1/5 379/1/5
f 382/1/5 380/1/5 381/1/5
f 386/1/5 384/1/5 383/1/5
f 387/1/5 384/1/5 386/1/5
f 389/3/5 387/3/5 386/3/5
f 389/3/5 388/3/5 387/3/5
f 389/3/5 386/3/5 385/3/5
f 390/3/5 388/3/5 389/3/5
f 391/3/5 389/3/5 385/3/5
f 392/3/5 388/3/5 390/3/5
f 393/3/5 391/3/5 385/3/5
f 393/3/5 392/3/5 391/3/5
f 394/3/5 388/3/5 392/3/5
f 394/3/5 392/3/5 393/3/5
f 400/2/5 396/2/5 395/2/5
f 401/2/5 396/2/5 400/2/5
f 402/2/5 398/2/5 397/2/5
f 403/2/5 398/2/5 402/2/5
f 406/2/5 400/2/5 399/2/5
f 407/2/5 400/2/5 406/2/5
f 408/2/5 404/2/5 403/2/5
f 409/2/5 404/2/5 408/2/5
f 413/2/5 406/2/5 405/2/5
f 414/2/5 406/2/5 413/2/5
f 415/2/5 410/2/5 409/2/5
f 416/2/5 410/2/5 415/2/5
f 419/4/5 412/4/5 411/4/5
f 419/2/5 413/2/5 412/2/5
f 420/2/5 413/2/5 419/2/5
f 421/2/5 417/2/5 416/2/5
f 422/4/5 418/4/5 417/4/5
f 422/2/5 417/2/5 421/2/5
f 423/4/5 419/4/5 411/4/5
f 426/4/5 418/4/5 422/4/5
f 427/4/5 424/4/5 423/4/5
f 427/4/5 423/4/5 411/4/5
f 428/4/5 424/4/5 427/4/5
f 429/4/5 424/4/5 428/4/5
f 432/4/5 426/4/5 425/4/5
f 433/4/5 418/4/5 426/4/5
f 433/4/5 426/4/5 432/4/5
f 434/4/5 418/4/5 433/4/5
f 435/4/5 430/4/5 429/4/5
f 435/4/5 429/4/5 428/4/5
f 436/4/5 430/4/5 435/4/5
f 437/4/5 430/4/5 436/4/5
f 440/4/5 432/4/5 431/4/5
f 440/4/5 433/4/5 432/4/5
f 441/4/5 433/4/5 440/4/5
f 442/4/5 433/4/5 441/4/5
f 443/4/5 438/4/5 437/4/5
f 443/4/5 437/4/5 436/4/5
f 444/4/5 438/4/5 443/4/5
f 445/4/5 441/4/5 440/4/5
f 445/4/5 440/4/5 439/4/5
f 446/4/5 441/4/5 445/4/5
f 447/3/6 448/3/6 449/3/6
f 449/3/6 448/3/6 450/3/6
f 451/1/6 452/1/6 453/1/6
f 453/1/6 452/1/6 454/1/6
f 455/4/6 456/4/6 459/4/6
f 459/4/6 456/4/6 460/4/6
f 457/4/6 458/4/6 461/4/6
f 461/4/6 458/4/6 462/4/6
f 463/1/6 464/1/6 465/1/6
f 465/1/6 464/1/6 466/1/6
f 465/1/6 466/1/6 467/1/6
f 467/1/6 466/1/6 468/1/6
f 470/3/6 471/3/6 473/3/6
f 471/3/6 472/3/6 473/3/6
f 469/3/6 470/3/6 473/3/6
f 473/3/6 472/3/6 474/3/6
f 469/3/6 473/3/6 475/3/6
f 474/3/6 472/3/6 476/3/6
f 469/3/6 475/3/6 477/3/6
f 475/3/6 476/3/6 477/3/6
f 476/3/6 472/3/6 478/3/6
f 477/3/6 476/3/6 478/3/6
f 479/2/6 480/2/6 482/2/6
f 482/2/6 480/2/6 483/2/6
f 481/2/6 482/2/6 486/2/6
f 486/2/6 482/2/6 487/2/6
f 483/2/6 484/2/6 488/2/6
f 488/2/6 484/2/6 489/2/6
f 485/2/6 486/2/6 492/2/6
f 492/2/6 486/2/6 493/2/6
f 489/2/6 490/2/6 494/2/6
f 494/2/6 490/2/6 495/2/6
f 491/2/6 492/2/6 499/2/6
f 499/2/6 492/2/6 500/2/6
f 495/2/6 496/2/6 501/2/6
f 501/2/6 496/2/6 502/2/6
f 497/4/6 498/4/6 505/4/6
f 498/2/6 499/2/6 505/2/6
f 505/2/6 499/2/6 506/2/6
f 502/2/6 503/2/6 507/2/6
f 503/4/6 504/4/6 508/4/6
f 507/2/6 503/2/6 508/2/6
f 497/4/6 505/4/6 509/4/6
f 508/4/6 504/4/6 512/4/6
f 509/4/6 510/4/6 513/4/6
f 497/4/6 509/4/6 513/4/6
f 513/4/6 510/4/6 514/4/6
f 514/4/6 510/4/6 515/4/6
f 511/4/6 512/4/6 518/4/6
f 512/4/6 504/4/6 519/4/6
f 518/4/6 512/4/6 519/4/6
f 519/4/6 504/4/6 520/4/6
f 515/4/6 516/4/6 521/4/6
f 514/4/6 515/4/6 521/4/6
f 521/4/6 516/4/6 522/4/6
f 522/4/6 516/4/6 523/4/6
f 517/4/6 518/4/6 524/4/6
f 518/4/6 519/4/6 524/4/6
f 524/4/6 519/4/6 525/4/6
f 525/4/6 519/4/6 526/4/6
f 522/4/6 523/4/6 527/4/6
f 524/4/6 525/4/6 527/4/6
f 523/4/6 524/4/6 527/4/6
f 527/4/6 525/4/6 528/4/6
f 528/4/6 525/4/6 529/4/6
f 529/4/6 525/4/6 530/4/6
f 528/4/6 529/4/6 531/4/6
f 531/4/6 529/4/6 532/4/6
