# MagicaVoxel @ Ephtracy

# group
o 

# material
mtllib glove.vox.mtl
usemtl palette

# normals
vn -1 0 0
vn 1 0 0
vn 0 0 1
vn 0 0 -1
vn 0 -1 0
vn 0 1 0

# texcoords
vt 0.208984 0.5
vt 0.373047 0.5
vt 0.537109 0.5
vt 0.966797 0.5
vt 0.986328 0.5

# verts
v -0.4 0.1 0
v -0.4 0.1 -0.2
v -0.4 0.4 0
v -0.4 0.4 -0.2
v -0.3 -0.2 -0.1
v -0.3 -0.2 -0.3
v -0.3 -0.2 -0.5
v -0.3 -0.2 -0.6
v -0.3 -0.1 -0.1
v -0.3 -0.1 -0.3
v -0.3 -0.1 -0.5
v -0.3 -0.1 -0.6
v -0.3 0 -0.1
v -0.3 0 -0.3
v -0.3 0 -0.5
v -0.3 0 -0.6
v -0.3 0.1 -0.1
v -0.3 0.1 -0.2
v -0.3 0.1 -0.3
v -0.3 0.1 -0.5
v -0.3 0.1 -0.6
v -0.3 0.2 0.1
v -0.3 0.2 0
v -0.3 0.2 -0.2
v -0.3 0.2 -0.3
v -0.3 0.2 -0.5
v -0.3 0.2 -0.6
v -0.3 0.3 -0.2
v -0.3 0.3 -0.3
v -0.3 0.3 -0.5
v -0.3 0.3 -0.6
v -0.3 0.4 0.1
v -0.3 0.4 0
v -0.2 -0.2 -0.6
v -0.2 -0.2 -0.7
v -0.2 -0.1 -0.6
v -0.2 -0.1 -0.7
v -0.2 0 -0.6
v -0.2 0 -0.7
v -0.2 0.1 -0.6
v -0.2 0.1 -0.7
v -0.2 0.2 -0.6
v -0.2 0.2 -0.7
v -0.2 0.3 -0.6
v -0.2 0.3 -0.7
v -0.1 -0.2 0
v -0.1 -0.2 -0.1
v -0.1 -0.1 0.1
v -0.1 -0.1 0
v -0.1 -0.1 -0.1
v -0.1 0 0
v -0.1 0 -0.1
v -0.1 0.1 0
v -0.1 0.1 -0.1
v -0.1 0.2 0.1
v -0.1 0.2 0
v -0.1 0.2 -0.1
v 0 -0.2 -0.6
v 0 -0.2 -0.7
v 0 -0.1 -0.6
v 0 -0.1 -0.7
v 0 0 -0.6
v 0 0 -0.7
v 0 0.1 -0.6
v 0 0.1 -0.7
v 0 0.2 -0.6
v 0 0.2 -0.7
v 0 0.3 -0.6
v 0 0.3 -0.7
v -0.2 0.1 0
v -0.2 0.1 -0.1
v -0.2 0.2 0
v -0.2 0.2 -0.1
v -0.1 -0.2 -0.6
v -0.1 -0.2 -0.7
v -0.1 -0.1 -0.6
v -0.1 -0.1 -0.7
v -0.1 0 -0.6
v -0.1 0 -0.7
v -0.1 0.1 -0.6
v -0.1 0.1 -0.7
v -0.1 0.2 -0.6
v -0.1 0.2 -0.7
v -0.1 0.3 -0.1
v -0.1 0.3 -0.2
v -0.1 0.3 -0.6
v -0.1 0.3 -0.7
v -0.1 0.4 -0.1
v -0.1 0.4 -0.2
v 0 0.3 0.1
v 0 0.3 0
v 0 0.3 -0.1
v 0 0.4 0.1
v 0 0.4 0
v 0 0.4 -0.1
v 0.1 -0.2 -0.5
v 0.1 -0.2 -0.6
v 0.1 -0.2 -0.7
v 0.1 -0.1 -0.5
v 0.1 -0.1 -0.6
v 0.1 -0.1 -0.7
v 0.1 0 -0.5
v 0.1 0 -0.6
v 0.1 0 -0.7
v 0.1 0.1 -0.5
v 0.1 0.1 -0.6
v 0.1 0.1 -0.7
v 0.1 0.2 -0.5
v 0.1 0.2 -0.6
v 0.1 0.2 -0.7
v 0.1 0.3 -0.5
v 0.1 0.3 -0.6
v 0.1 0.3 -0.7
v 0.2 -0.2 -0.1
v 0.2 -0.2 -0.2
v 0.2 -0.2 -0.3
v 0.2 -0.2 -0.4
v 0.2 -0.1 0.1
v 0.2 -0.1 0
v 0.2 -0.1 -0.1
v 0.2 -0.1 -0.2
v 0.2 -0.1 -0.3
v 0.2 -0.1 -0.4
v 0.2 -0.1 -0.5
v 0.2 0 0
v 0.2 0 -0.1
v 0.2 0 -0.2
v 0.2 0 -0.3
v 0.2 0 -0.4
v 0.2 0 -0.5
v 0.2 0.1 0
v 0.2 0.1 -0.1
v 0.2 0.1 -0.2
v 0.2 0.1 -0.3
v 0.2 0.1 -0.4
v 0.2 0.1 -0.5
v 0.2 0.2 0
v 0.2 0.2 -0.1
v 0.2 0.2 -0.2
v 0.2 0.2 -0.3
v 0.2 0.2 -0.4
v 0.2 0.2 -0.5
v 0.2 0.3 0.1
v 0.2 0.3 0
v 0.2 0.3 -0.1
v 0.2 0.3 -0.2
v 0.2 0.3 -0.3
v 0.2 0.3 -0.4
v 0.3 -0.2 0
v 0.3 -0.2 -0.1
v 0.3 -0.2 -0.2
v 0.3 -0.2 -0.3
v 0.3 -0.2 -0.4
v 0.3 -0.2 -0.5
v 0.3 -0.1 0
v 0.3 -0.1 -0.1
v 0.3 -0.1 -0.2
v 0.3 -0.1 -0.3
v 0.3 -0.1 -0.4
v 0.3 -0.1 -0.5
v 0.3 0 0
v 0.3 0 -0.1
v 0.3 0 -0.2
v 0.3 0 -0.3
v 0.3 0 -0.4
v 0.3 0 -0.5
v 0.3 0.1 0
v 0.3 0.1 -0.1
v 0.3 0.1 -0.2
v 0.3 0.1 -0.3
v 0.3 0.1 -0.4
v 0.3 0.1 -0.5
v 0.3 0.2 0
v 0.3 0.2 -0.1
v 0.3 0.2 -0.2
v 0.3 0.2 -0.3
v 0.3 0.2 -0.4
v 0.3 0.2 -0.5
v 0.3 0.3 0
v 0.3 0.3 -0.1
v 0.3 0.3 -0.2
v 0.3 0.3 -0.3
v 0.3 0.3 -0.4
v 0.3 0.3 -0.5
v -0.3 0.2 0.1
v -0.3 0.4 0.1
v -0.1 -0.1 0.1
v -0.1 0.2 0.1
v -0.1 0.4 0.1
v 0 0.3 0.1
v 0 0.4 0.1
v 0.1 -0.1 0.1
v 0.1 0.2 0.1
v 0.2 -0.1 0.1
v 0.2 0.3 0.1
v -0.4 0.1 0
v -0.4 0.4 0
v -0.3 0.2 0
v -0.3 0.4 0
v -0.2 0.1 0
v -0.2 0.2 0
v -0.1 -0.2 0
v -0.1 -0.1 0
v 0.1 -0.2 0
v 0.1 -0.1 0
v 0.2 -0.2 0
v 0.2 -0.1 0
v 0.2 0 0
v 0.2 0.1 0
v 0.2 0.2 0
v 0.2 0.3 0
v 0.3 -0.2 0
v 0.3 -0.1 0
v 0.3 0 0
v 0.3 0.1 0
v 0.3 0.2 0
v 0.3 0.3 0
v -0.3 -0.2 -0.1
v -0.3 -0.1 -0.1
v -0.3 0 -0.1
v -0.3 0.1 -0.1
v -0.2 0.1 -0.1
v -0.2 0.2 -0.1
v -0.1 -0.2 -0.1
v -0.1 -0.1 -0.1
v -0.1 0 -0.1
v -0.1 0.1 -0.1
v -0.1 0.2 -0.1
v 0.2 -0.2 -0.2
v 0.2 -0.1 -0.2
v 0.2 0 -0.2
v 0.2 0.1 -0.2
v 0.2 0.2 -0.2
v 0.2 0.3 -0.2
v 0.3 -0.2 -0.2
v 0.3 -0.1 -0.2
v 0.3 0 -0.2
v 0.3 0.1 -0.2
v 0.3 0.2 -0.2
v 0.3 0.3 -0.2
v 0.2 -0.2 -0.4
v 0.2 -0.1 -0.4
v 0.2 0 -0.4
v 0.2 0.1 -0.4
v 0.2 0.2 -0.4
v 0.2 0.3 -0.4
v 0.3 -0.2 -0.4
v 0.3 -0.1 -0.4
v 0.3 0 -0.4
v 0.3 0.1 -0.4
v 0.3 0.2 -0.4
v 0.3 0.3 -0.4
v -0.1 0.3 -0.1
v -0.1 0.4 -0.1
v 0 0.3 -0.1
v 0 0.4 -0.1
v 0.2 -0.2 -0.1
v 0.2 -0.1 -0.1
v 0.2 0 -0.1
v 0.2 0.1 -0.1
v 0.2 0.2 -0.1
v 0.2 0.3 -0.1
v 0.3 -0.2 -0.1
v 0.3 -0.1 -0.1
v 0.3 0 -0.1
v 0.3 0.1 -0.1
v 0.3 0.2 -0.1
v 0.3 0.3 -0.1
v -0.4 0.1 -0.2
v -0.4 0.4 -0.2
v -0.3 0.1 -0.2
v -0.3 0.2 -0.2
v -0.3 0.3 -0.2
v -0.2 0.3 -0.2
v -0.2 0.4 -0.2
v -0.1 0.3 -0.2
v -0.1 0.4 -0.2
v 0.2 -0.2 -0.3
v 0.2 -0.1 -0.3
v 0.2 0 -0.3
v 0.2 0.1 -0.3
v 0.2 0.2 -0.3
v 0.2 0.3 -0.3
v 0.3 -0.2 -0.3
v 0.3 -0.1 -0.3
v 0.3 0 -0.3
v 0.3 0.1 -0.3
v 0.3 0.2 -0.3
v 0.3 0.3 -0.3
v 0.1 -0.2 -0.5
v 0.1 -0.1 -0.5
v 0.1 0 -0.5
v 0.1 0.1 -0.5
v 0.1 0.2 -0.5
v 0.1 0.3 -0.5
v 0.2 -0.2 -0.5
v 0.2 -0.1 -0.5
v 0.2 0 -0.5
v 0.2 0.1 -0.5
v 0.2 0.2 -0.5
v 0.2 0.3 -0.5
v 0.3 -0.2 -0.5
v 0.3 -0.1 -0.5
v 0.3 0 -0.5
v 0.3 0.1 -0.5
v 0.3 0.2 -0.5
v 0.3 0.3 -0.5
v -0.3 -0.2 -0.6
v -0.3 -0.1 -0.6
v -0.3 0 -0.6
v -0.3 0.1 -0.6
v -0.3 0.2 -0.6
v -0.3 0.3 -0.6
v -0.2 -0.2 -0.6
v -0.2 -0.1 -0.6
v -0.2 0 -0.6
v -0.2 0.1 -0.6
v -0.2 0.2 -0.6
v -0.2 0.3 -0.6
v -0.1 -0.2 -0.6
v -0.1 -0.1 -0.6
v -0.1 0 -0.6
v -0.1 0.1 -0.6
v -0.1 0.2 -0.6
v -0.1 0.3 -0.6
v 0 -0.2 -0.6
v 0 -0.1 -0.6
v 0 0 -0.6
v 0 0.1 -0.6
v 0 0.2 -0.6
v 0 0.3 -0.6
v 0.1 -0.1 -0.6
v 0.1 0 -0.6
v 0.1 0.1 -0.6
v 0.1 0.2 -0.6
v -0.2 -0.2 -0.7
v -0.2 -0.1 -0.7
v -0.2 0 -0.7
v -0.2 0.1 -0.7
v -0.2 0.2 -0.7
v -0.2 0.3 -0.7
v -0.1 -0.2 -0.7
v -0.1 -0.1 -0.7
v -0.1 0 -0.7
v -0.1 0.1 -0.7
v -0.1 0.2 -0.7
v -0.1 0.3 -0.7
v 0 -0.2 -0.7
v 0 -0.1 -0.7
v 0 0 -0.7
v 0 0.1 -0.7
v 0 0.2 -0.7
v 0 0.3 -0.7
v 0.1 -0.2 -0.7
v 0.1 -0.1 -0.7
v 0.1 0 -0.7
v 0.1 0.1 -0.7
v 0.1 0.2 -0.7
v 0.1 0.3 -0.7
v -0.1 -0.2 0
v 0.1 -0.2 0
v 0.2 -0.2 0
v 0.3 -0.2 0
v -0.3 -0.2 -0.1
v -0.1 -0.2 -0.1
v 0.2 -0.2 -0.1
v 0.3 -0.2 -0.1
v 0.1 -0.2 -0.2
v 0.2 -0.2 -0.2
v 0.3 -0.2 -0.2
v -0.3 -0.2 -0.3
v -0.2 -0.2 -0.3
v 0.1 -0.2 -0.3
v 0.2 -0.2 -0.3
v 0.3 -0.2 -0.3
v 0.2 -0.2 -0.4
v 0.3 -0.2 -0.4
v -0.3 -0.2 -0.5
v -0.2 -0.2 -0.5
v 0 -0.2 -0.5
v 0.1 -0.2 -0.5
v 0.2 -0.2 -0.5
v 0.3 -0.2 -0.5
v -0.3 -0.2 -0.6
v -0.2 -0.2 -0.6
v -0.1 -0.2 -0.6
v 0 -0.2 -0.6
v 0.1 -0.2 -0.6
v -0.2 -0.2 -0.7
v -0.1 -0.2 -0.7
v 0 -0.2 -0.7
v 0.1 -0.2 -0.7
v -0.1 -0.1 0.1
v 0.1 -0.1 0.1
v 0.2 -0.1 0.1
v -0.1 -0.1 0
v 0.1 -0.1 0
v 0.2 -0.1 0
v 0.2 0 0
v 0.3 0 0
v 0.2 0 -0.1
v 0.3 0 -0.1
v 0.2 0 -0.2
v 0.3 0 -0.2
v 0.2 0 -0.3
v 0.3 0 -0.3
v 0.2 0 -0.4
v 0.3 0 -0.4
v 0.2 0 -0.5
v 0.3 0 -0.5
v -0.2 0 -0.6
v -0.1 0 -0.6
v 0 0 -0.6
v 0.1 0 -0.6
v -0.2 0 -0.7
v -0.1 0 -0.7
v 0 0 -0.7
v 0.1 0 -0.7
v -0.4 0.1 0
v -0.2 0.1 0
v -0.3 0.1 -0.1
v -0.2 0.1 -0.1
v -0.4 0.1 -0.2
v -0.3 0.1 -0.2
v -0.3 0.2 0.1
v -0.1 0.2 0.1
v -0.3 0.2 0
v -0.2 0.2 0
v -0.1 0.2 0
v 0.2 0.2 0
v 0.3 0.2 0
v -0.2 0.2 -0.1
v -0.1 0.2 -0.1
v 0.2 0.2 -0.1
v 0.3 0.2 -0.1
v 0.2 0.2 -0.2
v 0.3 0.2 -0.2
v 0.2 0.2 -0.3
v 0.3 0.2 -0.3
v 0.2 0.2 -0.4
v 0.3 0.2 -0.4
v 0.2 0.2 -0.5
v 0.3 0.2 -0.5
v -0.2 0.2 -0.6
v -0.1 0.2 -0.6
v 0 0.2 -0.6
v 0.1 0.2 -0.6
v -0.2 0.2 -0.7
v -0.1 0.2 -0.7
v 0 0.2 -0.7
v 0.1 0.2 -0.7
v 0.2 -0.1 0
v 0.3 -0.1 0
v 0.2 -0.1 -0.1
v 0.3 -0.1 -0.1
v 0.2 -0.1 -0.2
v 0.3 -0.1 -0.2
v 0.2 -0.1 -0.3
v 0.3 -0.1 -0.3
v 0.2 -0.1 -0.4
v 0.3 -0.1 -0.4
v 0.2 -0.1 -0.5
v 0.3 -0.1 -0.5
v -0.2 -0.1 -0.6
v -0.1 -0.1 -0.6
v 0 -0.1 -0.6
v 0.1 -0.1 -0.6
v -0.2 -0.1 -0.7
v -0.1 -0.1 -0.7
v 0 -0.1 -0.7
v 0.1 -0.1 -0.7
v 0.2 0.1 0
v 0.3 0.1 0
v 0.2 0.1 -0.1
v 0.3 0.1 -0.1
v 0.2 0.1 -0.2
v 0.3 0.1 -0.2
v 0.2 0.1 -0.3
v 0.3 0.1 -0.3
v 0.2 0.1 -0.4
v 0.3 0.1 -0.4
v 0.2 0.1 -0.5
v 0.3 0.1 -0.5
v -0.2 0.1 -0.6
v -0.1 0.1 -0.6
v 0 0.1 -0.6
v 0.1 0.1 -0.6
v -0.2 0.1 -0.7
v -0.1 0.1 -0.7
v 0 0.1 -0.7
v 0.1 0.1 -0.7
v 0 0.3 0.1
v 0.2 0.3 0.1
v 0 0.3 0
v 0.2 0.3 0
v 0.3 0.3 0
v -0.1 0.3 -0.1
v 0 0.3 -0.1
v 0.2 0.3 -0.1
v 0.3 0.3 -0.1
v -0.3 0.3 -0.2
v -0.2 0.3 -0.2
v -0.1 0.3 -0.2
v 0 0.3 -0.2
v 0.2 0.3 -0.2
v 0.3 0.3 -0.2
v -0.3 0.3 -0.3
v -0.2 0.3 -0.3
v -0.1 0.3 -0.3
v 0 0.3 -0.3
v 0.2 0.3 -0.3
v 0.3 0.3 -0.3
v -0.2 0.3 -0.4
v 0 0.3 -0.4
v 0.1 0.3 -0.4
v 0.2 0.3 -0.4
v 0.3 0.3 -0.4
v -0.3 0.3 -0.5
v -0.2 0.3 -0.5
v 0.1 0.3 -0.5
v 0.2 0.3 -0.5
v 0.3 0.3 -0.5
v -0.3 0.3 -0.6
v -0.2 0.3 -0.6
v -0.1 0.3 -0.6
v 0 0.3 -0.6
v 0.1 0.3 -0.6
v -0.2 0.3 -0.7
v -0.1 0.3 -0.7
v 0 0.3 -0.7
v 0.1 0.3 -0.7
v -0.3 0.4 0.1
v -0.1 0.4 0.1
v 0 0.4 0.1
v -0.4 0.4 0
v -0.3 0.4 0
v -0.1 0.4 0
v 0 0.4 0
v -0.3 0.4 -0.1
v -0.2 0.4 -0.1
v -0.1 0.4 -0.1
v 0 0.4 -0.1
v -0.4 0.4 -0.2
v -0.2 0.4 -0.2
v -0.1 0.4 -0.2

# faces
f 3/2/1 2/2/1 1/2/1
f 4/2/1 2/2/1 3/2/1
f 9/2/1 6/2/1 5/2/1
f 10/1/1 7/1/1 6/1/1
f 10/2/1 6/2/1 9/2/1
f 11/2/1 8/2/1 7/2/1
f 11/1/1 7/1/1 10/1/1
f 12/2/1 8/2/1 11/2/1
f 13/3/1 10/3/1 9/3/1
f 13/3/1 11/3/1 10/3/1
f 13/3/1 12/3/1 11/3/1
f 14/3/1 12/3/1 13/3/1
f 15/3/1 12/3/1 14/3/1
f 16/3/1 12/3/1 15/3/1
f 17/2/1 14/2/1 13/2/1
f 18/2/1 14/2/1 17/2/1
f 19/1/1 15/1/1 14/1/1
f 19/2/1 14/2/1 18/2/1
f 20/2/1 16/2/1 15/2/1
f 20/1/1 15/1/1 19/1/1
f 21/2/1 16/2/1 20/2/1
f 24/3/1 19/3/1 18/3/1
f 24/3/1 20/3/1 19/3/1
f 24/3/1 21/3/1 20/3/1
f 25/3/1 21/3/1 24/3/1
f 26/3/1 21/3/1 25/3/1
f 27/3/1 21/3/1 26/3/1
f 28/2/1 25/2/1 24/2/1
f 29/1/1 26/1/1 25/1/1
f 29/2/1 25/2/1 28/2/1
f 30/2/1 27/2/1 26/2/1
f 30/1/1 26/1/1 29/1/1
f 31/2/1 27/2/1 30/2/1
f 32/1/1 23/1/1 22/1/1
f 33/1/1 23/1/1 32/1/1
f 36/5/1 35/5/1 34/5/1
f 37/5/1 35/5/1 36/5/1
f 40/5/1 39/5/1 38/5/1
f 41/5/1 39/5/1 40/5/1
f 44/5/1 43/5/1 42/5/1
f 45/5/1 43/5/1 44/5/1
f 49/2/1 47/2/1 46/2/1
f 50/2/1 47/2/1 49/2/1
f 51/3/1 49/3/1 48/3/1
f 51/2/1 50/2/1 49/2/1
f 52/2/1 50/2/1 51/2/1
f 53/3/1 51/3/1 48/3/1
f 53/3/1 52/3/1 51/3/1
f 54/3/1 52/3/1 53/3/1
f 55/3/1 53/3/1 48/3/1
f 56/2/1 54/2/1 53/2/1
f 56/3/1 53/3/1 55/3/1
f 57/2/1 54/2/1 56/2/1
f 60/5/1 59/5/1 58/5/1
f 61/5/1 59/5/1 60/5/1
f 64/5/1 63/5/1 62/5/1
f 65/5/1 63/5/1 64/5/1
f 68/5/1 67/5/1 66/5/1
f 69/5/1 67/5/1 68/5/1
f 70/2/2 71/2/2 72/2/2
f 72/2/2 71/2/2 73/2/2
f 74/5/2 75/5/2 76/5/2
f 76/5/2 75/5/2 77/5/2
f 78/5/2 79/5/2 80/5/2
f 80/5/2 79/5/2 81/5/2
f 82/5/2 83/5/2 86/5/2
f 86/5/2 83/5/2 87/5/2
f 84/1/2 85/1/2 88/1/2
f 88/1/2 85/1/2 89/1/2
f 90/2/2 91/2/2 93/2/2
f 91/1/2 92/1/2 94/1/2
f 93/2/2 91/2/2 94/2/2
f 94/1/2 92/1/2 95/1/2
f 96/2/2 97/2/2 99/2/2
f 97/5/2 98/5/2 100/5/2
f 99/2/2 97/2/2 100/2/2
f 100/5/2 98/5/2 101/5/2
f 99/3/2 100/3/2 102/3/2
f 102/3/2 100/3/2 103/3/2
f 102/2/2 103/2/2 105/2/2
f 103/5/2 104/5/2 106/5/2
f 105/2/2 103/2/2 106/2/2
f 106/5/2 104/5/2 107/5/2
f 105/3/2 106/3/2 108/3/2
f 108/3/2 106/3/2 109/3/2
f 108/2/2 109/2/2 111/2/2
f 109/5/2 110/5/2 112/5/2
f 111/2/2 109/2/2 112/2/2
f 112/5/2 110/5/2 113/5/2
f 114/1/2 115/1/2 120/1/2
f 120/1/2 115/1/2 121/1/2
f 116/1/2 117/1/2 122/1/2
f 122/1/2 117/1/2 123/1/2
f 118/2/2 119/2/2 125/2/2
f 120/1/2 121/1/2 125/1/2
f 119/1/2 120/1/2 125/1/2
f 125/1/2 121/1/2 126/1/2
f 121/2/2 122/2/2 127/2/2
f 126/1/2 121/1/2 127/1/2
f 123/1/2 124/1/2 128/1/2
f 127/2/2 122/2/2 128/2/2
f 122/1/2 123/1/2 128/1/2
f 128/1/2 124/1/2 129/1/2
f 129/1/2 124/1/2 130/1/2
f 118/2/2 125/2/2 131/2/2
f 126/1/2 127/1/2 132/1/2
f 132/1/2 127/1/2 133/1/2
f 128/1/2 129/1/2 134/1/2
f 134/1/2 129/1/2 135/1/2
f 118/2/2 131/2/2 137/2/2
f 132/1/2 133/1/2 137/1/2
f 131/1/2 132/1/2 137/1/2
f 137/1/2 133/1/2 138/1/2
f 133/2/2 134/2/2 139/2/2
f 138/1/2 133/1/2 139/1/2
f 135/1/2 136/1/2 140/1/2
f 139/2/2 134/2/2 140/2/2
f 134/1/2 135/1/2 140/1/2
f 140/1/2 136/1/2 141/1/2
f 141/1/2 136/1/2 142/1/2
f 118/2/2 137/2/2 143/2/2
f 143/2/2 137/2/2 144/2/2
f 138/1/2 139/1/2 145/1/2
f 145/1/2 139/1/2 146/1/2
f 140/1/2 141/1/2 147/1/2
f 147/1/2 141/1/2 148/1/2
f 149/5/2 150/5/2 155/5/2
f 155/5/2 150/5/2 156/5/2
f 151/5/2 152/5/2 157/5/2
f 157/5/2 152/5/2 158/5/2
f 153/5/2 154/5/2 159/5/2
f 159/5/2 154/5/2 160/5/2
f 161/5/2 162/5/2 167/5/2
f 167/5/2 162/5/2 168/5/2
f 163/5/2 164/5/2 169/5/2
f 169/5/2 164/5/2 170/5/2
f 165/5/2 166/5/2 171/5/2
f 171/5/2 166/5/2 172/5/2
f 173/5/2 174/5/2 179/5/2
f 179/5/2 174/5/2 180/5/2
f 175/5/2 176/5/2 181/5/2
f 181/5/2 176/5/2 182/5/2
f 177/5/2 178/5/2 183/5/2
f 183/5/2 178/5/2 184/5/2
f 188/1/3 186/1/3 185/1/3
f 189/1/3 186/1/3 188/1/3
f 190/2/3 189/2/3 188/2/3
f 191/2/3 189/2/3 190/2/3
f 192/3/3 188/3/3 187/3/3
f 193/2/3 190/2/3 188/2/3
f 193/3/3 188/3/3 192/3/3
f 194/2/3 193/2/3 192/2/3
f 195/2/3 190/2/3 193/2/3
f 195/2/3 193/2/3 194/2/3
f 198/2/3 197/2/3 196/2/3
f 199/2/3 197/2/3 198/2/3
f 200/2/3 198/2/3 196/2/3
f 201/2/3 198/2/3 200/2/3
f 204/2/3 203/2/3 202/2/3
f 205/2/3 203/2/3 204/2/3
f 206/1/3 205/1/3 204/1/3
f 207/1/3 205/1/3 206/1/3
f 212/5/3 207/5/3 206/5/3
f 213/5/3 207/5/3 212/5/3
f 214/5/3 209/5/3 208/5/3
f 215/5/3 209/5/3 214/5/3
f 216/5/3 211/5/3 210/5/3
f 217/5/3 211/5/3 216/5/3
f 222/2/3 221/2/3 220/2/3
f 224/2/3 219/2/3 218/2/3
f 225/3/3 220/3/3 219/3/3
f 225/2/3 219/2/3 224/2/3
f 226/2/3 222/2/3 220/2/3
f 226/3/3 220/3/3 225/3/3
f 227/3/3 223/3/3 222/3/3
f 227/2/3 222/2/3 226/2/3
f 228/3/3 223/3/3 227/3/3
f 235/5/3 230/5/3 229/5/3
f 236/5/3 230/5/3 235/5/3
f 237/5/3 232/5/3 231/5/3
f 238/5/3 232/5/3 237/5/3
f 239/5/3 234/5/3 233/5/3
f 240/5/3 234/5/3 239/5/3
f 247/5/3 242/5/3 241/5/3
f 248/5/3 242/5/3 247/5/3
f 249/5/3 244/5/3 243/5/3
f 250/5/3 244/5/3 249/5/3
f 251/5/3 246/5/3 245/5/3
f 252/5/3 246/5/3 251/5/3
f 253/1/4 254/1/4 255/1/4
f 255/1/4 254/1/4 256/1/4
f 257/5/4 258/5/4 263/5/4
f 263/5/4 258/5/4 264/5/4
f 259/5/4 260/5/4 265/5/4
f 265/5/4 260/5/4 266/5/4
f 261/5/4 262/5/4 267/5/4
f 267/5/4 262/5/4 268/5/4
f 269/2/4 270/2/4 271/2/4
f 271/2/4 270/2/4 272/2/4
f 272/2/4 270/2/4 273/2/4
f 273/2/4 270/2/4 274/2/4
f 274/2/4 270/2/4 275/2/4
f 274/1/4 275/1/4 276/1/4
f 276/1/4 275/1/4 277/1/4
f 278/5/4 279/5/4 284/5/4
f 284/5/4 279/5/4 285/5/4
f 280/5/4 281/5/4 286/5/4
f 286/5/4 281/5/4 287/5/4
f 282/5/4 283/5/4 288/5/4
f 288/5/4 283/5/4 289/5/4
f 290/1/4 291/1/4 296/1/4
f 294/1/4 295/1/4 296/1/4
f 293/1/4 294/1/4 296/1/4
f 292/1/4 293/1/4 296/1/4
f 291/1/4 292/1/4 296/1/4
f 296/1/4 295/1/4 297/1/4
f 297/1/4 295/1/4 298/1/4
f 298/1/4 295/1/4 299/1/4
f 299/1/4 295/1/4 300/1/4
f 300/1/4 295/1/4 301/1/4
f 296/5/4 297/5/4 302/5/4
f 302/5/4 297/5/4 303/5/4
f 298/5/4 299/5/4 304/5/4
f 304/5/4 299/5/4 305/5/4
f 300/5/4 301/5/4 306/5/4
f 306/5/4 301/5/4 307/5/4
f 308/2/4 309/2/4 314/2/4
f 309/3/4 310/3/4 315/3/4
f 314/2/4 309/2/4 315/2/4
f 310/2/4 311/2/4 316/2/4
f 315/3/4 310/3/4 316/3/4
f 311/3/4 312/3/4 317/3/4
f 316/2/4 311/2/4 317/2/4
f 312/2/4 313/2/4 318/2/4
f 317/3/4 312/3/4 318/3/4
f 318/2/4 313/2/4 319/2/4
f 315/3/4 316/3/4 321/3/4
f 321/3/4 316/3/4 322/3/4
f 317/3/4 318/3/4 323/3/4
f 323/3/4 318/3/4 324/3/4
f 320/1/4 321/1/4 326/1/4
f 321/3/4 322/3/4 327/3/4
f 326/1/4 321/1/4 327/1/4
f 322/1/4 323/1/4 328/1/4
f 327/3/4 322/3/4 328/3/4
f 323/3/4 324/3/4 329/3/4
f 328/1/4 323/1/4 329/1/4
f 324/1/4 325/1/4 330/1/4
f 329/3/4 324/3/4 330/3/4
f 330/1/4 325/1/4 331/1/4
f 327/3/4 328/3/4 332/3/4
f 332/3/4 328/3/4 333/3/4
f 329/3/4 330/3/4 334/3/4
f 334/3/4 330/3/4 335/3/4
f 336/5/4 337/5/4 342/5/4
f 342/5/4 337/5/4 343/5/4
f 338/5/4 339/5/4 344/5/4
f 344/5/4 339/5/4 345/5/4
f 340/5/4 341/5/4 346/5/4
f 346/5/4 341/5/4 347/5/4
f 348/5/4 349/5/4 354/5/4
f 354/5/4 349/5/4 355/5/4
f 350/5/4 351/5/4 356/5/4
f 356/5/4 351/5/4 357/5/4
f 352/5/4 353/5/4 358/5/4
f 358/5/4 353/5/4 359/5/4
f 365/2/5 361/2/5 360/2/5
f 366/5/5 363/5/5 362/5/5
f 366/1/5 362/1/5 361/1/5
f 367/5/5 363/5/5 366/5/5
f 368/2/5 365/2/5 364/2/5
f 368/2/5 361/2/5 365/2/5
f 368/1/5 366/1/5 361/1/5
f 369/1/5 366/1/5 368/1/5
f 371/2/5 368/2/5 364/2/5
f 371/2/5 369/2/5 368/2/5
f 372/2/5 369/2/5 371/2/5
f 373/2/5 369/2/5 372/2/5
f 374/5/5 370/5/5 369/5/5
f 374/2/5 369/2/5 373/2/5
f 375/5/5 370/5/5 374/5/5
f 376/1/5 374/1/5 373/1/5
f 378/1/5 372/1/5 371/1/5
f 379/2/5 373/2/5 372/2/5
f 379/1/5 372/1/5 378/1/5
f 380/2/5 373/2/5 379/2/5
f 381/1/5 376/1/5 373/1/5
f 381/2/5 373/2/5 380/2/5
f 382/5/5 377/5/5 376/5/5
f 382/1/5 376/1/5 381/1/5
f 383/5/5 377/5/5 382/5/5
f 384/2/5 379/2/5 378/2/5
f 385/1/5 380/1/5 379/1/5
f 385/2/5 379/2/5 384/2/5
f 386/1/5 380/1/5 385/1/5
f 387/2/5 381/2/5 380/2/5
f 387/1/5 380/1/5 386/1/5
f 388/2/5 381/2/5 387/2/5
f 389/5/5 386/5/5 385/5/5
f 390/5/5 386/5/5 389/5/5
f 391/5/5 388/5/5 387/5/5
f 392/5/5 388/5/5 391/5/5
f 396/3/5 394/3/5 393/3/5
f 397/2/5 395/2/5 394/2/5
f 397/3/5 394/3/5 396/3/5
f 398/2/5 395/2/5 397/2/5
f 401/5/5 400/5/5 399/5/5
f 402/5/5 400/5/5 401/5/5
f 405/5/5 404/5/5 403/5/5
f 406/5/5 404/5/5 405/5/5
f 409/5/5 408/5/5 407/5/5
f 410/5/5 408/5/5 409/5/5
f 415/5/5 412/5/5 411/5/5
f 416/5/5 412/5/5 415/5/5
f 417/5/5 414/5/5 413/5/5
f 418/5/5 414/5/5 417/5/5
f 421/2/5 420/2/5 419/2/5
f 422/2/5 420/2/5 421/2/5
f 423/2/5 421/2/5 419/2/5
f 424/2/5 421/2/5 423/2/5
f 427/1/5 426/1/5 425/1/5
f 428/1/5 426/1/5 427/1/5
f 429/1/5 426/1/5 428/1/5
f 432/1/5 429/1/5 428/1/5
f 433/1/5 429/1/5 432/1/5
f 434/5/5 431/5/5 430/5/5
f 435/5/5 431/5/5 434/5/5
f 438/5/5 437/5/5 436/5/5
f 439/5/5 437/5/5 438/5/5
f 442/5/5 441/5/5 440/5/5
f 443/5/5 441/5/5 442/5/5
f 448/5/5 445/5/5 444/5/5
f 449/5/5 445/5/5 448/5/5
f 450/5/5 447/5/5 446/5/5
f 451/5/5 447/5/5 450/5/5
f 452/5/6 453/5/6 454/5/6
f 454/5/6 453/5/6 455/5/6
f 456/5/6 457/5/6 458/5/6
f 458/5/6 457/5/6 459/5/6
f 460/5/6 461/5/6 462/5/6
f 462/5/6 461/5/6 463/5/6
f 464/5/6 465/5/6 468/5/6
f 468/5/6 465/5/6 469/5/6
f 466/5/6 467/5/6 470/5/6
f 470/5/6 467/5/6 471/5/6
f 472/5/6 473/5/6 474/5/6
f 474/5/6 473/5/6 475/5/6
f 476/5/6 477/5/6 478/5/6
f 478/5/6 477/5/6 479/5/6
f 480/5/6 481/5/6 482/5/6
f 482/5/6 481/5/6 483/5/6
f 484/5/6 485/5/6 488/5/6
f 488/5/6 485/5/6 489/5/6
f 486/5/6 487/5/6 490/5/6
f 490/5/6 487/5/6 491/5/6
f 492/2/6 493/2/6 494/2/6
f 494/2/6 493/2/6 495/2/6
f 494/1/6 495/1/6 498/1/6
f 495/5/6 496/5/6 499/5/6
f 498/1/6 495/1/6 499/1/6
f 499/5/6 496/5/6 500/5/6
f 497/3/6 498/3/6 503/3/6
f 498/1/6 499/1/6 504/1/6
f 503/3/6 498/3/6 504/3/6
f 504/1/6 499/1/6 505/1/6
f 501/2/6 502/2/6 507/2/6
f 502/2/6 503/2/6 507/2/6
f 507/2/6 503/2/6 508/2/6
f 503/3/6 504/3/6 509/3/6
f 508/2/6 503/2/6 509/2/6
f 504/2/6 505/2/6 510/2/6
f 509/3/6 504/3/6 510/3/6
f 505/5/6 506/5/6 511/5/6
f 510/2/6 505/2/6 511/2/6
f 511/5/6 506/5/6 512/5/6
f 509/3/6 510/3/6 513/3/6
f 508/3/6 509/3/6 513/3/6
f 507/1/6 508/1/6 513/1/6
f 510/1/6 511/1/6 514/1/6
f 513/3/6 510/3/6 514/3/6
f 514/1/6 511/1/6 515/1/6
f 515/1/6 511/1/6 516/1/6
f 507/1/6 513/1/6 518/1/6
f 513/1/6 514/1/6 518/1/6
f 518/1/6 514/1/6 519/1/6
f 515/1/6 516/1/6 520/1/6
f 514/2/6 515/2/6 520/2/6
f 516/5/6 517/5/6 521/5/6
f 520/1/6 516/1/6 521/1/6
f 521/5/6 517/5/6 522/5/6
f 518/2/6 519/2/6 523/2/6
f 519/1/6 514/1/6 524/1/6
f 523/2/6 519/2/6 524/2/6
f 524/1/6 514/1/6 525/1/6
f 514/2/6 520/2/6 526/2/6
f 525/1/6 514/1/6 526/1/6
f 526/2/6 520/2/6 527/2/6
f 524/5/6 525/5/6 528/5/6
f 528/5/6 525/5/6 529/5/6
f 526/5/6 527/5/6 530/5/6
f 530/5/6 527/5/6 531/5/6
f 532/1/6 533/1/6 536/1/6
f 533/2/6 534/2/6 537/2/6
f 536/1/6 533/1/6 537/1/6
f 537/2/6 534/2/6 538/2/6
f 535/2/6 536/2/6 539/2/6
f 536/1/6 537/1/6 539/1/6
f 537/1/6 538/1/6 539/1/6
f 539/1/6 538/1/6 540/1/6
f 540/1/6 538/1/6 541/1/6
f 541/1/6 538/1/6 542/1/6
f 535/2/6 539/2/6 543/2/6
f 539/2/6 540/2/6 543/2/6
f 540/1/6 541/1/6 544/1/6
f 543/2/6 540/2/6 544/2/6
f 544/1/6 541/1/6 545/1/6
