# MagicaVoxel @ Ephtracy

# group
o 

# material
mtllib hammer.vox.mtl
usemtl palette

# normals
vn -1 0 0
vn 1 0 0
vn 0 0 1
vn 0 0 -1
vn 0 -1 0
vn 0 1 0

# texcoords
vt 0.369141 0.5
vt 0.537109 0.5
vt 0.978516 0.5
vt 0.986328 0.5

# verts
v -0.2 0.2 0.3
v -0.2 0.2 -0.2
v -0.2 0.5 0.3
v -0.2 0.5 -0.2
v -0.1 -0.7 0.1
v -0.1 -0.7 0
v -0.1 0.1 0.1
v -0.1 0.1 0
v -0.1 0.2 0.1
v -0.1 0.2 0
v -0.1 0.5 0.1
v -0.1 0.5 0
v -0.1 0.6 0.1
v -0.1 0.6 0
v 0 -0.7 0.1
v 0 -0.7 0
v 0 0.1 0.1
v 0 0.1 0
v 0 0.2 0.1
v 0 0.2 0
v 0 0.5 0.1
v 0 0.5 0
v 0 0.6 0.1
v 0 0.6 0
v 0.1 0.2 0.3
v 0.1 0.2 -0.2
v 0.1 0.5 0.3
v 0.1 0.5 -0.2
v -0.2 0.2 0.3
v -0.2 0.5 0.3
v -0.1 0.3 0.3
v -0.1 0.4 0.3
v 0 0.3 0.3
v 0 0.4 0.3
v 0.1 0.2 0.3
v 0.1 0.5 0.3
v -0.1 -0.7 0.1
v -0.1 0.1 0.1
v -0.1 0.2 0.1
v -0.1 0.5 0.1
v -0.1 0.6 0.1
v 0 -0.7 0.1
v 0 0.1 0.1
v 0 0.2 0.1
v 0 0.5 0.1
v 0 0.6 0.1
v -0.1 -0.7 0
v -0.1 0.1 0
v -0.1 0.2 0
v -0.1 0.5 0
v -0.1 0.6 0
v 0 -0.7 0
v 0 0.1 0
v 0 0.2 0
v 0 0.5 0
v 0 0.6 0
v -0.2 0.2 -0.2
v -0.2 0.5 -0.2
v -0.1 0.3 -0.2
v -0.1 0.4 -0.2
v 0 0.3 -0.2
v 0 0.4 -0.2
v 0.1 0.2 -0.2
v 0.1 0.5 -0.2
v -0.1 -0.7 0.1
v 0 -0.7 0.1
v -0.1 -0.7 0
v 0 -0.7 0
v -0.2 0.2 0.3
v 0.1 0.2 0.3
v -0.1 0.2 0.1
v 0 0.2 0.1
v -0.1 0.2 0
v 0 0.2 0
v -0.2 0.2 -0.2
v 0.1 0.2 -0.2
v -0.2 0.5 0.3
v 0.1 0.5 0.3
v -0.1 0.5 0.1
v 0 0.5 0.1
v -0.1 0.5 0
v 0 0.5 0
v -0.2 0.5 -0.2
v 0.1 0.5 -0.2
v -0.1 0.6 0.1
v 0 0.6 0.1
v -0.1 0.6 0
v 0 0.6 0

# faces
f 3/3/1 2/3/1 1/3/1
f 4/3/1 2/3/1 3/3/1
f 7/1/1 6/1/1 5/1/1
f 8/1/1 6/1/1 7/1/1
f 9/2/1 8/2/1 7/2/1
f 10/2/1 8/2/1 9/2/1
f 13/1/1 12/1/1 11/1/1
f 14/1/1 12/1/1 13/1/1
f 15/1/2 16/1/2 17/1/2
f 17/1/2 16/1/2 18/1/2
f 17/2/2 18/2/2 19/2/2
f 19/2/2 18/2/2 20/2/2
f 21/1/2 22/1/2 23/1/2
f 23/1/2 22/1/2 24/1/2
f 25/3/2 26/3/2 27/3/2
f 27/3/2 26/3/2 28/3/2
f 31/3/3 30/3/3 29/3/3
f 32/3/3 30/3/3 31/3/3
f 33/3/3 31/3/3 29/3/3
f 33/4/3 32/4/3 31/4/3
f 34/3/3 30/3/3 32/3/3
f 34/4/3 32/4/3 33/4/3
f 35/3/3 33/3/3 29/3/3
f 35/3/3 34/3/3 33/3/3
f 36/3/3 30/3/3 34/3/3
f 36/3/3 34/3/3 35/3/3
f 42/1/3 38/1/3 37/1/3
f 43/2/3 39/2/3 38/2/3
f 43/1/3 38/1/3 42/1/3
f 44/2/3 39/2/3 43/2/3
f 45/1/3 41/1/3 40/1/3
f 46/1/3 41/1/3 45/1/3
f 47/1/4 48/1/4 52/1/4
f 48/2/4 49/2/4 53/2/4
f 52/1/4 48/1/4 53/1/4
f 53/2/4 49/2/4 54/2/4
f 50/1/4 51/1/4 55/1/4
f 55/1/4 51/1/4 56/1/4
f 57/3/4 58/3/4 59/3/4
f 59/3/4 58/3/4 60/3/4
f 57/3/4 59/3/4 61/3/4
f 59/4/4 60/4/4 61/4/4
f 60/3/4 58/3/4 62/3/4
f 61/4/4 60/4/4 62/4/4
f 57/3/4 61/3/4 63/3/4
f 61/3/4 62/3/4 63/3/4
f 62/3/4 58/3/4 64/3/4
f 63/3/4 62/3/4 64/3/4
f 67/1/5 66/1/5 65/1/5
f 68/1/5 66/1/5 67/1/5
f 71/3/5 70/3/5 69/3/5
f 72/3/5 70/3/5 71/3/5
f 73/3/5 71/3/5 69/3/5
f 74/3/5 70/3/5 72/3/5
f 75/3/5 73/3/5 69/3/5
f 75/3/5 74/3/5 73/3/5
f 76/3/5 70/3/5 74/3/5
f 76/3/5 74/3/5 75/3/5
f 77/3/6 78/3/6 79/3/6
f 79/3/6 78/3/6 80/3/6
f 77/3/6 79/3/6 81/3/6
f 80/3/6 78/3/6 82/3/6
f 77/3/6 81/3/6 83/3/6
f 81/3/6 82/3/6 83/3/6
f 82/3/6 78/3/6 84/3/6
f 83/3/6 82/3/6 84/3/6
f 85/1/6 86/1/6 87/1/6
f 87/1/6 86/1/6 88/1/6
