# MagicaVoxel @ Ephtracy

# group
o 

# material
mtllib hammer2hand.vox.mtl
usemtl palette

# normals
vn -1 0 0
vn 1 0 0
vn 0 0 1
vn 0 0 -1
vn 0 -1 0
vn 0 1 0

# texcoords
vt 0.369141 0.5
vt 0.537109 0.5
vt 0.806641 0.5
vt 0.833984 0.5
vt 0.978516 0.5
vt 0.986328 0.5

# verts
v -0.3 0.4 0.5
v -0.3 0.4 0.4
v -0.3 0.4 0.3
v -0.3 0.4 -0.2
v -0.3 0.4 -0.3
v -0.3 0.4 -0.4
v -0.3 0.6 0.4
v -0.3 0.6 0.3
v -0.3 0.6 -0.2
v -0.3 0.6 -0.3
v -0.3 0.7 0.4
v -0.3 0.7 0.3
v -0.3 0.7 -0.2
v -0.3 0.7 -0.3
v -0.3 0.9 0.5
v -0.3 0.9 0.4
v -0.3 0.9 0.3
v -0.3 0.9 -0.2
v -0.3 0.9 -0.3
v -0.3 0.9 -0.4
v -0.2 0.3 0.2
v -0.2 0.3 -0.1
v -0.2 0.4 0.2
v -0.2 0.4 -0.1
v -0.2 0.5 0.4
v -0.2 0.5 0.3
v -0.2 0.5 -0.2
v -0.2 0.5 -0.3
v -0.2 0.6 0.4
v -0.2 0.6 0.3
v -0.2 0.6 -0.2
v -0.2 0.6 -0.3
v -0.2 0.7 0.4
v -0.2 0.7 0.3
v -0.2 0.7 -0.2
v -0.2 0.7 -0.3
v -0.2 0.8 0.4
v -0.2 0.8 0.3
v -0.2 0.8 -0.2
v -0.2 0.8 -0.3
v -0.1 -1.9 0.1
v -0.1 -1.9 0
v -0.1 -1.7 0.1
v -0.1 -1.7 0
v -0.1 -1.6 0.1
v -0.1 -1.6 0
v -0.1 -1.5 0.1
v -0.1 -1.5 0
v -0.1 -1.4 0.1
v -0.1 -1.4 0
v -0.1 -1.3 0.1
v -0.1 -1.3 0
v -0.1 -1.2 0.1
v -0.1 -1.2 0
v -0.1 -1.1 0.1
v -0.1 -1.1 0
v -0.1 -1 0.1
v -0.1 -1 0
v -0.1 -0.9 0.1
v -0.1 -0.9 0
v -0.1 -0.8 0.1
v -0.1 -0.8 0
v -0.1 -0.7 0.1
v -0.1 -0.7 0
v -0.1 -0.3 0.1
v -0.1 -0.3 0
v -0.1 -0.2 0.1
v -0.1 -0.2 0
v -0.1 0.1 0.1
v -0.1 0.1 0
v -0.1 0.2 0.1
v -0.1 0.2 0
v -0.1 0.3 0.1
v -0.1 0.3 0
v -0.1 0.4 0.4
v -0.1 0.4 0.3
v -0.1 0.4 -0.2
v -0.1 0.4 -0.3
v -0.1 0.5 0.4
v -0.1 0.5 0.3
v -0.1 0.5 -0.2
v -0.1 0.5 -0.3
v -0.1 0.8 0.4
v -0.1 0.8 0.3
v -0.1 0.8 -0.2
v -0.1 0.8 -0.3
v -0.1 0.9 0.4
v -0.1 0.9 0.3
v -0.1 0.9 0.1
v -0.1 0.9 0
v -0.1 0.9 -0.2
v -0.1 0.9 -0.3
v -0.1 1 0.1
v -0.1 1 0
v 0 -1.9 0.1
v 0 -1.9 0
v 0 -1.7 0.1
v 0 -1.7 0
v 0 -1.6 0.1
v 0 -1.6 0
v 0 -1.5 0.1
v 0 -1.5 0
v 0 -1.4 0.1
v 0 -1.4 0
v 0 -1.3 0.1
v 0 -1.3 0
v 0 -1.2 0.1
v 0 -1.2 0
v 0 -1.1 0.1
v 0 -1.1 0
v 0 -1 0.1
v 0 -1 0
v 0 -0.9 0.1
v 0 -0.9 0
v 0 -0.8 0.1
v 0 -0.8 0
v 0 -0.7 0.1
v 0 -0.7 0
v 0 -0.3 0.1
v 0 -0.3 0
v 0 -0.2 0.1
v 0 -0.2 0
v 0 0.1 0.1
v 0 0.1 0
v 0 0.2 0.1
v 0 0.2 0
v 0 0.3 0.1
v 0 0.3 0
v 0 0.4 0.4
v 0 0.4 0.3
v 0 0.4 -0.2
v 0 0.4 -0.3
v 0 0.5 0.4
v 0 0.5 0.3
v 0 0.5 -0.2
v 0 0.5 -0.3
v 0 0.8 0.4
v 0 0.8 0.3
v 0 0.8 -0.2
v 0 0.8 -0.3
v 0 0.9 0.4
v 0 0.9 0.3
v 0 0.9 0.1
v 0 0.9 0
v 0 0.9 -0.2
v 0 0.9 -0.3
v 0 1 0.1
v 0 1 0
v 0.1 0.3 0.2
v 0.1 0.3 -0.1
v 0.1 0.4 0.2
v 0.1 0.4 -0.1
v 0.1 0.5 0.4
v 0.1 0.5 0.3
v 0.1 0.5 -0.2
v 0.1 0.5 -0.3
v 0.1 0.6 0.4
v 0.1 0.6 0.3
v 0.1 0.6 -0.2
v 0.1 0.6 -0.3
v 0.1 0.7 0.4
v 0.1 0.7 0.3
v 0.1 0.7 -0.2
v 0.1 0.7 -0.3
v 0.1 0.8 0.4
v 0.1 0.8 0.3
v 0.1 0.8 -0.2
v 0.1 0.8 -0.3
v 0.2 0.4 0.5
v 0.2 0.4 0.4
v 0.2 0.4 0.3
v 0.2 0.4 -0.2
v 0.2 0.4 -0.3
v 0.2 0.4 -0.4
v 0.2 0.6 0.4
v 0.2 0.6 0.3
v 0.2 0.6 -0.2
v 0.2 0.6 -0.3
v 0.2 0.7 0.4
v 0.2 0.7 0.3
v 0.2 0.7 -0.2
v 0.2 0.7 -0.3
v 0.2 0.9 0.5
v 0.2 0.9 0.4
v 0.2 0.9 0.3
v 0.2 0.9 -0.2
v 0.2 0.9 -0.3
v 0.2 0.9 -0.4
v -0.3 0.4 0.5
v -0.3 0.9 0.5
v -0.2 0.5 0.5
v -0.2 0.8 0.5
v -0.1 0.6 0.5
v -0.1 0.7 0.5
v 0 0.6 0.5
v 0 0.7 0.5
v 0.1 0.5 0.5
v 0.1 0.8 0.5
v 0.2 0.4 0.5
v 0.2 0.9 0.5
v -0.3 0.4 0.3
v -0.3 0.6 0.3
v -0.3 0.7 0.3
v -0.3 0.9 0.3
v -0.2 0.5 0.3
v -0.2 0.6 0.3
v -0.2 0.7 0.3
v -0.2 0.8 0.3
v -0.1 0.4 0.3
v -0.1 0.5 0.3
v -0.1 0.8 0.3
v -0.1 0.9 0.3
v 0 0.4 0.3
v 0 0.5 0.3
v 0 0.8 0.3
v 0 0.9 0.3
v 0.1 0.5 0.3
v 0.1 0.6 0.3
v 0.1 0.7 0.3
v 0.1 0.8 0.3
v 0.2 0.4 0.3
v 0.2 0.6 0.3
v 0.2 0.7 0.3
v 0.2 0.9 0.3
v -0.2 0.3 0.2
v -0.2 0.4 0.2
v 0.1 0.3 0.2
v 0.1 0.4 0.2
v -0.1 -1.9 0.1
v -0.1 -1.7 0.1
v -0.1 -1.6 0.1
v -0.1 -1.5 0.1
v -0.1 -1.4 0.1
v -0.1 -1.3 0.1
v -0.1 -1.2 0.1
v -0.1 -1.1 0.1
v -0.1 -1 0.1
v -0.1 -0.9 0.1
v -0.1 -0.8 0.1
v -0.1 -0.7 0.1
v -0.1 -0.3 0.1
v -0.1 -0.2 0.1
v -0.1 0.1 0.1
v -0.1 0.2 0.1
v -0.1 0.3 0.1
v -0.1 0.9 0.1
v -0.1 1 0.1
v 0 -1.9 0.1
v 0 -1.7 0.1
v 0 -1.6 0.1
v 0 -1.5 0.1
v 0 -1.4 0.1
v 0 -1.3 0.1
v 0 -1.2 0.1
v 0 -1.1 0.1
v 0 -1 0.1
v 0 -0.9 0.1
v 0 -0.8 0.1
v 0 -0.7 0.1
v 0 -0.3 0.1
v 0 -0.2 0.1
v 0 0.1 0.1
v 0 0.2 0.1
v 0 0.3 0.1
v 0 0.9 0.1
v 0 1 0.1
v -0.3 0.4 -0.3
v -0.3 0.6 -0.3
v -0.3 0.7 -0.3
v -0.3 0.9 -0.3
v -0.2 0.5 -0.3
v -0.2 0.6 -0.3
v -0.2 0.7 -0.3
v -0.2 0.8 -0.3
v -0.1 0.4 -0.3
v -0.1 0.5 -0.3
v -0.1 0.8 -0.3
v -0.1 0.9 -0.3
v 0 0.4 -0.3
v 0 0.5 -0.3
v 0 0.8 -0.3
v 0 0.9 -0.3
v 0.1 0.5 -0.3
v 0.1 0.6 -0.3
v 0.1 0.7 -0.3
v 0.1 0.8 -0.3
v 0.2 0.4 -0.3
v 0.2 0.6 -0.3
v 0.2 0.7 -0.3
v 0.2 0.9 -0.3
v -0.3 0.4 0.4
v -0.3 0.6 0.4
v -0.3 0.7 0.4
v -0.3 0.9 0.4
v -0.2 0.5 0.4
v -0.2 0.6 0.4
v -0.2 0.7 0.4
v -0.2 0.8 0.4
v -0.1 0.4 0.4
v -0.1 0.5 0.4
v -0.1 0.8 0.4
v -0.1 0.9 0.4
v 0 0.4 0.4
v 0 0.5 0.4
v 0 0.8 0.4
v 0 0.9 0.4
v 0.1 0.5 0.4
v 0.1 0.6 0.4
v 0.1 0.7 0.4
v 0.1 0.8 0.4
v 0.2 0.4 0.4
v 0.2 0.6 0.4
v 0.2 0.7 0.4
v 0.2 0.9 0.4
v -0.1 -1.9 0
v -0.1 -1.7 0
v -0.1 -1.6 0
v -0.1 -1.5 0
v -0.1 -1.4 0
v -0.1 -1.3 0
v -0.1 -1.2 0
v -0.1 -1.1 0
v -0.1 -1 0
v -0.1 -0.9 0
v -0.1 -0.8 0
v -0.1 -0.7 0
v -0.1 -0.3 0
v -0.1 -0.2 0
v -0.1 0.1 0
v -0.1 0.2 0
v -0.1 0.3 0
v -0.1 0.9 0
v -0.1 1 0
v 0 -1.9 0
v 0 -1.7 0
v 0 -1.6 0
v 0 -1.5 0
v 0 -1.4 0
v 0 -1.3 0
v 0 -1.2 0
v 0 -1.1 0
v 0 -1 0
v 0 -0.9 0
v 0 -0.8 0
v 0 -0.7 0
v 0 -0.3 0
v 0 -0.2 0
v 0 0.1 0
v 0 0.2 0
v 0 0.3 0
v 0 0.9 0
v 0 1 0
v -0.2 0.3 -0.1
v -0.2 0.4 -0.1
v 0.1 0.3 -0.1
v 0.1 0.4 -0.1
v -0.3 0.4 -0.2
v -0.3 0.6 -0.2
v -0.3 0.7 -0.2
v -0.3 0.9 -0.2
v -0.2 0.5 -0.2
v -0.2 0.6 -0.2
v -0.2 0.7 -0.2
v -0.2 0.8 -0.2
v -0.1 0.4 -0.2
v -0.1 0.5 -0.2
v -0.1 0.8 -0.2
v -0.1 0.9 -0.2
v 0 0.4 -0.2
v 0 0.5 -0.2
v 0 0.8 -0.2
v 0 0.9 -0.2
v 0.1 0.5 -0.2
v 0.1 0.6 -0.2
v 0.1 0.7 -0.2
v 0.1 0.8 -0.2
v 0.2 0.4 -0.2
v 0.2 0.6 -0.2
v 0.2 0.7 -0.2
v 0.2 0.9 -0.2
v -0.3 0.4 -0.4
v -0.3 0.9 -0.4
v -0.2 0.5 -0.4
v -0.2 0.8 -0.4
v -0.1 0.6 -0.4
v -0.1 0.7 -0.4
v 0 0.6 -0.4
v 0 0.7 -0.4
v 0.1 0.5 -0.4
v 0.1 0.8 -0.4
v 0.2 0.4 -0.4
v 0.2 0.9 -0.4
v -0.1 -1.9 0.1
v 0 -1.9 0.1
v -0.1 -1.9 0
v 0 -1.9 0
v -0.2 0.3 0.2
v 0.1 0.3 0.2
v -0.1 0.3 0.1
v 0 0.3 0.1
v -0.1 0.3 0
v 0 0.3 0
v -0.2 0.3 -0.1
v 0.1 0.3 -0.1
v -0.3 0.4 0.5
v 0.2 0.4 0.5
v -0.3 0.4 0.4
v -0.1 0.4 0.4
v 0 0.4 0.4
v 0.2 0.4 0.4
v -0.3 0.4 0.3
v -0.1 0.4 0.3
v 0 0.4 0.3
v 0.2 0.4 0.3
v -0.2 0.4 0.2
v 0.1 0.4 0.2
v -0.2 0.4 -0.1
v 0.1 0.4 -0.1
v -0.3 0.4 -0.2
v -0.1 0.4 -0.2
v 0 0.4 -0.2
v 0.2 0.4 -0.2
v -0.3 0.4 -0.3
v -0.1 0.4 -0.3
v 0 0.4 -0.3
v 0.2 0.4 -0.3
v -0.3 0.4 -0.4
v 0.2 0.4 -0.4
v -0.2 0.5 0.4
v -0.1 0.5 0.4
v 0 0.5 0.4
v 0.1 0.5 0.4
v -0.2 0.5 0.3
v -0.1 0.5 0.3
v 0 0.5 0.3
v 0.1 0.5 0.3
v -0.2 0.5 -0.2
v -0.1 0.5 -0.2
v 0 0.5 -0.2
v 0.1 0.5 -0.2
v -0.2 0.5 -0.3
v -0.1 0.5 -0.3
v 0 0.5 -0.3
v 0.1 0.5 -0.3
v -0.3 0.6 0.4
v -0.2 0.6 0.4
v 0.1 0.6 0.4
v 0.2 0.6 0.4
v -0.3 0.6 0.3
v -0.2 0.6 0.3
v 0.1 0.6 0.3
v 0.2 0.6 0.3
v -0.3 0.6 -0.2
v -0.2 0.6 -0.2
v 0.1 0.6 -0.2
v 0.2 0.6 -0.2
v -0.3 0.6 -0.3
v -0.2 0.6 -0.3
v 0.1 0.6 -0.3
v 0.2 0.6 -0.3
v -0.3 0.7 0.4
v -0.2 0.7 0.4
v 0.1 0.7 0.4
v 0.2 0.7 0.4
v -0.3 0.7 0.3
v -0.2 0.7 0.3
v 0.1 0.7 0.3
v 0.2 0.7 0.3
v -0.3 0.7 -0.2
v -0.2 0.7 -0.2
v 0.1 0.7 -0.2
v 0.2 0.7 -0.2
v -0.3 0.7 -0.3
v -0.2 0.7 -0.3
v 0.1 0.7 -0.3
v 0.2 0.7 -0.3
v -0.2 0.8 0.4
v -0.1 0.8 0.4
v 0 0.8 0.4
v 0.1 0.8 0.4
v -0.2 0.8 0.3
v -0.1 0.8 0.3
v 0 0.8 0.3
v 0.1 0.8 0.3
v -0.2 0.8 -0.2
v -0.1 0.8 -0.2
v 0 0.8 -0.2
v 0.1 0.8 -0.2
v -0.2 0.8 -0.3
v -0.1 0.8 -0.3
v 0 0.8 -0.3
v 0.1 0.8 -0.3
v -0.3 0.9 0.5
v 0.2 0.9 0.5
v -0.3 0.9 0.4
v -0.1 0.9 0.4
v 0 0.9 0.4
v 0.2 0.9 0.4
v -0.3 0.9 0.3
v -0.1 0.9 0.3
v 0 0.9 0.3
v 0.2 0.9 0.3
v -0.1 0.9 0.1
v 0 0.9 0.1
v -0.1 0.9 0
v 0 0.9 0
v -0.3 0.9 -0.2
v -0.1 0.9 -0.2
v 0 0.9 -0.2
v 0.2 0.9 -0.2
v -0.3 0.9 -0.3
v -0.1 0.9 -0.3
v 0 0.9 -0.3
v 0.2 0.9 -0.3
v -0.3 0.9 -0.4
v 0.2 0.9 -0.4
v -0.1 1 0.1
v 0 1 0.1
v -0.1 1 0
v 0 1 0

# faces
f 7/5/1 2/5/1 1/5/1
f 8/5/1 4/5/1 3/5/1
f 9/5/1 4/5/1 8/5/1
f 10/5/1 6/5/1 5/5/1
f 11/5/1 9/5/1 8/5/1
f 11/5/1 10/5/1 9/5/1
f 11/5/1 7/5/1 1/5/1
f 11/5/1 8/5/1 7/5/1
f 12/5/1 10/5/1 11/5/1
f 13/5/1 10/5/1 12/5/1
f 14/5/1 6/5/1 10/5/1
f 14/5/1 10/5/1 13/5/1
f 15/5/1 11/5/1 1/5/1
f 16/5/1 11/5/1 15/5/1
f 17/5/1 13/5/1 12/5/1
f 18/5/1 13/5/1 17/5/1
f 19/5/1 6/5/1 14/5/1
f 20/5/1 6/5/1 19/5/1
f 23/5/1 22/5/1 21/5/1
f 24/5/1 22/5/1 23/5/1
f 29/6/1 26/6/1 25/6/1
f 30/6/1 26/6/1 29/6/1
f 31/6/1 28/6/1 27/6/1
f 32/6/1 28/6/1 31/6/1
f 37/6/1 34/6/1 33/6/1
f 38/6/1 34/6/1 37/6/1
f 39/6/1 36/6/1 35/6/1
f 40/6/1 36/6/1 39/6/1
f 43/1/1 42/1/1 41/1/1
f 44/1/1 42/1/1 43/1/1
f 45/2/1 44/2/1 43/2/1
f 46/2/1 44/2/1 45/2/1
f 47/4/1 46/4/1 45/4/1
f 48/4/1 46/4/1 47/4/1
f 49/3/1 48/3/1 47/3/1
f 50/3/1 48/3/1 49/3/1
f 51/4/1 50/4/1 49/4/1
f 52/4/1 50/4/1 51/4/1
f 53/3/1 52/3/1 51/3/1
f 54/3/1 52/3/1 53/3/1
f 55/4/1 54/4/1 53/4/1
f 56/4/1 54/4/1 55/4/1
f 57/3/1 56/3/1 55/3/1
f 58/3/1 56/3/1 57/3/1
f 59/4/1 58/4/1 57/4/1
f 60/4/1 58/4/1 59/4/1
f 61/3/1 60/3/1 59/3/1
f 62/3/1 60/3/1 61/3/1
f 63/4/1 62/4/1 61/4/1
f 64/4/1 62/4/1 63/4/1
f 65/1/1 64/1/1 63/1/1
f 66/1/1 64/1/1 65/1/1
f 67/4/1 66/4/1 65/4/1
f 68/4/1 66/4/1 67/4/1
f 69/3/1 68/3/1 67/3/1
f 70/3/1 68/3/1 69/3/1
f 71/4/1 70/4/1 69/4/1
f 72/4/1 70/4/1 71/4/1
f 73/2/1 72/2/1 71/2/1
f 74/2/1 72/2/1 73/2/1
f 79/5/1 76/5/1 75/5/1
f 80/5/1 76/5/1 79/5/1
f 81/5/1 78/5/1 77/5/1
f 82/5/1 78/5/1 81/5/1
f 87/5/1 84/5/1 83/5/1
f 88/5/1 84/5/1 87/5/1
f 91/5/1 86/5/1 85/5/1
f 92/5/1 86/5/1 91/5/1
f 93/1/1 90/1/1 89/1/1
f 94/1/1 90/1/1 93/1/1
f 95/1/2 96/1/2 97/1/2
f 97/1/2 96/1/2 98/1/2
f 97/2/2 98/2/2 99/2/2
f 99/2/2 98/2/2 100/2/2
f 99/4/2 100/4/2 101/4/2
f 101/4/2 100/4/2 102/4/2
f 101/3/2 102/3/2 103/3/2
f 103/3/2 102/3/2 104/3/2
f 103/4/2 104/4/2 105/4/2
f 105/4/2 104/4/2 106/4/2
f 105/3/2 106/3/2 107/3/2
f 107/3/2 106/3/2 108/3/2
f 107/4/2 108/4/2 109/4/2
f 109/4/2 108/4/2 110/4/2
f 109/3/2 110/3/2 111/3/2
f 111/3/2 110/3/2 112/3/2
f 111/4/2 112/4/2 113/4/2
f 113/4/2 112/4/2 114/4/2
f 113/3/2 114/3/2 115/3/2
f 115/3/2 114/3/2 116/3/2
f 115/4/2 116/4/2 117/4/2
f 117/4/2 116/4/2 118/4/2
f 117/1/2 118/1/2 119/1/2
f 119/1/2 118/1/2 120/1/2
f 119/4/2 120/4/2 121/4/2
f 121/4/2 120/4/2 122/4/2
f 121/3/2 122/3/2 123/3/2
f 123/3/2 122/3/2 124/3/2
f 123/4/2 124/4/2 125/4/2
f 125/4/2 124/4/2 126/4/2
f 125/2/2 126/2/2 127/2/2
f 127/2/2 126/2/2 128/2/2
f 129/5/2 130/5/2 133/5/2
f 133/5/2 130/5/2 134/5/2
f 131/5/2 132/5/2 135/5/2
f 135/5/2 132/5/2 136/5/2
f 137/5/2 138/5/2 141/5/2
f 141/5/2 138/5/2 142/5/2
f 139/5/2 140/5/2 145/5/2
f 145/5/2 140/5/2 146/5/2
f 143/1/2 144/1/2 147/1/2
f 147/1/2 144/1/2 148/1/2
f 149/5/2 150/5/2 151/5/2
f 151/5/2 150/5/2 152/5/2
f 153/6/2 154/6/2 157/6/2
f 157/6/2 154/6/2 158/6/2
f 155/6/2 156/6/2 159/6/2
f 159/6/2 156/6/2 160/6/2
f 161/6/2 162/6/2 165/6/2
f 165/6/2 162/6/2 166/6/2
f 163/6/2 164/6/2 167/6/2
f 167/6/2 164/6/2 168/6/2
f 169/5/2 170/5/2 175/5/2
f 171/5/2 172/5/2 176/5/2
f 176/5/2 172/5/2 177/5/2
f 173/5/2 174/5/2 178/5/2
f 176/5/2 177/5/2 179/5/2
f 177/5/2 178/5/2 179/5/2
f 169/5/2 175/5/2 179/5/2
f 175/5/2 176/5/2 179/5/2
f 179/5/2 178/5/2 180/5/2
f 180/5/2 178/5/2 181/5/2
f 178/5/2 174/5/2 182/5/2
f 181/5/2 178/5/2 182/5/2
f 169/5/2 179/5/2 183/5/2
f 183/5/2 179/5/2 184/5/2
f 180/5/2 181/5/2 185/5/2
f 185/5/2 181/5/2 186/5/2
f 182/5/2 174/5/2 187/5/2
f 187/5/2 174/5/2 188/5/2
f 191/5/3 190/5/3 189/5/3
f 192/5/3 190/5/3 191/5/3
f 193/6/3 192/6/3 191/6/3
f 194/6/3 192/6/3 193/6/3
f 195/6/3 193/6/3 191/6/3
f 195/5/3 194/5/3 193/5/3
f 196/6/3 192/6/3 194/6/3
f 196/5/3 194/5/3 195/5/3
f 197/5/3 191/5/3 189/5/3
f 197/6/3 195/6/3 191/6/3
f 197/6/3 196/6/3 195/6/3
f 198/6/3 192/6/3 196/6/3
f 198/6/3 196/6/3 197/6/3
f 198/5/3 190/5/3 192/5/3
f 199/5/3 197/5/3 189/5/3
f 199/5/3 198/5/3 197/5/3
f 200/5/3 190/5/3 198/5/3
f 200/5/3 198/5/3 199/5/3
f 205/5/3 202/5/3 201/5/3
f 206/5/3 202/5/3 205/5/3
f 207/5/3 204/5/3 203/5/3
f 208/5/3 204/5/3 207/5/3
f 209/5/3 205/5/3 201/5/3
f 210/5/3 205/5/3 209/5/3
f 211/5/3 204/5/3 208/5/3
f 212/5/3 204/5/3 211/5/3
f 217/5/3 214/5/3 213/5/3
f 220/5/3 216/5/3 215/5/3
f 221/5/3 218/5/3 217/5/3
f 221/5/3 217/5/3 213/5/3
f 222/5/3 218/5/3 221/5/3
f 223/5/3 220/5/3 219/5/3
f 224/5/3 216/5/3 220/5/3
f 224/5/3 220/5/3 223/5/3
f 227/5/3 226/5/3 225/5/3
f 228/5/3 226/5/3 227/5/3
f 248/1/3 230/1/3 229/1/3
f 249/2/3 231/2/3 230/2/3
f 249/1/3 230/1/3 248/1/3
f 250/4/3 232/4/3 231/4/3
f 250/2/3 231/2/3 249/2/3
f 251/3/3 233/3/3 232/3/3
f 251/4/3 232/4/3 250/4/3
f 252/4/3 234/4/3 233/4/3
f 252/3/3 233/3/3 251/3/3
f 253/3/3 235/3/3 234/3/3
f 253/4/3 234/4/3 252/4/3
f 254/4/3 236/4/3 235/4/3
f 254/3/3 235/3/3 253/3/3
f 255/3/3 237/3/3 236/3/3
f 255/4/3 236/4/3 254/4/3
f 256/4/3 238/4/3 237/4/3
f 256/3/3 237/3/3 255/3/3
f 257/3/3 239/3/3 238/3/3
f 257/4/3 238/4/3 256/4/3
f 258/4/3 240/4/3 239/4/3
f 258/3/3 239/3/3 257/3/3
f 259/1/3 241/1/3 240/1/3
f 259/4/3 240/4/3 258/4/3
f 260/4/3 242/4/3 241/4/3
f 260/1/3 241/1/3 259/1/3
f 261/3/3 243/3/3 242/3/3
f 261/4/3 242/4/3 260/4/3
f 262/4/3 244/4/3 243/4/3
f 262/3/3 243/3/3 261/3/3
f 263/2/3 245/2/3 244/2/3
f 263/4/3 244/4/3 262/4/3
f 264/2/3 245/2/3 263/2/3
f 265/1/3 247/1/3 246/1/3
f 266/1/3 247/1/3 265/1/3
f 271/5/3 268/5/3 267/5/3
f 272/5/3 268/5/3 271/5/3
f 273/5/3 270/5/3 269/5/3
f 274/5/3 270/5/3 273/5/3
f 275/5/3 271/5/3 267/5/3
f 276/5/3 271/5/3 275/5/3
f 277/5/3 270/5/3 274/5/3
f 278/5/3 270/5/3 277/5/3
f 283/5/3 280/5/3 279/5/3
f 286/5/3 282/5/3 281/5/3
f 287/5/3 284/5/3 283/5/3
f 287/5/3 283/5/3 279/5/3
f 288/5/3 284/5/3 287/5/3
f 289/5/3 286/5/3 285/5/3
f 290/5/3 282/5/3 286/5/3
f 290/5/3 286/5/3 289/5/3
f 291/5/4 292/5/4 295/5/4
f 295/5/4 292/5/4 296/5/4
f 293/5/4 294/5/4 297/5/4
f 297/5/4 294/5/4 298/5/4
f 291/5/4 295/5/4 299/5/4
f 299/5/4 295/5/4 300/5/4
f 298/5/4 294/5/4 301/5/4
f 301/5/4 294/5/4 302/5/4
f 303/5/4 304/5/4 307/5/4
f 305/5/4 306/5/4 310/5/4
f 307/5/4 308/5/4 311/5/4
f 303/5/4 307/5/4 311/5/4
f 311/5/4 308/5/4 312/5/4
f 309/5/4 310/5/4 313/5/4
f 310/5/4 306/5/4 314/5/4
f 313/5/4 310/5/4 314/5/4
f 315/1/4 316/1/4 334/1/4
f 316/2/4 317/2/4 335/2/4
f 334/1/4 316/1/4 335/1/4
f 317/4/4 318/4/4 336/4/4
f 335/2/4 317/2/4 336/2/4
f 318/3/4 319/3/4 337/3/4
f 336/4/4 318/4/4 337/4/4
f 319/4/4 320/4/4 338/4/4
f 337/3/4 319/3/4 338/3/4
f 320/3/4 321/3/4 339/3/4
f 338/4/4 320/4/4 339/4/4
f 321/4/4 322/4/4 340/4/4
f 339/3/4 321/3/4 340/3/4
f 322/3/4 323/3/4 341/3/4
f 340/4/4 322/4/4 341/4/4
f 323/4/4 324/4/4 342/4/4
f 341/3/4 323/3/4 342/3/4
f 324/3/4 325/3/4 343/3/4
f 342/4/4 324/4/4 343/4/4
f 325/4/4 326/4/4 344/4/4
f 343/3/4 325/3/4 344/3/4
f 326/1/4 327/1/4 345/1/4
f 344/4/4 326/4/4 345/4/4
f 327/4/4 328/4/4 346/4/4
f 345/1/4 327/1/4 346/1/4
f 328/3/4 329/3/4 347/3/4
f 346/4/4 328/4/4 347/4/4
f 329/4/4 330/4/4 348/4/4
f 347/3/4 329/3/4 348/3/4
f 330/2/4 331/2/4 349/2/4
f 348/4/4 330/4/4 349/4/4
f 349/2/4 331/2/4 350/2/4
f 332/1/4 333/1/4 351/1/4
f 351/1/4 333/1/4 352/1/4
f 353/5/4 354/5/4 355/5/4
f 355/5/4 354/5/4 356/5/4
f 357/5/4 358/5/4 361/5/4
f 361/5/4 358/5/4 362/5/4
f 359/5/4 360/5/4 363/5/4
f 363/5/4 360/5/4 364/5/4
f 357/5/4 361/5/4 365/5/4
f 365/5/4 361/5/4 366/5/4
f 364/5/4 360/5/4 367/5/4
f 367/5/4 360/5/4 368/5/4
f 369/5/4 370/5/4 373/5/4
f 371/5/4 372/5/4 376/5/4
f 373/5/4 374/5/4 377/5/4
f 369/5/4 373/5/4 377/5/4
f 377/5/4 374/5/4 378/5/4
f 375/5/4 376/5/4 379/5/4
f 376/5/4 372/5/4 380/5/4
f 379/5/4 376/5/4 380/5/4
f 381/5/4 382/5/4 383/5/4
f 383/5/4 382/5/4 384/5/4
f 383/6/4 384/6/4 385/6/4
f 385/6/4 384/6/4 386/6/4
f 383/6/4 385/6/4 387/6/4
f 385/5/4 386/5/4 387/5/4
f 386/6/4 384/6/4 388/6/4
f 387/5/4 386/5/4 388/5/4
f 381/5/4 383/5/4 389/5/4
f 383/6/4 387/6/4 389/6/4
f 387/6/4 388/6/4 389/6/4
f 388/6/4 384/6/4 390/6/4
f 389/6/4 388/6/4 390/6/4
f 384/5/4 382/5/4 390/5/4
f 381/5/4 389/5/4 391/5/4
f 389/5/4 390/5/4 391/5/4
f 390/5/4 382/5/4 392/5/4
f 391/5/4 390/5/4 392/5/4
f 395/1/5 394/1/5 393/1/5
f 396/1/5 394/1/5 395/1/5
f 399/5/5 398/5/5 397/5/5
f 400/5/5 398/5/5 399/5/5
f 401/5/5 399/5/5 397/5/5
f 402/5/5 398/5/5 400/5/5
f 403/5/5 401/5/5 397/5/5
f 403/5/5 402/5/5 401/5/5
f 404/5/5 398/5/5 402/5/5
f 404/5/5 402/5/5 403/5/5
f 407/5/5 406/5/5 405/5/5
f 408/5/5 406/5/5 407/5/5
f 409/5/5 406/5/5 408/5/5
f 410/5/5 406/5/5 409/5/5
f 412/5/5 409/5/5 408/5/5
f 413/5/5 409/5/5 412/5/5
f 415/5/5 412/5/5 411/5/5
f 415/5/5 414/5/5 413/5/5
f 415/5/5 413/5/5 412/5/5
f 416/5/5 414/5/5 415/5/5
f 417/5/5 415/5/5 411/5/5
f 418/5/5 414/5/5 416/5/5
f 419/5/5 417/5/5 411/5/5
f 419/5/5 418/5/5 417/5/5
f 420/5/5 418/5/5 419/5/5
f 421/5/5 418/5/5 420/5/5
f 422/5/5 414/5/5 418/5/5
f 422/5/5 418/5/5 421/5/5
f 424/5/5 421/5/5 420/5/5
f 425/5/5 421/5/5 424/5/5
f 427/5/5 424/5/5 423/5/5
f 427/5/5 426/5/5 425/5/5
f 427/5/5 425/5/5 424/5/5
f 428/5/5 426/5/5 427/5/5
f 433/6/5 430/6/5 429/6/5
f 434/6/5 430/6/5 433/6/5
f 435/6/5 432/6/5 431/6/5
f 436/6/5 432/6/5 435/6/5
f 441/6/5 438/6/5 437/6/5
f 442/6/5 438/6/5 441/6/5
f 443/6/5 440/6/5 439/6/5
f 444/6/5 440/6/5 443/6/5
f 449/5/5 446/5/5 445/5/5
f 450/5/5 446/5/5 449/5/5
f 451/5/5 448/5/5 447/5/5
f 452/5/5 448/5/5 451/5/5
f 457/5/5 454/5/5 453/5/5
f 458/5/5 454/5/5 457/5/5
f 459/5/5 456/5/5 455/5/5
f 460/5/5 456/5/5 459/5/5
f 461/5/6 462/5/6 465/5/6
f 465/5/6 462/5/6 466/5/6
f 463/5/6 464/5/6 467/5/6
f 467/5/6 464/5/6 468/5/6
f 469/5/6 470/5/6 473/5/6
f 473/5/6 470/5/6 474/5/6
f 471/5/6 472/5/6 475/5/6
f 475/5/6 472/5/6 476/5/6
f 477/6/6 478/6/6 481/6/6
f 481/6/6 478/6/6 482/6/6
f 479/6/6 480/6/6 483/6/6
f 483/6/6 480/6/6 484/6/6
f 485/6/6 486/6/6 489/6/6
f 489/6/6 486/6/6 490/6/6
f 487/6/6 488/6/6 491/6/6
f 491/6/6 488/6/6 492/6/6
f 493/5/6 494/5/6 495/5/6
f 495/5/6 494/5/6 496/5/6
f 496/5/6 494/5/6 497/5/6
f 497/5/6 494/5/6 498/5/6
f 496/5/6 497/5/6 500/5/6
f 500/5/6 497/5/6 501/5/6
f 499/5/6 500/5/6 503/5/6
f 501/5/6 502/5/6 503/5/6
f 500/5/6 501/5/6 503/5/6
f 503/5/6 502/5/6 504/5/6
f 499/5/6 503/5/6 505/5/6
f 504/5/6 502/5/6 506/5/6
f 499/5/6 505/5/6 507/5/6
f 505/5/6 506/5/6 507/5/6
f 507/5/6 506/5/6 508/5/6
f 506/5/6 502/5/6 509/5/6
f 508/5/6 506/5/6 509/5/6
f 509/5/6 502/5/6 510/5/6
f 508/5/6 509/5/6 512/5/6
f 512/5/6 509/5/6 513/5/6
f 511/5/6 512/5/6 515/5/6
f 513/5/6 514/5/6 515/5/6
f 512/5/6 513/5/6 515/5/6
f 515/5/6 514/5/6 516/5/6
f 517/1/6 518/1/6 519/1/6
f 519/1/6 518/1/6 520/1/6
