# MagicaVoxel @ Ephtracy

# group
o 

# material
mtllib mace.vox.mtl
usemtl palette

# normals
vn -1 0 0
vn 1 0 0
vn 0 0 1
vn 0 0 -1
vn 0 -1 0
vn 0 1 0

# texcoords
vt 0.396484 0.5
vt 0.970703 0.5
vt 0.978516 0.5
vt 0.986328 0.5

# verts
v -0.4 0.5 0.2
v -0.4 0.5 0.1
v -0.4 0.5 0
v -0.4 0.5 -0.1
v -0.4 0.6 0.2
v -0.4 0.6 0.1
v -0.4 0.6 0
v -0.4 0.6 -0.1
v -0.4 0.7 0.2
v -0.4 0.7 0.1
v -0.4 0.7 0
v -0.4 0.7 -0.1
v -0.4 0.8 0.2
v -0.4 0.8 0.1
v -0.4 0.8 0
v -0.4 0.8 -0.1
v -0.3 0.5 0.1
v -0.3 0.5 0
v -0.3 0.6 0.2
v -0.3 0.6 0.1
v -0.3 0.6 0
v -0.3 0.6 -0.1
v -0.3 0.7 0.2
v -0.3 0.7 0.1
v -0.3 0.7 0
v -0.3 0.7 -0.1
v -0.3 0.8 0.1
v -0.3 0.8 0
v -0.2 0.4 0.2
v -0.2 0.4 -0.1
v -0.2 0.5 0.4
v -0.2 0.5 0.3
v -0.2 0.5 0.2
v -0.2 0.5 -0.1
v -0.2 0.5 -0.2
v -0.2 0.5 -0.3
v -0.2 0.6 0.4
v -0.2 0.6 0.3
v -0.2 0.6 -0.2
v -0.2 0.6 -0.3
v -0.2 0.7 0.4
v -0.2 0.7 0.3
v -0.2 0.7 -0.2
v -0.2 0.7 -0.3
v -0.2 0.8 0.4
v -0.2 0.8 0.3
v -0.2 0.8 0.2
v -0.2 0.8 -0.1
v -0.2 0.8 -0.2
v -0.2 0.8 -0.3
v -0.2 0.9 0.2
v -0.2 0.9 0.1
v -0.2 0.9 0
v -0.2 0.9 -0.1
v -0.2 1 0.2
v -0.2 1 0.1
v -0.2 1 0
v -0.2 1 -0.1
v -0.1 -0.6 0.2
v -0.1 -0.6 -0.1
v -0.1 -0.5 0.1
v -0.1 -0.5 0
v -0.1 -0.4 0.1
v -0.1 -0.4 0
v -0.1 -0.3 0.2
v -0.1 -0.3 0.1
v -0.1 -0.3 0
v -0.1 -0.3 -0.1
v -0.1 0.2 0.1
v -0.1 0.2 0
v -0.1 0.4 0.1
v -0.1 0.4 0
v 0 0.5 0.4
v 0 0.5 0.3
v 0 0.5 -0.2
v 0 0.5 -0.3
v 0 0.6 0.4
v 0 0.6 0.3
v 0 0.6 -0.2
v 0 0.6 -0.3
v 0 0.7 0.4
v 0 0.7 0.3
v 0 0.7 -0.2
v 0 0.7 -0.3
v 0 0.8 0.4
v 0 0.8 0.3
v 0 0.8 -0.2
v 0 0.8 -0.3
v 0 0.9 0.2
v 0 0.9 0.1
v 0 0.9 0
v 0 0.9 -0.1
v 0 1 0.2
v 0 1 0.1
v 0 1 0
v 0 1 -0.1
v -0.1 0.5 0.4
v -0.1 0.5 0.3
v -0.1 0.5 -0.2
v -0.1 0.5 -0.3
v -0.1 0.6 0.4
v -0.1 0.6 0.3
v -0.1 0.6 -0.2
v -0.1 0.6 -0.3
v -0.1 0.7 0.4
v -0.1 0.7 0.3
v -0.1 0.7 -0.2
v -0.1 0.7 -0.3
v -0.1 0.8 0.4
v -0.1 0.8 0.3
v -0.1 0.8 -0.2
v -0.1 0.8 -0.3
v -0.1 0.9 0.2
v -0.1 0.9 0.1
v -0.1 0.9 0
v -0.1 0.9 -0.1
v -0.1 1 0.2
v -0.1 1 0.1
v -0.1 1 0
v -0.1 1 -0.1
v 0 -0.6 0.2
v 0 -0.6 -0.1
v 0 -0.5 0.1
v 0 -0.5 0
v 0 -0.4 0.1
v 0 -0.4 0
v 0 -0.3 0.2
v 0 -0.3 0.1
v 0 -0.3 0
v 0 -0.3 -0.1
v 0 0.2 0.1
v 0 0.2 0
v 0 0.4 0.1
v 0 0.4 0
v 0.1 0.4 0.2
v 0.1 0.4 -0.1
v 0.1 0.5 0.4
v 0.1 0.5 0.3
v 0.1 0.5 0.2
v 0.1 0.5 -0.1
v 0.1 0.5 -0.2
v 0.1 0.5 -0.3
v 0.1 0.6 0.4
v 0.1 0.6 0.3
v 0.1 0.6 -0.2
v 0.1 0.6 -0.3
v 0.1 0.7 0.4
v 0.1 0.7 0.3
v 0.1 0.7 -0.2
v 0.1 0.7 -0.3
v 0.1 0.8 0.4
v 0.1 0.8 0.3
v 0.1 0.8 0.2
v 0.1 0.8 -0.1
v 0.1 0.8 -0.2
v 0.1 0.8 -0.3
v 0.1 0.9 0.2
v 0.1 0.9 0.1
v 0.1 0.9 0
v 0.1 0.9 -0.1
v 0.1 1 0.2
v 0.1 1 0.1
v 0.1 1 0
v 0.1 1 -0.1
v 0.2 0.5 0.1
v 0.2 0.5 0
v 0.2 0.6 0.2
v 0.2 0.6 0.1
v 0.2 0.6 0
v 0.2 0.6 -0.1
v 0.2 0.7 0.2
v 0.2 0.7 0.1
v 0.2 0.7 0
v 0.2 0.7 -0.1
v 0.2 0.8 0.1
v 0.2 0.8 0
v 0.3 0.5 0.2
v 0.3 0.5 0.1
v 0.3 0.5 0
v 0.3 0.5 -0.1
v 0.3 0.6 0.2
v 0.3 0.6 0.1
v 0.3 0.6 0
v 0.3 0.6 -0.1
v 0.3 0.7 0.2
v 0.3 0.7 0.1
v 0.3 0.7 0
v 0.3 0.7 -0.1
v 0.3 0.8 0.2
v 0.3 0.8 0.1
v 0.3 0.8 0
v 0.3 0.8 -0.1
v -0.2 0.5 0.4
v -0.2 0.6 0.4
v -0.2 0.7 0.4
v -0.2 0.8 0.4
v -0.1 0.5 0.4
v -0.1 0.6 0.4
v -0.1 0.7 0.4
v -0.1 0.8 0.4
v 0 0.5 0.4
v 0 0.6 0.4
v 0 0.7 0.4
v 0 0.8 0.4
v 0.1 0.5 0.4
v 0.1 0.6 0.4
v 0.1 0.7 0.4
v 0.1 0.8 0.4
v -0.2 0.6 0.3
v -0.2 0.7 0.3
v -0.1 0.5 0.3
v -0.1 0.6 0.3
v -0.1 0.7 0.3
v -0.1 0.8 0.3
v 0 0.5 0.3
v 0 0.6 0.3
v 0 0.7 0.3
v 0 0.8 0.3
v 0.1 0.6 0.3
v 0.1 0.7 0.3
v -0.4 0.5 0.2
v -0.4 0.6 0.2
v -0.4 0.7 0.2
v -0.4 0.8 0.2
v -0.3 0.5 0.2
v -0.3 0.6 0.2
v -0.3 0.7 0.2
v -0.3 0.8 0.2
v -0.2 0.4 0.2
v -0.2 0.5 0.2
v -0.2 0.8 0.2
v -0.2 0.9 0.2
v -0.2 1 0.2
v -0.1 -0.6 0.2
v -0.1 -0.3 0.2
v -0.1 0.9 0.2
v -0.1 1 0.2
v 0 -0.6 0.2
v 0 -0.3 0.2
v 0 0.9 0.2
v 0 1 0.2
v 0.1 0.4 0.2
v 0.1 0.5 0.2
v 0.1 0.8 0.2
v 0.1 0.9 0.2
v 0.1 1 0.2
v 0.2 0.5 0.2
v 0.2 0.6 0.2
v 0.2 0.7 0.2
v 0.2 0.8 0.2
v 0.3 0.5 0.2
v 0.3 0.6 0.2
v 0.3 0.7 0.2
v 0.3 0.8 0.2
v -0.1 -0.3 0.1
v -0.1 0.2 0.1
v -0.1 0.4 0.1
v 0 -0.3 0.1
v 0 0.2 0.1
v 0 0.4 0.1
v -0.4 0.5 0
v -0.4 0.6 0
v -0.4 0.7 0
v -0.4 0.8 0
v -0.3 0.5 0
v -0.3 0.6 0
v -0.3 0.7 0
v -0.3 0.8 0
v -0.2 0.9 0
v -0.2 1 0
v -0.1 -0.5 0
v -0.1 -0.4 0
v -0.1 0.9 0
v -0.1 1 0
v 0 -0.5 0
v 0 -0.4 0
v 0 0.9 0
v 0 1 0
v 0.1 0.9 0
v 0.1 1 0
v 0.2 0.5 0
v 0.2 0.6 0
v 0.2 0.7 0
v 0.2 0.8 0
v 0.3 0.5 0
v 0.3 0.6 0
v 0.3 0.7 0
v 0.3 0.8 0
v -0.4 0.5 0.1
v -0.4 0.6 0.1
v -0.4 0.7 0.1
v -0.4 0.8 0.1
v -0.3 0.5 0.1
v -0.3 0.6 0.1
v -0.3 0.7 0.1
v -0.3 0.8 0.1
v -0.2 0.9 0.1
v -0.2 1 0.1
v -0.1 -0.5 0.1
v -0.1 -0.4 0.1
v -0.1 0.9 0.1
v -0.1 1 0.1
v 0 -0.5 0.1
v 0 -0.4 0.1
v 0 0.9 0.1
v 0 1 0.1
v 0.1 0.9 0.1
v 0.1 1 0.1
v 0.2 0.5 0.1
v 0.2 0.6 0.1
v 0.2 0.7 0.1
v 0.2 0.8 0.1
v 0.3 0.5 0.1
v 0.3 0.6 0.1
v 0.3 0.7 0.1
v 0.3 0.8 0.1
v -0.1 -0.3 0
v -0.1 0.2 0
v -0.1 0.4 0
v 0 -0.3 0
v 0 0.2 0
v 0 0.4 0
v -0.4 0.5 -0.1
v -0.4 0.6 -0.1
v -0.4 0.7 -0.1
v -0.4 0.8 -0.1
v -0.3 0.5 -0.1
v -0.3 0.6 -0.1
v -0.3 0.7 -0.1
v -0.3 0.8 -0.1
v -0.2 0.4 -0.1
v -0.2 0.5 -0.1
v -0.2 0.8 -0.1
v -0.2 0.9 -0.1
v -0.2 1 -0.1
v -0.1 -0.6 -0.1
v -0.1 -0.3 -0.1
v -0.1 0.9 -0.1
v -0.1 1 -0.1
v 0 -0.6 -0.1
v 0 -0.3 -0.1
v 0 0.9 -0.1
v 0 1 -0.1
v 0.1 0.4 -0.1
v 0.1 0.5 -0.1
v 0.1 0.8 -0.1
v 0.1 0.9 -0.1
v 0.1 1 -0.1
v 0.2 0.5 -0.1
v 0.2 0.6 -0.1
v 0.2 0.7 -0.1
v 0.2 0.8 -0.1
v 0.3 0.5 -0.1
v 0.3 0.6 -0.1
v 0.3 0.7 -0.1
v 0.3 0.8 -0.1
v -0.2 0.6 -0.2
v -0.2 0.7 -0.2
v -0.1 0.5 -0.2
v -0.1 0.6 -0.2
v -0.1 0.7 -0.2
v -0.1 0.8 -0.2
v 0 0.5 -0.2
v 0 0.6 -0.2
v 0 0.7 -0.2
v 0 0.8 -0.2
v 0.1 0.6 -0.2
v 0.1 0.7 -0.2
v -0.2 0.5 -0.3
v -0.2 0.6 -0.3
v -0.2 0.7 -0.3
v -0.2 0.8 -0.3
v -0.1 0.5 -0.3
v -0.1 0.6 -0.3
v -0.1 0.7 -0.3
v -0.1 0.8 -0.3
v 0 0.5 -0.3
v 0 0.6 -0.3
v 0 0.7 -0.3
v 0 0.8 -0.3
v 0.1 0.5 -0.3
v 0.1 0.6 -0.3
v 0.1 0.7 -0.3
v 0.1 0.8 -0.3
v -0.1 -0.6 0.2
v 0 -0.6 0.2
v -0.1 -0.6 -0.1
v 0 -0.6 -0.1
v -0.1 -0.4 0.1
v 0 -0.4 0.1
v -0.1 -0.4 0
v 0 -0.4 0
v -0.2 0.4 0.2
v 0.1 0.4 0.2
v -0.1 0.4 0.1
v 0 0.4 0.1
v -0.1 0.4 0
v 0 0.4 0
v -0.2 0.4 -0.1
v 0.1 0.4 -0.1
v -0.2 0.5 0.4
v -0.1 0.5 0.4
v 0 0.5 0.4
v 0.1 0.5 0.4
v -0.2 0.5 0.3
v -0.1 0.5 0.3
v 0 0.5 0.3
v 0.1 0.5 0.3
v -0.4 0.5 0.2
v -0.3 0.5 0.2
v -0.2 0.5 0.2
v 0.1 0.5 0.2
v 0.2 0.5 0.2
v 0.3 0.5 0.2
v -0.4 0.5 0.1
v -0.3 0.5 0.1
v 0.2 0.5 0.1
v 0.3 0.5 0.1
v -0.4 0.5 0
v -0.3 0.5 0
v 0.2 0.5 0
v 0.3 0.5 0
v -0.4 0.5 -0.1
v -0.3 0.5 -0.1
v -0.2 0.5 -0.1
v 0.1 0.5 -0.1
v 0.2 0.5 -0.1
v 0.3 0.5 -0.1
v -0.2 0.5 -0.2
v -0.1 0.5 -0.2
v 0 0.5 -0.2
v 0.1 0.5 -0.2
v -0.2 0.5 -0.3
v -0.1 0.5 -0.3
v 0 0.5 -0.3
v 0.1 0.5 -0.3
v -0.2 0.7 0.4
v -0.1 0.7 0.4
v 0 0.7 0.4
v 0.1 0.7 0.4
v -0.2 0.7 0.3
v -0.1 0.7 0.3
v 0 0.7 0.3
v 0.1 0.7 0.3
v -0.4 0.7 0.2
v -0.3 0.7 0.2
v 0.2 0.7 0.2
v 0.3 0.7 0.2
v -0.4 0.7 0.1
v -0.3 0.7 0.1
v 0.2 0.7 0.1
v 0.3 0.7 0.1
v -0.4 0.7 0
v -0.3 0.7 0
v 0.2 0.7 0
v 0.3 0.7 0
v -0.4 0.7 -0.1
v -0.3 0.7 -0.1
v 0.2 0.7 -0.1
v 0.3 0.7 -0.1
v -0.2 0.7 -0.2
v -0.1 0.7 -0.2
v 0 0.7 -0.2
v 0.1 0.7 -0.2
v -0.2 0.7 -0.3
v -0.1 0.7 -0.3
v 0 0.7 -0.3
v 0.1 0.7 -0.3
v -0.1 -0.5 0.1
v 0 -0.5 0.1
v -0.1 -0.5 0
v 0 -0.5 0
v -0.1 -0.3 0.2
v 0 -0.3 0.2
v -0.1 -0.3 0.1
v 0 -0.3 0.1
v -0.1 -0.3 0
v 0 -0.3 0
v -0.1 -0.3 -0.1
v 0 -0.3 -0.1
v -0.2 0.6 0.4
v -0.1 0.6 0.4
v 0 0.6 0.4
v 0.1 0.6 0.4
v -0.2 0.6 0.3
v -0.1 0.6 0.3
v 0 0.6 0.3
v 0.1 0.6 0.3
v -0.4 0.6 0.2
v -0.3 0.6 0.2
v 0.2 0.6 0.2
v 0.3 0.6 0.2
v -0.4 0.6 0.1
v -0.3 0.6 0.1
v 0.2 0.6 0.1
v 0.3 0.6 0.1
v -0.4 0.6 0
v -0.3 0.6 0
v 0.2 0.6 0
v 0.3 0.6 0
v -0.4 0.6 -0.1
v -0.3 0.6 -0.1
v 0.2 0.6 -0.1
v 0.3 0.6 -0.1
v -0.2 0.6 -0.2
v -0.1 0.6 -0.2
v 0 0.6 -0.2
v 0.1 0.6 -0.2
v -0.2 0.6 -0.3
v -0.1 0.6 -0.3
v 0 0.6 -0.3
v 0.1 0.6 -0.3
v -0.2 0.8 0.4
v -0.1 0.8 0.4
v 0 0.8 0.4
v 0.1 0.8 0.4
v -0.2 0.8 0.3
v -0.1 0.8 0.3
v 0 0.8 0.3
v 0.1 0.8 0.3
v -0.4 0.8 0.2
v -0.3 0.8 0.2
v -0.2 0.8 0.2
v 0.1 0.8 0.2
v 0.2 0.8 0.2
v 0.3 0.8 0.2
v -0.4 0.8 0.1
v -0.3 0.8 0.1
v 0.2 0.8 0.1
v 0.3 0.8 0.1
v -0.4 0.8 0
v -0.3 0.8 0
v 0.2 0.8 0
v 0.3 0.8 0
v -0.4 0.8 -0.1
v -0.3 0.8 -0.1
v -0.2 0.8 -0.1
v 0.1 0.8 -0.1
v 0.2 0.8 -0.1
v 0.3 0.8 -0.1
v -0.2 0.8 -0.2
v -0.1 0.8 -0.2
v 0 0.8 -0.2
v 0.1 0.8 -0.2
v -0.2 0.8 -0.3
v -0.1 0.8 -0.3
v 0 0.8 -0.3
v 0.1 0.8 -0.3
v -0.1 0.9 0.2
v 0 0.9 0.2
v -0.2 0.9 0.1
v -0.1 0.9 0.1
v 0 0.9 0.1
v 0.1 0.9 0.1
v -0.2 0.9 0
v -0.1 0.9 0
v 0 0.9 0
v 0.1 0.9 0
v -0.1 0.9 -0.1
v 0 0.9 -0.1
v -0.2 1 0.2
v -0.1 1 0.2
v 0 1 0.2
v 0.1 1 0.2
v -0.2 1 0.1
v -0.1 1 0.1
v 0 1 0.1
v 0.1 1 0.1
v -0.2 1 0
v -0.1 1 0
v 0 1 0
v 0.1 1 0
v -0.2 1 -0.1
v -0.1 1 -0.1
v 0 1 -0.1
v 0.1 1 -0.1

# faces
f 5/2/1 2/2/1 1/2/1
f 6/2/1 2/2/1 5/2/1
f 7/2/1 4/2/1 3/2/1
f 8/2/1 4/2/1 7/2/1
f 13/2/1 10/2/1 9/2/1
f 14/2/1 10/2/1 13/2/1
f 15/2/1 12/2/1 11/2/1
f 16/2/1 12/2/1 15/2/1
f 20/4/1 18/4/1 17/4/1
f 21/4/1 18/4/1 20/4/1
f 23/4/1 20/4/1 19/4/1
f 23/4/1 22/4/1 21/4/1
f 23/4/1 21/4/1 20/4/1
f 24/4/1 22/4/1 23/4/1
f 25/4/1 22/4/1 24/4/1
f 26/4/1 22/4/1 25/4/1
f 27/4/1 25/4/1 24/4/1
f 28/4/1 25/4/1 27/4/1
f 33/4/1 30/4/1 29/4/1
f 34/4/1 30/4/1 33/4/1
f 37/2/1 32/2/1 31/2/1
f 38/4/1 33/4/1 32/4/1
f 38/2/1 32/2/1 37/2/1
f 39/2/1 36/2/1 35/2/1
f 39/4/1 35/4/1 34/4/1
f 40/2/1 36/2/1 39/2/1
f 42/4/1 33/4/1 38/4/1
f 43/4/1 39/4/1 34/4/1
f 45/2/1 42/2/1 41/2/1
f 46/4/1 33/4/1 42/4/1
f 46/2/1 42/2/1 45/2/1
f 47/4/1 33/4/1 46/4/1
f 48/4/1 43/4/1 34/4/1
f 49/2/1 44/2/1 43/2/1
f 49/4/1 43/4/1 48/4/1
f 50/2/1 44/2/1 49/2/1
f 51/4/1 48/4/1 47/4/1
f 52/4/1 48/4/1 51/4/1
f 53/4/1 48/4/1 52/4/1
f 54/4/1 48/4/1 53/4/1
f 55/2/1 52/2/1 51/2/1
f 56/2/1 52/2/1 55/2/1
f 57/2/1 54/2/1 53/2/1
f 58/2/1 54/2/1 57/2/1
f 61/4/1 60/4/1 59/4/1
f 62/4/1 60/4/1 61/4/1
f 63/4/1 61/4/1 59/4/1
f 64/4/1 60/4/1 62/4/1
f 65/4/1 63/4/1 59/4/1
f 65/4/1 64/4/1 63/4/1
f 66/4/1 64/4/1 65/4/1
f 67/4/1 60/4/1 64/4/1
f 67/4/1 64/4/1 66/4/1
f 68/4/1 60/4/1 67/4/1
f 69/1/1 67/1/1 66/1/1
f 70/1/1 67/1/1 69/1/1
f 71/3/1 70/3/1 69/3/1
f 72/3/1 70/3/1 71/3/1
f 77/2/1 74/2/1 73/2/1
f 78/2/1 74/2/1 77/2/1
f 79/2/1 76/2/1 75/2/1
f 80/2/1 76/2/1 79/2/1
f 85/2/1 82/2/1 81/2/1
f 86/2/1 82/2/1 85/2/1
f 87/2/1 84/2/1 83/2/1
f 88/2/1 84/2/1 87/2/1
f 93/2/1 90/2/1 89/2/1
f 94/2/1 90/2/1 93/2/1
f 95/2/1 92/2/1 91/2/1
f 96/2/1 92/2/1 95/2/1
f 97/2/2 98/2/2 101/2/2
f 101/2/2 98/2/2 102/2/2
f 99/2/2 100/2/2 103/2/2
f 103/2/2 100/2/2 104/2/2
f 105/2/2 106/2/2 109/2/2
f 109/2/2 106/2/2 110/2/2
f 107/2/2 108/2/2 111/2/2
f 111/2/2 108/2/2 112/2/2
f 113/2/2 114/2/2 117/2/2
f 117/2/2 114/2/2 118/2/2
f 115/2/2 116/2/2 119/2/2
f 119/2/2 116/2/2 120/2/2
f 121/4/2 122/4/2 123/4/2
f 123/4/2 122/4/2 124/4/2
f 121/4/2 123/4/2 125/4/2
f 124/4/2 122/4/2 126/4/2
f 121/4/2 125/4/2 127/4/2
f 125/4/2 126/4/2 127/4/2
f 127/4/2 126/4/2 128/4/2
f 126/4/2 122/4/2 129/4/2
f 128/4/2 126/4/2 129/4/2
f 129/4/2 122/4/2 130/4/2
f 128/1/2 129/1/2 131/1/2
f 131/1/2 129/1/2 132/1/2
f 131/3/2 132/3/2 133/3/2
f 133/3/2 132/3/2 134/3/2
f 135/4/2 136/4/2 139/4/2
f 139/4/2 136/4/2 140/4/2
f 137/2/2 138/2/2 143/2/2
f 138/4/2 139/4/2 144/4/2
f 143/2/2 138/2/2 144/2/2
f 141/2/2 142/2/2 145/2/2
f 140/4/2 141/4/2 145/4/2
f 145/2/2 142/2/2 146/2/2
f 144/4/2 139/4/2 148/4/2
f 140/4/2 145/4/2 149/4/2
f 147/2/2 148/2/2 151/2/2
f 148/4/2 139/4/2 152/4/2
f 151/2/2 148/2/2 152/2/2
f 152/4/2 139/4/2 153/4/2
f 140/4/2 149/4/2 154/4/2
f 149/2/2 150/2/2 155/2/2
f 154/4/2 149/4/2 155/4/2
f 155/2/2 150/2/2 156/2/2
f 153/4/2 154/4/2 157/4/2
f 157/4/2 154/4/2 158/4/2
f 158/4/2 154/4/2 159/4/2
f 159/4/2 154/4/2 160/4/2
f 157/2/2 158/2/2 161/2/2
f 161/2/2 158/2/2 162/2/2
f 159/2/2 160/2/2 163/2/2
f 163/2/2 160/2/2 164/2/2
f 165/4/2 166/4/2 168/4/2
f 168/4/2 166/4/2 169/4/2
f 167/4/2 168/4/2 171/4/2
f 169/4/2 170/4/2 171/4/2
f 168/4/2 169/4/2 171/4/2
f 171/4/2 170/4/2 172/4/2
f 172/4/2 170/4/2 173/4/2
f 173/4/2 170/4/2 174/4/2
f 172/4/2 173/4/2 175/4/2
f 175/4/2 173/4/2 176/4/2
f 177/2/2 178/2/2 181/2/2
f 181/2/2 178/2/2 182/2/2
f 179/2/2 180/2/2 183/2/2
f 183/2/2 180/2/2 184/2/2
f 185/2/2 186/2/2 189/2/2
f 189/2/2 186/2/2 190/2/2
f 187/2/2 188/2/2 191/2/2
f 191/2/2 188/2/2 192/2/2
f 197/2/3 194/2/3 193/2/3
f 198/2/3 194/2/3 197/2/3
f 199/2/3 196/2/3 195/2/3
f 200/2/3 196/2/3 199/2/3
f 205/2/3 202/2/3 201/2/3
f 206/2/3 202/2/3 205/2/3
f 207/2/3 204/2/3 203/2/3
f 208/2/3 204/2/3 207/2/3
f 212/4/3 210/4/3 209/4/3
f 213/4/3 210/4/3 212/4/3
f 215/4/3 212/4/3 211/4/3
f 215/4/3 214/4/3 213/4/3
f 215/4/3 213/4/3 212/4/3
f 216/4/3 214/4/3 215/4/3
f 217/4/3 214/4/3 216/4/3
f 218/4/3 214/4/3 217/4/3
f 219/4/3 217/4/3 216/4/3
f 220/4/3 217/4/3 219/4/3
f 225/2/3 222/2/3 221/2/3
f 226/2/3 222/2/3 225/2/3
f 227/2/3 224/2/3 223/2/3
f 228/2/3 224/2/3 227/2/3
f 230/4/3 226/4/3 225/4/3
f 230/4/3 227/4/3 226/4/3
f 230/4/3 228/4/3 227/4/3
f 231/4/3 228/4/3 230/4/3
f 236/2/3 233/2/3 232/2/3
f 236/4/3 232/4/3 231/4/3
f 237/2/3 233/2/3 236/2/3
f 238/4/3 235/4/3 234/4/3
f 239/4/3 235/4/3 238/4/3
f 240/4/3 236/4/3 231/4/3
f 242/4/3 230/4/3 229/4/3
f 243/4/3 230/4/3 242/4/3
f 244/4/3 240/4/3 231/4/3
f 245/2/3 241/2/3 240/2/3
f 245/4/3 240/4/3 244/4/3
f 246/2/3 241/2/3 245/2/3
f 247/4/3 244/4/3 243/4/3
f 248/4/3 244/4/3 247/4/3
f 249/4/3 244/4/3 248/4/3
f 250/4/3 244/4/3 249/4/3
f 251/2/3 248/2/3 247/2/3
f 252/2/3 248/2/3 251/2/3
f 253/2/3 250/2/3 249/2/3
f 254/2/3 250/2/3 253/2/3
f 258/1/3 256/1/3 255/1/3
f 259/3/3 257/3/3 256/3/3
f 259/1/3 256/1/3 258/1/3
f 260/3/3 257/3/3 259/3/3
f 265/2/3 262/2/3 261/2/3
f 266/2/3 262/2/3 265/2/3
f 267/2/3 264/2/3 263/2/3
f 268/2/3 264/2/3 267/2/3
f 273/2/3 270/2/3 269/2/3
f 274/2/3 270/2/3 273/2/3
f 275/4/3 272/4/3 271/4/3
f 276/4/3 272/4/3 275/4/3
f 279/2/3 278/2/3 277/2/3
f 280/2/3 278/2/3 279/2/3
f 285/2/3 282/2/3 281/2/3
f 286/2/3 282/2/3 285/2/3
f 287/2/3 284/2/3 283/2/3
f 288/2/3 284/2/3 287/2/3
f 289/2/4 290/2/4 293/2/4
f 293/2/4 290/2/4 294/2/4
f 291/2/4 292/2/4 295/2/4
f 295/2/4 292/2/4 296/2/4
f 297/2/4 298/2/4 301/2/4
f 301/2/4 298/2/4 302/2/4
f 299/4/4 300/4/4 303/4/4
f 303/4/4 300/4/4 304/4/4
f 305/2/4 306/2/4 307/2/4
f 307/2/4 306/2/4 308/2/4
f 309/2/4 310/2/4 313/2/4
f 313/2/4 310/2/4 314/2/4
f 311/2/4 312/2/4 315/2/4
f 315/2/4 312/2/4 316/2/4
f 317/1/4 318/1/4 320/1/4
f 318/3/4 319/3/4 321/3/4
f 320/1/4 318/1/4 321/1/4
f 321/3/4 319/3/4 322/3/4
f 323/2/4 324/2/4 327/2/4
f 327/2/4 324/2/4 328/2/4
f 325/2/4 326/2/4 329/2/4
f 329/2/4 326/2/4 330/2/4
f 327/4/4 328/4/4 332/4/4
f 328/4/4 329/4/4 332/4/4
f 329/4/4 330/4/4 332/4/4
f 332/4/4 330/4/4 333/4/4
f 334/2/4 335/2/4 338/2/4
f 333/4/4 334/4/4 338/4/4
f 338/2/4 335/2/4 339/2/4
f 336/4/4 337/4/4 340/4/4
f 340/4/4 337/4/4 341/4/4
f 333/4/4 338/4/4 342/4/4
f 331/4/4 332/4/4 344/4/4
f 344/4/4 332/4/4 345/4/4
f 333/4/4 342/4/4 346/4/4
f 342/2/4 343/2/4 347/2/4
f 346/4/4 342/4/4 347/4/4
f 347/2/4 343/2/4 348/2/4
f 345/4/4 346/4/4 349/4/4
f 349/4/4 346/4/4 350/4/4
f 350/4/4 346/4/4 351/4/4
f 351/4/4 346/4/4 352/4/4
f 349/2/4 350/2/4 353/2/4
f 353/2/4 350/2/4 354/2/4
f 351/2/4 352/2/4 355/2/4
f 355/2/4 352/2/4 356/2/4
f 357/4/4 358/4/4 360/4/4
f 360/4/4 358/4/4 361/4/4
f 359/4/4 360/4/4 363/4/4
f 361/4/4 362/4/4 363/4/4
f 360/4/4 361/4/4 363/4/4
f 363/4/4 362/4/4 364/4/4
f 364/4/4 362/4/4 365/4/4
f 365/4/4 362/4/4 366/4/4
f 364/4/4 365/4/4 367/4/4
f 367/4/4 365/4/4 368/4/4
f 369/2/4 370/2/4 373/2/4
f 373/2/4 370/2/4 374/2/4
f 371/2/4 372/2/4 375/2/4
f 375/2/4 372/2/4 376/2/4
f 377/2/4 378/2/4 381/2/4
f 381/2/4 378/2/4 382/2/4
f 379/2/4 380/2/4 383/2/4
f 383/2/4 380/2/4 384/2/4
f 387/4/5 386/4/5 385/4/5
f 388/4/5 386/4/5 387/4/5
f 391/4/5 390/4/5 389/4/5
f 392/4/5 390/4/5 391/4/5
f 395/4/5 394/4/5 393/4/5
f 396/4/5 394/4/5 395/4/5
f 397/4/5 395/4/5 393/4/5
f 398/4/5 394/4/5 396/4/5
f 399/4/5 397/4/5 393/4/5
f 399/4/5 398/4/5 397/4/5
f 400/4/5 394/4/5 398/4/5
f 400/4/5 398/4/5 399/4/5
f 405/2/5 402/2/5 401/2/5
f 406/2/5 402/2/5 405/2/5
f 407/2/5 404/2/5 403/2/5
f 408/2/5 404/2/5 407/2/5
f 411/4/5 406/4/5 405/4/5
f 411/4/5 407/4/5 406/4/5
f 411/4/5 408/4/5 407/4/5
f 412/4/5 408/4/5 411/4/5
f 415/2/5 410/2/5 409/2/5
f 416/4/5 411/4/5 410/4/5
f 416/2/5 410/2/5 415/2/5
f 417/2/5 414/2/5 413/2/5
f 417/4/5 413/4/5 412/4/5
f 418/2/5 414/2/5 417/2/5
f 420/4/5 411/4/5 416/4/5
f 421/4/5 417/4/5 412/4/5
f 423/2/5 420/2/5 419/2/5
f 424/4/5 411/4/5 420/4/5
f 424/2/5 420/2/5 423/2/5
f 425/4/5 411/4/5 424/4/5
f 426/4/5 421/4/5 412/4/5
f 427/2/5 422/2/5 421/2/5
f 427/4/5 421/4/5 426/4/5
f 428/2/5 422/2/5 427/2/5
f 429/4/5 426/4/5 425/4/5
f 430/4/5 426/4/5 429/4/5
f 431/4/5 426/4/5 430/4/5
f 432/4/5 426/4/5 431/4/5
f 433/2/5 430/2/5 429/2/5
f 434/2/5 430/2/5 433/2/5
f 435/2/5 432/2/5 431/2/5
f 436/2/5 432/2/5 435/2/5
f 441/2/5 438/2/5 437/2/5
f 442/2/5 438/2/5 441/2/5
f 443/2/5 440/2/5 439/2/5
f 444/2/5 440/2/5 443/2/5
f 449/2/5 446/2/5 445/2/5
f 450/2/5 446/2/5 449/2/5
f 451/2/5 448/2/5 447/2/5
f 452/2/5 448/2/5 451/2/5
f 457/2/5 454/2/5 453/2/5
f 458/2/5 454/2/5 457/2/5
f 459/2/5 456/2/5 455/2/5
f 460/2/5 456/2/5 459/2/5
f 465/2/5 462/2/5 461/2/5
f 466/2/5 462/2/5 465/2/5
f 467/2/5 464/2/5 463/2/5
f 468/2/5 464/2/5 467/2/5
f 469/4/6 470/4/6 471/4/6
f 471/4/6 470/4/6 472/4/6
f 473/4/6 474/4/6 475/4/6
f 475/4/6 474/4/6 476/4/6
f 477/4/6 478/4/6 479/4/6
f 479/4/6 478/4/6 480/4/6
f 481/2/6 482/2/6 485/2/6
f 485/2/6 482/2/6 486/2/6
f 483/2/6 484/2/6 487/2/6
f 487/2/6 484/2/6 488/2/6
f 489/2/6 490/2/6 493/2/6
f 493/2/6 490/2/6 494/2/6
f 491/2/6 492/2/6 495/2/6
f 495/2/6 492/2/6 496/2/6
f 497/2/6 498/2/6 501/2/6
f 501/2/6 498/2/6 502/2/6
f 499/2/6 500/2/6 503/2/6
f 503/2/6 500/2/6 504/2/6
f 505/2/6 506/2/6 509/2/6
f 509/2/6 506/2/6 510/2/6
f 507/2/6 508/2/6 511/2/6
f 511/2/6 508/2/6 512/2/6
f 513/2/6 514/2/6 517/2/6
f 517/2/6 514/2/6 518/2/6
f 515/2/6 516/2/6 519/2/6
f 519/2/6 516/2/6 520/2/6
f 517/4/6 518/4/6 523/4/6
f 518/4/6 519/4/6 523/4/6
f 519/4/6 520/4/6 523/4/6
f 523/4/6 520/4/6 524/4/6
f 521/2/6 522/2/6 527/2/6
f 522/4/6 523/4/6 528/4/6
f 527/2/6 522/2/6 528/2/6
f 525/2/6 526/2/6 529/2/6
f 524/4/6 525/4/6 529/4/6
f 529/2/6 526/2/6 530/2/6
f 528/4/6 523/4/6 532/4/6
f 524/4/6 529/4/6 533/4/6
f 531/2/6 532/2/6 535/2/6
f 532/4/6 523/4/6 536/4/6
f 535/2/6 532/2/6 536/2/6
f 536/4/6 523/4/6 537/4/6
f 524/4/6 533/4/6 538/4/6
f 533/2/6 534/2/6 539/2/6
f 538/4/6 533/4/6 539/4/6
f 539/2/6 534/2/6 540/2/6
f 537/4/6 538/4/6 541/4/6
f 541/4/6 538/4/6 542/4/6
f 542/4/6 538/4/6 543/4/6
f 543/4/6 538/4/6 544/4/6
f 541/2/6 542/2/6 545/2/6
f 545/2/6 542/2/6 546/2/6
f 543/2/6 544/2/6 547/2/6
f 547/2/6 544/2/6 548/2/6
f 549/4/6 550/4/6 552/4/6
f 552/4/6 550/4/6 553/4/6
f 551/4/6 552/4/6 555/4/6
f 553/4/6 554/4/6 555/4/6
f 552/4/6 553/4/6 555/4/6
f 555/4/6 554/4/6 556/4/6
f 556/4/6 554/4/6 557/4/6
f 557/4/6 554/4/6 558/4/6
f 556/4/6 557/4/6 559/4/6
f 559/4/6 557/4/6 560/4/6
f 561/2/6 562/2/6 565/2/6
f 565/2/6 562/2/6 566/2/6
f 563/2/6 564/2/6 567/2/6
f 567/2/6 564/2/6 568/2/6
f 569/2/6 570/2/6 573/2/6
f 573/2/6 570/2/6 574/2/6
f 571/2/6 572/2/6 575/2/6
f 575/2/6 572/2/6 576/2/6
