# MagicaVoxel @ Ephtracy

# group
o 

# material
mtllib shieldCrystal.vox.mtl
usemtl palette

# normals
vn -1 0 0
vn 1 0 0
vn 0 0 1
vn 0 0 -1
vn 0 -1 0
vn 0 1 0

# texcoords
vt 0.283203 0.5
vt 0.427734 0.5
vt 0.958984 0.5
vt 0.974609 0.5
vt 0.982422 0.5

# verts
v -0.7 0.3 0.6
v -0.7 0.3 0.4
v -0.7 0.6 0.6
v -0.7 0.6 0.4
v -0.6 0 0.6
v -0.6 0 0.4
v -0.6 0.3 0.6
v -0.6 0.3 0.4
v -0.6 0.4 0.4
v -0.6 0.4 0.3
v -0.6 0.5 0.4
v -0.6 0.5 0.3
v -0.5 -0.3 0.6
v -0.5 -0.3 0.4
v -0.5 0 0.6
v -0.5 0 0.4
v -0.5 0.1 0.4
v -0.5 0.1 0.3
v -0.5 0.4 0.4
v -0.5 0.4 0.3
v -0.5 0.6 0.6
v -0.5 0.6 0.4
v -0.5 0.7 0.6
v -0.5 0.7 0.4
v -0.4 -0.6 0.6
v -0.4 -0.6 0.4
v -0.4 -0.3 0.6
v -0.4 -0.3 0.4
v -0.4 -0.2 0.4
v -0.4 -0.2 0.3
v -0.4 0.1 0.4
v -0.4 0.1 0.3
v -0.4 0.5 0.4
v -0.4 0.5 0.3
v -0.4 0.6 0.4
v -0.4 0.6 0.3
v -0.3 -0.9 0.6
v -0.3 -0.9 0.4
v -0.3 -0.6 0.6
v -0.3 -0.6 0.4
v -0.3 -0.5 0.4
v -0.3 -0.5 0.3
v -0.3 -0.2 0.4
v -0.3 -0.2 0.3
v -0.3 0.7 0.6
v -0.3 0.7 0.4
v -0.3 0.8 0.6
v -0.3 0.8 0.4
v -0.2 -1.2 0.6
v -0.2 -1.2 0.4
v -0.2 -0.9 0.6
v -0.2 -0.9 0.4
v -0.2 -0.8 0.4
v -0.2 -0.8 0.3
v -0.2 -0.5 0.4
v -0.2 -0.5 0.3
v -0.2 0.6 0.4
v -0.2 0.6 0.3
v -0.2 0.7 0.4
v -0.2 0.7 0.3
v -0.1 -1.5 0.6
v -0.1 -1.5 0.4
v -0.1 -1.2 0.6
v -0.1 -1.2 0.4
v -0.1 -1.1 0.4
v -0.1 -1.1 0.3
v -0.1 -0.8 0.4
v -0.1 -0.8 0.3
v -0.1 -0.3 0.7
v -0.1 -0.3 0.5
v -0.1 -0.2 0.6
v -0.1 -0.2 0.5
v -0.1 0.2 0.6
v -0.1 0.2 0.5
v -0.1 0.3 0.7
v -0.1 0.3 0.5
v -0.1 0.8 0.6
v -0.1 0.8 0.4
v -0.1 0.9 0.6
v -0.1 0.9 0.4
v 0.1 -1.1 0.6
v 0.1 -1.1 0.5
v 0.1 -0.8 0.6
v 0.1 -0.8 0.5
v 0.2 -0.8 0.6
v 0.2 -0.8 0.5
v 0.2 -0.5 0.6
v 0.2 -0.5 0.5
v 0.2 0.6 0.6
v 0.2 0.6 0.5
v 0.2 0.7 0.6
v 0.2 0.7 0.5
v 0.3 -0.5 0.6
v 0.3 -0.5 0.5
v 0.3 -0.2 0.6
v 0.3 -0.2 0.5
v 0.4 -0.2 0.6
v 0.4 -0.2 0.5
v 0.4 0.1 0.6
v 0.4 0.1 0.5
v 0.4 0.5 0.6
v 0.4 0.5 0.5
v 0.4 0.6 0.6
v 0.4 0.6 0.5
v 0.5 0.1 0.6
v 0.5 0.1 0.5
v 0.5 0.4 0.6
v 0.5 0.4 0.5
v 0.6 0.4 0.6
v 0.6 0.4 0.5
v 0.6 0.5 0.6
v 0.6 0.5 0.5
v -0.6 0.4 0.6
v -0.6 0.4 0.5
v -0.6 0.5 0.6
v -0.6 0.5 0.5
v -0.5 0.1 0.6
v -0.5 0.1 0.5
v -0.5 0.4 0.6
v -0.5 0.4 0.5
v -0.4 -0.2 0.6
v -0.4 -0.2 0.5
v -0.4 0.1 0.6
v -0.4 0.1 0.5
v -0.4 0.5 0.6
v -0.4 0.5 0.5
v -0.4 0.6 0.6
v -0.4 0.6 0.5
v -0.3 -0.5 0.6
v -0.3 -0.5 0.5
v -0.3 -0.2 0.6
v -0.3 -0.2 0.5
v -0.2 -0.8 0.6
v -0.2 -0.8 0.5
v -0.2 -0.5 0.6
v -0.2 -0.5 0.5
v -0.2 0.6 0.6
v -0.2 0.6 0.5
v -0.2 0.7 0.6
v -0.2 0.7 0.5
v -0.1 -1.1 0.6
v -0.1 -1.1 0.5
v -0.1 -0.8 0.6
v -0.1 -0.8 0.5
v 0.1 -1.5 0.6
v 0.1 -1.5 0.4
v 0.1 -1.2 0.6
v 0.1 -1.2 0.4
v 0.1 -1.1 0.4
v 0.1 -1.1 0.3
v 0.1 -0.8 0.4
v 0.1 -0.8 0.3
v 0.1 -0.3 0.7
v 0.1 -0.3 0.5
v 0.1 -0.2 0.6
v 0.1 -0.2 0.5
v 0.1 0.2 0.6
v 0.1 0.2 0.5
v 0.1 0.3 0.7
v 0.1 0.3 0.5
v 0.1 0.8 0.6
v 0.1 0.8 0.4
v 0.1 0.9 0.6
v 0.1 0.9 0.4
v 0.2 -1.2 0.6
v 0.2 -1.2 0.4
v 0.2 -0.9 0.6
v 0.2 -0.9 0.4
v 0.2 -0.8 0.4
v 0.2 -0.8 0.3
v 0.2 -0.5 0.4
v 0.2 -0.5 0.3
v 0.2 0.6 0.4
v 0.2 0.6 0.3
v 0.2 0.7 0.4
v 0.2 0.7 0.3
v 0.3 -0.9 0.6
v 0.3 -0.9 0.4
v 0.3 -0.6 0.6
v 0.3 -0.6 0.4
v 0.3 -0.5 0.4
v 0.3 -0.5 0.3
v 0.3 -0.2 0.4
v 0.3 -0.2 0.3
v 0.3 0.7 0.6
v 0.3 0.7 0.4
v 0.3 0.8 0.6
v 0.3 0.8 0.4
v 0.4 -0.6 0.6
v 0.4 -0.6 0.4
v 0.4 -0.3 0.6
v 0.4 -0.3 0.4
v 0.4 -0.2 0.4
v 0.4 -0.2 0.3
v 0.4 0.1 0.4
v 0.4 0.1 0.3
v 0.4 0.5 0.4
v 0.4 0.5 0.3
v 0.4 0.6 0.4
v 0.4 0.6 0.3
v 0.5 -0.3 0.6
v 0.5 -0.3 0.4
v 0.5 0 0.6
v 0.5 0 0.4
v 0.5 0.1 0.4
v 0.5 0.1 0.3
v 0.5 0.4 0.4
v 0.5 0.4 0.3
v 0.5 0.6 0.6
v 0.5 0.6 0.4
v 0.5 0.7 0.6
v 0.5 0.7 0.4
v 0.6 0 0.6
v 0.6 0 0.4
v 0.6 0.3 0.6
v 0.6 0.3 0.4
v 0.6 0.4 0.4
v 0.6 0.4 0.3
v 0.6 0.5 0.4
v 0.6 0.5 0.3
v 0.7 0.3 0.6
v 0.7 0.3 0.4
v 0.7 0.6 0.6
v 0.7 0.6 0.4
v -0.1 -0.3 0.7
v -0.1 0.3 0.7
v 0.1 -0.3 0.7
v 0.1 0.3 0.7
v -0.7 0.3 0.6
v -0.7 0.6 0.6
v -0.6 0 0.6
v -0.6 0.3 0.6
v -0.6 0.4 0.6
v -0.6 0.5 0.6
v -0.5 -0.3 0.6
v -0.5 0 0.6
v -0.5 0.1 0.6
v -0.5 0.4 0.6
v -0.5 0.6 0.6
v -0.5 0.7 0.6
v -0.4 -0.6 0.6
v -0.4 -0.3 0.6
v -0.4 -0.2 0.6
v -0.4 0.1 0.6
v -0.4 0.5 0.6
v -0.4 0.6 0.6
v -0.3 -0.9 0.6
v -0.3 -0.6 0.6
v -0.3 -0.5 0.6
v -0.3 -0.2 0.6
v -0.3 0.7 0.6
v -0.3 0.8 0.6
v -0.2 -1.2 0.6
v -0.2 -0.9 0.6
v -0.2 -0.8 0.6
v -0.2 -0.5 0.6
v -0.2 0.6 0.6
v -0.2 0.7 0.6
v -0.1 -1.5 0.6
v -0.1 -1.2 0.6
v -0.1 -1.1 0.6
v -0.1 -0.8 0.6
v -0.1 0.8 0.6
v -0.1 0.9 0.6
v 0.1 -1.5 0.6
v 0.1 -1.2 0.6
v 0.1 -1.1 0.6
v 0.1 -0.8 0.6
v 0.1 0.8 0.6
v 0.1 0.9 0.6
v 0.2 -1.2 0.6
v 0.2 -0.9 0.6
v 0.2 -0.8 0.6
v 0.2 -0.5 0.6
v 0.2 0.6 0.6
v 0.2 0.7 0.6
v 0.3 -0.9 0.6
v 0.3 -0.6 0.6
v 0.3 -0.5 0.6
v 0.3 -0.2 0.6
v 0.3 0.7 0.6
v 0.3 0.8 0.6
v 0.4 -0.6 0.6
v 0.4 -0.3 0.6
v 0.4 -0.2 0.6
v 0.4 0.1 0.6
v 0.4 0.5 0.6
v 0.4 0.6 0.6
v 0.5 -0.3 0.6
v 0.5 0 0.6
v 0.5 0.1 0.6
v 0.5 0.4 0.6
v 0.5 0.6 0.6
v 0.5 0.7 0.6
v 0.6 0 0.6
v 0.6 0.3 0.6
v 0.6 0.4 0.6
v 0.6 0.5 0.6
v 0.7 0.3 0.6
v 0.7 0.6 0.6
v -0.6 0.4 0.5
v -0.6 0.5 0.5
v -0.5 0.1 0.5
v -0.5 0.4 0.5
v -0.4 -0.2 0.5
v -0.4 0.1 0.5
v -0.4 0.5 0.5
v -0.4 0.6 0.5
v -0.3 -0.5 0.5
v -0.3 -0.2 0.5
v -0.2 -0.8 0.5
v -0.2 -0.5 0.5
v -0.2 0.6 0.5
v -0.2 0.7 0.5
v -0.1 -1.1 0.5
v -0.1 -0.8 0.5
v -0.1 -0.3 0.5
v -0.1 -0.2 0.5
v -0.1 0.2 0.5
v -0.1 0.3 0.5
v 0.1 -1.1 0.5
v 0.1 -0.8 0.5
v 0.1 -0.3 0.5
v 0.1 -0.2 0.5
v 0.1 0.2 0.5
v 0.1 0.3 0.5
v 0.2 -0.8 0.5
v 0.2 -0.5 0.5
v 0.2 0.6 0.5
v 0.2 0.7 0.5
v 0.3 -0.5 0.5
v 0.3 -0.2 0.5
v 0.4 -0.2 0.5
v 0.4 0.1 0.5
v 0.4 0.5 0.5
v 0.4 0.6 0.5
v 0.5 0.1 0.5
v 0.5 0.4 0.5
v 0.6 0.4 0.5
v 0.6 0.5 0.5
v -0.1 -0.2 0.6
v -0.1 0.2 0.6
v 0.1 -0.2 0.6
v 0.1 0.2 0.6
v -0.7 0.3 0.4
v -0.7 0.6 0.4
v -0.6 0 0.4
v -0.6 0.3 0.4
v -0.6 0.4 0.4
v -0.6 0.5 0.4
v -0.5 -0.3 0.4
v -0.5 0 0.4
v -0.5 0.1 0.4
v -0.5 0.4 0.4
v -0.5 0.6 0.4
v -0.5 0.7 0.4
v -0.4 -0.6 0.4
v -0.4 -0.3 0.4
v -0.4 -0.2 0.4
v -0.4 0.1 0.4
v -0.4 0.5 0.4
v -0.4 0.6 0.4
v -0.3 -0.9 0.4
v -0.3 -0.6 0.4
v -0.3 -0.5 0.4
v -0.3 -0.2 0.4
v -0.3 0.7 0.4
v -0.3 0.8 0.4
v -0.2 -1.2 0.4
v -0.2 -0.9 0.4
v -0.2 -0.8 0.4
v -0.2 -0.5 0.4
v -0.2 0.6 0.4
v -0.2 0.7 0.4
v -0.1 -1.5 0.4
v -0.1 -1.2 0.4
v -0.1 -1.1 0.4
v -0.1 -0.8 0.4
v -0.1 0.8 0.4
v -0.1 0.9 0.4
v 0 -1.1 0.4
v 0.1 -1.5 0.4
v 0.1 -1.2 0.4
v 0.1 -1.1 0.4
v 0.1 -0.8 0.4
v 0.1 0.8 0.4
v 0.1 0.9 0.4
v 0.2 -1.2 0.4
v 0.2 -0.9 0.4
v 0.2 -0.8 0.4
v 0.2 -0.5 0.4
v 0.2 0.6 0.4
v 0.2 0.7 0.4
v 0.3 -0.9 0.4
v 0.3 -0.6 0.4
v 0.3 -0.5 0.4
v 0.3 -0.2 0.4
v 0.3 0.7 0.4
v 0.3 0.8 0.4
v 0.4 -0.6 0.4
v 0.4 -0.3 0.4
v 0.4 -0.2 0.4
v 0.4 0.1 0.4
v 0.4 0.5 0.4
v 0.4 0.6 0.4
v 0.5 -0.3 0.4
v 0.5 0 0.4
v 0.5 0.1 0.4
v 0.5 0.4 0.4
v 0.5 0.6 0.4
v 0.5 0.7 0.4
v 0.6 0 0.4
v 0.6 0.3 0.4
v 0.6 0.4 0.4
v 0.6 0.5 0.4
v 0.7 0.3 0.4
v 0.7 0.6 0.4
v -0.6 0.4 0.3
v -0.6 0.5 0.3
v -0.5 0.1 0.3
v -0.5 0.4 0.3
v -0.4 -0.2 0.3
v -0.4 0.1 0.3
v -0.4 0.3 0.3
v -0.4 0.4 0.3
v -0.4 0.5 0.3
v -0.4 0.6 0.3
v -0.3 -0.5 0.3
v -0.3 -0.2 0.3
v -0.3 0.1 0.3
v -0.2 -0.8 0.3
v -0.2 -0.5 0.3
v -0.2 -0.2 0.3
v -0.2 0.2 0.3
v -0.2 0.3 0.3
v -0.2 0.5 0.3
v -0.2 0.6 0.3
v -0.2 0.7 0.3
v -0.1 -1.1 0.3
v -0.1 -0.8 0.3
v -0.1 -0.5 0.3
v 0 -1.1 0.3
v 0 -0.8 0.3
v 0 0.2 0.3
v 0 0.6 0.3
v 0.1 -1.1 0.3
v 0.1 -0.8 0.3
v 0.1 -0.5 0.3
v 0.2 -0.8 0.3
v 0.2 -0.5 0.3
v 0.2 -0.2 0.3
v 0.2 0.2 0.3
v 0.2 0.3 0.3
v 0.2 0.6 0.3
v 0.2 0.7 0.3
v 0.3 -0.5 0.3
v 0.3 -0.2 0.3
v 0.3 0.1 0.3
v 0.4 -0.2 0.3
v 0.4 0.1 0.3
v 0.4 0.3 0.3
v 0.4 0.5 0.3
v 0.4 0.6 0.3
v 0.5 0.1 0.3
v 0.5 0.4 0.3
v 0.6 0.4 0.3
v 0.6 0.5 0.3
v -0.1 -1.5 0.6
v 0.1 -1.5 0.6
v -0.1 -1.5 0.4
v 0.1 -1.5 0.4
v -0.2 -1.2 0.6
v -0.1 -1.2 0.6
v 0.1 -1.2 0.6
v 0.2 -1.2 0.6
v -0.2 -1.2 0.4
v -0.1 -1.2 0.4
v 0.1 -1.2 0.4
v 0.2 -1.2 0.4
v -0.1 -1.1 0.4
v 0 -1.1 0.4
v 0.1 -1.1 0.4
v -0.1 -1.1 0.3
v 0 -1.1 0.3
v 0.1 -1.1 0.3
v -0.3 -0.9 0.6
v -0.2 -0.9 0.6
v 0.2 -0.9 0.6
v 0.3 -0.9 0.6
v -0.3 -0.9 0.4
v -0.2 -0.9 0.4
v 0.2 -0.9 0.4
v 0.3 -0.9 0.4
v -0.2 -0.8 0.4
v -0.1 -0.8 0.4
v 0.1 -0.8 0.4
v 0.2 -0.8 0.4
v -0.2 -0.8 0.3
v -0.1 -0.8 0.3
v 0.1 -0.8 0.3
v 0.2 -0.8 0.3
v -0.4 -0.6 0.6
v -0.3 -0.6 0.6
v 0.3 -0.6 0.6
v 0.4 -0.6 0.6
v -0.4 -0.6 0.4
v -0.3 -0.6 0.4
v 0.3 -0.6 0.4
v 0.4 -0.6 0.4
v -0.3 -0.5 0.4
v -0.2 -0.5 0.4
v 0.2 -0.5 0.4
v 0.3 -0.5 0.4
v -0.3 -0.5 0.3
v -0.2 -0.5 0.3
v 0.2 -0.5 0.3
v 0.3 -0.5 0.3
v -0.1 -0.3 0.7
v 0.1 -0.3 0.7
v -0.5 -0.3 0.6
v -0.4 -0.3 0.6
v 0.4 -0.3 0.6
v 0.5 -0.3 0.6
v -0.1 -0.3 0.5
v 0.1 -0.3 0.5
v -0.5 -0.3 0.4
v -0.4 -0.3 0.4
v 0.4 -0.3 0.4
v 0.5 -0.3 0.4
v -0.4 -0.2 0.4
v -0.3 -0.2 0.4
v 0.3 -0.2 0.4
v 0.4 -0.2 0.4
v -0.4 -0.2 0.3
v -0.3 -0.2 0.3
v 0.3 -0.2 0.3
v 0.4 -0.2 0.3
v -0.6 0 0.6
v -0.5 0 0.6
v 0.5 0 0.6
v 0.6 0 0.6
v -0.6 0 0.4
v -0.5 0 0.4
v 0.5 0 0.4
v 0.6 0 0.4
v -0.5 0.1 0.4
v -0.4 0.1 0.4
v 0.4 0.1 0.4
v 0.5 0.1 0.4
v -0.5 0.1 0.3
v -0.4 0.1 0.3
v 0.4 0.1 0.3
v 0.5 0.1 0.3
v -0.1 0.2 0.6
v 0.1 0.2 0.6
v -0.1 0.2 0.5
v 0.1 0.2 0.5
v -0.7 0.3 0.6
v -0.6 0.3 0.6
v 0.6 0.3 0.6
v 0.7 0.3 0.6
v -0.7 0.3 0.4
v -0.6 0.3 0.4
v 0.6 0.3 0.4
v 0.7 0.3 0.4
v -0.6 0.4 0.4
v -0.5 0.4 0.4
v 0.5 0.4 0.4
v 0.6 0.4 0.4
v -0.6 0.4 0.3
v -0.5 0.4 0.3
v 0.5 0.4 0.3
v 0.6 0.4 0.3
v -0.6 0.5 0.6
v -0.4 0.5 0.6
v 0.4 0.5 0.6
v 0.6 0.5 0.6
v -0.6 0.5 0.5
v -0.4 0.5 0.5
v 0.4 0.5 0.5
v 0.6 0.5 0.5
v -0.4 0.6 0.6
v -0.2 0.6 0.6
v 0.2 0.6 0.6
v 0.4 0.6 0.6
v -0.4 0.6 0.5
v -0.2 0.6 0.5
v 0.2 0.6 0.5
v 0.4 0.6 0.5
v -0.2 0.7 0.6
v 0.2 0.7 0.6
v -0.2 0.7 0.5
v 0.2 0.7 0.5
v -0.1 -1.1 0.6
v 0.1 -1.1 0.6
v -0.1 -1.1 0.5
v 0.1 -1.1 0.5
v -0.2 -0.8 0.6
v -0.1 -0.8 0.6
v 0.1 -0.8 0.6
v 0.2 -0.8 0.6
v -0.2 -0.8 0.5
v -0.1 -0.8 0.5
v 0.1 -0.8 0.5
v 0.2 -0.8 0.5
v -0.3 -0.5 0.6
v -0.2 -0.5 0.6
v 0.2 -0.5 0.6
v 0.3 -0.5 0.6
v -0.3 -0.5 0.5
v -0.2 -0.5 0.5
v 0.2 -0.5 0.5
v 0.3 -0.5 0.5
v -0.4 -0.2 0.6
v -0.3 -0.2 0.6
v -0.1 -0.2 0.6
v 0.1 -0.2 0.6
v 0.3 -0.2 0.6
v 0.4 -0.2 0.6
v -0.4 -0.2 0.5
v -0.3 -0.2 0.5
v -0.1 -0.2 0.5
v 0.1 -0.2 0.5
v 0.3 -0.2 0.5
v 0.4 -0.2 0.5
v -0.5 0.1 0.6
v -0.4 0.1 0.6
v 0.4 0.1 0.6
v 0.5 0.1 0.6
v -0.5 0.1 0.5
v -0.4 0.1 0.5
v 0.4 0.1 0.5
v 0.5 0.1 0.5
v -0.1 0.3 0.7
v 0.1 0.3 0.7
v -0.1 0.3 0.5
v 0.1 0.3 0.5
v -0.6 0.4 0.6
v -0.5 0.4 0.6
v 0.5 0.4 0.6
v 0.6 0.4 0.6
v -0.6 0.4 0.5
v -0.5 0.4 0.5
v 0.5 0.4 0.5
v 0.6 0.4 0.5
v -0.6 0.5 0.4
v -0.4 0.5 0.4
v 0.4 0.5 0.4
v 0.6 0.5 0.4
v -0.6 0.5 0.3
v -0.4 0.5 0.3
v 0.4 0.5 0.3
v 0.6 0.5 0.3
v -0.7 0.6 0.6
v -0.5 0.6 0.6
v 0.5 0.6 0.6
v 0.7 0.6 0.6
v -0.7 0.6 0.4
v -0.5 0.6 0.4
v -0.4 0.6 0.4
v -0.2 0.6 0.4
v 0.2 0.6 0.4
v 0.4 0.6 0.4
v 0.5 0.6 0.4
v 0.7 0.6 0.4
v -0.4 0.6 0.3
v -0.2 0.6 0.3
v 0.2 0.6 0.3
v 0.4 0.6 0.3
v -0.5 0.7 0.6
v -0.3 0.7 0.6
v 0.3 0.7 0.6
v 0.5 0.7 0.6
v -0.5 0.7 0.4
v -0.3 0.7 0.4
v -0.2 0.7 0.4
v 0.2 0.7 0.4
v 0.3 0.7 0.4
v 0.5 0.7 0.4
v -0.2 0.7 0.3
v 0.2 0.7 0.3
v -0.3 0.8 0.6
v -0.1 0.8 0.6
v 0.1 0.8 0.6
v 0.3 0.8 0.6
v -0.3 0.8 0.4
v -0.1 0.8 0.4
v 0.1 0.8 0.4
v 0.3 0.8 0.4
v -0.1 0.9 0.6
v 0.1 0.9 0.6
v -0.1 0.9 0.4
v 0.1 0.9 0.4

# faces
f 3/4/1 2/4/1 1/4/1
f 4/4/1 2/4/1 3/4/1
f 7/4/1 6/4/1 5/4/1
f 8/4/1 6/4/1 7/4/1
f 11/3/1 10/3/1 9/3/1
f 12/3/1 10/3/1 11/3/1
f 15/4/1 14/4/1 13/4/1
f 16/4/1 14/4/1 15/4/1
f 19/1/1 18/1/1 17/1/1
f 20/1/1 18/1/1 19/1/1
f 23/4/1 22/4/1 21/4/1
f 24/4/1 22/4/1 23/4/1
f 27/4/1 26/4/1 25/4/1
f 28/4/1 26/4/1 27/4/1
f 31/1/1 30/1/1 29/1/1
f 32/1/1 30/1/1 31/1/1
f 35/3/1 34/3/1 33/3/1
f 36/3/1 34/3/1 35/3/1
f 39/4/1 38/4/1 37/4/1
f 40/4/1 38/4/1 39/4/1
f 43/1/1 42/1/1 41/1/1
f 44/1/1 42/1/1 43/1/1
f 47/4/1 46/4/1 45/4/1
f 48/4/1 46/4/1 47/4/1
f 51/4/1 50/4/1 49/4/1
f 52/4/1 50/4/1 51/4/1
f 55/1/1 54/1/1 53/1/1
f 56/1/1 54/1/1 55/1/1
f 59/3/1 58/3/1 57/3/1
f 60/3/1 58/3/1 59/3/1
f 63/4/1 62/4/1 61/4/1
f 64/4/1 62/4/1 63/4/1
f 67/1/1 66/1/1 65/1/1
f 68/1/1 66/1/1 67/1/1
f 71/4/1 70/4/1 69/4/1
f 72/4/1 70/4/1 71/4/1
f 73/4/1 71/4/1 69/4/1
f 75/4/1 73/4/1 69/4/1
f 75/4/1 74/4/1 73/4/1
f 76/4/1 74/4/1 75/4/1
f 79/4/1 78/4/1 77/4/1
f 80/4/1 78/4/1 79/4/1
f 83/4/1 82/4/1 81/4/1
f 84/4/1 82/4/1 83/4/1
f 87/4/1 86/4/1 85/4/1
f 88/4/1 86/4/1 87/4/1
f 91/4/1 90/4/1 89/4/1
f 92/4/1 90/4/1 91/4/1
f 95/4/1 94/4/1 93/4/1
f 96/4/1 94/4/1 95/4/1
f 99/4/1 98/4/1 97/4/1
f 100/4/1 98/4/1 99/4/1
f 103/4/1 102/4/1 101/4/1
f 104/4/1 102/4/1 103/4/1
f 107/4/1 106/4/1 105/4/1
f 108/4/1 106/4/1 107/4/1
f 111/4/1 110/4/1 109/4/1
f 112/4/1 110/4/1 111/4/1
f 113/4/2 114/4/2 115/4/2
f 115/4/2 114/4/2 116/4/2
f 117/4/2 118/4/2 119/4/2
f 119/4/2 118/4/2 120/4/2
f 121/4/2 122/4/2 123/4/2
f 123/4/2 122/4/2 124/4/2
f 125/4/2 126/4/2 127/4/2
f 127/4/2 126/4/2 128/4/2
f 129/4/2 130/4/2 131/4/2
f 131/4/2 130/4/2 132/4/2
f 133/4/2 134/4/2 135/4/2
f 135/4/2 134/4/2 136/4/2
f 137/4/2 138/4/2 139/4/2
f 139/4/2 138/4/2 140/4/2
f 141/4/2 142/4/2 143/4/2
f 143/4/2 142/4/2 144/4/2
f 145/4/2 146/4/2 147/4/2
f 147/4/2 146/4/2 148/4/2
f 149/3/2 150/3/2 151/3/2
f 151/3/2 150/3/2 152/3/2
f 153/4/2 154/4/2 155/4/2
f 155/4/2 154/4/2 156/4/2
f 153/4/2 155/4/2 157/4/2
f 153/4/2 157/4/2 159/4/2
f 157/4/2 158/4/2 159/4/2
f 159/4/2 158/4/2 160/4/2
f 161/4/2 162/4/2 163/4/2
f 163/4/2 162/4/2 164/4/2
f 165/4/2 166/4/2 167/4/2
f 167/4/2 166/4/2 168/4/2
f 169/3/2 170/3/2 171/3/2
f 171/3/2 170/3/2 172/3/2
f 173/3/2 174/3/2 175/3/2
f 175/3/2 174/3/2 176/3/2
f 177/4/2 178/4/2 179/4/2
f 179/4/2 178/4/2 180/4/2
f 181/3/2 182/3/2 183/3/2
f 183/3/2 182/3/2 184/3/2
f 185/4/2 186/4/2 187/4/2
f 187/4/2 186/4/2 188/4/2
f 189/4/2 190/4/2 191/4/2
f 191/4/2 190/4/2 192/4/2
f 193/3/2 194/3/2 195/3/2
f 195/3/2 194/3/2 196/3/2
f 197/3/2 198/3/2 199/3/2
f 199/3/2 198/3/2 200/3/2
f 201/4/2 202/4/2 203/4/2
f 203/4/2 202/4/2 204/4/2
f 205/3/2 206/3/2 207/3/2
f 207/3/2 206/3/2 208/3/2
f 209/4/2 210/4/2 211/4/2
f 211/4/2 210/4/2 212/4/2
f 213/4/2 214/4/2 215/4/2
f 215/4/2 214/4/2 216/4/2
f 217/3/2 218/3/2 219/3/2
f 219/3/2 218/3/2 220/3/2
f 221/4/2 222/4/2 223/4/2
f 223/4/2 222/4/2 224/4/2
f 227/4/3 226/4/3 225/4/3
f 228/4/3 226/4/3 227/4/3
f 232/4/3 230/4/3 229/4/3
f 233/4/3 230/4/3 232/4/3
f 234/4/3 230/4/3 233/4/3
f 236/4/3 232/4/3 231/4/3
f 236/4/3 233/4/3 232/4/3
f 237/4/3 233/4/3 236/4/3
f 238/4/3 233/4/3 237/4/3
f 239/4/3 230/4/3 234/4/3
f 242/4/3 236/4/3 235/4/3
f 242/4/3 237/4/3 236/4/3
f 243/4/3 237/4/3 242/4/3
f 244/4/3 237/4/3 243/4/3
f 245/4/3 240/4/3 239/4/3
f 245/4/3 239/4/3 234/4/3
f 246/4/3 240/4/3 245/4/3
f 248/4/3 243/4/3 242/4/3
f 248/4/3 242/4/3 241/4/3
f 249/4/3 243/4/3 248/4/3
f 250/4/3 243/4/3 249/4/3
f 251/4/3 240/4/3 246/4/3
f 254/4/3 248/4/3 247/4/3
f 254/4/3 249/4/3 248/4/3
f 255/4/3 249/4/3 254/4/3
f 256/4/3 249/4/3 255/4/3
f 257/4/3 252/4/3 251/4/3
f 257/4/3 251/4/3 246/4/3
f 258/4/3 252/4/3 257/4/3
f 260/4/3 255/4/3 254/4/3
f 260/4/3 254/4/3 253/4/3
f 261/4/3 255/4/3 260/4/3
f 262/4/3 255/4/3 261/4/3
f 263/4/3 252/4/3 258/4/3
f 265/4/3 260/4/3 259/4/3
f 265/4/3 261/4/3 260/4/3
f 266/4/3 261/4/3 265/4/3
f 267/4/3 261/4/3 266/4/3
f 269/4/3 264/4/3 263/4/3
f 269/4/3 263/4/3 258/4/3
f 270/4/3 264/4/3 269/4/3
f 271/4/3 268/4/3 267/4/3
f 271/4/3 267/4/3 266/4/3
f 272/4/3 268/4/3 271/4/3
f 273/4/3 268/4/3 272/4/3
f 276/4/3 269/4/3 258/4/3
f 277/4/3 274/4/3 273/4/3
f 277/4/3 273/4/3 272/4/3
f 278/4/3 274/4/3 277/4/3
f 279/4/3 274/4/3 278/4/3
f 281/4/3 276/4/3 275/4/3
f 281/4/3 269/4/3 276/4/3
f 282/4/3 269/4/3 281/4/3
f 283/4/3 280/4/3 279/4/3
f 283/4/3 279/4/3 278/4/3
f 284/4/3 280/4/3 283/4/3
f 285/4/3 280/4/3 284/4/3
f 288/4/3 281/4/3 275/4/3
f 289/4/3 286/4/3 285/4/3
f 289/4/3 285/4/3 284/4/3
f 290/4/3 286/4/3 289/4/3
f 291/4/3 286/4/3 290/4/3
f 293/4/3 288/4/3 287/4/3
f 293/4/3 281/4/3 288/4/3
f 294/4/3 281/4/3 293/4/3
f 295/4/3 292/4/3 291/4/3
f 295/4/3 291/4/3 290/4/3
f 296/4/3 292/4/3 295/4/3
f 297/4/3 292/4/3 296/4/3
f 298/4/3 293/4/3 287/4/3
f 299/4/3 297/4/3 296/4/3
f 299/4/3 298/4/3 297/4/3
f 300/4/3 293/4/3 298/4/3
f 300/4/3 298/4/3 299/4/3
f 304/5/3 302/5/3 301/5/3
f 306/5/3 304/5/3 303/5/3
f 307/5/3 302/5/3 304/5/3
f 307/5/3 304/5/3 306/5/3
f 310/5/3 306/5/3 305/5/3
f 310/5/3 308/5/3 307/5/3
f 310/5/3 307/5/3 306/5/3
f 312/5/3 310/5/3 309/5/3
f 313/5/3 308/5/3 310/5/3
f 313/5/3 310/5/3 312/5/3
f 316/5/3 312/5/3 311/5/3
f 316/5/3 314/5/3 313/5/3
f 316/5/3 313/5/3 312/5/3
f 317/5/3 314/5/3 316/5/3
f 318/5/3 314/5/3 317/5/3
f 319/5/3 314/5/3 318/5/3
f 320/5/3 314/5/3 319/5/3
f 321/5/3 316/5/3 315/5/3
f 321/5/3 317/5/3 316/5/3
f 322/5/3 317/5/3 321/5/3
f 323/5/3 317/5/3 322/5/3
f 324/5/3 319/5/3 318/5/3
f 325/5/3 319/5/3 324/5/3
f 326/5/3 314/5/3 320/5/3
f 327/5/3 325/5/3 324/5/3
f 327/5/3 326/5/3 325/5/3
f 327/5/3 323/5/3 322/5/3
f 327/5/3 324/5/3 323/5/3
f 328/5/3 326/5/3 327/5/3
f 329/5/3 314/5/3 326/5/3
f 329/5/3 326/5/3 328/5/3
f 330/5/3 314/5/3 329/5/3
f 331/5/3 329/5/3 328/5/3
f 332/5/3 329/5/3 331/5/3
f 333/5/3 329/5/3 332/5/3
f 334/5/3 329/5/3 333/5/3
f 335/5/3 329/5/3 334/5/3
f 336/5/3 329/5/3 335/5/3
f 337/5/3 335/5/3 334/5/3
f 338/5/3 335/5/3 337/5/3
f 339/5/3 335/5/3 338/5/3
f 340/5/3 335/5/3 339/5/3
f 341/4/4 342/4/4 343/4/4
f 343/4/4 342/4/4 344/4/4
f 345/4/4 346/4/4 348/4/4
f 348/4/4 346/4/4 349/4/4
f 349/4/4 346/4/4 350/4/4
f 347/4/4 348/4/4 352/4/4
f 348/4/4 349/4/4 352/4/4
f 352/4/4 349/4/4 353/4/4
f 353/4/4 349/4/4 354/4/4
f 350/4/4 346/4/4 355/4/4
f 351/4/4 352/4/4 358/4/4
f 352/4/4 353/4/4 358/4/4
f 358/4/4 353/4/4 359/4/4
f 359/4/4 353/4/4 360/4/4
f 355/4/4 356/4/4 361/4/4
f 350/4/4 355/4/4 361/4/4
f 361/4/4 356/4/4 362/4/4
f 358/4/4 359/4/4 364/4/4
f 357/4/4 358/4/4 364/4/4
f 364/4/4 359/4/4 365/4/4
f 365/4/4 359/4/4 366/4/4
f 362/4/4 356/4/4 367/4/4
f 363/4/4 364/4/4 370/4/4
f 364/4/4 365/4/4 370/4/4
f 370/4/4 365/4/4 371/4/4
f 371/4/4 365/4/4 372/4/4
f 367/4/4 368/4/4 373/4/4
f 362/4/4 367/4/4 373/4/4
f 373/4/4 368/4/4 374/4/4
f 370/4/4 371/4/4 376/4/4
f 369/4/4 370/4/4 376/4/4
f 376/4/4 371/4/4 377/4/4
f 377/4/4 371/4/4 378/4/4
f 374/4/4 368/4/4 379/4/4
f 375/4/4 376/4/4 381/4/4
f 376/4/4 377/4/4 381/4/4
f 375/4/4 381/4/4 382/4/4
f 382/4/4 381/4/4 383/4/4
f 383/4/4 381/4/4 384/4/4
f 379/4/4 380/4/4 386/4/4
f 374/4/4 379/4/4 386/4/4
f 386/4/4 380/4/4 387/4/4
f 384/4/4 385/4/4 388/4/4
f 383/4/4 384/4/4 388/4/4
f 388/4/4 385/4/4 389/4/4
f 389/4/4 385/4/4 390/4/4
f 374/4/4 386/4/4 393/4/4
f 390/4/4 391/4/4 394/4/4
f 389/4/4 390/4/4 394/4/4
f 394/4/4 391/4/4 395/4/4
f 395/4/4 391/4/4 396/4/4
f 392/4/4 393/4/4 398/4/4
f 393/4/4 386/4/4 398/4/4
f 398/4/4 386/4/4 399/4/4
f 396/4/4 397/4/4 400/4/4
f 395/4/4 396/4/4 400/4/4
f 400/4/4 397/4/4 401/4/4
f 401/4/4 397/4/4 402/4/4
f 392/4/4 398/4/4 405/4/4
f 402/4/4 403/4/4 406/4/4
f 401/4/4 402/4/4 406/4/4
f 406/4/4 403/4/4 407/4/4
f 407/4/4 403/4/4 408/4/4
f 404/4/4 405/4/4 410/4/4
f 405/4/4 398/4/4 410/4/4
f 410/4/4 398/4/4 411/4/4
f 408/4/4 409/4/4 412/4/4
f 407/4/4 408/4/4 412/4/4
f 412/4/4 409/4/4 413/4/4
f 413/4/4 409/4/4 414/4/4
f 404/4/4 410/4/4 415/4/4
f 413/4/4 414/4/4 416/4/4
f 414/4/4 415/4/4 416/4/4
f 415/4/4 410/4/4 417/4/4
f 416/4/4 415/4/4 417/4/4
f 418/3/4 419/3/4 421/3/4
f 420/1/4 421/1/4 423/1/4
f 423/1/4 421/1/4 424/1/4
f 421/3/4 419/3/4 425/3/4
f 424/1/4 421/1/4 425/1/4
f 425/3/4 419/3/4 426/3/4
f 422/1/4 423/1/4 429/1/4
f 423/2/4 424/2/4 430/2/4
f 429/1/4 423/1/4 430/1/4
f 428/1/4 429/1/4 432/1/4
f 429/2/4 430/2/4 433/2/4
f 432/1/4 429/1/4 433/1/4
f 430/2/4 424/2/4 434/2/4
f 433/2/4 430/2/4 434/2/4
f 424/1/4 425/1/4 435/1/4
f 434/2/4 424/2/4 435/2/4
f 425/1/4 426/1/4 435/1/4
f 426/3/4 427/3/4 436/3/4
f 435/1/4 426/1/4 436/1/4
f 436/3/4 427/3/4 437/3/4
f 431/1/4 432/1/4 440/1/4
f 432/2/4 433/2/4 441/2/4
f 433/2/4 434/2/4 441/2/4
f 440/1/4 432/1/4 441/1/4
f 439/1/4 440/1/4 442/1/4
f 440/2/4 441/2/4 443/2/4
f 442/1/4 440/1/4 443/1/4
f 441/2/4 434/2/4 444/2/4
f 443/2/4 441/2/4 444/2/4
f 434/1/4 435/1/4 444/1/4
f 435/1/4 436/1/4 444/1/4
f 436/1/4 437/1/4 444/1/4
f 437/3/4 438/3/4 445/3/4
f 444/1/4 437/1/4 445/1/4
f 442/3/4 443/3/4 446/3/4
f 443/1/4 444/1/4 447/1/4
f 446/3/4 443/3/4 447/3/4
f 447/1/4 444/1/4 448/1/4
f 447/3/4 448/3/4 449/3/4
f 448/1/4 444/1/4 450/1/4
f 449/3/4 448/3/4 450/3/4
f 450/1/4 444/1/4 451/1/4
f 444/3/4 445/3/4 452/3/4
f 451/1/4 444/1/4 452/1/4
f 452/3/4 445/3/4 453/3/4
f 445/3/4 438/3/4 454/3/4
f 453/3/4 445/3/4 454/3/4
f 454/3/4 438/3/4 455/3/4
f 450/3/4 451/3/4 456/3/4
f 452/1/4 453/1/4 457/1/4
f 456/3/4 451/3/4 457/3/4
f 451/1/4 452/1/4 457/1/4
f 457/1/4 453/1/4 458/1/4
f 457/3/4 458/3/4 459/3/4
f 458/1/4 453/1/4 460/1/4
f 459/3/4 458/3/4 460/3/4
f 453/3/4 454/3/4 461/3/4
f 460/1/4 453/1/4 461/1/4
f 461/3/4 454/3/4 462/3/4
f 462/3/4 454/3/4 463/3/4
f 460/3/4 461/3/4 464/3/4
f 461/3/4 462/3/4 464/3/4
f 464/3/4 462/3/4 465/3/4
f 465/3/4 462/3/4 466/3/4
f 466/3/4 462/3/4 467/3/4
f 470/4/5 469/4/5 468/4/5
f 471/4/5 469/4/5 470/4/5
f 476/4/5 473/4/5 472/4/5
f 477/4/5 473/4/5 476/4/5
f 478/4/5 475/4/5 474/4/5
f 479/4/5 475/4/5 478/4/5
f 483/1/5 481/1/5 480/1/5
f 484/3/5 482/3/5 481/3/5
f 484/1/5 481/1/5 483/1/5
f 485/3/5 482/3/5 484/3/5
f 490/4/5 487/4/5 486/4/5
f 491/4/5 487/4/5 490/4/5
f 492/4/5 489/4/5 488/4/5
f 493/4/5 489/4/5 492/4/5
f 498/1/5 495/1/5 494/1/5
f 499/1/5 495/1/5 498/1/5
f 500/3/5 497/3/5 496/3/5
f 501/3/5 497/3/5 500/3/5
f 506/4/5 503/4/5 502/4/5
f 507/4/5 503/4/5 506/4/5
f 508/4/5 505/4/5 504/4/5
f 509/4/5 505/4/5 508/4/5
f 514/1/5 511/1/5 510/1/5
f 515/1/5 511/1/5 514/1/5
f 516/3/5 513/3/5 512/3/5
f 517/3/5 513/3/5 516/3/5
f 524/4/5 519/4/5 518/4/5
f 525/4/5 519/4/5 524/4/5
f 526/4/5 521/4/5 520/4/5
f 527/4/5 521/4/5 526/4/5
f 528/4/5 523/4/5 522/4/5
f 529/4/5 523/4/5 528/4/5
f 534/1/5 531/1/5 530/1/5
f 535/1/5 531/1/5 534/1/5
f 536/3/5 533/3/5 532/3/5
f 537/3/5 533/3/5 536/3/5
f 542/4/5 539/4/5 538/4/5
f 543/4/5 539/4/5 542/4/5
f 544/4/5 541/4/5 540/4/5
f 545/4/5 541/4/5 544/4/5
f 550/1/5 547/1/5 546/1/5
f 551/1/5 547/1/5 550/1/5
f 552/3/5 549/3/5 548/3/5
f 553/3/5 549/3/5 552/3/5
f 556/4/5 555/4/5 554/4/5
f 557/4/5 555/4/5 556/4/5
f 562/4/5 559/4/5 558/4/5
f 563/4/5 559/4/5 562/4/5
f 564/4/5 561/4/5 560/4/5
f 565/4/5 561/4/5 564/4/5
f 570/3/5 567/3/5 566/3/5
f 571/3/5 567/3/5 570/3/5
f 572/3/5 569/3/5 568/3/5
f 573/3/5 569/3/5 572/3/5
f 578/4/5 575/4/5 574/4/5
f 579/4/5 575/4/5 578/4/5
f 580/4/5 577/4/5 576/4/5
f 581/4/5 577/4/5 580/4/5
f 586/4/5 583/4/5 582/4/5
f 587/4/5 583/4/5 586/4/5
f 588/4/5 585/4/5 584/4/5
f 589/4/5 585/4/5 588/4/5
f 592/4/5 591/4/5 590/4/5
f 593/4/5 591/4/5 592/4/5
f 594/4/6 595/4/6 596/4/6
f 596/4/6 595/4/6 597/4/6
f 598/4/6 599/4/6 602/4/6
f 602/4/6 599/4/6 603/4/6
f 600/4/6 601/4/6 604/4/6
f 604/4/6 601/4/6 605/4/6
f 606/4/6 607/4/6 610/4/6
f 610/4/6 607/4/6 611/4/6
f 608/4/6 609/4/6 612/4/6
f 612/4/6 609/4/6 613/4/6
f 614/4/6 615/4/6 620/4/6
f 620/4/6 615/4/6 621/4/6
f 616/4/6 617/4/6 622/4/6
f 622/4/6 617/4/6 623/4/6
f 618/4/6 619/4/6 624/4/6
f 624/4/6 619/4/6 625/4/6
f 626/4/6 627/4/6 630/4/6
f 630/4/6 627/4/6 631/4/6
f 628/4/6 629/4/6 632/4/6
f 632/4/6 629/4/6 633/4/6
f 634/4/6 635/4/6 636/4/6
f 636/4/6 635/4/6 637/4/6
f 638/4/6 639/4/6 642/4/6
f 642/4/6 639/4/6 643/4/6
f 640/4/6 641/4/6 644/4/6
f 644/4/6 641/4/6 645/4/6
f 646/3/6 647/3/6 650/3/6
f 650/3/6 647/3/6 651/3/6
f 648/3/6 649/3/6 652/3/6
f 652/3/6 649/3/6 653/3/6
f 654/4/6 655/4/6 658/4/6
f 658/4/6 655/4/6 659/4/6
f 656/4/6 657/4/6 664/4/6
f 664/4/6 657/4/6 665/4/6
f 660/3/6 661/3/6 666/3/6
f 666/3/6 661/3/6 667/3/6
f 662/3/6 663/3/6 668/3/6
f 668/3/6 663/3/6 669/3/6
f 670/4/6 671/4/6 674/4/6
f 674/4/6 671/4/6 675/4/6
f 672/4/6 673/4/6 678/4/6
f 678/4/6 673/4/6 679/4/6
f 676/3/6 677/3/6 680/3/6
f 680/3/6 677/3/6 681/3/6
f 682/4/6 683/4/6 686/4/6
f 686/4/6 683/4/6 687/4/6
f 684/4/6 685/4/6 688/4/6
f 688/4/6 685/4/6 689/4/6
f 690/4/6 691/4/6 692/4/6
f 692/4/6 691/4/6 693/4/6
