# MagicaVoxel @ Ephtracy

# group
o 

# material
mtllib spear.vox.mtl
usemtl palette

# normals
vn -1 0 0
vn 1 0 0
vn 0 0 1
vn 0 0 -1
vn 0 -1 0
vn 0 1 0

# texcoords
vt 0.396484 0.5
vt 0.958984 0.5
vt 0.970703 0.5
vt 0.978516 0.5
vt 0.986328 0.5

# verts
v -0.2 0.4 0.2
v -0.2 0.4 -0.1
v -0.2 0.5 0.2
v -0.2 0.5 -0.1
v -0.1 -1.7 0.2
v -0.1 -1.7 -0.1
v -0.1 -1.6 0.1
v -0.1 -1.6 0
v -0.1 -1.5 0.1
v -0.1 -1.5 0
v -0.1 -1.4 0.2
v -0.1 -1.4 0.1
v -0.1 -1.4 0
v -0.1 -1.4 -0.1
v -0.1 0.2 0.1
v -0.1 0.2 0
v -0.1 0.4 0.1
v -0.1 0.4 0
v -0.1 0.5 0.1
v -0.1 0.5 0
v -0.1 0.6 0.2
v -0.1 0.6 0.1
v -0.1 0.6 0
v -0.1 0.6 -0.1
v -0.1 0.8 0.2
v -0.1 0.8 0.1
v -0.1 0.8 0
v -0.1 0.8 -0.1
v -0.1 0.9 0.1
v -0.1 0.9 0
v -0.1 1 0.2
v -0.1 1 0.1
v -0.1 1 0
v -0.1 1 -0.1
v -0.1 1.1 0.1
v -0.1 1.1 0
v 0 -1.7 0.2
v 0 -1.7 -0.1
v 0 -1.6 0.1
v 0 -1.6 0
v 0 -1.5 0.1
v 0 -1.5 0
v 0 -1.4 0.2
v 0 -1.4 0.1
v 0 -1.4 0
v 0 -1.4 -0.1
v 0 0.2 0.1
v 0 0.2 0
v 0 0.4 0.1
v 0 0.4 0
v 0 0.5 0.1
v 0 0.5 0
v 0 0.6 0.2
v 0 0.6 0.1
v 0 0.6 0
v 0 0.6 -0.1
v 0 0.8 0.2
v 0 0.8 0.1
v 0 0.8 0
v 0 0.8 -0.1
v 0 0.9 0.1
v 0 0.9 0
v 0 1 0.2
v 0 1 0.1
v 0 1 0
v 0 1 -0.1
v 0 1.1 0.1
v 0 1.1 0
v 0.1 0.4 0.2
v 0.1 0.4 -0.1
v 0.1 0.5 0.2
v 0.1 0.5 -0.1
v -0.2 0.4 0.2
v -0.2 0.5 0.2
v -0.1 -1.7 0.2
v -0.1 -1.4 0.2
v -0.1 0.6 0.2
v -0.1 0.8 0.2
v -0.1 1 0.2
v 0 -1.7 0.2
v 0 -1.4 0.2
v 0 0.6 0.2
v 0 0.8 0.2
v 0 1 0.2
v 0.1 0.4 0.2
v 0.1 0.5 0.2
v -0.1 -1.4 0.1
v -0.1 0.2 0.1
v -0.1 0.4 0.1
v -0.1 0.5 0.1
v -0.1 0.6 0.1
v -0.1 1 0.1
v -0.1 1.1 0.1
v 0 -1.4 0.1
v 0 0.2 0.1
v 0 0.4 0.1
v 0 0.5 0.1
v 0 0.6 0.1
v 0 1 0.1
v 0 1.1 0.1
v -0.1 -1.6 0
v -0.1 -1.5 0
v 0 -1.6 0
v 0 -1.5 0
v -0.1 -1.6 0.1
v -0.1 -1.5 0.1
v 0 -1.6 0.1
v 0 -1.5 0.1
v -0.1 -1.4 0
v -0.1 0.2 0
v -0.1 0.4 0
v -0.1 0.5 0
v -0.1 0.6 0
v -0.1 1 0
v -0.1 1.1 0
v 0 -1.4 0
v 0 0.2 0
v 0 0.4 0
v 0 0.5 0
v 0 0.6 0
v 0 1 0
v 0 1.1 0
v -0.2 0.4 -0.1
v -0.2 0.5 -0.1
v -0.1 -1.7 -0.1
v -0.1 -1.4 -0.1
v -0.1 0.6 -0.1
v -0.1 0.8 -0.1
v -0.1 1 -0.1
v 0 -1.7 -0.1
v 0 -1.4 -0.1
v 0 0.6 -0.1
v 0 0.8 -0.1
v 0 1 -0.1
v 0.1 0.4 -0.1
v 0.1 0.5 -0.1
v -0.1 -1.7 0.2
v 0 -1.7 0.2
v -0.1 -1.7 -0.1
v 0 -1.7 -0.1
v -0.1 -1.5 0.1
v 0 -1.5 0.1
v -0.1 -1.5 0
v 0 -1.5 0
v -0.2 0.4 0.2
v 0.1 0.4 0.2
v -0.1 0.4 0.1
v 0 0.4 0.1
v -0.1 0.4 0
v 0 0.4 0
v -0.2 0.4 -0.1
v 0.1 0.4 -0.1
v -0.1 0.6 0.2
v 0 0.6 0.2
v -0.1 0.6 0.1
v 0 0.6 0.1
v -0.1 0.6 0
v 0 0.6 0
v -0.1 0.6 -0.1
v 0 0.6 -0.1
v -0.1 -1.6 0.1
v 0 -1.6 0.1
v -0.1 -1.6 0
v 0 -1.6 0
v -0.1 -1.4 0.2
v 0 -1.4 0.2
v -0.1 -1.4 0.1
v 0 -1.4 0.1
v -0.1 -1.4 0
v 0 -1.4 0
v -0.1 -1.4 -0.1
v 0 -1.4 -0.1
v -0.2 0.5 0.2
v 0.1 0.5 0.2
v -0.1 0.5 0.1
v 0 0.5 0.1
v -0.1 0.5 0
v 0 0.5 0
v -0.2 0.5 -0.1
v 0.1 0.5 -0.1
v -0.1 1 0.2
v 0 1 0.2
v -0.1 1 0.1
v 0 1 0.1
v -0.1 1 0
v 0 1 0
v -0.1 1 -0.1
v 0 1 -0.1
v -0.1 1.1 0.1
v 0 1.1 0.1
v -0.1 1.1 0
v 0 1.1 0

# faces
f 3/5/1 2/5/1 1/5/1
f 4/5/1 2/5/1 3/5/1
f 7/5/1 6/5/1 5/5/1
f 8/5/1 6/5/1 7/5/1
f 9/5/1 7/5/1 5/5/1
f 10/5/1 6/5/1 8/5/1
f 11/5/1 9/5/1 5/5/1
f 11/5/1 10/5/1 9/5/1
f 12/5/1 10/5/1 11/5/1
f 13/5/1 6/5/1 10/5/1
f 13/5/1 10/5/1 12/5/1
f 14/5/1 6/5/1 13/5/1
f 15/1/1 13/1/1 12/1/1
f 16/1/1 13/1/1 15/1/1
f 17/5/1 16/5/1 15/5/1
f 18/5/1 16/5/1 17/5/1
f 22/5/1 20/5/1 19/5/1
f 23/5/1 20/5/1 22/5/1
f 25/3/1 22/3/1 21/3/1
f 26/4/1 23/4/1 22/4/1
f 26/3/1 22/3/1 25/3/1
f 27/3/1 24/3/1 23/3/1
f 27/4/1 23/4/1 26/4/1
f 28/3/1 24/3/1 27/3/1
f 29/2/1 26/2/1 25/2/1
f 29/4/1 27/4/1 26/4/1
f 30/2/1 28/2/1 27/2/1
f 30/4/1 27/4/1 29/4/1
f 31/2/1 29/2/1 25/2/1
f 31/2/1 30/2/1 29/2/1
f 32/2/1 30/2/1 31/2/1
f 33/2/1 28/2/1 30/2/1
f 33/2/1 30/2/1 32/2/1
f 34/2/1 28/2/1 33/2/1
f 35/2/1 33/2/1 32/2/1
f 36/2/1 33/2/1 35/2/1
f 37/5/2 38/5/2 39/5/2
f 39/5/2 38/5/2 40/5/2
f 37/5/2 39/5/2 41/5/2
f 40/5/2 38/5/2 42/5/2
f 37/5/2 41/5/2 43/5/2
f 41/5/2 42/5/2 43/5/2
f 43/5/2 42/5/2 44/5/2
f 42/5/2 38/5/2 45/5/2
f 44/5/2 42/5/2 45/5/2
f 45/5/2 38/5/2 46/5/2
f 44/1/2 45/1/2 47/1/2
f 47/1/2 45/1/2 48/1/2
f 47/5/2 48/5/2 49/5/2
f 49/5/2 48/5/2 50/5/2
f 51/5/2 52/5/2 54/5/2
f 54/5/2 52/5/2 55/5/2
f 53/3/2 54/3/2 57/3/2
f 54/4/2 55/4/2 58/4/2
f 57/3/2 54/3/2 58/3/2
f 55/3/2 56/3/2 59/3/2
f 58/4/2 55/4/2 59/4/2
f 59/3/2 56/3/2 60/3/2
f 57/2/2 58/2/2 61/2/2
f 58/4/2 59/4/2 61/4/2
f 59/2/2 60/2/2 62/2/2
f 61/4/2 59/4/2 62/4/2
f 57/2/2 61/2/2 63/2/2
f 61/2/2 62/2/2 63/2/2
f 63/2/2 62/2/2 64/2/2
f 62/2/2 60/2/2 65/2/2
f 64/2/2 62/2/2 65/2/2
f 65/2/2 60/2/2 66/2/2
f 64/2/2 65/2/2 67/2/2
f 67/2/2 65/2/2 68/2/2
f 69/5/2 70/5/2 71/5/2
f 71/5/2 70/5/2 72/5/2
f 80/5/3 76/5/3 75/5/3
f 81/5/3 76/5/3 80/5/3
f 82/3/3 78/3/3 77/3/3
f 83/2/3 79/2/3 78/2/3
f 83/3/3 78/3/3 82/3/3
f 84/2/3 79/2/3 83/2/3
f 85/5/3 74/5/3 73/5/3
f 86/5/3 74/5/3 85/5/3
f 94/1/3 88/1/3 87/1/3
f 95/5/3 89/5/3 88/5/3
f 95/1/3 88/1/3 94/1/3
f 96/5/3 89/5/3 95/5/3
f 97/5/3 91/5/3 90/5/3
f 98/5/3 91/5/3 97/5/3
f 99/2/3 93/2/3 92/2/3
f 100/2/3 93/2/3 99/2/3
f 103/5/3 102/5/3 101/5/3
f 104/5/3 102/5/3 103/5/3
f 105/5/4 106/5/4 107/5/4
f 107/5/4 106/5/4 108/5/4
f 109/1/4 110/1/4 116/1/4
f 110/5/4 111/5/4 117/5/4
f 116/1/4 110/1/4 117/1/4
f 117/5/4 111/5/4 118/5/4
f 112/5/4 113/5/4 119/5/4
f 119/5/4 113/5/4 120/5/4
f 114/2/4 115/2/4 121/2/4
f 121/2/4 115/2/4 122/2/4
f 125/5/4 126/5/4 130/5/4
f 130/5/4 126/5/4 131/5/4
f 127/3/4 128/3/4 132/3/4
f 128/2/4 129/2/4 133/2/4
f 132/3/4 128/3/4 133/3/4
f 133/2/4 129/2/4 134/2/4
f 123/5/4 124/5/4 135/5/4
f 135/5/4 124/5/4 136/5/4
f 139/5/5 138/5/5 137/5/5
f 140/5/5 138/5/5 139/5/5
f 143/5/5 142/5/5 141/5/5
f 144/5/5 142/5/5 143/5/5
f 147/5/5 146/5/5 145/5/5
f 148/5/5 146/5/5 147/5/5
f 149/5/5 147/5/5 145/5/5
f 150/5/5 146/5/5 148/5/5
f 151/5/5 149/5/5 145/5/5
f 151/5/5 150/5/5 149/5/5
f 152/5/5 146/5/5 150/5/5
f 152/5/5 150/5/5 151/5/5
f 155/3/5 154/3/5 153/3/5
f 156/3/5 154/3/5 155/3/5
f 159/3/5 158/3/5 157/3/5
f 160/3/5 158/3/5 159/3/5
f 161/5/6 162/5/6 163/5/6
f 163/5/6 162/5/6 164/5/6
f 165/5/6 166/5/6 167/5/6
f 167/5/6 166/5/6 168/5/6
f 169/5/6 170/5/6 171/5/6
f 171/5/6 170/5/6 172/5/6
f 173/5/6 174/5/6 175/5/6
f 175/5/6 174/5/6 176/5/6
f 173/5/6 175/5/6 177/5/6
f 176/5/6 174/5/6 178/5/6
f 173/5/6 177/5/6 179/5/6
f 177/5/6 178/5/6 179/5/6
f 178/5/6 174/5/6 180/5/6
f 179/5/6 178/5/6 180/5/6
f 181/2/6 182/2/6 183/2/6
f 183/2/6 182/2/6 184/2/6
f 185/2/6 186/2/6 187/2/6
f 187/2/6 186/2/6 188/2/6
f 189/2/6 190/2/6 191/2/6
f 191/2/6 190/2/6 192/2/6
