# MagicaVoxel @ Ephtracy

# group
o 

# material
mtllib spearWinged.vox.mtl
usemtl palette

# normals
vn -1 0 0
vn 1 0 0
vn 0 0 1
vn 0 0 -1
vn 0 -1 0
vn 0 1 0

# texcoords
vt 0.369141 0.5
vt 0.537109 0.5
vt 0.806641 0.5
vt 0.833984 0.5
vt 0.970703 0.5
vt 0.978516 0.5
vt 0.986328 0.5

# verts
v -0.2 0.7 0.1
v -0.2 0.7 0
v -0.2 0.8 0.1
v -0.2 0.8 0
v -0.2 0.9 0.1
v -0.2 0.9 0
v -0.2 1 0.1
v -0.2 1 0
v -0.1 -2.2 0.1
v -0.1 -2.2 0
v -0.1 -1.9 0.1
v -0.1 -1.9 0
v -0.1 -1.3 0.1
v -0.1 -1.3 0
v -0.1 -1.2 0.1
v -0.1 -1.2 0
v -0.1 -0.3 0.1
v -0.1 -0.3 0
v -0.1 0.3 0.1
v -0.1 0.3 0
v -0.1 0.4 0.1
v -0.1 0.4 0
v -0.1 0.5 0.1
v -0.1 0.5 0
v -0.1 0.6 0.1
v -0.1 0.6 0
v -0.1 0.7 0.2
v -0.1 0.7 0.1
v -0.1 0.7 0
v -0.1 0.7 -0.1
v -0.1 0.8 0.3
v -0.1 0.8 0.2
v -0.1 0.8 0.1
v -0.1 0.8 0
v -0.1 0.8 -0.1
v -0.1 0.8 -0.2
v -0.1 0.9 0.3
v -0.1 0.9 0.1
v -0.1 0.9 0
v -0.1 0.9 -0.2
v -0.1 1 0.3
v -0.1 1 0.1
v -0.1 1 0
v -0.1 1 -0.2
v -0.1 1.1 0.2
v -0.1 1.1 0.1
v -0.1 1.1 0
v -0.1 1.1 -0.1
v -0.1 1.3 0.2
v -0.1 1.3 0.1
v -0.1 1.3 0
v -0.1 1.3 -0.1
v -0.1 1.4 0.2
v -0.1 1.4 0.1
v -0.1 1.4 0
v -0.1 1.4 -0.1
v -0.1 1.5 0.1
v -0.1 1.5 0
v -0.1 1.6 0.2
v -0.1 1.6 0.1
v -0.1 1.6 0
v -0.1 1.6 -0.1
v -0.1 1.8 0.1
v -0.1 1.8 0
v 0 -2.2 0.1
v 0 -2.2 0
v 0 -1.9 0.1
v 0 -1.9 0
v 0 -1.3 0.1
v 0 -1.3 0
v 0 -1.2 0.1
v 0 -1.2 0
v 0 -0.3 0.1
v 0 -0.3 0
v 0 0.3 0.1
v 0 0.3 0
v 0 0.4 0.1
v 0 0.4 0
v 0 0.5 0.1
v 0 0.5 0
v 0 0.6 0.1
v 0 0.6 0
v 0 0.7 0.2
v 0 0.7 0.1
v 0 0.7 0
v 0 0.7 -0.1
v 0 0.8 0.3
v 0 0.8 0.2
v 0 0.8 0.1
v 0 0.8 0
v 0 0.8 -0.1
v 0 0.8 -0.2
v 0 0.9 0.3
v 0 0.9 0.1
v 0 0.9 0
v 0 0.9 -0.2
v 0 1 0.3
v 0 1 0.1
v 0 1 0
v 0 1 -0.2
v 0 1.1 0.2
v 0 1.1 0.1
v 0 1.1 0
v 0 1.1 -0.1
v 0 1.3 0.2
v 0 1.3 0.1
v 0 1.3 0
v 0 1.3 -0.1
v 0 1.4 0.2
v 0 1.4 0.1
v 0 1.4 0
v 0 1.4 -0.1
v 0 1.5 0.1
v 0 1.5 0
v 0 1.6 0.2
v 0 1.6 0.1
v 0 1.6 0
v 0 1.6 -0.1
v 0 1.8 0.1
v 0 1.8 0
v 0.1 0.7 0.1
v 0.1 0.7 0
v 0.1 0.8 0.1
v 0.1 0.8 0
v 0.1 0.9 0.1
v 0.1 0.9 0
v 0.1 1 0.1
v 0.1 1 0
v -0.1 0.8 0.3
v -0.1 0.9 0.3
v -0.1 1 0.3
v 0 0.8 0.3
v 0 0.9 0.3
v 0 1 0.3
v -0.1 0.7 0.2
v -0.1 0.8 0.2
v -0.1 1.1 0.2
v -0.1 1.3 0.2
v -0.1 1.4 0.2
v -0.1 1.6 0.2
v 0 0.7 0.2
v 0 0.8 0.2
v 0 1.1 0.2
v 0 1.3 0.2
v 0 1.4 0.2
v 0 1.6 0.2
v -0.2 0.7 0.1
v -0.2 0.8 0.1
v -0.2 0.9 0.1
v -0.2 1 0.1
v -0.1 -2.2 0.1
v -0.1 -1.9 0.1
v -0.1 -1.3 0.1
v -0.1 -1.2 0.1
v -0.1 -0.3 0.1
v -0.1 0.3 0.1
v -0.1 0.4 0.1
v -0.1 0.5 0.1
v -0.1 0.6 0.1
v -0.1 0.7 0.1
v -0.1 0.8 0.1
v -0.1 0.9 0.1
v -0.1 1 0.1
v -0.1 1.1 0.1
v -0.1 1.6 0.1
v -0.1 1.8 0.1
v 0 -2.2 0.1
v 0 -1.9 0.1
v 0 -1.3 0.1
v 0 -1.2 0.1
v 0 -0.3 0.1
v 0 0.3 0.1
v 0 0.4 0.1
v 0 0.5 0.1
v 0 0.6 0.1
v 0 0.7 0.1
v 0 0.8 0.1
v 0 0.9 0.1
v 0 1 0.1
v 0 1.1 0.1
v 0 1.6 0.1
v 0 1.8 0.1
v 0.1 0.7 0.1
v 0.1 0.8 0.1
v 0.1 0.9 0.1
v 0.1 1 0.1
v -0.2 0.7 0
v -0.2 0.8 0
v -0.2 0.9 0
v -0.2 1 0
v -0.1 -2.2 0
v -0.1 -1.9 0
v -0.1 -1.3 0
v -0.1 -1.2 0
v -0.1 -0.3 0
v -0.1 0.3 0
v -0.1 0.4 0
v -0.1 0.5 0
v -0.1 0.6 0
v -0.1 0.7 0
v -0.1 0.8 0
v -0.1 0.9 0
v -0.1 1 0
v -0.1 1.1 0
v -0.1 1.6 0
v -0.1 1.8 0
v 0 -2.2 0
v 0 -1.9 0
v 0 -1.3 0
v 0 -1.2 0
v 0 -0.3 0
v 0 0.3 0
v 0 0.4 0
v 0 0.5 0
v 0 0.6 0
v 0 0.7 0
v 0 0.8 0
v 0 0.9 0
v 0 1 0
v 0 1.1 0
v 0 1.6 0
v 0 1.8 0
v 0.1 0.7 0
v 0.1 0.8 0
v 0.1 0.9 0
v 0.1 1 0
v -0.1 0.7 -0.1
v -0.1 0.8 -0.1
v -0.1 1.1 -0.1
v -0.1 1.3 -0.1
v -0.1 1.4 -0.1
v -0.1 1.6 -0.1
v 0 0.7 -0.1
v 0 0.8 -0.1
v 0 1.1 -0.1
v 0 1.3 -0.1
v 0 1.4 -0.1
v 0 1.6 -0.1
v -0.1 0.8 -0.2
v -0.1 0.9 -0.2
v -0.1 1 -0.2
v 0 0.8 -0.2
v 0 0.9 -0.2
v 0 1 -0.2
v -0.1 -2.2 0.1
v 0 -2.2 0.1
v -0.1 -2.2 0
v 0 -2.2 0
v -0.1 0.7 0.2
v 0 0.7 0.2
v -0.2 0.7 0.1
v -0.1 0.7 0.1
v 0 0.7 0.1
v 0.1 0.7 0.1
v -0.2 0.7 0
v -0.1 0.7 0
v 0 0.7 0
v 0.1 0.7 0
v -0.1 0.7 -0.1
v 0 0.7 -0.1
v -0.1 0.8 0.3
v 0 0.8 0.3
v -0.1 0.8 0.2
v 0 0.8 0.2
v -0.1 0.8 -0.1
v 0 0.8 -0.1
v -0.1 0.8 -0.2
v 0 0.8 -0.2
v -0.1 1.1 0.2
v 0 1.1 0.2
v -0.1 1.1 0.1
v 0 1.1 0.1
v -0.1 1.1 0
v 0 1.1 0
v -0.1 1.1 -0.1
v 0 1.1 -0.1
v -0.1 1 0.3
v 0 1 0.3
v -0.2 1 0.1
v -0.1 1 0.1
v 0 1 0.1
v 0.1 1 0.1
v -0.2 1 0
v -0.1 1 0
v 0 1 0
v 0.1 1 0
v -0.1 1 -0.2
v 0 1 -0.2
v -0.1 1.6 0.2
v 0 1.6 0.2
v -0.1 1.6 0.1
v 0 1.6 0.1
v -0.1 1.6 0
v 0 1.6 0
v -0.1 1.6 -0.1
v 0 1.6 -0.1
v -0.1 1.8 0.1
v 0 1.8 0.1
v -0.1 1.8 0
v 0 1.8 0

# faces
f 3/7/1 2/7/1 1/7/1
f 4/7/1 2/7/1 3/7/1
f 5/6/1 4/6/1 3/6/1
f 6/6/1 4/6/1 5/6/1
f 7/5/1 6/5/1 5/5/1
f 8/5/1 6/5/1 7/5/1
f 11/1/1 10/1/1 9/1/1
f 12/1/1 10/1/1 11/1/1
f 13/3/1 12/3/1 11/3/1
f 14/3/1 12/3/1 13/3/1
f 15/4/1 14/4/1 13/4/1
f 16/4/1 14/4/1 15/4/1
f 17/1/1 16/1/1 15/1/1
f 18/1/1 16/1/1 17/1/1
f 19/3/1 18/3/1 17/3/1
f 20/3/1 18/3/1 19/3/1
f 21/4/1 20/4/1 19/4/1
f 22/4/1 20/4/1 21/4/1
f 23/1/1 22/1/1 21/1/1
f 24/1/1 22/1/1 23/1/1
f 25/2/1 24/2/1 23/2/1
f 26/2/1 24/2/1 25/2/1
f 28/7/1 26/7/1 25/7/1
f 29/7/1 26/7/1 28/7/1
f 32/7/1 28/7/1 27/7/1
f 33/7/1 28/7/1 32/7/1
f 34/7/1 30/7/1 29/7/1
f 35/7/1 30/7/1 34/7/1
f 37/6/1 33/6/1 32/6/1
f 37/6/1 32/6/1 31/6/1
f 38/6/1 33/6/1 37/6/1
f 39/6/1 36/6/1 35/6/1
f 39/6/1 35/6/1 34/6/1
f 40/6/1 36/6/1 39/6/1
f 41/5/1 38/5/1 37/5/1
f 42/5/1 38/5/1 41/5/1
f 43/5/1 40/5/1 39/5/1
f 44/5/1 40/5/1 43/5/1
f 46/7/1 43/7/1 42/7/1
f 47/7/1 43/7/1 46/7/1
f 49/7/1 46/7/1 45/7/1
f 49/7/1 48/7/1 47/7/1
f 49/7/1 47/7/1 46/7/1
f 50/7/1 48/7/1 49/7/1
f 51/7/1 48/7/1 50/7/1
f 52/7/1 48/7/1 51/7/1
f 53/6/1 50/6/1 49/6/1
f 54/7/1 51/7/1 50/7/1
f 54/6/1 50/6/1 53/6/1
f 55/6/1 52/6/1 51/6/1
f 55/7/1 51/7/1 54/7/1
f 56/6/1 52/6/1 55/6/1
f 57/5/1 54/5/1 53/5/1
f 57/6/1 55/6/1 54/6/1
f 58/5/1 56/5/1 55/5/1
f 58/6/1 55/6/1 57/6/1
f 59/5/1 57/5/1 53/5/1
f 59/5/1 58/5/1 57/5/1
f 60/5/1 58/5/1 59/5/1
f 61/5/1 56/5/1 58/5/1
f 61/5/1 58/5/1 60/5/1
f 62/5/1 56/5/1 61/5/1
f 63/5/1 61/5/1 60/5/1
f 64/5/1 61/5/1 63/5/1
f 65/1/2 66/1/2 67/1/2
f 67/1/2 66/1/2 68/1/2
f 67/3/2 68/3/2 69/3/2
f 69/3/2 68/3/2 70/3/2
f 69/4/2 70/4/2 71/4/2
f 71/4/2 70/4/2 72/4/2
f 71/1/2 72/1/2 73/1/2
f 73/1/2 72/1/2 74/1/2
f 73/3/2 74/3/2 75/3/2
f 75/3/2 74/3/2 76/3/2
f 75/4/2 76/4/2 77/4/2
f 77/4/2 76/4/2 78/4/2
f 77/1/2 78/1/2 79/1/2
f 79/1/2 78/1/2 80/1/2
f 79/2/2 80/2/2 81/2/2
f 81/2/2 80/2/2 82/2/2
f 81/7/2 82/7/2 84/7/2
f 84/7/2 82/7/2 85/7/2
f 83/7/2 84/7/2 88/7/2
f 88/7/2 84/7/2 89/7/2
f 85/7/2 86/7/2 90/7/2
f 90/7/2 86/7/2 91/7/2
f 88/6/2 89/6/2 93/6/2
f 87/6/2 88/6/2 93/6/2
f 93/6/2 89/6/2 94/6/2
f 91/6/2 92/6/2 95/6/2
f 90/6/2 91/6/2 95/6/2
f 95/6/2 92/6/2 96/6/2
f 93/5/2 94/5/2 97/5/2
f 97/5/2 94/5/2 98/5/2
f 95/5/2 96/5/2 99/5/2
f 99/5/2 96/5/2 100/5/2
f 98/7/2 99/7/2 102/7/2
f 102/7/2 99/7/2 103/7/2
f 101/7/2 102/7/2 105/7/2
f 103/7/2 104/7/2 105/7/2
f 102/7/2 103/7/2 105/7/2
f 105/7/2 104/7/2 106/7/2
f 106/7/2 104/7/2 107/7/2
f 107/7/2 104/7/2 108/7/2
f 105/6/2 106/6/2 109/6/2
f 106/7/2 107/7/2 110/7/2
f 109/6/2 106/6/2 110/6/2
f 107/6/2 108/6/2 111/6/2
f 110/7/2 107/7/2 111/7/2
f 111/6/2 108/6/2 112/6/2
f 109/5/2 110/5/2 113/5/2
f 110/6/2 111/6/2 113/6/2
f 111/5/2 112/5/2 114/5/2
f 113/6/2 111/6/2 114/6/2
f 109/5/2 113/5/2 115/5/2
f 113/5/2 114/5/2 115/5/2
f 115/5/2 114/5/2 116/5/2
f 114/5/2 112/5/2 117/5/2
f 116/5/2 114/5/2 117/5/2
f 117/5/2 112/5/2 118/5/2
f 116/5/2 117/5/2 119/5/2
f 119/5/2 117/5/2 120/5/2
f 121/7/2 122/7/2 123/7/2
f 123/7/2 122/7/2 124/7/2
f 123/6/2 124/6/2 125/6/2
f 125/6/2 124/6/2 126/6/2
f 125/5/2 126/5/2 127/5/2
f 127/5/2 126/5/2 128/5/2
f 132/6/3 130/6/3 129/6/3
f 133/5/3 131/5/3 130/5/3
f 133/6/3 130/6/3 132/6/3
f 134/5/3 131/5/3 133/5/3
f 141/7/3 136/7/3 135/7/3
f 142/7/3 136/7/3 141/7/3
f 143/7/3 138/7/3 137/7/3
f 144/6/3 139/6/3 138/6/3
f 144/7/3 138/7/3 143/7/3
f 145/5/3 140/5/3 139/5/3
f 145/6/3 139/6/3 144/6/3
f 146/5/3 140/5/3 145/5/3
f 160/7/3 148/7/3 147/7/3
f 161/6/3 149/6/3 148/6/3
f 161/7/3 148/7/3 160/7/3
f 162/5/3 150/5/3 149/5/3
f 162/6/3 149/6/3 161/6/3
f 163/5/3 150/5/3 162/5/3
f 167/1/3 152/1/3 151/1/3
f 168/3/3 153/3/3 152/3/3
f 168/1/3 152/1/3 167/1/3
f 169/4/3 154/4/3 153/4/3
f 169/3/3 153/3/3 168/3/3
f 170/1/3 155/1/3 154/1/3
f 170/4/3 154/4/3 169/4/3
f 171/3/3 156/3/3 155/3/3
f 171/1/3 155/1/3 170/1/3
f 172/4/3 157/4/3 156/4/3
f 172/3/3 156/3/3 171/3/3
f 173/1/3 158/1/3 157/1/3
f 173/4/3 157/4/3 172/4/3
f 174/2/3 159/2/3 158/2/3
f 174/1/3 158/1/3 173/1/3
f 175/7/3 160/7/3 159/7/3
f 175/2/3 159/2/3 174/2/3
f 176/7/3 160/7/3 175/7/3
f 179/7/3 164/7/3 163/7/3
f 180/7/3 164/7/3 179/7/3
f 181/5/3 166/5/3 165/5/3
f 182/5/3 166/5/3 181/5/3
f 183/7/3 177/7/3 176/7/3
f 184/6/3 178/6/3 177/6/3
f 184/7/3 177/7/3 183/7/3
f 185/5/3 179/5/3 178/5/3
f 185/6/3 178/6/3 184/6/3
f 186/5/3 179/5/3 185/5/3
f 187/7/4 188/7/4 200/7/4
f 188/6/4 189/6/4 201/6/4
f 200/7/4 188/7/4 201/7/4
f 189/5/4 190/5/4 202/5/4
f 201/6/4 189/6/4 202/6/4
f 202/5/4 190/5/4 203/5/4
f 191/1/4 192/1/4 207/1/4
f 192/3/4 193/3/4 208/3/4
f 207/1/4 192/1/4 208/1/4
f 193/4/4 194/4/4 209/4/4
f 208/3/4 193/3/4 209/3/4
f 194/1/4 195/1/4 210/1/4
f 209/4/4 194/4/4 210/4/4
f 195/3/4 196/3/4 211/3/4
f 210/1/4 195/1/4 211/1/4
f 196/4/4 197/4/4 212/4/4
f 211/3/4 196/3/4 212/3/4
f 197/1/4 198/1/4 213/1/4
f 212/4/4 197/4/4 213/4/4
f 198/2/4 199/2/4 214/2/4
f 213/1/4 198/1/4 214/1/4
f 199/7/4 200/7/4 215/7/4
f 214/2/4 199/2/4 215/2/4
f 215/7/4 200/7/4 216/7/4
f 203/7/4 204/7/4 219/7/4
f 219/7/4 204/7/4 220/7/4
f 205/5/4 206/5/4 221/5/4
f 221/5/4 206/5/4 222/5/4
f 216/7/4 217/7/4 223/7/4
f 217/6/4 218/6/4 224/6/4
f 223/7/4 217/7/4 224/7/4
f 218/5/4 219/5/4 225/5/4
f 224/6/4 218/6/4 225/6/4
f 225/5/4 219/5/4 226/5/4
f 227/7/4 228/7/4 233/7/4
f 233/7/4 228/7/4 234/7/4
f 229/7/4 230/7/4 235/7/4
f 230/6/4 231/6/4 236/6/4
f 235/7/4 230/7/4 236/7/4
f 231/5/4 232/5/4 237/5/4
f 236/6/4 231/6/4 237/6/4
f 237/5/4 232/5/4 238/5/4
f 239/6/4 240/6/4 242/6/4
f 240/5/4 241/5/4 243/5/4
f 242/6/4 240/6/4 243/6/4
f 243/5/4 241/5/4 244/5/4
f 247/1/5 246/1/5 245/1/5
f 248/1/5 246/1/5 247/1/5
f 252/7/5 250/7/5 249/7/5
f 253/7/5 250/7/5 252/7/5
f 255/7/5 252/7/5 251/7/5
f 256/7/5 252/7/5 255/7/5
f 257/7/5 254/7/5 253/7/5
f 258/7/5 254/7/5 257/7/5
f 259/7/5 257/7/5 256/7/5
f 260/7/5 257/7/5 259/7/5
f 263/6/5 262/6/5 261/6/5
f 264/6/5 262/6/5 263/6/5
f 267/6/5 266/6/5 265/6/5
f 268/6/5 266/6/5 267/6/5
f 271/7/5 270/7/5 269/7/5
f 272/7/5 270/7/5 271/7/5
f 275/7/5 274/7/5 273/7/5
f 276/7/5 274/7/5 275/7/5
f 277/5/6 278/5/6 280/5/6
f 280/5/6 278/5/6 281/5/6
f 279/5/6 280/5/6 283/5/6
f 283/5/6 280/5/6 284/5/6
f 281/5/6 282/5/6 285/5/6
f 285/5/6 282/5/6 286/5/6
f 284/5/6 285/5/6 287/5/6
f 287/5/6 285/5/6 288/5/6
f 289/5/6 290/5/6 291/5/6
f 291/5/6 290/5/6 292/5/6
f 293/5/6 294/5/6 295/5/6
f 295/5/6 294/5/6 296/5/6
f 297/5/6 298/5/6 299/5/6
f 299/5/6 298/5/6 300/5/6
