# MagicaVoxel @ Ephtracy

# group
o 

# material
mtllib staffCrystal.vox.mtl
usemtl palette

# normals
vn -1 0 0
vn 1 0 0
vn 0 0 1
vn 0 0 -1
vn 0 -1 0
vn 0 1 0

# texcoords
vt 0.283203 0.5
vt 0.427734 0.5
vt 0.958984 0.5
vt 0.974609 0.5
vt 0.982422 0.5

# verts
v -0.2 0.6 0.2
v -0.2 0.6 -0.1
v -0.2 0.7 0.1
v -0.2 0.7 0
v -0.2 0.8 0.2
v -0.2 0.8 0.1
v -0.2 0.8 0
v -0.2 0.8 -0.1
v -0.2 1 0.2
v -0.2 1 0
v -0.2 1 -0.1
v -0.1 -1.4 0.1
v -0.1 -1.4 0
v -0.1 -1.1 0.1
v -0.1 -1.1 0
v -0.1 -1 0.1
v -0.1 -1 0
v -0.1 -0.9 0.1
v -0.1 -0.9 0
v -0.1 0.1 0.1
v -0.1 0.1 0
v -0.1 0.2 0.1
v -0.1 0.2 0
v -0.1 0.3 0.1
v -0.1 0.3 0
v -0.1 0.6 0.1
v -0.1 0.6 0
v 0 -1.4 0.1
v 0 -1.4 0
v 0 -1.1 0.1
v 0 -1.1 0
v 0 -1 0.1
v 0 -1 0
v 0 -0.9 0.1
v 0 -0.9 0
v 0 0.1 0.1
v 0 0.1 0
v 0 0.2 0.1
v 0 0.2 0
v 0 0.3 0.1
v 0 0.3 0
v 0 0.6 0.1
v 0 0.6 0
v 0.1 0.6 0.2
v 0.1 0.6 -0.1
v 0.1 0.7 0.1
v 0.1 0.7 0
v 0.1 0.8 0.2
v 0.1 0.8 0.1
v 0.1 0.8 0
v 0.1 0.8 -0.1
v 0.1 0.9 0.1
v 0.1 0.9 -0.1
v 0.1 1 0.2
v 0.1 1 -0.1
v -0.2 0.6 0.2
v -0.2 0.8 0.2
v -0.2 1 0.2
v -0.1 0.7 0.2
v -0.1 0.8 0.2
v 0 0.7 0.2
v 0 0.8 0.2
v 0 1 0.2
v 0.1 0.6 0.2
v 0.1 0.8 0.2
v 0.1 1 0.2
v -0.1 -1.4 0.1
v -0.1 -1.1 0.1
v -0.1 -1 0.1
v -0.1 -0.9 0.1
v -0.1 0.1 0.1
v -0.1 0.2 0.1
v -0.1 0.3 0.1
v -0.1 0.6 0.1
v 0 -1.4 0.1
v 0 -1.1 0.1
v 0 -1 0.1
v 0 -0.9 0.1
v 0 0.1 0.1
v 0 0.2 0.1
v 0 0.3 0.1
v 0 0.6 0.1
v -0.1 -1.4 0
v -0.1 -1.1 0
v -0.1 -1 0
v -0.1 -0.9 0
v -0.1 0.1 0
v -0.1 0.2 0
v -0.1 0.3 0
v -0.1 0.6 0
v 0 -1.4 0
v 0 -1.1 0
v 0 -1 0
v 0 -0.9 0
v 0 0.1 0
v 0 0.2 0
v 0 0.3 0
v 0 0.6 0
v -0.2 0.6 -0.1
v -0.2 0.8 -0.1
v -0.2 1 -0.1
v -0.1 0.7 -0.1
v -0.1 0.8 -0.1
v -0.1 0.9 -0.1
v 0 0.7 -0.1
v 0 0.8 -0.1
v 0.1 0.6 -0.1
v 0.1 0.8 -0.1
v 0.1 0.9 -0.1
v 0.1 1 -0.1
v -0.1 -1.4 0.1
v 0 -1.4 0.1
v -0.1 -1.4 0
v 0 -1.4 0
v -0.2 0.6 0.2
v 0.1 0.6 0.2
v -0.1 0.6 0.1
v 0 0.6 0.1
v -0.1 0.6 0
v 0 0.6 0
v -0.2 0.6 -0.1
v 0.1 0.6 -0.1
v -0.2 1 0.2
v 0 1 0.2
v 0.1 1 0.2
v -0.2 1 0
v 0 1 0
v -0.2 1 -0.1
v 0.1 1 -0.1

# faces
f 3/4/1 2/4/1 1/4/1
f 4/4/1 2/4/1 3/4/1
f 5/4/1 3/4/1 1/4/1
f 6/2/1 4/2/1 3/2/1
f 6/4/1 3/4/1 5/4/1
f 7/4/1 2/4/1 4/4/1
f 7/2/1 4/2/1 6/2/1
f 8/4/1 2/4/1 7/4/1
f 9/1/1 6/1/1 5/1/1
f 9/1/1 7/1/1 6/1/1
f 10/3/1 8/3/1 7/3/1
f 10/1/1 7/1/1 9/1/1
f 11/3/1 8/3/1 10/3/1
f 14/5/1 13/5/1 12/5/1
f 15/5/1 13/5/1 14/5/1
f 16/4/1 15/4/1 14/4/1
f 17/4/1 15/4/1 16/4/1
f 18/5/1 17/5/1 16/5/1
f 19/5/1 17/5/1 18/5/1
f 20/4/1 19/4/1 18/4/1
f 21/4/1 19/4/1 20/4/1
f 22/5/1 21/5/1 20/5/1
f 23/5/1 21/5/1 22/5/1
f 24/4/1 23/4/1 22/4/1
f 25/4/1 23/4/1 24/4/1
f 26/5/1 25/5/1 24/5/1
f 27/5/1 25/5/1 26/5/1
f 28/5/2 29/5/2 30/5/2
f 30/5/2 29/5/2 31/5/2
f 30/4/2 31/4/2 32/4/2
f 32/4/2 31/4/2 33/4/2
f 32/5/2 33/5/2 34/5/2
f 34/5/2 33/5/2 35/5/2
f 34/4/2 35/4/2 36/4/2
f 36/4/2 35/4/2 37/4/2
f 36/5/2 37/5/2 38/5/2
f 38/5/2 37/5/2 39/5/2
f 38/4/2 39/4/2 40/4/2
f 40/4/2 39/4/2 41/4/2
f 40/5/2 41/5/2 42/5/2
f 42/5/2 41/5/2 43/5/2
f 44/4/2 45/4/2 46/4/2
f 46/4/2 45/4/2 47/4/2
f 44/4/2 46/4/2 48/4/2
f 46/2/2 47/2/2 49/2/2
f 48/4/2 46/4/2 49/4/2
f 47/4/2 45/4/2 50/4/2
f 49/2/2 47/2/2 50/2/2
f 50/4/2 45/4/2 51/4/2
f 48/3/2 49/3/2 52/3/2
f 49/2/2 50/2/2 52/2/2
f 50/2/2 51/2/2 52/2/2
f 52/2/2 51/2/2 53/2/2
f 48/3/2 52/3/2 54/3/2
f 52/3/2 53/3/2 54/3/2
f 54/3/2 53/3/2 55/3/2
f 59/4/3 57/4/3 56/4/3
f 60/1/3 58/1/3 57/1/3
f 60/4/3 57/4/3 59/4/3
f 61/4/3 59/4/3 56/4/3
f 61/2/3 60/2/3 59/2/3
f 62/1/3 58/1/3 60/1/3
f 62/2/3 60/2/3 61/2/3
f 63/1/3 58/1/3 62/1/3
f 64/4/3 61/4/3 56/4/3
f 64/4/3 62/4/3 61/4/3
f 65/3/3 63/3/3 62/3/3
f 65/4/3 62/4/3 64/4/3
f 66/3/3 63/3/3 65/3/3
f 75/5/3 68/5/3 67/5/3
f 76/4/3 69/4/3 68/4/3
f 76/5/3 68/5/3 75/5/3
f 77/5/3 70/5/3 69/5/3
f 77/4/3 69/4/3 76/4/3
f 78/4/3 71/4/3 70/4/3
f 78/5/3 70/5/3 77/5/3
f 79/5/3 72/5/3 71/5/3
f 79/4/3 71/4/3 78/4/3
f 80/4/3 73/4/3 72/4/3
f 80/5/3 72/5/3 79/5/3
f 81/5/3 74/5/3 73/5/3
f 81/4/3 73/4/3 80/4/3
f 82/5/3 74/5/3 81/5/3
f 83/5/4 84/5/4 91/5/4
f 84/4/4 85/4/4 92/4/4
f 91/5/4 84/5/4 92/5/4
f 85/5/4 86/5/4 93/5/4
f 92/4/4 85/4/4 93/4/4
f 86/4/4 87/4/4 94/4/4
f 93/5/4 86/5/4 94/5/4
f 87/5/4 88/5/4 95/5/4
f 94/4/4 87/4/4 95/4/4
f 88/4/4 89/4/4 96/4/4
f 95/5/4 88/5/4 96/5/4
f 89/5/4 90/5/4 97/5/4
f 96/4/4 89/4/4 97/4/4
f 97/5/4 90/5/4 98/5/4
f 99/4/4 100/4/4 102/4/4
f 100/3/4 101/3/4 103/3/4
f 102/4/4 100/4/4 103/4/4
f 103/3/4 101/3/4 104/3/4
f 99/4/4 102/4/4 105/4/4
f 102/2/4 103/2/4 105/2/4
f 103/2/4 104/2/4 105/2/4
f 105/2/4 104/2/4 106/2/4
f 99/4/4 105/4/4 107/4/4
f 105/4/4 106/4/4 107/4/4
f 106/2/4 104/2/4 108/2/4
f 107/4/4 106/4/4 108/4/4
f 104/3/4 101/3/4 109/3/4
f 108/2/4 104/2/4 109/2/4
f 109/3/4 101/3/4 110/3/4
f 113/5/5 112/5/5 111/5/5
f 114/5/5 112/5/5 113/5/5
f 117/4/5 116/4/5 115/4/5
f 118/4/5 116/4/5 117/4/5
f 119/4/5 117/4/5 115/4/5
f 120/4/5 116/4/5 118/4/5
f 121/4/5 119/4/5 115/4/5
f 121/4/5 120/4/5 119/4/5
f 122/4/5 116/4/5 120/4/5
f 122/4/5 120/4/5 121/4/5
f 123/1/6 124/1/6 126/1/6
f 124/3/6 125/3/6 127/3/6
f 126/1/6 124/1/6 127/1/6
f 126/3/6 127/3/6 128/3/6
f 127/3/6 125/3/6 129/3/6
f 128/3/6 127/3/6 129/3/6
