# MagicaVoxel @ Ephtracy

# group
o 

# material
mtllib swordBirdKing.vox.mtl
usemtl palette

# normals
vn -1 0 0
vn 1 0 0
vn 0 0 1
vn 0 0 -1
vn 0 -1 0
vn 0 1 0

# texcoords
vt 0.208984 0.5
vt 0.416016 0.5
vt 0.958984 0.5
vt 0.982422 0.5

# verts
v -0.1 -0.4 0.1
v -0.1 -0.4 0
v -0.1 -0.3 0.1
v -0.1 -0.3 0
v -0.1 0 0.3
v -0.1 0 0.1
v -0.1 0 0
v -0.1 0 -0.2
v -0.1 0.1 0.2
v -0.1 0.1 0.1
v -0.1 0.1 0
v -0.1 0.1 -0.1
v -0.1 0.2 0.3
v -0.1 0.2 0.2
v -0.1 0.2 0.1
v -0.1 0.2 0
v -0.1 0.2 -0.1
v -0.1 0.2 -0.2
v -0.1 0.3 0.2
v -0.1 0.3 0.1
v -0.1 0.3 0
v -0.1 0.3 -0.1
v -0.1 1 0.2
v -0.1 1 0.1
v -0.1 1.1 0.2
v -0.1 1.1 0.1
v -0.1 1.2 0.2
v -0.1 1.2 0.1
v -0.1 1.3 0.2
v -0.1 1.3 0.1
v -0.1 1.4 0.1
v -0.1 1.4 0
v 0 -0.4 0.1
v 0 -0.4 0
v 0 -0.3 0.1
v 0 -0.3 0
v 0 0 0.3
v 0 0 0.1
v 0 0 0
v 0 0 -0.2
v 0 0.1 0.2
v 0 0.1 0.1
v 0 0.1 0
v 0 0.1 -0.1
v 0 0.2 0.3
v 0 0.2 0.2
v 0 0.2 0.1
v 0 0.2 0
v 0 0.2 -0.1
v 0 0.2 -0.2
v 0 0.3 0.2
v 0 0.3 0.1
v 0 0.3 0
v 0 0.3 -0.1
v 0 1 0.2
v 0 1 0.1
v 0 1.1 0.2
v 0 1.1 0.1
v 0 1.2 0.2
v 0 1.2 0.1
v 0 1.3 0.2
v 0 1.3 0.1
v 0 1.4 0.1
v 0 1.4 0
v -0.1 0 0.3
v -0.1 0.2 0.3
v 0 0 0.3
v 0 0.2 0.3
v -0.1 0.2 0.2
v -0.1 0.3 0.2
v -0.1 1 0.2
v -0.1 1.1 0.2
v -0.1 1.2 0.2
v -0.1 1.3 0.2
v 0 0.2 0.2
v 0 0.3 0.2
v 0 1 0.2
v 0 1.1 0.2
v 0 1.2 0.2
v 0 1.3 0.2
v -0.1 -0.4 0.1
v -0.1 -0.3 0.1
v -0.1 0 0.1
v -0.1 0.3 0.1
v -0.1 1 0.1
v -0.1 1.1 0.1
v -0.1 1.2 0.1
v -0.1 1.3 0.1
v -0.1 1.4 0.1
v 0 -0.4 0.1
v 0 -0.3 0.1
v 0 0 0.1
v 0 0.3 0.1
v 0 1 0.1
v 0 1.1 0.1
v 0 1.2 0.1
v 0 1.3 0.1
v 0 1.4 0.1
v -0.1 -0.4 0
v -0.1 -0.3 0
v -0.1 0 0
v -0.1 0.3 0
v -0.1 1.4 0
v 0 -0.4 0
v 0 -0.3 0
v 0 0 0
v 0 0.3 0
v 0 1.4 0
v -0.1 0.2 -0.1
v -0.1 0.3 -0.1
v 0 0.2 -0.1
v 0 0.3 -0.1
v -0.1 0 -0.2
v -0.1 0.2 -0.2
v 0 0 -0.2
v 0 0.2 -0.2
v -0.1 -0.4 0.1
v 0 -0.4 0.1
v -0.1 -0.4 0
v 0 -0.4 0
v -0.1 0 0.3
v 0 0 0.3
v -0.1 0 0.1
v 0 0 0.1
v -0.1 0 0
v 0 0 0
v -0.1 0 -0.2
v 0 0 -0.2
v -0.1 1 0.2
v 0 1 0.2
v -0.1 1 0.1
v 0 1 0.1
v -0.1 1.2 0.2
v 0 1.2 0.2
v -0.1 1.2 0.1
v 0 1.2 0.1
v -0.1 0.2 0.3
v 0 0.2 0.3
v -0.1 0.2 0.2
v 0 0.2 0.2
v -0.1 0.2 -0.1
v 0 0.2 -0.1
v -0.1 0.2 -0.2
v 0 0.2 -0.2
v -0.1 0.3 0.2
v 0 0.3 0.2
v -0.1 0.3 0.1
v 0 0.3 0.1
v -0.1 0.3 0
v 0 0.3 0
v -0.1 0.3 -0.1
v 0 0.3 -0.1
v -0.1 1.1 0.2
v 0 1.1 0.2
v -0.1 1.1 0.1
v 0 1.1 0.1
v -0.1 1.3 0.2
v 0 1.3 0.2
v -0.1 1.3 0.1
v 0 1.3 0.1
v -0.1 1.4 0.1
v 0 1.4 0.1
v -0.1 1.4 0
v 0 1.4 0

# faces
f 3/1/1 2/1/1 1/1/1
f 4/1/1 2/1/1 3/1/1
f 6/2/1 4/2/1 3/2/1
f 7/2/1 4/2/1 6/2/1
f 9/1/1 7/1/1 6/1/1
f 9/1/1 8/1/1 7/1/1
f 9/1/1 6/1/1 5/1/1
f 10/1/1 8/1/1 9/1/1
f 11/1/1 8/1/1 10/1/1
f 12/1/1 8/1/1 11/1/1
f 13/1/1 9/1/1 5/1/1
f 14/4/1 10/4/1 9/4/1
f 14/1/1 9/1/1 13/1/1
f 15/1/1 11/1/1 10/1/1
f 15/4/1 10/4/1 14/4/1
f 16/4/1 12/4/1 11/4/1
f 16/1/1 11/1/1 15/1/1
f 17/1/1 8/1/1 12/1/1
f 17/4/1 12/4/1 16/4/1
f 18/1/1 8/1/1 17/1/1
f 19/4/1 16/4/1 15/4/1
f 19/4/1 17/4/1 16/4/1
f 19/4/1 15/4/1 14/4/1
f 20/4/1 17/4/1 19/4/1
f 21/4/1 17/4/1 20/4/1
f 22/4/1 17/4/1 21/4/1
f 24/3/1 21/3/1 20/3/1
f 25/3/1 24/3/1 23/3/1
f 26/3/1 21/3/1 24/3/1
f 26/3/1 24/3/1 25/3/1
f 28/3/1 21/3/1 26/3/1
f 29/3/1 28/3/1 27/3/1
f 30/3/1 21/3/1 28/3/1
f 30/3/1 28/3/1 29/3/1
f 31/3/1 21/3/1 30/3/1
f 32/3/1 21/3/1 31/3/1
f 33/1/2 34/1/2 35/1/2
f 35/1/2 34/1/2 36/1/2
f 35/2/2 36/2/2 38/2/2
f 38/2/2 36/2/2 39/2/2
f 38/1/2 39/1/2 41/1/2
f 39/1/2 40/1/2 41/1/2
f 37/1/2 38/1/2 41/1/2
f 41/1/2 40/1/2 42/1/2
f 42/1/2 40/1/2 43/1/2
f 43/1/2 40/1/2 44/1/2
f 37/1/2 41/1/2 45/1/2
f 41/4/2 42/4/2 46/4/2
f 45/1/2 41/1/2 46/1/2
f 42/1/2 43/1/2 47/1/2
f 46/4/2 42/4/2 47/4/2
f 43/4/2 44/4/2 48/4/2
f 47/1/2 43/1/2 48/1/2
f 44/1/2 40/1/2 49/1/2
f 48/4/2 44/4/2 49/4/2
f 49/1/2 40/1/2 50/1/2
f 47/4/2 48/4/2 51/4/2
f 48/4/2 49/4/2 51/4/2
f 46/4/2 47/4/2 51/4/2
f 51/4/2 49/4/2 52/4/2
f 52/4/2 49/4/2 53/4/2
f 53/4/2 49/4/2 54/4/2
f 52/3/2 53/3/2 56/3/2
f 55/3/2 56/3/2 57/3/2
f 56/3/2 53/3/2 58/3/2
f 57/3/2 56/3/2 58/3/2
f 58/3/2 53/3/2 60/3/2
f 59/3/2 60/3/2 61/3/2
f 60/3/2 53/3/2 62/3/2
f 61/3/2 60/3/2 62/3/2
f 62/3/2 53/3/2 63/3/2
f 63/3/2 53/3/2 64/3/2
f 67/1/3 66/1/3 65/1/3
f 68/1/3 66/1/3 67/1/3
f 75/4/3 70/4/3 69/4/3
f 76/4/3 70/4/3 75/4/3
f 77/3/3 72/3/3 71/3/3
f 78/3/3 72/3/3 77/3/3
f 79/3/3 74/3/3 73/3/3
f 80/3/3 74/3/3 79/3/3
f 90/1/3 82/1/3 81/1/3
f 91/2/3 83/2/3 82/2/3
f 91/1/3 82/1/3 90/1/3
f 92/2/3 83/2/3 91/2/3
f 93/3/3 85/3/3 84/3/3
f 94/3/3 85/3/3 93/3/3
f 95/3/3 87/3/3 86/3/3
f 96/3/3 87/3/3 95/3/3
f 97/3/3 89/3/3 88/3/3
f 98/3/3 89/3/3 97/3/3
f 99/1/4 100/1/4 104/1/4
f 100/2/4 101/2/4 105/2/4
f 104/1/4 100/1/4 105/1/4
f 105/2/4 101/2/4 106/2/4
f 102/3/4 103/3/4 107/3/4
f 107/3/4 103/3/4 108/3/4
f 109/4/4 110/4/4 111/4/4
f 111/4/4 110/4/4 112/4/4
f 113/1/4 114/1/4 115/1/4
f 115/1/4 114/1/4 116/1/4
f 119/1/5 118/1/5 117/1/5
f 120/1/5 118/1/5 119/1/5
f 123/1/5 122/1/5 121/1/5
f 124/1/5 122/1/5 123/1/5
f 127/1/5 126/1/5 125/1/5
f 128/1/5 126/1/5 127/1/5
f 131/3/5 130/3/5 129/3/5
f 132/3/5 130/3/5 131/3/5
f 135/3/5 134/3/5 133/3/5
f 136/3/5 134/3/5 135/3/5
f 137/1/6 138/1/6 139/1/6
f 139/1/6 138/1/6 140/1/6
f 141/1/6 142/1/6 143/1/6
f 143/1/6 142/1/6 144/1/6
f 145/4/6 146/4/6 147/4/6
f 147/4/6 146/4/6 148/4/6
f 149/4/6 150/4/6 151/4/6
f 151/4/6 150/4/6 152/4/6
f 153/3/6 154/3/6 155/3/6
f 155/3/6 154/3/6 156/3/6
f 157/3/6 158/3/6 159/3/6
f 159/3/6 158/3/6 160/3/6
f 161/3/6 162/3/6 163/3/6
f 163/3/6 162/3/6 164/3/6
