# MagicaVoxel @ Ephtracy

# group
o 

# material
mtllib sword.vox.mtl
usemtl palette

# normals
vn -1 0 0
vn 1 0 0
vn 0 0 1
vn 0 0 -1
vn 0 -1 0
vn 0 1 0

# texcoords
vt 0.396484 0.5
vt 0.958984 0.5
vt 0.970703 0.5
vt 0.978516 0.5
vt 0.986328 0.5

# verts
v -0.1 -0.5 0.2
v -0.1 -0.5 -0.1
v -0.1 -0.4 0.1
v -0.1 -0.4 0
v -0.1 -0.3 0.1
v -0.1 -0.3 0
v -0.1 -0.2 0.2
v -0.1 -0.2 0.1
v -0.1 -0.2 0
v -0.1 -0.2 -0.1
v -0.1 0 0.4
v -0.1 0 0.1
v -0.1 0 0
v -0.1 0 -0.3
v -0.1 0.1 0.3
v -0.1 0.1 0.2
v -0.1 0.1 -0.1
v -0.1 0.1 -0.2
v -0.1 0.3 0.4
v -0.1 0.3 0.3
v -0.1 0.3 0.2
v -0.1 0.3 0.1
v -0.1 0.3 0
v -0.1 0.3 -0.1
v -0.1 0.3 -0.2
v -0.1 0.3 -0.3
v -0.1 1.1 0.2
v -0.1 1.1 0.1
v -0.1 1.1 0
v -0.1 1.1 -0.1
v -0.1 1.2 0.1
v -0.1 1.2 0
v -0.1 1.3 0.2
v -0.1 1.3 0.1
v -0.1 1.3 0
v -0.1 1.3 -0.1
v -0.1 1.5 0.1
v -0.1 1.5 0
v 0 -0.5 0.2
v 0 -0.5 -0.1
v 0 -0.4 0.1
v 0 -0.4 0
v 0 -0.3 0.1
v 0 -0.3 0
v 0 -0.2 0.2
v 0 -0.2 0.1
v 0 -0.2 0
v 0 -0.2 -0.1
v 0 0 0.4
v 0 0 0.1
v 0 0 0
v 0 0 -0.3
v 0 0.1 0.3
v 0 0.1 0.2
v 0 0.1 -0.1
v 0 0.1 -0.2
v 0 0.3 0.4
v 0 0.3 0.3
v 0 0.3 0.2
v 0 0.3 0.1
v 0 0.3 0
v 0 0.3 -0.1
v 0 0.3 -0.2
v 0 0.3 -0.3
v 0 1.1 0.2
v 0 1.1 0.1
v 0 1.1 0
v 0 1.1 -0.1
v 0 1.2 0.1
v 0 1.2 0
v 0 1.3 0.2
v 0 1.3 0.1
v 0 1.3 0
v 0 1.3 -0.1
v 0 1.5 0.1
v 0 1.5 0
v -0.1 0 0.4
v -0.1 0.3 0.4
v 0 0 0.4
v 0 0.3 0.4
v -0.1 -0.5 0.2
v -0.1 -0.2 0.2
v -0.1 0.1 0.2
v -0.1 0.3 0.2
v -0.1 1.1 0.2
v -0.1 1.3 0.2
v 0 -0.5 0.2
v 0 -0.2 0.2
v 0 0.1 0.2
v 0 0.3 0.2
v 0 1.1 0.2
v 0 1.3 0.2
v -0.1 -0.2 0.1
v -0.1 0 0.1
v -0.1 1.3 0.1
v -0.1 1.5 0.1
v 0 -0.2 0.1
v 0 0 0.1
v 0 1.3 0.1
v 0 1.5 0.1
v -0.1 -0.4 0
v -0.1 -0.3 0
v 0 -0.4 0
v 0 -0.3 0
v -0.1 0.1 -0.2
v -0.1 0.3 -0.2
v 0 0.1 -0.2
v 0 0.3 -0.2
v -0.1 0.1 0.3
v -0.1 0.3 0.3
v 0 0.1 0.3
v 0 0.3 0.3
v -0.1 -0.4 0.1
v -0.1 -0.3 0.1
v 0 -0.4 0.1
v 0 -0.3 0.1
v -0.1 -0.2 0
v -0.1 0 0
v -0.1 1.3 0
v -0.1 1.5 0
v 0 -0.2 0
v 0 0 0
v 0 1.3 0
v 0 1.5 0
v -0.1 -0.5 -0.1
v -0.1 -0.2 -0.1
v -0.1 0.1 -0.1
v -0.1 0.3 -0.1
v -0.1 1.1 -0.1
v -0.1 1.3 -0.1
v 0 -0.5 -0.1
v 0 -0.2 -0.1
v 0 0.1 -0.1
v 0 0.3 -0.1
v 0 1.1 -0.1
v 0 1.3 -0.1
v -0.1 0 -0.3
v -0.1 0.3 -0.3
v 0 0 -0.3
v 0 0.3 -0.3
v -0.1 -0.5 0.2
v 0 -0.5 0.2
v -0.1 -0.5 -0.1
v 0 -0.5 -0.1
v -0.1 -0.3 0.1
v 0 -0.3 0.1
v -0.1 -0.3 0
v 0 -0.3 0
v -0.1 0 0.4
v 0 0 0.4
v -0.1 0 0.1
v 0 0 0.1
v -0.1 0 0
v 0 0 0
v -0.1 0 -0.3
v 0 0 -0.3
v -0.1 -0.4 0.1
v 0 -0.4 0.1
v -0.1 -0.4 0
v 0 -0.4 0
v -0.1 -0.2 0.2
v 0 -0.2 0.2
v -0.1 -0.2 0.1
v 0 -0.2 0.1
v -0.1 -0.2 0
v 0 -0.2 0
v -0.1 -0.2 -0.1
v 0 -0.2 -0.1
v -0.1 0.1 0.3
v 0 0.1 0.3
v -0.1 0.1 0.2
v 0 0.1 0.2
v -0.1 0.1 -0.1
v 0 0.1 -0.1
v -0.1 0.1 -0.2
v 0 0.1 -0.2
v -0.1 0.3 0.4
v 0 0.3 0.4
v -0.1 0.3 0.3
v 0 0.3 0.3
v -0.1 0.3 -0.2
v 0 0.3 -0.2
v -0.1 0.3 -0.3
v 0 0.3 -0.3
v -0.1 1.3 0.2
v 0 1.3 0.2
v -0.1 1.3 0.1
v 0 1.3 0.1
v -0.1 1.3 0
v 0 1.3 0
v -0.1 1.3 -0.1
v 0 1.3 -0.1
v -0.1 1.5 0.1
v 0 1.5 0.1
v -0.1 1.5 0
v 0 1.5 0

# faces
f 3/5/1 2/5/1 1/5/1
f 4/5/1 2/5/1 3/5/1
f 5/5/1 3/5/1 1/5/1
f 6/5/1 2/5/1 4/5/1
f 7/5/1 5/5/1 1/5/1
f 7/5/1 6/5/1 5/5/1
f 8/5/1 6/5/1 7/5/1
f 9/5/1 2/5/1 6/5/1
f 9/5/1 6/5/1 8/5/1
f 10/5/1 2/5/1 9/5/1
f 12/1/1 9/1/1 8/1/1
f 13/1/1 9/1/1 12/1/1
f 15/5/1 13/5/1 12/5/1
f 15/5/1 14/5/1 13/5/1
f 15/5/1 12/5/1 11/5/1
f 16/5/1 14/5/1 15/5/1
f 17/5/1 14/5/1 16/5/1
f 18/5/1 14/5/1 17/5/1
f 19/5/1 15/5/1 11/5/1
f 20/5/1 15/5/1 19/5/1
f 21/5/1 17/5/1 16/5/1
f 22/5/1 17/5/1 21/5/1
f 23/5/1 17/5/1 22/5/1
f 24/5/1 17/5/1 23/5/1
f 25/5/1 14/5/1 18/5/1
f 26/5/1 14/5/1 25/5/1
f 27/3/1 22/3/1 21/3/1
f 28/4/1 23/4/1 22/4/1
f 28/3/1 22/3/1 27/3/1
f 29/3/1 24/3/1 23/3/1
f 29/4/1 23/4/1 28/4/1
f 30/3/1 24/3/1 29/3/1
f 31/2/1 28/2/1 27/2/1
f 31/4/1 29/4/1 28/4/1
f 32/2/1 30/2/1 29/2/1
f 32/4/1 29/4/1 31/4/1
f 33/2/1 31/2/1 27/2/1
f 33/2/1 32/2/1 31/2/1
f 34/2/1 32/2/1 33/2/1
f 35/2/1 30/2/1 32/2/1
f 35/2/1 32/2/1 34/2/1
f 36/2/1 30/2/1 35/2/1
f 37/2/1 35/2/1 34/2/1
f 38/2/1 35/2/1 37/2/1
f 39/5/2 40/5/2 41/5/2
f 41/5/2 40/5/2 42/5/2
f 39/5/2 41/5/2 43/5/2
f 42/5/2 40/5/2 44/5/2
f 39/5/2 43/5/2 45/5/2
f 43/5/2 44/5/2 45/5/2
f 45/5/2 44/5/2 46/5/2
f 44/5/2 40/5/2 47/5/2
f 46/5/2 44/5/2 47/5/2
f 47/5/2 40/5/2 48/5/2
f 46/1/2 47/1/2 50/1/2
f 50/1/2 47/1/2 51/1/2
f 50/5/2 51/5/2 53/5/2
f 51/5/2 52/5/2 53/5/2
f 49/5/2 50/5/2 53/5/2
f 53/5/2 52/5/2 54/5/2
f 54/5/2 52/5/2 55/5/2
f 55/5/2 52/5/2 56/5/2
f 49/5/2 53/5/2 57/5/2
f 57/5/2 53/5/2 58/5/2
f 54/5/2 55/5/2 59/5/2
f 59/5/2 55/5/2 60/5/2
f 60/5/2 55/5/2 61/5/2
f 61/5/2 55/5/2 62/5/2
f 56/5/2 52/5/2 63/5/2
f 63/5/2 52/5/2 64/5/2
f 59/3/2 60/3/2 65/3/2
f 60/4/2 61/4/2 66/4/2
f 65/3/2 60/3/2 66/3/2
f 61/3/2 62/3/2 67/3/2
f 66/4/2 61/4/2 67/4/2
f 67/3/2 62/3/2 68/3/2
f 65/2/2 66/2/2 69/2/2
f 66/4/2 67/4/2 69/4/2
f 67/2/2 68/2/2 70/2/2
f 69/4/2 67/4/2 70/4/2
f 65/2/2 69/2/2 71/2/2
f 69/2/2 70/2/2 71/2/2
f 71/2/2 70/2/2 72/2/2
f 70/2/2 68/2/2 73/2/2
f 72/2/2 70/2/2 73/2/2
f 73/2/2 68/2/2 74/2/2
f 72/2/2 73/2/2 75/2/2
f 75/2/2 73/2/2 76/2/2
f 79/5/3 78/5/3 77/5/3
f 80/5/3 78/5/3 79/5/3
f 87/5/3 82/5/3 81/5/3
f 88/5/3 82/5/3 87/5/3
f 89/5/3 84/5/3 83/5/3
f 90/3/3 85/3/3 84/3/3
f 90/5/3 84/5/3 89/5/3
f 91/2/3 86/2/3 85/2/3
f 91/3/3 85/3/3 90/3/3
f 92/2/3 86/2/3 91/2/3
f 97/1/3 94/1/3 93/1/3
f 98/1/3 94/1/3 97/1/3
f 99/2/3 96/2/3 95/2/3
f 100/2/3 96/2/3 99/2/3
f 103/5/3 102/5/3 101/5/3
f 104/5/3 102/5/3 103/5/3
f 107/5/3 106/5/3 105/5/3
f 108/5/3 106/5/3 107/5/3
f 109/5/4 110/5/4 111/5/4
f 111/5/4 110/5/4 112/5/4
f 113/5/4 114/5/4 115/5/4
f 115/5/4 114/5/4 116/5/4
f 117/1/4 118/1/4 121/1/4
f 121/1/4 118/1/4 122/1/4
f 119/2/4 120/2/4 123/2/4
f 123/2/4 120/2/4 124/2/4
f 125/5/4 126/5/4 131/5/4
f 131/5/4 126/5/4 132/5/4
f 127/5/4 128/5/4 133/5/4
f 128/3/4 129/3/4 134/3/4
f 133/5/4 128/5/4 134/5/4
f 129/2/4 130/2/4 135/2/4
f 134/3/4 129/3/4 135/3/4
f 135/2/4 130/2/4 136/2/4
f 137/5/4 138/5/4 139/5/4
f 139/5/4 138/5/4 140/5/4
f 143/5/5 142/5/5 141/5/5
f 144/5/5 142/5/5 143/5/5
f 147/5/5 146/5/5 145/5/5
f 148/5/5 146/5/5 147/5/5
f 151/5/5 150/5/5 149/5/5
f 152/5/5 150/5/5 151/5/5
f 155/5/5 154/5/5 153/5/5
f 156/5/5 154/5/5 155/5/5
f 157/5/6 158/5/6 159/5/6
f 159/5/6 158/5/6 160/5/6
f 161/5/6 162/5/6 163/5/6
f 163/5/6 162/5/6 164/5/6
f 165/5/6 166/5/6 167/5/6
f 167/5/6 166/5/6 168/5/6
f 169/5/6 170/5/6 171/5/6
f 171/5/6 170/5/6 172/5/6
f 173/5/6 174/5/6 175/5/6
f 175/5/6 174/5/6 176/5/6
f 177/5/6 178/5/6 179/5/6
f 179/5/6 178/5/6 180/5/6
f 181/5/6 182/5/6 183/5/6
f 183/5/6 182/5/6 184/5/6
f 185/2/6 186/2/6 187/2/6
f 187/2/6 186/2/6 188/2/6
f 189/2/6 190/2/6 191/2/6
f 191/2/6 190/2/6 192/2/6
f 193/2/6 194/2/6 195/2/6
f 195/2/6 194/2/6 196/2/6
