# MagicaVoxel @ Ephtracy

# group
o 

# material
mtllib swordCrystal.vox.mtl
usemtl palette

# normals
vn -1 0 0
vn 1 0 0
vn 0 0 1
vn 0 0 -1
vn 0 -1 0
vn 0 1 0

# texcoords
vt 0.283203 0.5
vt 0.427734 0.5
vt 0.958984 0.5
vt 0.974609 0.5
vt 0.982422 0.5

# verts
v -0.2 0 0.2
v -0.2 0 -0.1
v -0.2 0.1 0.2
v -0.2 0.1 -0.1
v -0.2 0.7 0.3
v -0.2 0.7 0.1
v -0.2 0.8 0.3
v -0.2 0.8 0.1
v -0.2 1 0.3
v -0.2 1 0.1
v -0.1 -0.5 0.1
v -0.1 -0.5 0
v -0.1 -0.4 0.1
v -0.1 -0.4 0
v -0.1 -0.3 0.1
v -0.1 -0.3 0
v -0.1 0 0.1
v -0.1 0 0
v -0.1 0.1 0.2
v -0.1 0.1 -0.1
v -0.1 0.3 0.2
v -0.1 0.3 -0.1
v -0.1 0.3 -0.2
v -0.1 0.4 0.2
v -0.1 0.4 -0.1
v -0.1 0.5 0.2
v -0.1 0.5 0.1
v -0.1 0.5 -0.1
v -0.1 0.5 -0.2
v -0.1 0.6 -0.1
v -0.1 0.6 -0.2
v -0.1 0.7 0.2
v -0.1 0.7 0.1
v -0.1 0.8 0.1
v -0.1 0.8 -0.1
v -0.1 0.9 0
v -0.1 0.9 -0.1
v -0.1 1 0.2
v -0.1 1 0.1
v -0.1 1 -0.1
v -0.1 1 -0.2
v -0.1 1.1 -0.1
v -0.1 1.1 -0.2
v -0.1 1.2 0.2
v -0.1 1.2 0
v -0.1 1.2 -0.1
v -0.1 1.2 -0.2
v -0.1 1.4 0.2
v -0.1 1.4 0.1
v -0.1 1.4 0
v -0.1 1.4 -0.1
v -0.1 1.5 0.1
v -0.1 1.5 0
v 0 -0.5 0.1
v 0 -0.5 0
v 0 -0.4 0.1
v 0 -0.4 0
v 0 -0.3 0.1
v 0 -0.3 0
v 0 0 0.1
v 0 0 0
v 0 0.1 0.2
v 0 0.1 -0.1
v 0 0.3 0.2
v 0 0.3 0
v 0 0.3 -0.1
v 0 0.4 0.2
v 0 0.4 0
v 0 0.5 0.2
v 0 0.5 0.1
v 0 0.5 0
v 0 0.6 0
v 0 0.6 -0.1
v 0 0.7 0.3
v 0 0.7 0.2
v 0 0.8 0.3
v 0 0.8 0.2
v 0 0.8 0.1
v 0 0.8 -0.1
v 0 0.9 0
v 0 0.9 -0.1
v 0 1 0.3
v 0 1 0.2
v 0 1 -0.1
v 0 1 -0.2
v 0 1.1 -0.1
v 0 1.1 -0.2
v 0 1.2 0.2
v 0 1.2 0
v 0 1.2 -0.1
v 0 1.2 -0.2
v 0 1.4 0.2
v 0 1.4 0.1
v 0 1.4 0
v 0 1.4 -0.1
v 0 1.5 0.1
v 0 1.5 0
v 0.1 0 0.2
v 0.1 0 -0.1
v 0.1 0.1 0.2
v 0.1 0.1 -0.1
v 0.1 0.3 0
v 0.1 0.3 -0.2
v 0.1 0.5 0
v 0.1 0.5 -0.2
v 0.1 0.6 0
v 0.1 0.6 -0.2
v -0.2 0.7 0.3
v -0.2 0.8 0.3
v -0.2 1 0.3
v 0 0.7 0.3
v 0 0.8 0.3
v 0 1 0.3
v -0.2 0 0.2
v -0.2 0.1 0.2
v -0.1 0.1 0.2
v -0.1 0.3 0.2
v -0.1 0.4 0.2
v -0.1 0.5 0.2
v -0.1 0.7 0.2
v -0.1 1 0.2
v -0.1 1.2 0.2
v -0.1 1.4 0.2
v 0 0.1 0.2
v 0 0.3 0.2
v 0 0.4 0.2
v 0 0.5 0.2
v 0 0.7 0.2
v 0 1 0.2
v 0 1.2 0.2
v 0 1.4 0.2
v 0.1 0 0.2
v 0.1 0.1 0.2
v -0.1 -0.5 0.1
v -0.1 -0.4 0.1
v -0.1 -0.3 0.1
v -0.1 0 0.1
v -0.1 1.4 0.1
v -0.1 1.5 0.1
v 0 -0.5 0.1
v 0 -0.4 0.1
v 0 -0.3 0.1
v 0 0 0.1
v 0 1.4 0.1
v 0 1.5 0.1
v 0 0.3 0
v 0 0.4 0
v 0 0.5 0
v 0 0.6 0
v 0.1 0.3 0
v 0.1 0.5 0
v 0.1 0.6 0
v -0.2 0.7 0.1
v -0.2 0.8 0.1
v -0.2 1 0.1
v -0.1 0.7 0.1
v -0.1 0.8 0.1
v -0.1 1 0.1
v -0.1 -0.5 0
v -0.1 -0.4 0
v -0.1 -0.3 0
v -0.1 0 0
v -0.1 1.4 0
v -0.1 1.5 0
v 0 -0.5 0
v 0 -0.4 0
v 0 -0.3 0
v 0 0 0
v 0 1.4 0
v 0 1.5 0
v -0.2 0 -0.1
v -0.2 0.1 -0.1
v -0.1 0.1 -0.1
v -0.1 0.3 -0.1
v -0.1 0.6 -0.1
v -0.1 0.8 -0.1
v -0.1 0.9 -0.1
v -0.1 1 -0.1
v -0.1 1.2 -0.1
v -0.1 1.4 -0.1
v 0 0.1 -0.1
v 0 0.3 -0.1
v 0 0.6 -0.1
v 0 0.8 -0.1
v 0 0.9 -0.1
v 0 1 -0.1
v 0 1.2 -0.1
v 0 1.4 -0.1
v 0.1 0 -0.1
v 0.1 0.1 -0.1
v -0.1 0.3 -0.2
v -0.1 0.5 -0.2
v -0.1 0.6 -0.2
v -0.1 1 -0.2
v -0.1 1.1 -0.2
v -0.1 1.2 -0.2
v 0 1 -0.2
v 0 1.1 -0.2
v 0 1.2 -0.2
v 0.1 0.3 -0.2
v 0.1 0.5 -0.2
v 0.1 0.6 -0.2
v -0.1 -0.5 0.1
v 0 -0.5 0.1
v -0.1 -0.5 0
v 0 -0.5 0
v -0.2 0 0.2
v 0.1 0 0.2
v -0.1 0 0.1
v 0 0 0.1
v -0.1 0 0
v 0 0 0
v -0.2 0 -0.1
v 0.1 0 -0.1
v 0 0.3 0
v 0.1 0.3 0
v -0.1 0.3 -0.1
v 0 0.3 -0.1
v -0.1 0.3 -0.2
v 0.1 0.3 -0.2
v -0.2 0.7 0.3
v 0 0.7 0.3
v -0.1 0.7 0.2
v 0 0.7 0.2
v -0.2 0.7 0.1
v -0.1 0.7 0.1
v -0.1 1 -0.1
v 0 1 -0.1
v -0.1 1 -0.2
v 0 1 -0.2
v -0.2 0.1 0.2
v -0.1 0.1 0.2
v 0 0.1 0.2
v 0.1 0.1 0.2
v -0.2 0.1 -0.1
v -0.1 0.1 -0.1
v 0 0.1 -0.1
v 0.1 0.1 -0.1
v 0 0.6 0
v 0.1 0.6 0
v -0.1 0.6 -0.1
v 0 0.6 -0.1
v -0.1 0.6 -0.2
v 0.1 0.6 -0.2
v -0.2 1 0.3
v 0 1 0.3
v -0.1 1 0.2
v 0 1 0.2
v -0.2 1 0.1
v -0.1 1 0.1
v -0.1 1.2 -0.1
v 0 1.2 -0.1
v -0.1 1.2 -0.2
v 0 1.2 -0.2
v -0.1 1.4 0.2
v 0 1.4 0.2
v -0.1 1.4 0.1
v 0 1.4 0.1
v -0.1 1.4 0
v 0 1.4 0
v -0.1 1.4 -0.1
v 0 1.4 -0.1
v -0.1 1.5 0.1
v 0 1.5 0.1
v -0.1 1.5 0
v 0 1.5 0

# faces
f 3/4/1 2/4/1 1/4/1
f 4/4/1 2/4/1 3/4/1
f 7/2/1 6/2/1 5/2/1
f 8/2/1 6/2/1 7/2/1
f 9/1/1 8/1/1 7/1/1
f 10/1/1 8/1/1 9/1/1
f 13/1/1 12/1/1 11/1/1
f 14/1/1 12/1/1 13/1/1
f 15/4/1 14/4/1 13/4/1
f 16/4/1 14/4/1 15/4/1
f 17/5/1 16/5/1 15/5/1
f 18/5/1 16/5/1 17/5/1
f 21/5/1 20/5/1 19/5/1
f 22/5/1 20/5/1 21/5/1
f 24/4/1 22/4/1 21/4/1
f 25/2/1 23/2/1 22/2/1
f 25/4/1 22/4/1 24/4/1
f 26/2/1 25/2/1 24/2/1
f 27/2/1 25/2/1 26/2/1
f 28/2/1 23/2/1 25/2/1
f 28/2/1 25/2/1 27/2/1
f 29/2/1 23/2/1 28/2/1
f 30/2/1 28/2/1 27/2/1
f 30/1/1 29/1/1 28/1/1
f 31/1/1 29/1/1 30/1/1
f 32/1/1 27/1/1 26/1/1
f 33/2/1 30/2/1 27/2/1
f 33/1/1 27/1/1 32/1/1
f 34/2/1 30/2/1 33/2/1
f 35/2/1 30/2/1 34/2/1
f 36/1/1 35/1/1 34/1/1
f 37/1/1 35/1/1 36/1/1
f 39/1/1 36/1/1 34/1/1
f 40/3/1 37/3/1 36/3/1
f 42/3/1 40/3/1 36/3/1
f 42/1/1 41/1/1 40/1/1
f 43/1/1 41/1/1 42/1/1
f 44/1/1 39/1/1 38/1/1
f 45/1/1 36/1/1 39/1/1
f 45/1/1 39/1/1 44/1/1
f 45/3/1 42/3/1 36/3/1
f 45/3/1 43/3/1 42/3/1
f 46/3/1 43/3/1 45/3/1
f 47/3/1 43/3/1 46/3/1
f 48/3/1 45/3/1 44/3/1
f 48/3/1 46/3/1 45/3/1
f 49/3/1 46/3/1 48/3/1
f 50/3/1 46/3/1 49/3/1
f 51/3/1 46/3/1 50/3/1
f 52/3/1 50/3/1 49/3/1
f 53/3/1 50/3/1 52/3/1
f 54/1/2 55/1/2 56/1/2
f 56/1/2 55/1/2 57/1/2
f 56/4/2 57/4/2 58/4/2
f 58/4/2 57/4/2 59/4/2
f 58/5/2 59/5/2 60/5/2
f 60/5/2 59/5/2 61/5/2
f 62/5/2 63/5/2 64/5/2
f 64/5/2 63/5/2 65/5/2
f 65/5/2 63/5/2 66/5/2
f 64/4/2 65/4/2 67/4/2
f 67/4/2 65/4/2 68/4/2
f 67/2/2 68/2/2 69/2/2
f 69/2/2 68/2/2 70/2/2
f 70/2/2 68/2/2 71/2/2
f 70/2/2 71/2/2 72/2/2
f 69/1/2 70/1/2 75/1/2
f 74/2/2 75/2/2 76/2/2
f 75/1/2 70/1/2 77/1/2
f 76/2/2 75/2/2 77/2/2
f 70/2/2 72/2/2 78/2/2
f 77/1/2 70/1/2 78/1/2
f 72/2/2 73/2/2 78/2/2
f 78/2/2 73/2/2 79/2/2
f 76/1/2 77/1/2 80/1/2
f 77/1/2 78/1/2 80/1/2
f 78/1/2 79/1/2 80/1/2
f 80/1/2 79/1/2 81/1/2
f 76/1/2 80/1/2 82/1/2
f 82/1/2 80/1/2 83/1/2
f 80/3/2 81/3/2 84/3/2
f 80/3/2 84/3/2 86/3/2
f 84/1/2 85/1/2 86/1/2
f 86/1/2 85/1/2 87/1/2
f 83/1/2 80/1/2 88/1/2
f 80/3/2 86/3/2 89/3/2
f 88/1/2 80/1/2 89/1/2
f 86/3/2 87/3/2 89/3/2
f 89/3/2 87/3/2 90/3/2
f 90/3/2 87/3/2 91/3/2
f 88/3/2 89/3/2 92/3/2
f 89/3/2 90/3/2 92/3/2
f 92/3/2 90/3/2 93/3/2
f 93/3/2 90/3/2 94/3/2
f 94/3/2 90/3/2 95/3/2
f 93/3/2 94/3/2 96/3/2
f 96/3/2 94/3/2 97/3/2
f 98/4/2 99/4/2 100/4/2
f 100/4/2 99/4/2 101/4/2
f 102/2/2 103/2/2 104/2/2
f 104/2/2 103/2/2 105/2/2
f 104/1/2 105/1/2 106/1/2
f 106/1/2 105/1/2 107/1/2
f 111/2/3 109/2/3 108/2/3
f 112/1/3 110/1/3 109/1/3
f 112/2/3 109/2/3 111/2/3
f 113/1/3 110/1/3 112/1/3
f 116/4/3 115/4/3 114/4/3
f 124/4/3 116/4/3 114/4/3
f 124/5/3 117/5/3 116/5/3
f 125/4/3 118/4/3 117/4/3
f 125/5/3 117/5/3 124/5/3
f 126/2/3 119/2/3 118/2/3
f 126/4/3 118/4/3 125/4/3
f 127/1/3 120/1/3 119/1/3
f 127/2/3 119/2/3 126/2/3
f 128/1/3 120/1/3 127/1/3
f 129/1/3 122/1/3 121/1/3
f 130/3/3 123/3/3 122/3/3
f 130/1/3 122/1/3 129/1/3
f 131/3/3 123/3/3 130/3/3
f 132/4/3 124/4/3 114/4/3
f 133/4/3 124/4/3 132/4/3
f 140/1/3 135/1/3 134/1/3
f 141/4/3 136/4/3 135/4/3
f 141/1/3 135/1/3 140/1/3
f 142/5/3 137/5/3 136/5/3
f 142/4/3 136/4/3 141/4/3
f 143/5/3 137/5/3 142/5/3
f 144/3/3 139/3/3 138/3/3
f 145/3/3 139/3/3 144/3/3
f 150/2/3 147/2/3 146/2/3
f 150/2/3 148/2/3 147/2/3
f 151/1/3 149/1/3 148/1/3
f 151/2/3 148/2/3 150/2/3
f 152/1/3 149/1/3 151/1/3
f 153/2/4 154/2/4 156/2/4
f 154/1/4 155/1/4 157/1/4
f 156/2/4 154/2/4 157/2/4
f 157/1/4 155/1/4 158/1/4
f 159/1/4 160/1/4 165/1/4
f 160/4/4 161/4/4 166/4/4
f 165/1/4 160/1/4 166/1/4
f 161/5/4 162/5/4 167/5/4
f 166/4/4 161/4/4 167/4/4
f 167/5/4 162/5/4 168/5/4
f 163/3/4 164/3/4 169/3/4
f 169/3/4 164/3/4 170/3/4
f 171/4/4 172/4/4 173/4/4
f 171/4/4 173/4/4 181/4/4
f 173/5/4 174/5/4 181/5/4
f 181/5/4 174/5/4 182/5/4
f 175/2/4 176/2/4 183/2/4
f 176/1/4 177/1/4 184/1/4
f 183/2/4 176/2/4 184/2/4
f 177/3/4 178/3/4 185/3/4
f 184/1/4 177/1/4 185/1/4
f 185/3/4 178/3/4 186/3/4
f 179/3/4 180/3/4 187/3/4
f 187/3/4 180/3/4 188/3/4
f 171/4/4 181/4/4 189/4/4
f 189/4/4 181/4/4 190/4/4
f 194/1/4 195/1/4 197/1/4
f 195/3/4 196/3/4 198/3/4
f 197/1/4 195/1/4 198/1/4
f 198/3/4 196/3/4 199/3/4
f 191/2/4 192/2/4 200/2/4
f 192/1/4 193/1/4 201/1/4
f 200/2/4 192/2/4 201/2/4
f 201/1/4 193/1/4 202/1/4
f 205/1/5 204/1/5 203/1/5
f 206/1/5 204/1/5 205/1/5
f 209/4/5 208/4/5 207/4/5
f 210/4/5 208/4/5 209/4/5
f 211/4/5 209/4/5 207/4/5
f 212/4/5 208/4/5 210/4/5
f 213/4/5 211/4/5 207/4/5
f 213/4/5 212/4/5 211/4/5
f 214/4/5 208/4/5 212/4/5
f 214/4/5 212/4/5 213/4/5
f 218/2/5 216/2/5 215/2/5
f 219/2/5 218/2/5 217/2/5
f 220/2/5 216/2/5 218/2/5
f 220/2/5 218/2/5 219/2/5
f 223/2/5 222/2/5 221/2/5
f 224/2/5 222/2/5 223/2/5
f 225/2/5 223/2/5 221/2/5
f 226/2/5 223/2/5 225/2/5
f 229/1/5 228/1/5 227/1/5
f 230/1/5 228/1/5 229/1/5
f 231/4/6 232/4/6 235/4/6
f 235/4/6 232/4/6 236/4/6
f 233/4/6 234/4/6 237/4/6
f 237/4/6 234/4/6 238/4/6
f 239/1/6 240/1/6 242/1/6
f 241/1/6 242/1/6 243/1/6
f 242/1/6 240/1/6 244/1/6
f 243/1/6 242/1/6 244/1/6
f 245/1/6 246/1/6 247/1/6
f 247/1/6 246/1/6 248/1/6
f 245/1/6 247/1/6 249/1/6
f 249/1/6 247/1/6 250/1/6
f 251/3/6 252/3/6 253/3/6
f 253/3/6 252/3/6 254/3/6
f 255/3/6 256/3/6 257/3/6
f 257/3/6 256/3/6 258/3/6
f 259/3/6 260/3/6 261/3/6
f 261/3/6 260/3/6 262/3/6
f 263/3/6 264/3/6 265/3/6
f 265/3/6 264/3/6 266/3/6
